%TF.GenerationSoftware,KiCad,Pcbnew,5.1.5+dfsg1-2build2*%
%TF.CreationDate,2021-06-07T13:35:25+02:00*%
%TF.ProjectId,Drum_H_v2,4472756d-5f48-45f7-9632-2e6b69636164,rev?*%
%TF.SameCoordinates,Original*%
%TF.FileFunction,Legend,Bot*%
%TF.FilePolarity,Positive*%
%FSLAX46Y46*%
G04 Gerber Fmt 4.6, Leading zero omitted, Abs format (unit mm)*
G04 Created by KiCad (PCBNEW 5.1.5+dfsg1-2build2) date 2021-06-07 13:35:25*
%MOMM*%
%LPD*%
G04 APERTURE LIST*
%ADD10C,0.150000*%
%ADD11C,0.100000*%
G04 APERTURE END LIST*
D10*
X179108743Y-108645909D02*
X180015051Y-108223291D01*
X179854054Y-107878031D01*
X179770647Y-107811841D01*
X179707365Y-107788808D01*
X179600925Y-107785900D01*
X179471453Y-107846274D01*
X179405262Y-107929681D01*
X179382229Y-107992963D01*
X179379321Y-108099402D01*
X179540319Y-108444663D01*
X178625751Y-107610129D02*
X178709158Y-107676319D01*
X178815598Y-107679228D01*
X179592433Y-107316983D01*
X178404380Y-107135396D02*
X178487787Y-107201587D01*
X178551069Y-107224620D01*
X178657508Y-107227528D01*
X178916454Y-107106780D01*
X178982644Y-107023373D01*
X179005677Y-106960091D01*
X179008585Y-106853651D01*
X178948211Y-106724178D01*
X178864804Y-106657988D01*
X178801522Y-106634955D01*
X178695082Y-106632047D01*
X178436137Y-106752795D01*
X178369947Y-106836202D01*
X178346914Y-106899484D01*
X178344006Y-107005924D01*
X178404380Y-107135396D01*
X178686590Y-106163131D02*
X177780282Y-106585749D01*
X178643433Y-106183255D02*
X178646341Y-106076816D01*
X178565842Y-105904186D01*
X178482435Y-105837995D01*
X178419153Y-105814962D01*
X178312713Y-105812054D01*
X178053768Y-105932802D01*
X177987578Y-106016209D01*
X177964545Y-106079491D01*
X177961637Y-106185931D01*
X178042136Y-106358561D01*
X178125542Y-106424751D01*
X246470909Y-90616256D02*
X246048291Y-89709948D01*
X245703031Y-89870945D01*
X245636841Y-89954352D01*
X245613808Y-90017634D01*
X245610900Y-90124074D01*
X245671274Y-90253546D01*
X245754681Y-90319737D01*
X245817963Y-90342770D01*
X245924402Y-90345678D01*
X246269663Y-90184680D01*
X245435129Y-91099248D02*
X245501319Y-91015841D01*
X245504228Y-90909401D01*
X245141983Y-90132566D01*
X244960396Y-91320619D02*
X245026587Y-91237212D01*
X245049620Y-91173930D01*
X245052528Y-91067491D01*
X244931780Y-90808545D01*
X244848373Y-90742355D01*
X244785091Y-90719322D01*
X244678651Y-90716414D01*
X244549178Y-90776788D01*
X244482988Y-90860195D01*
X244459955Y-90923477D01*
X244457047Y-91029917D01*
X244577795Y-91288862D01*
X244661202Y-91355052D01*
X244724484Y-91378085D01*
X244830924Y-91380993D01*
X244960396Y-91320619D01*
X243988131Y-91038409D02*
X244410749Y-91944717D01*
X244008255Y-91081566D02*
X243901816Y-91078658D01*
X243729186Y-91159157D01*
X243662995Y-91242564D01*
X243639962Y-91305846D01*
X243637054Y-91412286D01*
X243757802Y-91671231D01*
X243841209Y-91737421D01*
X243904491Y-91760454D01*
X244010931Y-91763362D01*
X244183561Y-91682863D01*
X244249751Y-91599457D01*
X203470909Y-65866256D02*
X203048291Y-64959948D01*
X202703031Y-65120945D01*
X202636841Y-65204352D01*
X202613808Y-65267634D01*
X202610900Y-65374074D01*
X202671274Y-65503546D01*
X202754681Y-65569737D01*
X202817963Y-65592770D01*
X202924402Y-65595678D01*
X203269663Y-65434680D01*
X202435129Y-66349248D02*
X202501319Y-66265841D01*
X202504228Y-66159401D01*
X202141983Y-65382566D01*
X201960396Y-66570619D02*
X202026587Y-66487212D01*
X202049620Y-66423930D01*
X202052528Y-66317491D01*
X201931780Y-66058545D01*
X201848373Y-65992355D01*
X201785091Y-65969322D01*
X201678651Y-65966414D01*
X201549178Y-66026788D01*
X201482988Y-66110195D01*
X201459955Y-66173477D01*
X201457047Y-66279917D01*
X201577795Y-66538862D01*
X201661202Y-66605052D01*
X201724484Y-66628085D01*
X201830924Y-66630993D01*
X201960396Y-66570619D01*
X200988131Y-66288409D02*
X201410749Y-67194717D01*
X201008255Y-66331566D02*
X200901816Y-66328658D01*
X200729186Y-66409157D01*
X200662995Y-66492564D01*
X200639962Y-66555846D01*
X200637054Y-66662286D01*
X200757802Y-66921231D01*
X200841209Y-66987421D01*
X200904491Y-67010454D01*
X201010931Y-67013362D01*
X201183561Y-66932863D01*
X201249751Y-66849457D01*
X177383743Y-64470909D02*
X178290051Y-64048291D01*
X178129054Y-63703031D01*
X178045647Y-63636841D01*
X177982365Y-63613808D01*
X177875925Y-63610900D01*
X177746453Y-63671274D01*
X177680262Y-63754681D01*
X177657229Y-63817963D01*
X177654321Y-63924402D01*
X177815319Y-64269663D01*
X176900751Y-63435129D02*
X176984158Y-63501319D01*
X177090598Y-63504228D01*
X177867433Y-63141983D01*
X176679380Y-62960396D02*
X176762787Y-63026587D01*
X176826069Y-63049620D01*
X176932508Y-63052528D01*
X177191454Y-62931780D01*
X177257644Y-62848373D01*
X177280677Y-62785091D01*
X177283585Y-62678651D01*
X177223211Y-62549178D01*
X177139804Y-62482988D01*
X177076522Y-62459955D01*
X176970082Y-62457047D01*
X176711137Y-62577795D01*
X176644947Y-62661202D01*
X176621914Y-62724484D01*
X176619006Y-62830924D01*
X176679380Y-62960396D01*
X176961590Y-61988131D02*
X176055282Y-62410749D01*
X176918433Y-62008255D02*
X176921341Y-61901816D01*
X176840842Y-61729186D01*
X176757435Y-61662995D01*
X176694153Y-61639962D01*
X176587713Y-61637054D01*
X176328768Y-61757802D01*
X176262578Y-61841209D01*
X176239545Y-61904491D01*
X176236637Y-62010931D01*
X176317136Y-62183561D01*
X176400542Y-62249751D01*
X175116256Y-86779090D02*
X174209948Y-87201708D01*
X174370945Y-87546968D01*
X174454352Y-87613158D01*
X174517634Y-87636191D01*
X174624074Y-87639099D01*
X174753546Y-87578725D01*
X174819737Y-87495318D01*
X174842770Y-87432036D01*
X174845678Y-87325597D01*
X174684680Y-86980336D01*
X175599248Y-87814870D02*
X175515841Y-87748680D01*
X175409401Y-87745771D01*
X174632566Y-88108016D01*
X175820619Y-88289603D02*
X175737212Y-88223412D01*
X175673930Y-88200379D01*
X175567491Y-88197471D01*
X175308545Y-88318219D01*
X175242355Y-88401626D01*
X175219322Y-88464908D01*
X175216414Y-88571348D01*
X175276788Y-88700821D01*
X175360195Y-88767011D01*
X175423477Y-88790044D01*
X175529917Y-88792952D01*
X175788862Y-88672204D01*
X175855052Y-88588797D01*
X175878085Y-88525515D01*
X175880993Y-88419075D01*
X175820619Y-88289603D01*
X175538409Y-89261868D02*
X176444717Y-88839250D01*
X175581566Y-89241744D02*
X175578658Y-89348183D01*
X175659157Y-89520813D01*
X175742564Y-89587004D01*
X175805846Y-89610037D01*
X175912286Y-89612945D01*
X176171231Y-89492197D01*
X176237421Y-89408790D01*
X176260454Y-89345508D01*
X176263362Y-89239068D01*
X176182863Y-89066438D01*
X176099457Y-89000248D01*
X168279090Y-126133743D02*
X168701708Y-127040051D01*
X169046968Y-126879054D01*
X169113158Y-126795647D01*
X169136191Y-126732365D01*
X169139099Y-126625925D01*
X169078725Y-126496453D01*
X168995318Y-126430262D01*
X168932036Y-126407229D01*
X168825597Y-126404321D01*
X168480336Y-126565319D01*
X169314870Y-125650751D02*
X169248680Y-125734158D01*
X169245771Y-125840598D01*
X169608016Y-126617433D01*
X169789603Y-125429380D02*
X169723412Y-125512787D01*
X169700379Y-125576069D01*
X169697471Y-125682508D01*
X169818219Y-125941454D01*
X169901626Y-126007644D01*
X169964908Y-126030677D01*
X170071348Y-126033585D01*
X170200821Y-125973211D01*
X170267011Y-125889804D01*
X170290044Y-125826522D01*
X170292952Y-125720082D01*
X170172204Y-125461137D01*
X170088797Y-125394947D01*
X170025515Y-125371914D01*
X169919075Y-125369006D01*
X169789603Y-125429380D01*
X170761868Y-125711590D02*
X170339250Y-124805282D01*
X170741744Y-125668433D02*
X170848183Y-125671341D01*
X171020813Y-125590842D01*
X171087004Y-125507435D01*
X171110037Y-125444153D01*
X171112945Y-125337713D01*
X170992197Y-125078768D01*
X170908790Y-125012578D01*
X170845508Y-124989545D01*
X170739068Y-124986637D01*
X170566438Y-125067136D01*
X170500248Y-125150542D01*
X153883743Y-113720909D02*
X154790051Y-113298291D01*
X154629054Y-112953031D01*
X154545647Y-112886841D01*
X154482365Y-112863808D01*
X154375925Y-112860900D01*
X154246453Y-112921274D01*
X154180262Y-113004681D01*
X154157229Y-113067963D01*
X154154321Y-113174402D01*
X154315319Y-113519663D01*
X153400751Y-112685129D02*
X153484158Y-112751319D01*
X153590598Y-112754228D01*
X154367433Y-112391983D01*
X153179380Y-112210396D02*
X153262787Y-112276587D01*
X153326069Y-112299620D01*
X153432508Y-112302528D01*
X153691454Y-112181780D01*
X153757644Y-112098373D01*
X153780677Y-112035091D01*
X153783585Y-111928651D01*
X153723211Y-111799178D01*
X153639804Y-111732988D01*
X153576522Y-111709955D01*
X153470082Y-111707047D01*
X153211137Y-111827795D01*
X153144947Y-111911202D01*
X153121914Y-111974484D01*
X153119006Y-112080924D01*
X153179380Y-112210396D01*
X153461590Y-111238131D02*
X152555282Y-111660749D01*
X153418433Y-111258255D02*
X153421341Y-111151816D01*
X153340842Y-110979186D01*
X153257435Y-110912995D01*
X153194153Y-110889962D01*
X153087713Y-110887054D01*
X152828768Y-111007802D01*
X152762578Y-111091209D01*
X152739545Y-111154491D01*
X152736637Y-111260931D01*
X152817136Y-111433561D01*
X152900542Y-111499751D01*
X157970909Y-107616256D02*
X157548291Y-106709948D01*
X157203031Y-106870945D01*
X157136841Y-106954352D01*
X157113808Y-107017634D01*
X157110900Y-107124074D01*
X157171274Y-107253546D01*
X157254681Y-107319737D01*
X157317963Y-107342770D01*
X157424402Y-107345678D01*
X157769663Y-107184680D01*
X156935129Y-108099248D02*
X157001319Y-108015841D01*
X157004228Y-107909401D01*
X156641983Y-107132566D01*
X156460396Y-108320619D02*
X156526587Y-108237212D01*
X156549620Y-108173930D01*
X156552528Y-108067491D01*
X156431780Y-107808545D01*
X156348373Y-107742355D01*
X156285091Y-107719322D01*
X156178651Y-107716414D01*
X156049178Y-107776788D01*
X155982988Y-107860195D01*
X155959955Y-107923477D01*
X155957047Y-108029917D01*
X156077795Y-108288862D01*
X156161202Y-108355052D01*
X156224484Y-108378085D01*
X156330924Y-108380993D01*
X156460396Y-108320619D01*
X155488131Y-108038409D02*
X155910749Y-108944717D01*
X155508255Y-108081566D02*
X155401816Y-108078658D01*
X155229186Y-108159157D01*
X155162995Y-108242564D01*
X155139962Y-108305846D01*
X155137054Y-108412286D01*
X155257802Y-108671231D01*
X155341209Y-108737421D01*
X155404491Y-108760454D01*
X155510931Y-108763362D01*
X155683561Y-108682863D01*
X155749751Y-108599457D01*
X153633743Y-108220909D02*
X154540051Y-107798291D01*
X154379054Y-107453031D01*
X154295647Y-107386841D01*
X154232365Y-107363808D01*
X154125925Y-107360900D01*
X153996453Y-107421274D01*
X153930262Y-107504681D01*
X153907229Y-107567963D01*
X153904321Y-107674402D01*
X154065319Y-108019663D01*
X153150751Y-107185129D02*
X153234158Y-107251319D01*
X153340598Y-107254228D01*
X154117433Y-106891983D01*
X152929380Y-106710396D02*
X153012787Y-106776587D01*
X153076069Y-106799620D01*
X153182508Y-106802528D01*
X153441454Y-106681780D01*
X153507644Y-106598373D01*
X153530677Y-106535091D01*
X153533585Y-106428651D01*
X153473211Y-106299178D01*
X153389804Y-106232988D01*
X153326522Y-106209955D01*
X153220082Y-106207047D01*
X152961137Y-106327795D01*
X152894947Y-106411202D01*
X152871914Y-106474484D01*
X152869006Y-106580924D01*
X152929380Y-106710396D01*
X153211590Y-105738131D02*
X152305282Y-106160749D01*
X153168433Y-105758255D02*
X153171341Y-105651816D01*
X153090842Y-105479186D01*
X153007435Y-105412995D01*
X152944153Y-105389962D01*
X152837713Y-105387054D01*
X152578768Y-105507802D01*
X152512578Y-105591209D01*
X152489545Y-105654491D01*
X152486637Y-105760931D01*
X152567136Y-105933561D01*
X152650542Y-105999751D01*
X234723768Y-61953960D02*
G75*
G02X231750001Y-64249999I-2723768J453960D01*
G01*
X233983940Y-59649091D02*
G75*
G02X236499999Y-62750001I-3733940J-5600909D01*
G01*
X230250000Y-65250001D02*
G75*
G02X230250000Y-60250001I6000000J2500001D01*
G01*
X204750000Y-138250000D02*
X204000000Y-136750000D01*
X202500000Y-138000000D02*
X204750000Y-138250000D01*
X203500000Y-137250000D02*
X202500000Y-138000000D01*
X204250000Y-139000000D02*
X203500000Y-137250000D01*
X202250000Y-138000000D02*
X204250000Y-139000000D01*
X201500000Y-139250000D02*
X202250000Y-138000000D01*
X202750000Y-138500000D02*
X201500000Y-139250000D01*
X201250000Y-137750000D02*
X202750000Y-138500000D01*
X200750000Y-139250000D02*
X201250000Y-137750000D01*
X200500000Y-138500000D02*
X200750000Y-139250000D01*
X199750000Y-139500000D02*
X200500000Y-138500000D01*
X199750000Y-137250000D02*
X199750000Y-139500000D01*
X198500000Y-139250000D02*
X199750000Y-137250000D01*
X198500000Y-138250000D02*
X198500000Y-139250000D01*
X198000000Y-139250000D02*
X198500000Y-138250000D01*
X198000000Y-137500000D02*
X198000000Y-139250000D01*
X196500000Y-139000000D02*
X198000000Y-137500000D01*
X196750000Y-137500000D02*
X196500000Y-139000000D01*
X203750000Y-130000000D02*
X205250000Y-129000000D01*
X203750000Y-128000000D02*
X203750000Y-130000000D01*
X202500000Y-130000000D02*
X203750000Y-128000000D01*
X201750000Y-127750000D02*
X202500000Y-130000000D01*
X200750000Y-129250000D02*
X201750000Y-127750000D01*
X200250000Y-128250000D02*
X200750000Y-129250000D01*
X199750000Y-129250000D02*
X200250000Y-128250000D01*
X199500000Y-127750000D02*
X199750000Y-129250000D01*
X199250000Y-130000000D02*
X199500000Y-127750000D01*
X198500000Y-127500000D02*
X199250000Y-130000000D01*
X198500000Y-129750000D02*
X198500000Y-127500000D01*
X200500000Y-133750000D02*
X203000000Y-136250000D01*
X200500000Y-133750000D02*
X198000000Y-136500000D01*
X200500000Y-133750000D02*
X203250000Y-131500000D01*
X200500000Y-133750000D02*
X198000000Y-131250000D01*
X200500000Y-133750000D02*
X196920545Y-133750000D01*
X200500000Y-133750000D02*
X204079455Y-133750000D01*
X200500000Y-133750000D02*
X200500000Y-137329455D01*
X200500000Y-133750000D02*
X200500000Y-130170545D01*
X204079455Y-133750000D02*
G75*
G03X204079455Y-133750000I-3579455J0D01*
G01*
X201000000Y-133750000D02*
G75*
G03X201000000Y-133750000I-500000J0D01*
G01*
X201530776Y-133750000D02*
G75*
G03X201530776Y-133750000I-1030776J0D01*
G01*
X202267767Y-133750000D02*
G75*
G03X202267767Y-133750000I-1767767J0D01*
G01*
X203000000Y-133750000D02*
G75*
G03X203000000Y-133750000I-2500000J0D01*
G01*
X203750000Y-133750000D02*
G75*
G03X203750000Y-133750000I-3250000J0D01*
G01*
X190000000Y-137250000D02*
G75*
G03X190000000Y-137250000I-1000000J0D01*
G01*
X181664214Y-131750000D02*
G75*
G03X181664214Y-131750000I-1414214J0D01*
G01*
X179600439Y-126750000D02*
G75*
G03X179600439Y-126750000I-2850439J0D01*
G01*
X179017767Y-53750000D02*
G75*
G03X179017767Y-53750000I-1767767J0D01*
G01*
X173457107Y-56250000D02*
G75*
G03X173457107Y-56250000I-707107J0D01*
G01*
X172052776Y-59250000D02*
G75*
G03X172052776Y-59250000I-1802776J0D01*
G01*
X168871708Y-64500000D02*
G75*
G03X168871708Y-64500000I-2371708J0D01*
G01*
X190262469Y-52000000D02*
G75*
G03X190262469Y-52000000I-2512469J0D01*
G01*
X191250000Y-50000000D02*
G75*
G03X191250000Y-50000000I-3500000J0D01*
G01*
X191250000Y-45000000D02*
G75*
G03X191250000Y-45000000I-3500000J0D01*
G01*
X191250000Y-46500000D02*
G75*
G03X191250000Y-46500000I-3500000J0D01*
G01*
X191250000Y-48500000D02*
G75*
G03X191250000Y-48500000I-3500000J0D01*
G01*
X227415476Y-121000000D02*
G75*
G03X227415476Y-121000000I-2915476J0D01*
G01*
X249750000Y-116750000D02*
G75*
G03X249750000Y-116750000I-2750000J0D01*
G01*
X245000000Y-116500000D02*
G75*
G03X245000000Y-116500000I-3750000J0D01*
G01*
X241151388Y-107250000D02*
G75*
G03X241151388Y-107250000I-901388J0D01*
G01*
X239350781Y-109750000D02*
G75*
G03X239350781Y-109750000I-1600781J0D01*
G01*
X239309017Y-104000000D02*
G75*
G03X239309017Y-104000000I-559017J0D01*
G01*
X243040569Y-103250000D02*
G75*
G03X243040569Y-103250000I-790569J0D01*
G01*
X238530776Y-100000000D02*
G75*
G03X238530776Y-100000000I-1030776J0D01*
G01*
X227750000Y-107750000D02*
G75*
G03X227750000Y-107750000I-1750000J0D01*
G01*
X228040569Y-108000000D02*
G75*
G03X228040569Y-108000000I-790569J0D01*
G01*
X225540569Y-108000000D02*
G75*
G03X225540569Y-108000000I-790569J0D01*
G01*
X228809017Y-109250000D02*
G75*
G03X228809017Y-109250000I-559017J0D01*
G01*
X224309017Y-109250000D02*
G75*
G03X224309017Y-109250000I-559017J0D01*
G01*
X226250000Y-111750000D02*
G75*
G03X226250000Y-111750000I-250000J0D01*
G01*
X226767766Y-111250000D02*
G75*
G03X226767766Y-111250000I-767766J0D01*
G01*
X227767767Y-110250000D02*
G75*
G03X227767767Y-110250000I-1767767J0D01*
G01*
X229000000Y-109000000D02*
G75*
G03X229000000Y-109000000I-3000000J0D01*
G01*
X221750000Y-118000000D02*
X217250000Y-123750000D01*
X226000000Y-123750000D02*
X221750000Y-118000000D01*
X225250000Y-119000000D02*
X226000000Y-123750000D01*
X239750000Y-119750000D02*
X225250000Y-119000000D01*
X247500000Y-118000000D02*
X239750000Y-119750000D01*
X238250000Y-117250000D02*
X247500000Y-118000000D01*
X248250000Y-115250000D02*
X238250000Y-117250000D01*
X236500000Y-113250000D02*
X248250000Y-115250000D01*
X242250000Y-111000000D02*
X236500000Y-113250000D01*
X237750000Y-109750000D02*
X242250000Y-111000000D01*
X242750000Y-107250000D02*
X237750000Y-109750000D01*
X237500000Y-105500000D02*
X242750000Y-107250000D01*
X242500000Y-103250000D02*
X237500000Y-105500000D01*
X237250000Y-102750000D02*
X242500000Y-103250000D01*
X242750000Y-100000000D02*
X237250000Y-102750000D01*
X237500000Y-100000000D02*
X242750000Y-100000000D01*
X242500000Y-97500000D02*
X237500000Y-100000000D01*
X243503419Y-64680704D02*
G75*
G02X249499999Y-65250001I2496581J-5569296D01*
G01*
X247000000Y-73500000D02*
X247750000Y-75000000D01*
X244500000Y-72750000D02*
X243750000Y-75500000D01*
X247750000Y-71750000D02*
X248750000Y-73250000D01*
X246000000Y-75000000D02*
X246000000Y-78500000D01*
X243750000Y-71500000D02*
X242250000Y-73000000D01*
X242750000Y-70000000D02*
X242000000Y-70500000D01*
X246750000Y-70250000D02*
G75*
G03X246750000Y-70250000I-750000J0D01*
G01*
X246000000Y-73250000D02*
X242000000Y-66250000D01*
X249500000Y-66250000D02*
X246000000Y-73250000D01*
X242000000Y-66250000D02*
X249500000Y-66250000D01*
X208241337Y-60268936D02*
X224000000Y-62000000D01*
X222999999Y-54500001D02*
X213250001Y-59500001D01*
X223250000Y-65000000D02*
X214045461Y-62528414D01*
X214045461Y-62528414D02*
G75*
G02X218249999Y-64249999I1954539J-1221586D01*
G01*
X217659615Y-53590386D02*
G75*
G02X213999999Y-66999999I-5659615J-5659614D01*
G01*
X212375483Y-60181757D02*
G75*
G02X213250001Y-59500001I3874517J-4068243D01*
G01*
X217664371Y-53472453D02*
G75*
G02X222999999Y-54500001I835629J-10027547D01*
G01*
X207881380Y-59594388D02*
G75*
G02X223999999Y-62000001I7618620J-4155612D01*
G01*
X208241337Y-60268936D02*
G75*
G02X223250000Y-65000000I6758663J-4731064D01*
G01*
X186000000Y-98250000D02*
X185500000Y-97250000D01*
X192250000Y-100000000D02*
X192750000Y-99750000D01*
X192750000Y-101500000D02*
X194750000Y-100750000D01*
X190500000Y-99000000D02*
X191750000Y-97750000D01*
X187250000Y-98250000D02*
X187250000Y-95750000D01*
D11*
G36*
X189500000Y-101250000D02*
G01*
X189500000Y-101750000D01*
X189250000Y-102000000D01*
X188750000Y-102250000D01*
X188250000Y-102000000D01*
X188000000Y-101500000D01*
X188250000Y-101750000D01*
X188750000Y-101750000D01*
X189000000Y-101500000D01*
X189000000Y-101000000D01*
X188750000Y-100750000D01*
X189000000Y-100750000D01*
X189500000Y-101250000D01*
G37*
X189500000Y-101250000D02*
X189500000Y-101750000D01*
X189250000Y-102000000D01*
X188750000Y-102250000D01*
X188250000Y-102000000D01*
X188000000Y-101500000D01*
X188250000Y-101750000D01*
X188750000Y-101750000D01*
X189000000Y-101500000D01*
X189000000Y-101000000D01*
X188750000Y-100750000D01*
X189000000Y-100750000D01*
X189500000Y-101250000D01*
D10*
X188500001Y-100750002D02*
G75*
G02X188000002Y-101250000I-1J-499998D01*
G01*
X188500000Y-100750002D02*
G75*
G02X188000001Y-101250001I250000J-749998D01*
G01*
X191454163Y-101500000D02*
G75*
G03X191454163Y-101500000I-2704163J0D01*
G01*
X193043137Y-104224231D02*
X192999999Y-103500001D01*
X193043137Y-104224231D02*
G75*
G02X184290010Y-99506009I-2293137J6224231D01*
G01*
X184290009Y-99506011D02*
G75*
G02X192999999Y-103500001I3209991J-4493989D01*
G01*
X205250000Y-107250000D02*
X201000000Y-105750000D01*
X207000000Y-101500000D02*
X201000000Y-105000000D01*
X211000000Y-112750000D02*
X215000000Y-110250000D01*
X207000000Y-111500000D02*
X206750000Y-111000000D01*
X203500000Y-112750000D02*
X205000000Y-113250000D01*
X200750000Y-106500000D02*
X201500000Y-108500000D01*
X205250000Y-107250000D02*
X212000000Y-103250000D01*
X212250000Y-103250000D02*
X207000000Y-101500000D01*
X215000000Y-110250000D02*
X212250000Y-103250000D01*
X214249998Y-98000000D02*
G75*
G02X209250001Y-97999999I-2499998J750000D01*
G01*
D11*
G36*
X213000000Y-96500000D02*
G01*
X212750000Y-96500000D01*
X212750000Y-95250000D01*
X213000000Y-95250000D01*
X213000000Y-96500000D01*
G37*
X213000000Y-96500000D02*
X212750000Y-96500000D01*
X212750000Y-95250000D01*
X213000000Y-95250000D01*
X213000000Y-96500000D01*
G36*
X210500000Y-96500000D02*
G01*
X210250000Y-96500000D01*
X210250000Y-95250000D01*
X210500000Y-95250000D01*
X210500000Y-96500000D01*
G37*
X210500000Y-96500000D02*
X210250000Y-96500000D01*
X210250000Y-95250000D01*
X210500000Y-95250000D01*
X210500000Y-96500000D01*
D10*
X215250000Y-97250000D02*
G75*
G03X215250000Y-97250000I-3500000J0D01*
G01*
X153808540Y-138968736D02*
X154231159Y-138062428D01*
X153885899Y-137901431D01*
X153779459Y-137904339D01*
X153716177Y-137927372D01*
X153632770Y-137993562D01*
X153572396Y-138123035D01*
X153575304Y-138229475D01*
X153598337Y-138292757D01*
X153664527Y-138376164D01*
X154009787Y-138537161D01*
X152772760Y-138485744D02*
X152879200Y-138482836D01*
X152962607Y-138416645D01*
X153324851Y-137639810D01*
X152298027Y-138264372D02*
X152404467Y-138261464D01*
X152467749Y-138238431D01*
X152551156Y-138172241D01*
X152671904Y-137913296D01*
X152668996Y-137806856D01*
X152645963Y-137743574D01*
X152579773Y-137660167D01*
X152450300Y-137599793D01*
X152343861Y-137602701D01*
X152280579Y-137625734D01*
X152197172Y-137691925D01*
X152076424Y-137950870D01*
X152079332Y-138057309D01*
X152102365Y-138120592D01*
X152168555Y-138203998D01*
X152298027Y-138264372D01*
X151889253Y-137338172D02*
X151466635Y-138244480D01*
X151869128Y-137381330D02*
X151802938Y-137297923D01*
X151630308Y-137217424D01*
X151523868Y-137220333D01*
X151460586Y-137243365D01*
X151377179Y-137309556D01*
X151256431Y-137568501D01*
X151259339Y-137674940D01*
X151282372Y-137738223D01*
X151348562Y-137821630D01*
X151521192Y-137902128D01*
X151627632Y-137899220D01*
X158000909Y-137126256D02*
X157578291Y-136219948D01*
X157233031Y-136380945D01*
X157166841Y-136464352D01*
X157143808Y-136527634D01*
X157140900Y-136634074D01*
X157201274Y-136763546D01*
X157284681Y-136829737D01*
X157347963Y-136852770D01*
X157454402Y-136855678D01*
X157799663Y-136694680D01*
X156965129Y-137609248D02*
X157031319Y-137525841D01*
X157034228Y-137419401D01*
X156671983Y-136642566D01*
X156490396Y-137830619D02*
X156556587Y-137747212D01*
X156579620Y-137683930D01*
X156582528Y-137577491D01*
X156461780Y-137318545D01*
X156378373Y-137252355D01*
X156315091Y-137229322D01*
X156208651Y-137226414D01*
X156079178Y-137286788D01*
X156012988Y-137370195D01*
X155989955Y-137433477D01*
X155987047Y-137539917D01*
X156107795Y-137798862D01*
X156191202Y-137865052D01*
X156254484Y-137888085D01*
X156360924Y-137890993D01*
X156490396Y-137830619D01*
X155518131Y-137548409D02*
X155940749Y-138454717D01*
X155538255Y-137591566D02*
X155431816Y-137588658D01*
X155259186Y-137669157D01*
X155192995Y-137752564D01*
X155169962Y-137815846D01*
X155167054Y-137922286D01*
X155287802Y-138181231D01*
X155371209Y-138247421D01*
X155434491Y-138270454D01*
X155540931Y-138273362D01*
X155713561Y-138192863D01*
X155779751Y-138109457D01*
X165148736Y-129231459D02*
X164242428Y-128808840D01*
X164081431Y-129154100D01*
X164084339Y-129260540D01*
X164107372Y-129323822D01*
X164173562Y-129407229D01*
X164303035Y-129467603D01*
X164409475Y-129464695D01*
X164472757Y-129441662D01*
X164556164Y-129375472D01*
X164717161Y-129030212D01*
X164665744Y-130267239D02*
X164662836Y-130160799D01*
X164596645Y-130077392D01*
X163819810Y-129715148D01*
X164444372Y-130741972D02*
X164441464Y-130635532D01*
X164418431Y-130572250D01*
X164352241Y-130488843D01*
X164093296Y-130368095D01*
X163986856Y-130371003D01*
X163923574Y-130394036D01*
X163840167Y-130460226D01*
X163779793Y-130589699D01*
X163782701Y-130696138D01*
X163805734Y-130759420D01*
X163871925Y-130842827D01*
X164130870Y-130963575D01*
X164237309Y-130960667D01*
X164300592Y-130937634D01*
X164383998Y-130871444D01*
X164444372Y-130741972D01*
X163518172Y-131150746D02*
X164424480Y-131573364D01*
X163561330Y-131170871D02*
X163477923Y-131237061D01*
X163397424Y-131409691D01*
X163400333Y-131516131D01*
X163423365Y-131579413D01*
X163489556Y-131662820D01*
X163748501Y-131783568D01*
X163854940Y-131780660D01*
X163918223Y-131757627D01*
X164001630Y-131691437D01*
X164082128Y-131518807D01*
X164079220Y-131412367D01*
X168104692Y-129251173D02*
X167531115Y-128432021D01*
X167219057Y-128650527D01*
X167168356Y-128744160D01*
X167156662Y-128810481D01*
X167172281Y-128915808D01*
X167254221Y-129032830D01*
X167347854Y-129083531D01*
X167414175Y-129095225D01*
X167519502Y-129079606D01*
X167831560Y-128861101D01*
X167168518Y-129906689D02*
X167219219Y-129813056D01*
X167203600Y-129707728D01*
X166711963Y-129005598D01*
X166739438Y-130207134D02*
X166790140Y-130113501D01*
X166801834Y-130047180D01*
X166786215Y-129941852D01*
X166622336Y-129707809D01*
X166528702Y-129657108D01*
X166462382Y-129645414D01*
X166357054Y-129661033D01*
X166240032Y-129742972D01*
X166189331Y-129836606D01*
X166177637Y-129902926D01*
X166193256Y-130008254D01*
X166357135Y-130242297D01*
X166450769Y-130292999D01*
X166517089Y-130304693D01*
X166622417Y-130289074D01*
X166739438Y-130207134D01*
X165732938Y-130098043D02*
X166306515Y-130917195D01*
X165760251Y-130137051D02*
X165654924Y-130152670D01*
X165498895Y-130261922D01*
X165448193Y-130355556D01*
X165436499Y-130421876D01*
X165452118Y-130527204D01*
X165615997Y-130761247D01*
X165709631Y-130811949D01*
X165775951Y-130823643D01*
X165881279Y-130808024D01*
X166037308Y-130698771D01*
X166088009Y-130605137D01*
X158868826Y-75249692D02*
X159687978Y-74676115D01*
X159469472Y-74364057D01*
X159375839Y-74313356D01*
X159309518Y-74301662D01*
X159204191Y-74317281D01*
X159087169Y-74399221D01*
X159036468Y-74492854D01*
X159024774Y-74559175D01*
X159040393Y-74664502D01*
X159258898Y-74976560D01*
X158213310Y-74313518D02*
X158306943Y-74364219D01*
X158412271Y-74348600D01*
X159114401Y-73856963D01*
X157912865Y-73884438D02*
X158006498Y-73935140D01*
X158072819Y-73946834D01*
X158178147Y-73931215D01*
X158412190Y-73767336D01*
X158462891Y-73673702D01*
X158474585Y-73607382D01*
X158458966Y-73502054D01*
X158377027Y-73385032D01*
X158283393Y-73334331D01*
X158217073Y-73322637D01*
X158111745Y-73338256D01*
X157877702Y-73502135D01*
X157827000Y-73595769D01*
X157815306Y-73662089D01*
X157830925Y-73767417D01*
X157912865Y-73884438D01*
X158021956Y-72877938D02*
X157202804Y-73451515D01*
X157982948Y-72905251D02*
X157967329Y-72799924D01*
X157858077Y-72643895D01*
X157764443Y-72593193D01*
X157698123Y-72581499D01*
X157592795Y-72597118D01*
X157358752Y-72760997D01*
X157308050Y-72854631D01*
X157296356Y-72920951D01*
X157311975Y-73026279D01*
X157421228Y-73182308D01*
X157514862Y-73233009D01*
X156681459Y-77886263D02*
X156258840Y-78792571D01*
X156604100Y-78953568D01*
X156710540Y-78950660D01*
X156773822Y-78927627D01*
X156857229Y-78861437D01*
X156917603Y-78731964D01*
X156914695Y-78625524D01*
X156891662Y-78562242D01*
X156825472Y-78478835D01*
X156480212Y-78317838D01*
X157717239Y-78369255D02*
X157610799Y-78372163D01*
X157527392Y-78438354D01*
X157165148Y-79215189D01*
X158191972Y-78590627D02*
X158085532Y-78593535D01*
X158022250Y-78616568D01*
X157938843Y-78682758D01*
X157818095Y-78941703D01*
X157821003Y-79048143D01*
X157844036Y-79111425D01*
X157910226Y-79194832D01*
X158039699Y-79255206D01*
X158146138Y-79252298D01*
X158209420Y-79229265D01*
X158292827Y-79163074D01*
X158413575Y-78904129D01*
X158410667Y-78797690D01*
X158387634Y-78734407D01*
X158321444Y-78651001D01*
X158191972Y-78590627D01*
X158600746Y-79516827D02*
X159023364Y-78610519D01*
X158620871Y-79473669D02*
X158687061Y-79557076D01*
X158859691Y-79637575D01*
X158966131Y-79634666D01*
X159029413Y-79611634D01*
X159112820Y-79545443D01*
X159233568Y-79286498D01*
X159230660Y-79180059D01*
X159207627Y-79116776D01*
X159141437Y-79033369D01*
X158968807Y-78952871D01*
X158862367Y-78955779D01*
X158586459Y-136941263D02*
X158163840Y-137847571D01*
X158509100Y-138008568D01*
X158615540Y-138005660D01*
X158678822Y-137982627D01*
X158762229Y-137916437D01*
X158822603Y-137786964D01*
X158819695Y-137680524D01*
X158796662Y-137617242D01*
X158730472Y-137533835D01*
X158385212Y-137372838D01*
X159622239Y-137424255D02*
X159515799Y-137427163D01*
X159432392Y-137493354D01*
X159070148Y-138270189D01*
X160096972Y-137645627D02*
X159990532Y-137648535D01*
X159927250Y-137671568D01*
X159843843Y-137737758D01*
X159723095Y-137996703D01*
X159726003Y-138103143D01*
X159749036Y-138166425D01*
X159815226Y-138249832D01*
X159944699Y-138310206D01*
X160051138Y-138307298D01*
X160114420Y-138284265D01*
X160197827Y-138218074D01*
X160318575Y-137959129D01*
X160315667Y-137852690D01*
X160292634Y-137789407D01*
X160226444Y-137706001D01*
X160096972Y-137645627D01*
X160505746Y-138571827D02*
X160928364Y-137665519D01*
X160525871Y-138528669D02*
X160592061Y-138612076D01*
X160764691Y-138692575D01*
X160871131Y-138689666D01*
X160934413Y-138666634D01*
X161017820Y-138600443D01*
X161138568Y-138341498D01*
X161135660Y-138235059D01*
X161112627Y-138171776D01*
X161046437Y-138088369D01*
X160873807Y-138007871D01*
X160767367Y-138010779D01*
X152649729Y-125829965D02*
X151942622Y-126537072D01*
X152211996Y-126806446D01*
X152313011Y-126840118D01*
X152380355Y-126840118D01*
X152481370Y-126806446D01*
X152582385Y-126705431D01*
X152616057Y-126604416D01*
X152616057Y-126537072D01*
X152582385Y-126436057D01*
X152313011Y-126166683D01*
X153457851Y-126638087D02*
X153356835Y-126604416D01*
X153255820Y-126638087D01*
X152649729Y-127244179D01*
X153828240Y-127008477D02*
X153727225Y-126974805D01*
X153659881Y-126974805D01*
X153558866Y-127008477D01*
X153356835Y-127210507D01*
X153323164Y-127311522D01*
X153323164Y-127378866D01*
X153356835Y-127479881D01*
X153457851Y-127580896D01*
X153558866Y-127614568D01*
X153626209Y-127614568D01*
X153727225Y-127580896D01*
X153929255Y-127378866D01*
X153962927Y-127277851D01*
X153962927Y-127210507D01*
X153929255Y-127109492D01*
X153828240Y-127008477D01*
X153895583Y-128018629D02*
X154602690Y-127311522D01*
X153929255Y-127984957D02*
X153962927Y-128085973D01*
X154097614Y-128220660D01*
X154198629Y-128254331D01*
X154265973Y-128254331D01*
X154366988Y-128220660D01*
X154569018Y-128018629D01*
X154602690Y-127917614D01*
X154602690Y-127850270D01*
X154569018Y-127749255D01*
X154434331Y-127614568D01*
X154333316Y-127580896D01*
X151876256Y-132659090D02*
X150969948Y-133081708D01*
X151130945Y-133426968D01*
X151214352Y-133493158D01*
X151277634Y-133516191D01*
X151384074Y-133519099D01*
X151513546Y-133458725D01*
X151579737Y-133375318D01*
X151602770Y-133312036D01*
X151605678Y-133205597D01*
X151444680Y-132860336D01*
X152359248Y-133694870D02*
X152275841Y-133628680D01*
X152169401Y-133625771D01*
X151392566Y-133988016D01*
X152580619Y-134169603D02*
X152497212Y-134103412D01*
X152433930Y-134080379D01*
X152327491Y-134077471D01*
X152068545Y-134198219D01*
X152002355Y-134281626D01*
X151979322Y-134344908D01*
X151976414Y-134451348D01*
X152036788Y-134580821D01*
X152120195Y-134647011D01*
X152183477Y-134670044D01*
X152289917Y-134672952D01*
X152548862Y-134552204D01*
X152615052Y-134468797D01*
X152638085Y-134405515D01*
X152640993Y-134299075D01*
X152580619Y-134169603D01*
X152298409Y-135141868D02*
X153204717Y-134719250D01*
X152341566Y-135121744D02*
X152338658Y-135228183D01*
X152419157Y-135400813D01*
X152502564Y-135467004D01*
X152565846Y-135490037D01*
X152672286Y-135492945D01*
X152931231Y-135372197D01*
X152997421Y-135288790D01*
X153020454Y-135225508D01*
X153023362Y-135119068D01*
X152942863Y-134946438D01*
X152859457Y-134880248D01*
X152876707Y-128437190D02*
X151910782Y-128178371D01*
X151812184Y-128546343D01*
X151833531Y-128650661D01*
X151867203Y-128708982D01*
X151946871Y-128779628D01*
X152084860Y-128816602D01*
X152189178Y-128795255D01*
X152247499Y-128761583D01*
X152318145Y-128681915D01*
X152416743Y-128313943D01*
X152580914Y-129541105D02*
X152559567Y-129436788D01*
X152479899Y-129366142D01*
X151651963Y-129144297D01*
X152445342Y-130047067D02*
X152423995Y-129942749D01*
X152390324Y-129884428D01*
X152310655Y-129813782D01*
X152034677Y-129739834D01*
X151930359Y-129761181D01*
X151872038Y-129794852D01*
X151801392Y-129874521D01*
X151764418Y-130012510D01*
X151785765Y-130116828D01*
X151819436Y-130175149D01*
X151899105Y-130245795D01*
X152175083Y-130319743D01*
X152279401Y-130298396D01*
X152337722Y-130264724D01*
X152408368Y-130185056D01*
X152445342Y-130047067D01*
X151604196Y-130610464D02*
X152570122Y-130869283D01*
X151650193Y-130622789D02*
X151579547Y-130702457D01*
X151530248Y-130886443D01*
X151551595Y-130990761D01*
X151585267Y-131049082D01*
X151664935Y-131119728D01*
X151940914Y-131193676D01*
X152045232Y-131172329D01*
X152103553Y-131138657D01*
X152174199Y-131058989D01*
X152223497Y-130875003D01*
X152202150Y-130770685D01*
X157845034Y-75669729D02*
X157137927Y-74962622D01*
X156868553Y-75231996D01*
X156834881Y-75333011D01*
X156834881Y-75400355D01*
X156868553Y-75501370D01*
X156969568Y-75602385D01*
X157070583Y-75636057D01*
X157137927Y-75636057D01*
X157238942Y-75602385D01*
X157508316Y-75333011D01*
X157036912Y-76477851D02*
X157070583Y-76376835D01*
X157036912Y-76275820D01*
X156430820Y-75669729D01*
X156666522Y-76848240D02*
X156700194Y-76747225D01*
X156700194Y-76679881D01*
X156666522Y-76578866D01*
X156464492Y-76376835D01*
X156363477Y-76343164D01*
X156296133Y-76343164D01*
X156195118Y-76376835D01*
X156094103Y-76477851D01*
X156060431Y-76578866D01*
X156060431Y-76646209D01*
X156094103Y-76747225D01*
X156296133Y-76949255D01*
X156397148Y-76982927D01*
X156464492Y-76982927D01*
X156565507Y-76949255D01*
X156666522Y-76848240D01*
X155656370Y-76915583D02*
X156363477Y-77622690D01*
X155690042Y-76949255D02*
X155589026Y-76982927D01*
X155454339Y-77117614D01*
X155420668Y-77218629D01*
X155420668Y-77285973D01*
X155454339Y-77386988D01*
X155656370Y-77589018D01*
X155757385Y-77622690D01*
X155824729Y-77622690D01*
X155925744Y-77589018D01*
X156060431Y-77454331D01*
X156094103Y-77353316D01*
X153781256Y-76144090D02*
X152874948Y-76566708D01*
X153035945Y-76911968D01*
X153119352Y-76978158D01*
X153182634Y-77001191D01*
X153289074Y-77004099D01*
X153418546Y-76943725D01*
X153484737Y-76860318D01*
X153507770Y-76797036D01*
X153510678Y-76690597D01*
X153349680Y-76345336D01*
X154264248Y-77179870D02*
X154180841Y-77113680D01*
X154074401Y-77110771D01*
X153297566Y-77473016D01*
X154485619Y-77654603D02*
X154402212Y-77588412D01*
X154338930Y-77565379D01*
X154232491Y-77562471D01*
X153973545Y-77683219D01*
X153907355Y-77766626D01*
X153884322Y-77829908D01*
X153881414Y-77936348D01*
X153941788Y-78065821D01*
X154025195Y-78132011D01*
X154088477Y-78155044D01*
X154194917Y-78157952D01*
X154453862Y-78037204D01*
X154520052Y-77953797D01*
X154543085Y-77890515D01*
X154545993Y-77784075D01*
X154485619Y-77654603D01*
X154203409Y-78626868D02*
X155109717Y-78204250D01*
X154246566Y-78606744D02*
X154243658Y-78713183D01*
X154324157Y-78885813D01*
X154407564Y-78952004D01*
X154470846Y-78975037D01*
X154577286Y-78977945D01*
X154836231Y-78857197D01*
X154902421Y-78773790D01*
X154925454Y-78710508D01*
X154928362Y-78604068D01*
X154847863Y-78431438D01*
X154764457Y-78365248D01*
X160581263Y-71748540D02*
X161487571Y-72171159D01*
X161648568Y-71825899D01*
X161645660Y-71719459D01*
X161622627Y-71656177D01*
X161556437Y-71572770D01*
X161426964Y-71512396D01*
X161320524Y-71515304D01*
X161257242Y-71538337D01*
X161173835Y-71604527D01*
X161012838Y-71949787D01*
X161064255Y-70712760D02*
X161067163Y-70819200D01*
X161133354Y-70902607D01*
X161910189Y-71264851D01*
X161285627Y-70238027D02*
X161288535Y-70344467D01*
X161311568Y-70407749D01*
X161377758Y-70491156D01*
X161636703Y-70611904D01*
X161743143Y-70608996D01*
X161806425Y-70585963D01*
X161889832Y-70519773D01*
X161950206Y-70390300D01*
X161947298Y-70283861D01*
X161924265Y-70220579D01*
X161858074Y-70137172D01*
X161599129Y-70016424D01*
X161492690Y-70019332D01*
X161429407Y-70042365D01*
X161346001Y-70108555D01*
X161285627Y-70238027D01*
X162211827Y-69829253D02*
X161305519Y-69406635D01*
X162168669Y-69809128D02*
X162252076Y-69742938D01*
X162332575Y-69570308D01*
X162329666Y-69463868D01*
X162306634Y-69400586D01*
X162240443Y-69317179D01*
X161981498Y-69196431D01*
X161875059Y-69199339D01*
X161811776Y-69222372D01*
X161728369Y-69288562D01*
X161647871Y-69461192D01*
X161650779Y-69567632D01*
X155305034Y-129644729D02*
X154597927Y-128937622D01*
X154328553Y-129206996D01*
X154294881Y-129308011D01*
X154294881Y-129375355D01*
X154328553Y-129476370D01*
X154429568Y-129577385D01*
X154530583Y-129611057D01*
X154597927Y-129611057D01*
X154698942Y-129577385D01*
X154968316Y-129308011D01*
X154496912Y-130452851D02*
X154530583Y-130351835D01*
X154496912Y-130250820D01*
X153890820Y-129644729D01*
X154126522Y-130823240D02*
X154160194Y-130722225D01*
X154160194Y-130654881D01*
X154126522Y-130553866D01*
X153924492Y-130351835D01*
X153823477Y-130318164D01*
X153756133Y-130318164D01*
X153655118Y-130351835D01*
X153554103Y-130452851D01*
X153520431Y-130553866D01*
X153520431Y-130621209D01*
X153554103Y-130722225D01*
X153756133Y-130924255D01*
X153857148Y-130957927D01*
X153924492Y-130957927D01*
X154025507Y-130924255D01*
X154126522Y-130823240D01*
X153116370Y-130890583D02*
X153823477Y-131597690D01*
X153150042Y-130924255D02*
X153049026Y-130957927D01*
X152914339Y-131092614D01*
X152880668Y-131193629D01*
X152880668Y-131260973D01*
X152914339Y-131361988D01*
X153116370Y-131564018D01*
X153217385Y-131597690D01*
X153284729Y-131597690D01*
X153385744Y-131564018D01*
X153520431Y-131429331D01*
X153554103Y-131328316D01*
X160703736Y-70176459D02*
X159797428Y-69753840D01*
X159636431Y-70099100D01*
X159639339Y-70205540D01*
X159662372Y-70268822D01*
X159728562Y-70352229D01*
X159858035Y-70412603D01*
X159964475Y-70409695D01*
X160027757Y-70386662D01*
X160111164Y-70320472D01*
X160272161Y-69975212D01*
X160220744Y-71212239D02*
X160217836Y-71105799D01*
X160151645Y-71022392D01*
X159374810Y-70660148D01*
X159999372Y-71686972D02*
X159996464Y-71580532D01*
X159973431Y-71517250D01*
X159907241Y-71433843D01*
X159648296Y-71313095D01*
X159541856Y-71316003D01*
X159478574Y-71339036D01*
X159395167Y-71405226D01*
X159334793Y-71534699D01*
X159337701Y-71641138D01*
X159360734Y-71704420D01*
X159426925Y-71787827D01*
X159685870Y-71908575D01*
X159792309Y-71905667D01*
X159855592Y-71882634D01*
X159938998Y-71816444D01*
X159999372Y-71686972D01*
X159073172Y-72095746D02*
X159979480Y-72518364D01*
X159116330Y-72115871D02*
X159032923Y-72182061D01*
X158952424Y-72354691D01*
X158955333Y-72461131D01*
X158978365Y-72524413D01*
X159044556Y-72607820D01*
X159303501Y-72728568D01*
X159409940Y-72725660D01*
X159473223Y-72702627D01*
X159556630Y-72636437D01*
X159637128Y-72463807D01*
X159634220Y-72357367D01*
X153499692Y-79086173D02*
X152926115Y-78267021D01*
X152614057Y-78485527D01*
X152563356Y-78579160D01*
X152551662Y-78645481D01*
X152567281Y-78750808D01*
X152649221Y-78867830D01*
X152742854Y-78918531D01*
X152809175Y-78930225D01*
X152914502Y-78914606D01*
X153226560Y-78696101D01*
X152563518Y-79741689D02*
X152614219Y-79648056D01*
X152598600Y-79542728D01*
X152106963Y-78840598D01*
X152134438Y-80042134D02*
X152185140Y-79948501D01*
X152196834Y-79882180D01*
X152181215Y-79776852D01*
X152017336Y-79542809D01*
X151923702Y-79492108D01*
X151857382Y-79480414D01*
X151752054Y-79496033D01*
X151635032Y-79577972D01*
X151584331Y-79671606D01*
X151572637Y-79737926D01*
X151588256Y-79843254D01*
X151752135Y-80077297D01*
X151845769Y-80127999D01*
X151912089Y-80139693D01*
X152017417Y-80124074D01*
X152134438Y-80042134D01*
X151127938Y-79933043D02*
X151701515Y-80752195D01*
X151155251Y-79972051D02*
X151049924Y-79987670D01*
X150893895Y-80096922D01*
X150843193Y-80190556D01*
X150831499Y-80256876D01*
X150847118Y-80362204D01*
X151010997Y-80596247D01*
X151104631Y-80646949D01*
X151170951Y-80658643D01*
X151276279Y-80643024D01*
X151432308Y-80533771D01*
X151483009Y-80440137D01*
X156674692Y-97501173D02*
X156101115Y-96682021D01*
X155789057Y-96900527D01*
X155738356Y-96994160D01*
X155726662Y-97060481D01*
X155742281Y-97165808D01*
X155824221Y-97282830D01*
X155917854Y-97333531D01*
X155984175Y-97345225D01*
X156089502Y-97329606D01*
X156401560Y-97111101D01*
X155738518Y-98156689D02*
X155789219Y-98063056D01*
X155773600Y-97957728D01*
X155281963Y-97255598D01*
X155309438Y-98457134D02*
X155360140Y-98363501D01*
X155371834Y-98297180D01*
X155356215Y-98191852D01*
X155192336Y-97957809D01*
X155098702Y-97907108D01*
X155032382Y-97895414D01*
X154927054Y-97911033D01*
X154810032Y-97992972D01*
X154759331Y-98086606D01*
X154747637Y-98152926D01*
X154763256Y-98258254D01*
X154927135Y-98492297D01*
X155020769Y-98542999D01*
X155087089Y-98554693D01*
X155192417Y-98539074D01*
X155309438Y-98457134D01*
X154302938Y-98348043D02*
X154876515Y-99167195D01*
X154330251Y-98387051D02*
X154224924Y-98402670D01*
X154068895Y-98511922D01*
X154018193Y-98605556D01*
X154006499Y-98671876D01*
X154022118Y-98777204D01*
X154185997Y-99011247D01*
X154279631Y-99061949D01*
X154345951Y-99073643D01*
X154451279Y-99058024D01*
X154607308Y-98948771D01*
X154658009Y-98855137D01*
X156136263Y-99688540D02*
X157042571Y-100111159D01*
X157203568Y-99765899D01*
X157200660Y-99659459D01*
X157177627Y-99596177D01*
X157111437Y-99512770D01*
X156981964Y-99452396D01*
X156875524Y-99455304D01*
X156812242Y-99478337D01*
X156728835Y-99544527D01*
X156567838Y-99889787D01*
X156619255Y-98652760D02*
X156622163Y-98759200D01*
X156688354Y-98842607D01*
X157465189Y-99204851D01*
X156840627Y-98178027D02*
X156843535Y-98284467D01*
X156866568Y-98347749D01*
X156932758Y-98431156D01*
X157191703Y-98551904D01*
X157298143Y-98548996D01*
X157361425Y-98525963D01*
X157444832Y-98459773D01*
X157505206Y-98330300D01*
X157502298Y-98223861D01*
X157479265Y-98160579D01*
X157413074Y-98077172D01*
X157154129Y-97956424D01*
X157047690Y-97959332D01*
X156984407Y-97982365D01*
X156901001Y-98048555D01*
X156840627Y-98178027D01*
X157766827Y-97769253D02*
X156860519Y-97346635D01*
X157723669Y-97749128D02*
X157807076Y-97682938D01*
X157887575Y-97510308D01*
X157884666Y-97403868D01*
X157861634Y-97340586D01*
X157795443Y-97257179D01*
X157536498Y-97136431D01*
X157430059Y-97139339D01*
X157366776Y-97162372D01*
X157283369Y-97228562D01*
X157202871Y-97401192D01*
X157205779Y-97507632D01*
X156136263Y-116833540D02*
X157042571Y-117256159D01*
X157203568Y-116910899D01*
X157200660Y-116804459D01*
X157177627Y-116741177D01*
X157111437Y-116657770D01*
X156981964Y-116597396D01*
X156875524Y-116600304D01*
X156812242Y-116623337D01*
X156728835Y-116689527D01*
X156567838Y-117034787D01*
X156619255Y-115797760D02*
X156622163Y-115904200D01*
X156688354Y-115987607D01*
X157465189Y-116349851D01*
X156840627Y-115323027D02*
X156843535Y-115429467D01*
X156866568Y-115492749D01*
X156932758Y-115576156D01*
X157191703Y-115696904D01*
X157298143Y-115693996D01*
X157361425Y-115670963D01*
X157444832Y-115604773D01*
X157505206Y-115475300D01*
X157502298Y-115368861D01*
X157479265Y-115305579D01*
X157413074Y-115222172D01*
X157154129Y-115101424D01*
X157047690Y-115104332D01*
X156984407Y-115127365D01*
X156901001Y-115193555D01*
X156840627Y-115323027D01*
X157766827Y-114914253D02*
X156860519Y-114491635D01*
X157723669Y-114894128D02*
X157807076Y-114827938D01*
X157887575Y-114655308D01*
X157884666Y-114548868D01*
X157861634Y-114485586D01*
X157795443Y-114402179D01*
X157536498Y-114281431D01*
X157430059Y-114284339D01*
X157366776Y-114307372D01*
X157283369Y-114373562D01*
X157202871Y-114546192D01*
X157205779Y-114652632D01*
X155184965Y-104355270D02*
X155892072Y-105062377D01*
X156161446Y-104793003D01*
X156195118Y-104691988D01*
X156195118Y-104624644D01*
X156161446Y-104523629D01*
X156060431Y-104422614D01*
X155959416Y-104388942D01*
X155892072Y-104388942D01*
X155791057Y-104422614D01*
X155521683Y-104691988D01*
X155993087Y-103547148D02*
X155959416Y-103648164D01*
X155993087Y-103749179D01*
X156599179Y-104355270D01*
X156363477Y-103176759D02*
X156329805Y-103277774D01*
X156329805Y-103345118D01*
X156363477Y-103446133D01*
X156565507Y-103648164D01*
X156666522Y-103681835D01*
X156733866Y-103681835D01*
X156834881Y-103648164D01*
X156935896Y-103547148D01*
X156969568Y-103446133D01*
X156969568Y-103378790D01*
X156935896Y-103277774D01*
X156733866Y-103075744D01*
X156632851Y-103042072D01*
X156565507Y-103042072D01*
X156464492Y-103075744D01*
X156363477Y-103176759D01*
X157373629Y-103109416D02*
X156666522Y-102402309D01*
X157339957Y-103075744D02*
X157440973Y-103042072D01*
X157575660Y-102907385D01*
X157609331Y-102806370D01*
X157609331Y-102739026D01*
X157575660Y-102638011D01*
X157373629Y-102435981D01*
X157272614Y-102402309D01*
X157205270Y-102402309D01*
X157104255Y-102435981D01*
X156969568Y-102570668D01*
X156935896Y-102671683D01*
X155029090Y-113383743D02*
X155451708Y-114290051D01*
X155796968Y-114129054D01*
X155863158Y-114045647D01*
X155886191Y-113982365D01*
X155889099Y-113875925D01*
X155828725Y-113746453D01*
X155745318Y-113680262D01*
X155682036Y-113657229D01*
X155575597Y-113654321D01*
X155230336Y-113815319D01*
X156064870Y-112900751D02*
X155998680Y-112984158D01*
X155995771Y-113090598D01*
X156358016Y-113867433D01*
X156539603Y-112679380D02*
X156473412Y-112762787D01*
X156450379Y-112826069D01*
X156447471Y-112932508D01*
X156568219Y-113191454D01*
X156651626Y-113257644D01*
X156714908Y-113280677D01*
X156821348Y-113283585D01*
X156950821Y-113223211D01*
X157017011Y-113139804D01*
X157040044Y-113076522D01*
X157042952Y-112970082D01*
X156922204Y-112711137D01*
X156838797Y-112644947D01*
X156775515Y-112621914D01*
X156669075Y-112619006D01*
X156539603Y-112679380D01*
X157511868Y-112961590D02*
X157089250Y-112055282D01*
X157491744Y-112918433D02*
X157598183Y-112921341D01*
X157770813Y-112840842D01*
X157837004Y-112757435D01*
X157860037Y-112694153D01*
X157862945Y-112587713D01*
X157742197Y-112328768D01*
X157658790Y-112262578D01*
X157595508Y-112239545D01*
X157489068Y-112236637D01*
X157316438Y-112317136D01*
X157250248Y-112400542D01*
X152077190Y-95238292D02*
X151818371Y-96204217D01*
X152186343Y-96302815D01*
X152290661Y-96281468D01*
X152348982Y-96247796D01*
X152419628Y-96168128D01*
X152456602Y-96030139D01*
X152435255Y-95925821D01*
X152401583Y-95867500D01*
X152321915Y-95796854D01*
X151953943Y-95698256D01*
X153181105Y-95534085D02*
X153076788Y-95555432D01*
X153006142Y-95635100D01*
X152784297Y-96463036D01*
X153687067Y-95669657D02*
X153582749Y-95691004D01*
X153524428Y-95724675D01*
X153453782Y-95804344D01*
X153379834Y-96080322D01*
X153401181Y-96184640D01*
X153434852Y-96242961D01*
X153514521Y-96313607D01*
X153652510Y-96350581D01*
X153756828Y-96329234D01*
X153815149Y-96295563D01*
X153885795Y-96215894D01*
X153959743Y-95939916D01*
X153938396Y-95835598D01*
X153904724Y-95777277D01*
X153825056Y-95706631D01*
X153687067Y-95669657D01*
X154250464Y-96510803D02*
X154509283Y-95544877D01*
X154262789Y-96464806D02*
X154342457Y-96535452D01*
X154526443Y-96584751D01*
X154630761Y-96563404D01*
X154689082Y-96529732D01*
X154759728Y-96450064D01*
X154833676Y-96174085D01*
X154812329Y-96069767D01*
X154778657Y-96011446D01*
X154698989Y-95940800D01*
X154515003Y-95891502D01*
X154410685Y-95912849D01*
X165984729Y-87094965D02*
X165277622Y-87802072D01*
X165546996Y-88071446D01*
X165648011Y-88105118D01*
X165715355Y-88105118D01*
X165816370Y-88071446D01*
X165917385Y-87970431D01*
X165951057Y-87869416D01*
X165951057Y-87802072D01*
X165917385Y-87701057D01*
X165648011Y-87431683D01*
X166792851Y-87903087D02*
X166691835Y-87869416D01*
X166590820Y-87903087D01*
X165984729Y-88509179D01*
X167163240Y-88273477D02*
X167062225Y-88239805D01*
X166994881Y-88239805D01*
X166893866Y-88273477D01*
X166691835Y-88475507D01*
X166658164Y-88576522D01*
X166658164Y-88643866D01*
X166691835Y-88744881D01*
X166792851Y-88845896D01*
X166893866Y-88879568D01*
X166961209Y-88879568D01*
X167062225Y-88845896D01*
X167264255Y-88643866D01*
X167297927Y-88542851D01*
X167297927Y-88475507D01*
X167264255Y-88374492D01*
X167163240Y-88273477D01*
X167230583Y-89283629D02*
X167937690Y-88576522D01*
X167264255Y-89249957D02*
X167297927Y-89350973D01*
X167432614Y-89485660D01*
X167533629Y-89519331D01*
X167600973Y-89519331D01*
X167701988Y-89485660D01*
X167904018Y-89283629D01*
X167937690Y-89182614D01*
X167937690Y-89115270D01*
X167904018Y-89014255D01*
X167769331Y-88879568D01*
X167668316Y-88845896D01*
X151854090Y-103858743D02*
X152276708Y-104765051D01*
X152621968Y-104604054D01*
X152688158Y-104520647D01*
X152711191Y-104457365D01*
X152714099Y-104350925D01*
X152653725Y-104221453D01*
X152570318Y-104155262D01*
X152507036Y-104132229D01*
X152400597Y-104129321D01*
X152055336Y-104290319D01*
X152889870Y-103375751D02*
X152823680Y-103459158D01*
X152820771Y-103565598D01*
X153183016Y-104342433D01*
X153364603Y-103154380D02*
X153298412Y-103237787D01*
X153275379Y-103301069D01*
X153272471Y-103407508D01*
X153393219Y-103666454D01*
X153476626Y-103732644D01*
X153539908Y-103755677D01*
X153646348Y-103758585D01*
X153775821Y-103698211D01*
X153842011Y-103614804D01*
X153865044Y-103551522D01*
X153867952Y-103445082D01*
X153747204Y-103186137D01*
X153663797Y-103119947D01*
X153600515Y-103096914D01*
X153494075Y-103094006D01*
X153364603Y-103154380D01*
X154336868Y-103436590D02*
X153914250Y-102530282D01*
X154316744Y-103393433D02*
X154423183Y-103396341D01*
X154595813Y-103315842D01*
X154662004Y-103232435D01*
X154685037Y-103169153D01*
X154687945Y-103062713D01*
X154567197Y-102803768D01*
X154483790Y-102737578D01*
X154420508Y-102714545D01*
X154314068Y-102711637D01*
X154141438Y-102792136D01*
X154075248Y-102875542D01*
X154141459Y-100111263D02*
X153718840Y-101017571D01*
X154064100Y-101178568D01*
X154170540Y-101175660D01*
X154233822Y-101152627D01*
X154317229Y-101086437D01*
X154377603Y-100956964D01*
X154374695Y-100850524D01*
X154351662Y-100787242D01*
X154285472Y-100703835D01*
X153940212Y-100542838D01*
X155177239Y-100594255D02*
X155070799Y-100597163D01*
X154987392Y-100663354D01*
X154625148Y-101440189D01*
X155651972Y-100815627D02*
X155545532Y-100818535D01*
X155482250Y-100841568D01*
X155398843Y-100907758D01*
X155278095Y-101166703D01*
X155281003Y-101273143D01*
X155304036Y-101336425D01*
X155370226Y-101419832D01*
X155499699Y-101480206D01*
X155606138Y-101477298D01*
X155669420Y-101454265D01*
X155752827Y-101388074D01*
X155873575Y-101129129D01*
X155870667Y-101022690D01*
X155847634Y-100959407D01*
X155781444Y-100876001D01*
X155651972Y-100815627D01*
X156060746Y-101741827D02*
X156483364Y-100835519D01*
X156080871Y-101698669D02*
X156147061Y-101782076D01*
X156319691Y-101862575D01*
X156426131Y-101859666D01*
X156489413Y-101836634D01*
X156572820Y-101770443D01*
X156693568Y-101511498D01*
X156690660Y-101405059D01*
X156667627Y-101341776D01*
X156601437Y-101258369D01*
X156428807Y-101177871D01*
X156322367Y-101180779D01*
X157094729Y-118844965D02*
X156387622Y-119552072D01*
X156656996Y-119821446D01*
X156758011Y-119855118D01*
X156825355Y-119855118D01*
X156926370Y-119821446D01*
X157027385Y-119720431D01*
X157061057Y-119619416D01*
X157061057Y-119552072D01*
X157027385Y-119451057D01*
X156758011Y-119181683D01*
X157902851Y-119653087D02*
X157801835Y-119619416D01*
X157700820Y-119653087D01*
X157094729Y-120259179D01*
X158273240Y-120023477D02*
X158172225Y-119989805D01*
X158104881Y-119989805D01*
X158003866Y-120023477D01*
X157801835Y-120225507D01*
X157768164Y-120326522D01*
X157768164Y-120393866D01*
X157801835Y-120494881D01*
X157902851Y-120595896D01*
X158003866Y-120629568D01*
X158071209Y-120629568D01*
X158172225Y-120595896D01*
X158374255Y-120393866D01*
X158407927Y-120292851D01*
X158407927Y-120225507D01*
X158374255Y-120124492D01*
X158273240Y-120023477D01*
X158340583Y-121033629D02*
X159047690Y-120326522D01*
X158374255Y-120999957D02*
X158407927Y-121100973D01*
X158542614Y-121235660D01*
X158643629Y-121269331D01*
X158710973Y-121269331D01*
X158811988Y-121235660D01*
X159014018Y-121033629D01*
X159047690Y-120932614D01*
X159047690Y-120865270D01*
X159014018Y-120764255D01*
X158879331Y-120629568D01*
X158778316Y-120595896D01*
X153718736Y-97481459D02*
X152812428Y-97058840D01*
X152651431Y-97404100D01*
X152654339Y-97510540D01*
X152677372Y-97573822D01*
X152743562Y-97657229D01*
X152873035Y-97717603D01*
X152979475Y-97714695D01*
X153042757Y-97691662D01*
X153126164Y-97625472D01*
X153287161Y-97280212D01*
X153235744Y-98517239D02*
X153232836Y-98410799D01*
X153166645Y-98327392D01*
X152389810Y-97965148D01*
X153014372Y-98991972D02*
X153011464Y-98885532D01*
X152988431Y-98822250D01*
X152922241Y-98738843D01*
X152663296Y-98618095D01*
X152556856Y-98621003D01*
X152493574Y-98644036D01*
X152410167Y-98710226D01*
X152349793Y-98839699D01*
X152352701Y-98946138D01*
X152375734Y-99009420D01*
X152441925Y-99092827D01*
X152700870Y-99213575D01*
X152807309Y-99210667D01*
X152870592Y-99187634D01*
X152953998Y-99121444D01*
X153014372Y-98991972D01*
X152088172Y-99400746D02*
X152994480Y-99823364D01*
X152131330Y-99420871D02*
X152047923Y-99487061D01*
X151967424Y-99659691D01*
X151970333Y-99766131D01*
X151993365Y-99829413D01*
X152059556Y-99912820D01*
X152318501Y-100033568D01*
X152424940Y-100030660D01*
X152488223Y-100007627D01*
X152571630Y-99941437D01*
X152652128Y-99768807D01*
X152649220Y-99662367D01*
X154796173Y-104140307D02*
X153977021Y-104713884D01*
X154195527Y-105025942D01*
X154289160Y-105076643D01*
X154355481Y-105088337D01*
X154460808Y-105072718D01*
X154577830Y-104990778D01*
X154628531Y-104897145D01*
X154640225Y-104830824D01*
X154624606Y-104725497D01*
X154406101Y-104413439D01*
X155451689Y-105076481D02*
X155358056Y-105025780D01*
X155252728Y-105041399D01*
X154550598Y-105533036D01*
X155752134Y-105505561D02*
X155658501Y-105454859D01*
X155592180Y-105443165D01*
X155486852Y-105458784D01*
X155252809Y-105622663D01*
X155202108Y-105716297D01*
X155190414Y-105782617D01*
X155206033Y-105887945D01*
X155287972Y-106004967D01*
X155381606Y-106055668D01*
X155447926Y-106067362D01*
X155553254Y-106051743D01*
X155787297Y-105887864D01*
X155837999Y-105794230D01*
X155849693Y-105727910D01*
X155834074Y-105622582D01*
X155752134Y-105505561D01*
X155643043Y-106512061D02*
X156462195Y-105938484D01*
X155682051Y-106484748D02*
X155697670Y-106590075D01*
X155806922Y-106746104D01*
X155900556Y-106796806D01*
X155966876Y-106808500D01*
X156072204Y-106792881D01*
X156306247Y-106629002D01*
X156356949Y-106535368D01*
X156368643Y-106469048D01*
X156353024Y-106363720D01*
X156243771Y-106207691D01*
X156150137Y-106156990D01*
X169386707Y-90972190D02*
X168420782Y-90713371D01*
X168322184Y-91081343D01*
X168343531Y-91185661D01*
X168377203Y-91243982D01*
X168456871Y-91314628D01*
X168594860Y-91351602D01*
X168699178Y-91330255D01*
X168757499Y-91296583D01*
X168828145Y-91216915D01*
X168926743Y-90848943D01*
X169090914Y-92076105D02*
X169069567Y-91971788D01*
X168989899Y-91901142D01*
X168161963Y-91679297D01*
X168955342Y-92582067D02*
X168933995Y-92477749D01*
X168900324Y-92419428D01*
X168820655Y-92348782D01*
X168544677Y-92274834D01*
X168440359Y-92296181D01*
X168382038Y-92329852D01*
X168311392Y-92409521D01*
X168274418Y-92547510D01*
X168295765Y-92651828D01*
X168329436Y-92710149D01*
X168409105Y-92780795D01*
X168685083Y-92854743D01*
X168789401Y-92833396D01*
X168847722Y-92799724D01*
X168918368Y-92720056D01*
X168955342Y-92582067D01*
X168114196Y-93145464D02*
X169080122Y-93404283D01*
X168160193Y-93157789D02*
X168089547Y-93237457D01*
X168040248Y-93421443D01*
X168061595Y-93525761D01*
X168095267Y-93584082D01*
X168174935Y-93654728D01*
X168450914Y-93728676D01*
X168555232Y-93707329D01*
X168613553Y-93673657D01*
X168684199Y-93593989D01*
X168733497Y-93410003D01*
X168712150Y-93305685D01*
X157618540Y-135793736D02*
X158041159Y-134887428D01*
X157695899Y-134726431D01*
X157589459Y-134729339D01*
X157526177Y-134752372D01*
X157442770Y-134818562D01*
X157382396Y-134948035D01*
X157385304Y-135054475D01*
X157408337Y-135117757D01*
X157474527Y-135201164D01*
X157819787Y-135362161D01*
X156582760Y-135310744D02*
X156689200Y-135307836D01*
X156772607Y-135241645D01*
X157134851Y-134464810D01*
X156108027Y-135089372D02*
X156214467Y-135086464D01*
X156277749Y-135063431D01*
X156361156Y-134997241D01*
X156481904Y-134738296D01*
X156478996Y-134631856D01*
X156455963Y-134568574D01*
X156389773Y-134485167D01*
X156260300Y-134424793D01*
X156153861Y-134427701D01*
X156090579Y-134450734D01*
X156007172Y-134516925D01*
X155886424Y-134775870D01*
X155889332Y-134882309D01*
X155912365Y-134945592D01*
X155978555Y-135028998D01*
X156108027Y-135089372D01*
X155699253Y-134163172D02*
X155276635Y-135069480D01*
X155679128Y-134206330D02*
X155612938Y-134122923D01*
X155440308Y-134042424D01*
X155333868Y-134045333D01*
X155270586Y-134068365D01*
X155187179Y-134134556D01*
X155066431Y-134393501D01*
X155069339Y-134499940D01*
X155092372Y-134563223D01*
X155158562Y-134646630D01*
X155331192Y-134727128D01*
X155437632Y-134724220D01*
X160684257Y-89775036D02*
X160110681Y-90594188D01*
X160422739Y-90812693D01*
X160528066Y-90828312D01*
X160594387Y-90816618D01*
X160688020Y-90765917D01*
X160769960Y-90648895D01*
X160785579Y-90543567D01*
X160773885Y-90477247D01*
X160723184Y-90383614D01*
X160411126Y-90165108D01*
X161620431Y-90430552D02*
X161515103Y-90414933D01*
X161421470Y-90465634D01*
X160929833Y-91167764D01*
X162049511Y-90730997D02*
X161944183Y-90715377D01*
X161877863Y-90727072D01*
X161784229Y-90777773D01*
X161620350Y-91011816D01*
X161604731Y-91117144D01*
X161616425Y-91183464D01*
X161667126Y-91277098D01*
X161784148Y-91359037D01*
X161889476Y-91374656D01*
X161955796Y-91362962D01*
X162049430Y-91312261D01*
X162213309Y-91078218D01*
X162228928Y-90972890D01*
X162217234Y-90906570D01*
X162166532Y-90812936D01*
X162049511Y-90730997D01*
X162291242Y-91714109D02*
X162864819Y-90894956D01*
X162318555Y-91675101D02*
X162369257Y-91768735D01*
X162525286Y-91877987D01*
X162630613Y-91893607D01*
X162696934Y-91881913D01*
X162790567Y-91831211D01*
X162954446Y-91597168D01*
X162970065Y-91491840D01*
X162958371Y-91425520D01*
X162907670Y-91331886D01*
X162751641Y-91222633D01*
X162646313Y-91207014D01*
X163313826Y-138749692D02*
X164132978Y-138176115D01*
X163914472Y-137864057D01*
X163820839Y-137813356D01*
X163754518Y-137801662D01*
X163649191Y-137817281D01*
X163532169Y-137899221D01*
X163481468Y-137992854D01*
X163469774Y-138059175D01*
X163485393Y-138164502D01*
X163703898Y-138476560D01*
X162658310Y-137813518D02*
X162751943Y-137864219D01*
X162857271Y-137848600D01*
X163559401Y-137356963D01*
X162357865Y-137384438D02*
X162451498Y-137435140D01*
X162517819Y-137446834D01*
X162623147Y-137431215D01*
X162857190Y-137267336D01*
X162907891Y-137173702D01*
X162919585Y-137107382D01*
X162903966Y-137002054D01*
X162822027Y-136885032D01*
X162728393Y-136834331D01*
X162662073Y-136822637D01*
X162556745Y-136838256D01*
X162322702Y-137002135D01*
X162272000Y-137095769D01*
X162260306Y-137162089D01*
X162275925Y-137267417D01*
X162357865Y-137384438D01*
X162466956Y-136377938D02*
X161647804Y-136951515D01*
X162427948Y-136405251D02*
X162412329Y-136299924D01*
X162303077Y-136143895D01*
X162209443Y-136093193D01*
X162143123Y-136081499D01*
X162037795Y-136097118D01*
X161803752Y-136260997D01*
X161753050Y-136354631D01*
X161741356Y-136420951D01*
X161756975Y-136526279D01*
X161866228Y-136682308D01*
X161959862Y-136733009D01*
X165783736Y-134311459D02*
X164877428Y-133888840D01*
X164716431Y-134234100D01*
X164719339Y-134340540D01*
X164742372Y-134403822D01*
X164808562Y-134487229D01*
X164938035Y-134547603D01*
X165044475Y-134544695D01*
X165107757Y-134521662D01*
X165191164Y-134455472D01*
X165352161Y-134110212D01*
X165300744Y-135347239D02*
X165297836Y-135240799D01*
X165231645Y-135157392D01*
X164454810Y-134795148D01*
X165079372Y-135821972D02*
X165076464Y-135715532D01*
X165053431Y-135652250D01*
X164987241Y-135568843D01*
X164728296Y-135448095D01*
X164621856Y-135451003D01*
X164558574Y-135474036D01*
X164475167Y-135540226D01*
X164414793Y-135669699D01*
X164417701Y-135776138D01*
X164440734Y-135839420D01*
X164506925Y-135922827D01*
X164765870Y-136043575D01*
X164872309Y-136040667D01*
X164935592Y-136017634D01*
X165018998Y-135951444D01*
X165079372Y-135821972D01*
X164153172Y-136230746D02*
X165059480Y-136653364D01*
X164196330Y-136250871D02*
X164112923Y-136317061D01*
X164032424Y-136489691D01*
X164035333Y-136596131D01*
X164058365Y-136659413D01*
X164124556Y-136742820D01*
X164383501Y-136863568D01*
X164489940Y-136860660D01*
X164553223Y-136837627D01*
X164636630Y-136771437D01*
X164717128Y-136598807D01*
X164714220Y-136492367D01*
X153982190Y-93968292D02*
X153723371Y-94934217D01*
X154091343Y-95032815D01*
X154195661Y-95011468D01*
X154253982Y-94977796D01*
X154324628Y-94898128D01*
X154361602Y-94760139D01*
X154340255Y-94655821D01*
X154306583Y-94597500D01*
X154226915Y-94526854D01*
X153858943Y-94428256D01*
X155086105Y-94264085D02*
X154981788Y-94285432D01*
X154911142Y-94365100D01*
X154689297Y-95193036D01*
X155592067Y-94399657D02*
X155487749Y-94421004D01*
X155429428Y-94454675D01*
X155358782Y-94534344D01*
X155284834Y-94810322D01*
X155306181Y-94914640D01*
X155339852Y-94972961D01*
X155419521Y-95043607D01*
X155557510Y-95080581D01*
X155661828Y-95059234D01*
X155720149Y-95025563D01*
X155790795Y-94945894D01*
X155864743Y-94669916D01*
X155843396Y-94565598D01*
X155809724Y-94507277D01*
X155730056Y-94436631D01*
X155592067Y-94399657D01*
X156155464Y-95240803D02*
X156414283Y-94274877D01*
X156167789Y-95194806D02*
X156247457Y-95265452D01*
X156431443Y-95314751D01*
X156535761Y-95293404D01*
X156594082Y-95259732D01*
X156664728Y-95180064D01*
X156738676Y-94904085D01*
X156717329Y-94799767D01*
X156683657Y-94741446D01*
X156603989Y-94670800D01*
X156420003Y-94621502D01*
X156315685Y-94642849D01*
X162070307Y-89508826D02*
X162643884Y-90327978D01*
X162955942Y-90109472D01*
X163006643Y-90015839D01*
X163018337Y-89949518D01*
X163002718Y-89844191D01*
X162920778Y-89727169D01*
X162827145Y-89676468D01*
X162760824Y-89664774D01*
X162655497Y-89680393D01*
X162343439Y-89898898D01*
X163006481Y-88853310D02*
X162955780Y-88946943D01*
X162971399Y-89052271D01*
X163463036Y-89754401D01*
X163435561Y-88552865D02*
X163384859Y-88646498D01*
X163373165Y-88712819D01*
X163388784Y-88818147D01*
X163552663Y-89052190D01*
X163646297Y-89102891D01*
X163712617Y-89114585D01*
X163817945Y-89098966D01*
X163934967Y-89017027D01*
X163985668Y-88923393D01*
X163997362Y-88857073D01*
X163981743Y-88751745D01*
X163817864Y-88517702D01*
X163724230Y-88467000D01*
X163657910Y-88455306D01*
X163552582Y-88470925D01*
X163435561Y-88552865D01*
X164442061Y-88661956D02*
X163868484Y-87842804D01*
X164414748Y-88622948D02*
X164520075Y-88607329D01*
X164676104Y-88498077D01*
X164726806Y-88404443D01*
X164738500Y-88338123D01*
X164722881Y-88232795D01*
X164559002Y-87998752D01*
X164465368Y-87948050D01*
X164399048Y-87936356D01*
X164293720Y-87951975D01*
X164137691Y-88061228D01*
X164086990Y-88154862D01*
X172030742Y-93424963D02*
X172604318Y-92605811D01*
X172292260Y-92387306D01*
X172186933Y-92371687D01*
X172120612Y-92383381D01*
X172026979Y-92434082D01*
X171945039Y-92551104D01*
X171929420Y-92656432D01*
X171941114Y-92722752D01*
X171991815Y-92816385D01*
X172303873Y-93034891D01*
X171094568Y-92769447D02*
X171199896Y-92785066D01*
X171293529Y-92734365D01*
X171785166Y-92032235D01*
X170665488Y-92469002D02*
X170770816Y-92484622D01*
X170837136Y-92472927D01*
X170930770Y-92422226D01*
X171094649Y-92188183D01*
X171110268Y-92082855D01*
X171098574Y-92016535D01*
X171047873Y-91922901D01*
X170930851Y-91840962D01*
X170825523Y-91825343D01*
X170759203Y-91837037D01*
X170665569Y-91887738D01*
X170501690Y-92121781D01*
X170486071Y-92227109D01*
X170497765Y-92293429D01*
X170548467Y-92387063D01*
X170665488Y-92469002D01*
X170423757Y-91485890D02*
X169850180Y-92305043D01*
X170396444Y-91524898D02*
X170345742Y-91431264D01*
X170189713Y-91322012D01*
X170084386Y-91306392D01*
X170018065Y-91318086D01*
X169924432Y-91368788D01*
X169760553Y-91602831D01*
X169744934Y-91708159D01*
X169756628Y-91774479D01*
X169807329Y-91868113D01*
X169963358Y-91977366D01*
X170068686Y-91992985D01*
X166503292Y-135407809D02*
X167469217Y-135666628D01*
X167567815Y-135298656D01*
X167546468Y-135194338D01*
X167512796Y-135136017D01*
X167433128Y-135065371D01*
X167295139Y-135028397D01*
X167190821Y-135049744D01*
X167132500Y-135083416D01*
X167061854Y-135163084D01*
X166963256Y-135531056D01*
X166799085Y-134303894D02*
X166820432Y-134408211D01*
X166900100Y-134478857D01*
X167728036Y-134700702D01*
X166934657Y-133797932D02*
X166956004Y-133902250D01*
X166989675Y-133960571D01*
X167069344Y-134031217D01*
X167345322Y-134105165D01*
X167449640Y-134083818D01*
X167507961Y-134050147D01*
X167578607Y-133970478D01*
X167615581Y-133832489D01*
X167594234Y-133728171D01*
X167560563Y-133669850D01*
X167480894Y-133599204D01*
X167204916Y-133525256D01*
X167100598Y-133546603D01*
X167042277Y-133580275D01*
X166971631Y-133659943D01*
X166934657Y-133797932D01*
X167775803Y-133234535D02*
X166809877Y-132975716D01*
X167729806Y-133222210D02*
X167800452Y-133142542D01*
X167849751Y-132958556D01*
X167828404Y-132854238D01*
X167794732Y-132795917D01*
X167715064Y-132725271D01*
X167439085Y-132651323D01*
X167334767Y-132672670D01*
X167276446Y-132706342D01*
X167205800Y-132786010D01*
X167156502Y-132969996D01*
X167177849Y-133074314D01*
X153180307Y-133323826D02*
X153753884Y-134142978D01*
X154065942Y-133924472D01*
X154116643Y-133830839D01*
X154128337Y-133764518D01*
X154112718Y-133659191D01*
X154030778Y-133542169D01*
X153937145Y-133491468D01*
X153870824Y-133479774D01*
X153765497Y-133495393D01*
X153453439Y-133713898D01*
X154116481Y-132668310D02*
X154065780Y-132761943D01*
X154081399Y-132867271D01*
X154573036Y-133569401D01*
X154545561Y-132367865D02*
X154494859Y-132461498D01*
X154483165Y-132527819D01*
X154498784Y-132633147D01*
X154662663Y-132867190D01*
X154756297Y-132917891D01*
X154822617Y-132929585D01*
X154927945Y-132913966D01*
X155044967Y-132832027D01*
X155095668Y-132738393D01*
X155107362Y-132672073D01*
X155091743Y-132566745D01*
X154927864Y-132332702D01*
X154834230Y-132282000D01*
X154767910Y-132270306D01*
X154662582Y-132285925D01*
X154545561Y-132367865D01*
X155552061Y-132476956D02*
X154978484Y-131657804D01*
X155524748Y-132437948D02*
X155630075Y-132422329D01*
X155786104Y-132313077D01*
X155836806Y-132219443D01*
X155848500Y-132153123D01*
X155832881Y-132047795D01*
X155669002Y-131813752D01*
X155575368Y-131763050D01*
X155509048Y-131751356D01*
X155403720Y-131766975D01*
X155247691Y-131876228D01*
X155196990Y-131969862D01*
X173720034Y-89004729D02*
X173012927Y-88297622D01*
X172743553Y-88566996D01*
X172709881Y-88668011D01*
X172709881Y-88735355D01*
X172743553Y-88836370D01*
X172844568Y-88937385D01*
X172945583Y-88971057D01*
X173012927Y-88971057D01*
X173113942Y-88937385D01*
X173383316Y-88668011D01*
X172911912Y-89812851D02*
X172945583Y-89711835D01*
X172911912Y-89610820D01*
X172305820Y-89004729D01*
X172541522Y-90183240D02*
X172575194Y-90082225D01*
X172575194Y-90014881D01*
X172541522Y-89913866D01*
X172339492Y-89711835D01*
X172238477Y-89678164D01*
X172171133Y-89678164D01*
X172070118Y-89711835D01*
X171969103Y-89812851D01*
X171935431Y-89913866D01*
X171935431Y-89981209D01*
X171969103Y-90082225D01*
X172171133Y-90284255D01*
X172272148Y-90317927D01*
X172339492Y-90317927D01*
X172440507Y-90284255D01*
X172541522Y-90183240D01*
X171531370Y-90250583D02*
X172238477Y-90957690D01*
X171565042Y-90284255D02*
X171464026Y-90317927D01*
X171329339Y-90452614D01*
X171295668Y-90553629D01*
X171295668Y-90620973D01*
X171329339Y-90721988D01*
X171531370Y-90924018D01*
X171632385Y-90957690D01*
X171699729Y-90957690D01*
X171800744Y-90924018D01*
X171935431Y-90789331D01*
X171969103Y-90688316D01*
X164985909Y-92676256D02*
X164563291Y-91769948D01*
X164218031Y-91930945D01*
X164151841Y-92014352D01*
X164128808Y-92077634D01*
X164125900Y-92184074D01*
X164186274Y-92313546D01*
X164269681Y-92379737D01*
X164332963Y-92402770D01*
X164439402Y-92405678D01*
X164784663Y-92244680D01*
X163950129Y-93159248D02*
X164016319Y-93075841D01*
X164019228Y-92969401D01*
X163656983Y-92192566D01*
X163475396Y-93380619D02*
X163541587Y-93297212D01*
X163564620Y-93233930D01*
X163567528Y-93127491D01*
X163446780Y-92868545D01*
X163363373Y-92802355D01*
X163300091Y-92779322D01*
X163193651Y-92776414D01*
X163064178Y-92836788D01*
X162997988Y-92920195D01*
X162974955Y-92983477D01*
X162972047Y-93089917D01*
X163092795Y-93348862D01*
X163176202Y-93415052D01*
X163239484Y-93438085D01*
X163345924Y-93440993D01*
X163475396Y-93380619D01*
X162503131Y-93098409D02*
X162925749Y-94004717D01*
X162523255Y-93141566D02*
X162416816Y-93138658D01*
X162244186Y-93219157D01*
X162177995Y-93302564D01*
X162154962Y-93365846D01*
X162152054Y-93472286D01*
X162272802Y-93731231D01*
X162356209Y-93797421D01*
X162419491Y-93820454D01*
X162525931Y-93823362D01*
X162698561Y-93742863D01*
X162764751Y-93659457D01*
X168572809Y-138126707D02*
X168831628Y-137160782D01*
X168463656Y-137062184D01*
X168359338Y-137083531D01*
X168301017Y-137117203D01*
X168230371Y-137196871D01*
X168193397Y-137334860D01*
X168214744Y-137439178D01*
X168248416Y-137497499D01*
X168328084Y-137568145D01*
X168696056Y-137666743D01*
X167468894Y-137830914D02*
X167573211Y-137809567D01*
X167643857Y-137729899D01*
X167865702Y-136901963D01*
X166962932Y-137695342D02*
X167067250Y-137673995D01*
X167125571Y-137640324D01*
X167196217Y-137560655D01*
X167270165Y-137284677D01*
X167248818Y-137180359D01*
X167215147Y-137122038D01*
X167135478Y-137051392D01*
X166997489Y-137014418D01*
X166893171Y-137035765D01*
X166834850Y-137069436D01*
X166764204Y-137149105D01*
X166690256Y-137425083D01*
X166711603Y-137529401D01*
X166745275Y-137587722D01*
X166824943Y-137658368D01*
X166962932Y-137695342D01*
X166399535Y-136854196D02*
X166140716Y-137820122D01*
X166387210Y-136900193D02*
X166307542Y-136829547D01*
X166123556Y-136780248D01*
X166019238Y-136801595D01*
X165960917Y-136835267D01*
X165890271Y-136914935D01*
X165816323Y-137190914D01*
X165837670Y-137295232D01*
X165871342Y-137353553D01*
X165951010Y-137424199D01*
X166134996Y-137473497D01*
X166239314Y-137452150D01*
X156136263Y-133343540D02*
X157042571Y-133766159D01*
X157203568Y-133420899D01*
X157200660Y-133314459D01*
X157177627Y-133251177D01*
X157111437Y-133167770D01*
X156981964Y-133107396D01*
X156875524Y-133110304D01*
X156812242Y-133133337D01*
X156728835Y-133199527D01*
X156567838Y-133544787D01*
X156619255Y-132307760D02*
X156622163Y-132414200D01*
X156688354Y-132497607D01*
X157465189Y-132859851D01*
X156840627Y-131833027D02*
X156843535Y-131939467D01*
X156866568Y-132002749D01*
X156932758Y-132086156D01*
X157191703Y-132206904D01*
X157298143Y-132203996D01*
X157361425Y-132180963D01*
X157444832Y-132114773D01*
X157505206Y-131985300D01*
X157502298Y-131878861D01*
X157479265Y-131815579D01*
X157413074Y-131732172D01*
X157154129Y-131611424D01*
X157047690Y-131614332D01*
X156984407Y-131637365D01*
X156901001Y-131703555D01*
X156840627Y-131833027D01*
X157766827Y-131424253D02*
X156860519Y-131001635D01*
X157723669Y-131404128D02*
X157807076Y-131337938D01*
X157887575Y-131165308D01*
X157884666Y-131058868D01*
X157861634Y-130995586D01*
X157795443Y-130912179D01*
X157536498Y-130791431D01*
X157430059Y-130794339D01*
X157366776Y-130817372D01*
X157283369Y-130883562D01*
X157202871Y-131056192D01*
X157205779Y-131162632D01*
X163273021Y-132807775D02*
X163531840Y-133773700D01*
X163899811Y-133675103D01*
X163979480Y-133604457D01*
X164013151Y-133546136D01*
X164034498Y-133441818D01*
X163997524Y-133303829D01*
X163926878Y-133224160D01*
X163868557Y-133190489D01*
X163764240Y-133169141D01*
X163396268Y-133267739D01*
X164376936Y-132511981D02*
X164297268Y-132582627D01*
X164275921Y-132686945D01*
X164497766Y-133514881D01*
X164882897Y-132376409D02*
X164803229Y-132447055D01*
X164769557Y-132505377D01*
X164748210Y-132609694D01*
X164822158Y-132885673D01*
X164892804Y-132965341D01*
X164951125Y-132999013D01*
X165055443Y-133020360D01*
X165193432Y-132983386D01*
X165273101Y-132912740D01*
X165306772Y-132854419D01*
X165328119Y-132750101D01*
X165254171Y-132474122D01*
X165183525Y-132394454D01*
X165125204Y-132360782D01*
X165020886Y-132339435D01*
X164882897Y-132376409D01*
X165791387Y-132823165D02*
X165532568Y-131857239D01*
X165779062Y-132777168D02*
X165883379Y-132798515D01*
X166067365Y-132749216D01*
X166147034Y-132678570D01*
X166180705Y-132620249D01*
X166202052Y-132515932D01*
X166128104Y-132239953D01*
X166057458Y-132160284D01*
X165999137Y-132126613D01*
X165894819Y-132105266D01*
X165710833Y-132154565D01*
X165631165Y-132225210D01*
X164714729Y-88999965D02*
X164007622Y-89707072D01*
X164276996Y-89976446D01*
X164378011Y-90010118D01*
X164445355Y-90010118D01*
X164546370Y-89976446D01*
X164647385Y-89875431D01*
X164681057Y-89774416D01*
X164681057Y-89707072D01*
X164647385Y-89606057D01*
X164378011Y-89336683D01*
X165522851Y-89808087D02*
X165421835Y-89774416D01*
X165320820Y-89808087D01*
X164714729Y-90414179D01*
X165893240Y-90178477D02*
X165792225Y-90144805D01*
X165724881Y-90144805D01*
X165623866Y-90178477D01*
X165421835Y-90380507D01*
X165388164Y-90481522D01*
X165388164Y-90548866D01*
X165421835Y-90649881D01*
X165522851Y-90750896D01*
X165623866Y-90784568D01*
X165691209Y-90784568D01*
X165792225Y-90750896D01*
X165994255Y-90548866D01*
X166027927Y-90447851D01*
X166027927Y-90380507D01*
X165994255Y-90279492D01*
X165893240Y-90178477D01*
X165960583Y-91188629D02*
X166667690Y-90481522D01*
X165994255Y-91154957D02*
X166027927Y-91255973D01*
X166162614Y-91390660D01*
X166263629Y-91424331D01*
X166330973Y-91424331D01*
X166431988Y-91390660D01*
X166634018Y-91188629D01*
X166667690Y-91087614D01*
X166667690Y-91020270D01*
X166634018Y-90919255D01*
X166499331Y-90784568D01*
X166398316Y-90750896D01*
X170644692Y-83531173D02*
X170071115Y-82712021D01*
X169759057Y-82930527D01*
X169708356Y-83024160D01*
X169696662Y-83090481D01*
X169712281Y-83195808D01*
X169794221Y-83312830D01*
X169887854Y-83363531D01*
X169954175Y-83375225D01*
X170059502Y-83359606D01*
X170371560Y-83141101D01*
X169708518Y-84186689D02*
X169759219Y-84093056D01*
X169743600Y-83987728D01*
X169251963Y-83285598D01*
X169279438Y-84487134D02*
X169330140Y-84393501D01*
X169341834Y-84327180D01*
X169326215Y-84221852D01*
X169162336Y-83987809D01*
X169068702Y-83937108D01*
X169002382Y-83925414D01*
X168897054Y-83941033D01*
X168780032Y-84022972D01*
X168729331Y-84116606D01*
X168717637Y-84182926D01*
X168733256Y-84288254D01*
X168897135Y-84522297D01*
X168990769Y-84572999D01*
X169057089Y-84584693D01*
X169162417Y-84569074D01*
X169279438Y-84487134D01*
X168272938Y-84378043D02*
X168846515Y-85197195D01*
X168300251Y-84417051D02*
X168194924Y-84432670D01*
X168038895Y-84541922D01*
X167988193Y-84635556D01*
X167976499Y-84701876D01*
X167992118Y-84807204D01*
X168155997Y-85041247D01*
X168249631Y-85091949D01*
X168315951Y-85103643D01*
X168421279Y-85088024D01*
X168577308Y-84978771D01*
X168628009Y-84885137D01*
X153914965Y-92925270D02*
X154622072Y-93632377D01*
X154891446Y-93363003D01*
X154925118Y-93261988D01*
X154925118Y-93194644D01*
X154891446Y-93093629D01*
X154790431Y-92992614D01*
X154689416Y-92958942D01*
X154622072Y-92958942D01*
X154521057Y-92992614D01*
X154251683Y-93261988D01*
X154723087Y-92117148D02*
X154689416Y-92218164D01*
X154723087Y-92319179D01*
X155329179Y-92925270D01*
X155093477Y-91746759D02*
X155059805Y-91847774D01*
X155059805Y-91915118D01*
X155093477Y-92016133D01*
X155295507Y-92218164D01*
X155396522Y-92251835D01*
X155463866Y-92251835D01*
X155564881Y-92218164D01*
X155665896Y-92117148D01*
X155699568Y-92016133D01*
X155699568Y-91948790D01*
X155665896Y-91847774D01*
X155463866Y-91645744D01*
X155362851Y-91612072D01*
X155295507Y-91612072D01*
X155194492Y-91645744D01*
X155093477Y-91746759D01*
X156103629Y-91679416D02*
X155396522Y-90972309D01*
X156069957Y-91645744D02*
X156170973Y-91612072D01*
X156305660Y-91477385D01*
X156339331Y-91376370D01*
X156339331Y-91309026D01*
X156305660Y-91208011D01*
X156103629Y-91005981D01*
X156002614Y-90972309D01*
X155935270Y-90972309D01*
X155834255Y-91005981D01*
X155699568Y-91140668D01*
X155665896Y-91241683D01*
X156299090Y-93063743D02*
X156721708Y-93970051D01*
X157066968Y-93809054D01*
X157133158Y-93725647D01*
X157156191Y-93662365D01*
X157159099Y-93555925D01*
X157098725Y-93426453D01*
X157015318Y-93360262D01*
X156952036Y-93337229D01*
X156845597Y-93334321D01*
X156500336Y-93495319D01*
X157334870Y-92580751D02*
X157268680Y-92664158D01*
X157265771Y-92770598D01*
X157628016Y-93547433D01*
X157809603Y-92359380D02*
X157743412Y-92442787D01*
X157720379Y-92506069D01*
X157717471Y-92612508D01*
X157838219Y-92871454D01*
X157921626Y-92937644D01*
X157984908Y-92960677D01*
X158091348Y-92963585D01*
X158220821Y-92903211D01*
X158287011Y-92819804D01*
X158310044Y-92756522D01*
X158312952Y-92650082D01*
X158192204Y-92391137D01*
X158108797Y-92324947D01*
X158045515Y-92301914D01*
X157939075Y-92299006D01*
X157809603Y-92359380D01*
X158781868Y-92641590D02*
X158359250Y-91735282D01*
X158761744Y-92598433D02*
X158868183Y-92601341D01*
X159040813Y-92520842D01*
X159107004Y-92437435D01*
X159130037Y-92374153D01*
X159132945Y-92267713D01*
X159012197Y-92008768D01*
X158928790Y-91942578D01*
X158865508Y-91919545D01*
X158759068Y-91916637D01*
X158586438Y-91997136D01*
X158520248Y-92080542D01*
X159122224Y-133283021D02*
X158156299Y-133541840D01*
X158254896Y-133909811D01*
X158325542Y-133989480D01*
X158383863Y-134023151D01*
X158488181Y-134044498D01*
X158626170Y-134007524D01*
X158705839Y-133936878D01*
X158739510Y-133878557D01*
X158760858Y-133774240D01*
X158662260Y-133406268D01*
X159418018Y-134386936D02*
X159347372Y-134307268D01*
X159243054Y-134285921D01*
X158415118Y-134507766D01*
X159553590Y-134892897D02*
X159482944Y-134813229D01*
X159424622Y-134779557D01*
X159320305Y-134758210D01*
X159044326Y-134832158D01*
X158964658Y-134902804D01*
X158930986Y-134961125D01*
X158909639Y-135065443D01*
X158946613Y-135203432D01*
X159017259Y-135283101D01*
X159075580Y-135316772D01*
X159179898Y-135338119D01*
X159455877Y-135264171D01*
X159535545Y-135193525D01*
X159569217Y-135135204D01*
X159590564Y-135030886D01*
X159553590Y-134892897D01*
X159106834Y-135801387D02*
X160072760Y-135542568D01*
X159152831Y-135789062D02*
X159131484Y-135893379D01*
X159180783Y-136077365D01*
X159251429Y-136157034D01*
X159309750Y-136190705D01*
X159414067Y-136212052D01*
X159690046Y-136138104D01*
X159769715Y-136067458D01*
X159803386Y-136009137D01*
X159824733Y-135904819D01*
X159775434Y-135720833D01*
X159704789Y-135641165D01*
X175620270Y-92930034D02*
X176327377Y-92222927D01*
X176058003Y-91953553D01*
X175956988Y-91919881D01*
X175889644Y-91919881D01*
X175788629Y-91953553D01*
X175687614Y-92054568D01*
X175653942Y-92155583D01*
X175653942Y-92222927D01*
X175687614Y-92323942D01*
X175956988Y-92593316D01*
X174812148Y-92121912D02*
X174913164Y-92155583D01*
X175014179Y-92121912D01*
X175620270Y-91515820D01*
X174441759Y-91751522D02*
X174542774Y-91785194D01*
X174610118Y-91785194D01*
X174711133Y-91751522D01*
X174913164Y-91549492D01*
X174946835Y-91448477D01*
X174946835Y-91381133D01*
X174913164Y-91280118D01*
X174812148Y-91179103D01*
X174711133Y-91145431D01*
X174643790Y-91145431D01*
X174542774Y-91179103D01*
X174340744Y-91381133D01*
X174307072Y-91482148D01*
X174307072Y-91549492D01*
X174340744Y-91650507D01*
X174441759Y-91751522D01*
X174374416Y-90741370D02*
X173667309Y-91448477D01*
X174340744Y-90775042D02*
X174307072Y-90674026D01*
X174172385Y-90539339D01*
X174071370Y-90505668D01*
X174004026Y-90505668D01*
X173903011Y-90539339D01*
X173700981Y-90741370D01*
X173667309Y-90842385D01*
X173667309Y-90909729D01*
X173700981Y-91010744D01*
X173835668Y-91145431D01*
X173936683Y-91179103D01*
X163333540Y-135793736D02*
X163756159Y-134887428D01*
X163410899Y-134726431D01*
X163304459Y-134729339D01*
X163241177Y-134752372D01*
X163157770Y-134818562D01*
X163097396Y-134948035D01*
X163100304Y-135054475D01*
X163123337Y-135117757D01*
X163189527Y-135201164D01*
X163534787Y-135362161D01*
X162297760Y-135310744D02*
X162404200Y-135307836D01*
X162487607Y-135241645D01*
X162849851Y-134464810D01*
X161823027Y-135089372D02*
X161929467Y-135086464D01*
X161992749Y-135063431D01*
X162076156Y-134997241D01*
X162196904Y-134738296D01*
X162193996Y-134631856D01*
X162170963Y-134568574D01*
X162104773Y-134485167D01*
X161975300Y-134424793D01*
X161868861Y-134427701D01*
X161805579Y-134450734D01*
X161722172Y-134516925D01*
X161601424Y-134775870D01*
X161604332Y-134882309D01*
X161627365Y-134945592D01*
X161693555Y-135028998D01*
X161823027Y-135089372D01*
X161414253Y-134163172D02*
X160991635Y-135069480D01*
X161394128Y-134206330D02*
X161327938Y-134122923D01*
X161155308Y-134042424D01*
X161048868Y-134045333D01*
X160985586Y-134068365D01*
X160902179Y-134134556D01*
X160781431Y-134393501D01*
X160784339Y-134499940D01*
X160807372Y-134563223D01*
X160873562Y-134646630D01*
X161046192Y-134727128D01*
X161152632Y-134724220D01*
X161131707Y-84622190D02*
X160165782Y-84363371D01*
X160067184Y-84731343D01*
X160088531Y-84835661D01*
X160122203Y-84893982D01*
X160201871Y-84964628D01*
X160339860Y-85001602D01*
X160444178Y-84980255D01*
X160502499Y-84946583D01*
X160573145Y-84866915D01*
X160671743Y-84498943D01*
X160835914Y-85726105D02*
X160814567Y-85621788D01*
X160734899Y-85551142D01*
X159906963Y-85329297D01*
X160700342Y-86232067D02*
X160678995Y-86127749D01*
X160645324Y-86069428D01*
X160565655Y-85998782D01*
X160289677Y-85924834D01*
X160185359Y-85946181D01*
X160127038Y-85979852D01*
X160056392Y-86059521D01*
X160019418Y-86197510D01*
X160040765Y-86301828D01*
X160074436Y-86360149D01*
X160154105Y-86430795D01*
X160430083Y-86504743D01*
X160534401Y-86483396D01*
X160592722Y-86449724D01*
X160663368Y-86370056D01*
X160700342Y-86232067D01*
X159859196Y-86795464D02*
X160825122Y-87054283D01*
X159905193Y-86807789D02*
X159834547Y-86887457D01*
X159785248Y-87071443D01*
X159806595Y-87175761D01*
X159840267Y-87234082D01*
X159919935Y-87304728D01*
X160195914Y-87378676D01*
X160300232Y-87357329D01*
X160358553Y-87323657D01*
X160429199Y-87243989D01*
X160478497Y-87060003D01*
X160457150Y-86955685D01*
X161851263Y-85718540D02*
X162757571Y-86141159D01*
X162918568Y-85795899D01*
X162915660Y-85689459D01*
X162892627Y-85626177D01*
X162826437Y-85542770D01*
X162696964Y-85482396D01*
X162590524Y-85485304D01*
X162527242Y-85508337D01*
X162443835Y-85574527D01*
X162282838Y-85919787D01*
X162334255Y-84682760D02*
X162337163Y-84789200D01*
X162403354Y-84872607D01*
X163180189Y-85234851D01*
X162555627Y-84208027D02*
X162558535Y-84314467D01*
X162581568Y-84377749D01*
X162647758Y-84461156D01*
X162906703Y-84581904D01*
X163013143Y-84578996D01*
X163076425Y-84555963D01*
X163159832Y-84489773D01*
X163220206Y-84360300D01*
X163217298Y-84253861D01*
X163194265Y-84190579D01*
X163128074Y-84107172D01*
X162869129Y-83986424D01*
X162762690Y-83989332D01*
X162699407Y-84012365D01*
X162616001Y-84078555D01*
X162555627Y-84208027D01*
X163481827Y-83799253D02*
X162575519Y-83376635D01*
X163438669Y-83779128D02*
X163522076Y-83712938D01*
X163602575Y-83540308D01*
X163599666Y-83433868D01*
X163576634Y-83370586D01*
X163510443Y-83287179D01*
X163251498Y-83166431D01*
X163145059Y-83169339D01*
X163081776Y-83192372D01*
X162998369Y-83258562D01*
X162917871Y-83431192D01*
X162920779Y-83537632D01*
X153788826Y-86044692D02*
X154607978Y-85471115D01*
X154389472Y-85159057D01*
X154295839Y-85108356D01*
X154229518Y-85096662D01*
X154124191Y-85112281D01*
X154007169Y-85194221D01*
X153956468Y-85287854D01*
X153944774Y-85354175D01*
X153960393Y-85459502D01*
X154178898Y-85771560D01*
X153133310Y-85108518D02*
X153226943Y-85159219D01*
X153332271Y-85143600D01*
X154034401Y-84651963D01*
X152832865Y-84679438D02*
X152926498Y-84730140D01*
X152992819Y-84741834D01*
X153098147Y-84726215D01*
X153332190Y-84562336D01*
X153382891Y-84468702D01*
X153394585Y-84402382D01*
X153378966Y-84297054D01*
X153297027Y-84180032D01*
X153203393Y-84129331D01*
X153137073Y-84117637D01*
X153031745Y-84133256D01*
X152797702Y-84297135D01*
X152747000Y-84390769D01*
X152735306Y-84457089D01*
X152750925Y-84562417D01*
X152832865Y-84679438D01*
X152941956Y-83672938D02*
X152122804Y-84246515D01*
X152902948Y-83700251D02*
X152887329Y-83594924D01*
X152778077Y-83438895D01*
X152684443Y-83388193D01*
X152618123Y-83376499D01*
X152512795Y-83392118D01*
X152278752Y-83555997D01*
X152228050Y-83649631D01*
X152216356Y-83715951D01*
X152231975Y-83821279D01*
X152341228Y-83977308D01*
X152434862Y-84028009D01*
X156258736Y-81606459D02*
X155352428Y-81183840D01*
X155191431Y-81529100D01*
X155194339Y-81635540D01*
X155217372Y-81698822D01*
X155283562Y-81782229D01*
X155413035Y-81842603D01*
X155519475Y-81839695D01*
X155582757Y-81816662D01*
X155666164Y-81750472D01*
X155827161Y-81405212D01*
X155775744Y-82642239D02*
X155772836Y-82535799D01*
X155706645Y-82452392D01*
X154929810Y-82090148D01*
X155554372Y-83116972D02*
X155551464Y-83010532D01*
X155528431Y-82947250D01*
X155462241Y-82863843D01*
X155203296Y-82743095D01*
X155096856Y-82746003D01*
X155033574Y-82769036D01*
X154950167Y-82835226D01*
X154889793Y-82964699D01*
X154892701Y-83071138D01*
X154915734Y-83134420D01*
X154981925Y-83217827D01*
X155240870Y-83338575D01*
X155347309Y-83335667D01*
X155410592Y-83312634D01*
X155493998Y-83246444D01*
X155554372Y-83116972D01*
X154628172Y-83525746D02*
X155534480Y-83948364D01*
X154671330Y-83545871D02*
X154587923Y-83612061D01*
X154507424Y-83784691D01*
X154510333Y-83891131D01*
X154533365Y-83954413D01*
X154599556Y-84037820D01*
X154858501Y-84158568D01*
X154964940Y-84155660D01*
X155028223Y-84132627D01*
X155111630Y-84066437D01*
X155192128Y-83893807D01*
X155189220Y-83787367D01*
X159062190Y-81903292D02*
X158803371Y-82869217D01*
X159171343Y-82967815D01*
X159275661Y-82946468D01*
X159333982Y-82912796D01*
X159404628Y-82833128D01*
X159441602Y-82695139D01*
X159420255Y-82590821D01*
X159386583Y-82532500D01*
X159306915Y-82461854D01*
X158938943Y-82363256D01*
X160166105Y-82199085D02*
X160061788Y-82220432D01*
X159991142Y-82300100D01*
X159769297Y-83128036D01*
X160672067Y-82334657D02*
X160567749Y-82356004D01*
X160509428Y-82389675D01*
X160438782Y-82469344D01*
X160364834Y-82745322D01*
X160386181Y-82849640D01*
X160419852Y-82907961D01*
X160499521Y-82978607D01*
X160637510Y-83015581D01*
X160741828Y-82994234D01*
X160800149Y-82960563D01*
X160870795Y-82880894D01*
X160944743Y-82604916D01*
X160923396Y-82500598D01*
X160889724Y-82442277D01*
X160810056Y-82371631D01*
X160672067Y-82334657D01*
X161235464Y-83175803D02*
X161494283Y-82209877D01*
X161247789Y-83129806D02*
X161327457Y-83200452D01*
X161511443Y-83249751D01*
X161615761Y-83228404D01*
X161674082Y-83194732D01*
X161744728Y-83115064D01*
X161818676Y-82839085D01*
X161797329Y-82734767D01*
X161763657Y-82676446D01*
X161683989Y-82605800D01*
X161500003Y-82556502D01*
X161395685Y-82577849D01*
X161235742Y-89614963D02*
X161809318Y-88795811D01*
X161497260Y-88577306D01*
X161391933Y-88561687D01*
X161325612Y-88573381D01*
X161231979Y-88624082D01*
X161150039Y-88741104D01*
X161134420Y-88846432D01*
X161146114Y-88912752D01*
X161196815Y-89006385D01*
X161508873Y-89224891D01*
X160299568Y-88959447D02*
X160404896Y-88975066D01*
X160498529Y-88924365D01*
X160990166Y-88222235D01*
X159870488Y-88659002D02*
X159975816Y-88674622D01*
X160042136Y-88662927D01*
X160135770Y-88612226D01*
X160299649Y-88378183D01*
X160315268Y-88272855D01*
X160303574Y-88206535D01*
X160252873Y-88112901D01*
X160135851Y-88030962D01*
X160030523Y-88015343D01*
X159964203Y-88027037D01*
X159870569Y-88077738D01*
X159706690Y-88311781D01*
X159691071Y-88417109D01*
X159702765Y-88483429D01*
X159753467Y-88577063D01*
X159870488Y-88659002D01*
X159628757Y-87675890D02*
X159055180Y-88495043D01*
X159601444Y-87714898D02*
X159550742Y-87621264D01*
X159394713Y-87512012D01*
X159289386Y-87496392D01*
X159223065Y-87508086D01*
X159129432Y-87558788D01*
X158965553Y-87792831D01*
X158949934Y-87898159D01*
X158961628Y-87964479D01*
X159012329Y-88058113D01*
X159168358Y-88167366D01*
X159273686Y-88182985D01*
X156978292Y-82702809D02*
X157944217Y-82961628D01*
X158042815Y-82593656D01*
X158021468Y-82489338D01*
X157987796Y-82431017D01*
X157908128Y-82360371D01*
X157770139Y-82323397D01*
X157665821Y-82344744D01*
X157607500Y-82378416D01*
X157536854Y-82458084D01*
X157438256Y-82826056D01*
X157274085Y-81598894D02*
X157295432Y-81703211D01*
X157375100Y-81773857D01*
X158203036Y-81995702D01*
X157409657Y-81092932D02*
X157431004Y-81197250D01*
X157464675Y-81255571D01*
X157544344Y-81326217D01*
X157820322Y-81400165D01*
X157924640Y-81378818D01*
X157982961Y-81345147D01*
X158053607Y-81265478D01*
X158090581Y-81127489D01*
X158069234Y-81023171D01*
X158035563Y-80964850D01*
X157955894Y-80894204D01*
X157679916Y-80820256D01*
X157575598Y-80841603D01*
X157517277Y-80875275D01*
X157446631Y-80954943D01*
X157409657Y-81092932D01*
X158250803Y-80529535D02*
X157284877Y-80270716D01*
X158204806Y-80517210D02*
X158275452Y-80437542D01*
X158324751Y-80253556D01*
X158303404Y-80149238D01*
X158269732Y-80090917D01*
X158190064Y-80020271D01*
X157914085Y-79946323D01*
X157809767Y-79967670D01*
X157751446Y-80001342D01*
X157680800Y-80081010D01*
X157631502Y-80264996D01*
X157652849Y-80369314D01*
X159115034Y-86464729D02*
X158407927Y-85757622D01*
X158138553Y-86026996D01*
X158104881Y-86128011D01*
X158104881Y-86195355D01*
X158138553Y-86296370D01*
X158239568Y-86397385D01*
X158340583Y-86431057D01*
X158407927Y-86431057D01*
X158508942Y-86397385D01*
X158778316Y-86128011D01*
X158306912Y-87272851D02*
X158340583Y-87171835D01*
X158306912Y-87070820D01*
X157700820Y-86464729D01*
X157936522Y-87643240D02*
X157970194Y-87542225D01*
X157970194Y-87474881D01*
X157936522Y-87373866D01*
X157734492Y-87171835D01*
X157633477Y-87138164D01*
X157566133Y-87138164D01*
X157465118Y-87171835D01*
X157364103Y-87272851D01*
X157330431Y-87373866D01*
X157330431Y-87441209D01*
X157364103Y-87542225D01*
X157566133Y-87744255D01*
X157667148Y-87777927D01*
X157734492Y-87777927D01*
X157835507Y-87744255D01*
X157936522Y-87643240D01*
X156926370Y-87710583D02*
X157633477Y-88417690D01*
X156960042Y-87744255D02*
X156859026Y-87777927D01*
X156724339Y-87912614D01*
X156690668Y-88013629D01*
X156690668Y-88080973D01*
X156724339Y-88181988D01*
X156926370Y-88384018D01*
X157027385Y-88417690D01*
X157094729Y-88417690D01*
X157195744Y-88384018D01*
X157330431Y-88249331D01*
X157364103Y-88148316D01*
X156730909Y-86326256D02*
X156308291Y-85419948D01*
X155963031Y-85580945D01*
X155896841Y-85664352D01*
X155873808Y-85727634D01*
X155870900Y-85834074D01*
X155931274Y-85963546D01*
X156014681Y-86029737D01*
X156077963Y-86052770D01*
X156184402Y-86055678D01*
X156529663Y-85894680D01*
X155695129Y-86809248D02*
X155761319Y-86725841D01*
X155764228Y-86619401D01*
X155401983Y-85842566D01*
X155220396Y-87030619D02*
X155286587Y-86947212D01*
X155309620Y-86883930D01*
X155312528Y-86777491D01*
X155191780Y-86518545D01*
X155108373Y-86452355D01*
X155045091Y-86429322D01*
X154938651Y-86426414D01*
X154809178Y-86486788D01*
X154742988Y-86570195D01*
X154719955Y-86633477D01*
X154717047Y-86739917D01*
X154837795Y-86998862D01*
X154921202Y-87065052D01*
X154984484Y-87088085D01*
X155090924Y-87090993D01*
X155220396Y-87030619D01*
X154248131Y-86748409D02*
X154670749Y-87654717D01*
X154268255Y-86791566D02*
X154161816Y-86788658D01*
X153989186Y-86869157D01*
X153922995Y-86952564D01*
X153899962Y-87015846D01*
X153897054Y-87122286D01*
X154017802Y-87381231D01*
X154101209Y-87447421D01*
X154164491Y-87470454D01*
X154270931Y-87473362D01*
X154443561Y-87392863D01*
X154509751Y-87309457D01*
X159047809Y-85421707D02*
X159306628Y-84455782D01*
X158938656Y-84357184D01*
X158834338Y-84378531D01*
X158776017Y-84412203D01*
X158705371Y-84491871D01*
X158668397Y-84629860D01*
X158689744Y-84734178D01*
X158723416Y-84792499D01*
X158803084Y-84863145D01*
X159171056Y-84961743D01*
X157943894Y-85125914D02*
X158048211Y-85104567D01*
X158118857Y-85024899D01*
X158340702Y-84196963D01*
X157437932Y-84990342D02*
X157542250Y-84968995D01*
X157600571Y-84935324D01*
X157671217Y-84855655D01*
X157745165Y-84579677D01*
X157723818Y-84475359D01*
X157690147Y-84417038D01*
X157610478Y-84346392D01*
X157472489Y-84309418D01*
X157368171Y-84330765D01*
X157309850Y-84364436D01*
X157239204Y-84444105D01*
X157165256Y-84720083D01*
X157186603Y-84824401D01*
X157220275Y-84882722D01*
X157299943Y-84953368D01*
X157437932Y-84990342D01*
X156874535Y-84149196D02*
X156615716Y-85115122D01*
X156862210Y-84195193D02*
X156782542Y-84124547D01*
X156598556Y-84075248D01*
X156494238Y-84096595D01*
X156435917Y-84130267D01*
X156365271Y-84209935D01*
X156291323Y-84485914D01*
X156312670Y-84590232D01*
X156346342Y-84648553D01*
X156426010Y-84719199D01*
X156609996Y-84768497D01*
X156714314Y-84747150D01*
X164301459Y-84236263D02*
X163878840Y-85142571D01*
X164224100Y-85303568D01*
X164330540Y-85300660D01*
X164393822Y-85277627D01*
X164477229Y-85211437D01*
X164537603Y-85081964D01*
X164534695Y-84975524D01*
X164511662Y-84912242D01*
X164445472Y-84828835D01*
X164100212Y-84667838D01*
X165337239Y-84719255D02*
X165230799Y-84722163D01*
X165147392Y-84788354D01*
X164785148Y-85565189D01*
X165811972Y-84940627D02*
X165705532Y-84943535D01*
X165642250Y-84966568D01*
X165558843Y-85032758D01*
X165438095Y-85291703D01*
X165441003Y-85398143D01*
X165464036Y-85461425D01*
X165530226Y-85544832D01*
X165659699Y-85605206D01*
X165766138Y-85602298D01*
X165829420Y-85579265D01*
X165912827Y-85513074D01*
X166033575Y-85254129D01*
X166030667Y-85147690D01*
X166007634Y-85084407D01*
X165941444Y-85001001D01*
X165811972Y-84940627D01*
X166220746Y-85866827D02*
X166643364Y-84960519D01*
X166240871Y-85823669D02*
X166307061Y-85907076D01*
X166479691Y-85987575D01*
X166586131Y-85984666D01*
X166649413Y-85961634D01*
X166732820Y-85895443D01*
X166853568Y-85636498D01*
X166850660Y-85530059D01*
X166827627Y-85466776D01*
X166761437Y-85383369D01*
X166588807Y-85302871D01*
X166482367Y-85305779D01*
X153748021Y-80102775D02*
X154006840Y-81068700D01*
X154374811Y-80970103D01*
X154454480Y-80899457D01*
X154488151Y-80841136D01*
X154509498Y-80736818D01*
X154472524Y-80598829D01*
X154401878Y-80519160D01*
X154343557Y-80485489D01*
X154239240Y-80464141D01*
X153871268Y-80562739D01*
X154851936Y-79806981D02*
X154772268Y-79877627D01*
X154750921Y-79981945D01*
X154972766Y-80809881D01*
X155357897Y-79671409D02*
X155278229Y-79742055D01*
X155244557Y-79800377D01*
X155223210Y-79904694D01*
X155297158Y-80180673D01*
X155367804Y-80260341D01*
X155426125Y-80294013D01*
X155530443Y-80315360D01*
X155668432Y-80278386D01*
X155748101Y-80207740D01*
X155781772Y-80149419D01*
X155803119Y-80045101D01*
X155729171Y-79769122D01*
X155658525Y-79689454D01*
X155600204Y-79655782D01*
X155495886Y-79634435D01*
X155357897Y-79671409D01*
X156266387Y-80118165D02*
X156007568Y-79152239D01*
X156254062Y-80072168D02*
X156358379Y-80093515D01*
X156542365Y-80044216D01*
X156622034Y-79973570D01*
X156655705Y-79915249D01*
X156677052Y-79810932D01*
X156603104Y-79534953D01*
X156532458Y-79455284D01*
X156474137Y-79421613D01*
X156369819Y-79400266D01*
X156185833Y-79449565D01*
X156106165Y-79520210D01*
X159849692Y-89881173D02*
X159276115Y-89062021D01*
X158964057Y-89280527D01*
X158913356Y-89374160D01*
X158901662Y-89440481D01*
X158917281Y-89545808D01*
X158999221Y-89662830D01*
X159092854Y-89713531D01*
X159159175Y-89725225D01*
X159264502Y-89709606D01*
X159576560Y-89491101D01*
X158913518Y-90536689D02*
X158964219Y-90443056D01*
X158948600Y-90337728D01*
X158456963Y-89635598D01*
X158484438Y-90837134D02*
X158535140Y-90743501D01*
X158546834Y-90677180D01*
X158531215Y-90571852D01*
X158367336Y-90337809D01*
X158273702Y-90287108D01*
X158207382Y-90275414D01*
X158102054Y-90291033D01*
X157985032Y-90372972D01*
X157934331Y-90466606D01*
X157922637Y-90532926D01*
X157938256Y-90638254D01*
X158102135Y-90872297D01*
X158195769Y-90922999D01*
X158262089Y-90934693D01*
X158367417Y-90919074D01*
X158484438Y-90837134D01*
X157477938Y-90728043D02*
X158051515Y-91547195D01*
X157505251Y-90767051D02*
X157399924Y-90782670D01*
X157243895Y-90891922D01*
X157193193Y-90985556D01*
X157181499Y-91051876D01*
X157197118Y-91157204D01*
X157360997Y-91391247D01*
X157454631Y-91441949D01*
X157520951Y-91453643D01*
X157626279Y-91438024D01*
X157782308Y-91328771D01*
X157833009Y-91235137D01*
X164361978Y-87222224D02*
X164103159Y-86256299D01*
X163735188Y-86354896D01*
X163655519Y-86425542D01*
X163621848Y-86483863D01*
X163600501Y-86588181D01*
X163637475Y-86726170D01*
X163708121Y-86805839D01*
X163766442Y-86839510D01*
X163870759Y-86860858D01*
X164238731Y-86762260D01*
X163258063Y-87518018D02*
X163337731Y-87447372D01*
X163359078Y-87343054D01*
X163137233Y-86515118D01*
X162752102Y-87653590D02*
X162831770Y-87582944D01*
X162865442Y-87524622D01*
X162886789Y-87420305D01*
X162812841Y-87144326D01*
X162742195Y-87064658D01*
X162683874Y-87030986D01*
X162579556Y-87009639D01*
X162441567Y-87046613D01*
X162361898Y-87117259D01*
X162328227Y-87175580D01*
X162306880Y-87279898D01*
X162380828Y-87555877D01*
X162451474Y-87635545D01*
X162509795Y-87669217D01*
X162614113Y-87690564D01*
X162752102Y-87653590D01*
X161843612Y-87206834D02*
X162102431Y-88172760D01*
X161855937Y-87252831D02*
X161751620Y-87231484D01*
X161567634Y-87280783D01*
X161487965Y-87351429D01*
X161454294Y-87409750D01*
X161432947Y-87514067D01*
X161506895Y-87790046D01*
X161577541Y-87869715D01*
X161635862Y-87903386D01*
X161740180Y-87924733D01*
X161924166Y-87875434D01*
X162003834Y-87804789D01*
X157205270Y-90390034D02*
X157912377Y-89682927D01*
X157643003Y-89413553D01*
X157541988Y-89379881D01*
X157474644Y-89379881D01*
X157373629Y-89413553D01*
X157272614Y-89514568D01*
X157238942Y-89615583D01*
X157238942Y-89682927D01*
X157272614Y-89783942D01*
X157541988Y-90053316D01*
X156397148Y-89581912D02*
X156498164Y-89615583D01*
X156599179Y-89581912D01*
X157205270Y-88975820D01*
X156026759Y-89211522D02*
X156127774Y-89245194D01*
X156195118Y-89245194D01*
X156296133Y-89211522D01*
X156498164Y-89009492D01*
X156531835Y-88908477D01*
X156531835Y-88841133D01*
X156498164Y-88740118D01*
X156397148Y-88639103D01*
X156296133Y-88605431D01*
X156228790Y-88605431D01*
X156127774Y-88639103D01*
X155925744Y-88841133D01*
X155892072Y-88942148D01*
X155892072Y-89009492D01*
X155925744Y-89110507D01*
X156026759Y-89211522D01*
X155959416Y-88201370D02*
X155252309Y-88908477D01*
X155925744Y-88235042D02*
X155892072Y-88134026D01*
X155757385Y-87999339D01*
X155656370Y-87965668D01*
X155589026Y-87965668D01*
X155488011Y-87999339D01*
X155285981Y-88201370D01*
X155252309Y-88302385D01*
X155252309Y-88369729D01*
X155285981Y-88470744D01*
X155420668Y-88605431D01*
X155521683Y-88639103D01*
X153808540Y-83088736D02*
X154231159Y-82182428D01*
X153885899Y-82021431D01*
X153779459Y-82024339D01*
X153716177Y-82047372D01*
X153632770Y-82113562D01*
X153572396Y-82243035D01*
X153575304Y-82349475D01*
X153598337Y-82412757D01*
X153664527Y-82496164D01*
X154009787Y-82657161D01*
X152772760Y-82605744D02*
X152879200Y-82602836D01*
X152962607Y-82536645D01*
X153324851Y-81759810D01*
X152298027Y-82384372D02*
X152404467Y-82381464D01*
X152467749Y-82358431D01*
X152551156Y-82292241D01*
X152671904Y-82033296D01*
X152668996Y-81926856D01*
X152645963Y-81863574D01*
X152579773Y-81780167D01*
X152450300Y-81719793D01*
X152343861Y-81722701D01*
X152280579Y-81745734D01*
X152197172Y-81811925D01*
X152076424Y-82070870D01*
X152079332Y-82177309D01*
X152102365Y-82240592D01*
X152168555Y-82323998D01*
X152298027Y-82384372D01*
X151889253Y-81458172D02*
X151466635Y-82364480D01*
X151869128Y-81501330D02*
X151802938Y-81417923D01*
X151630308Y-81337424D01*
X151523868Y-81340333D01*
X151460586Y-81363365D01*
X151377179Y-81429556D01*
X151256431Y-81688501D01*
X151259339Y-81794940D01*
X151282372Y-81858223D01*
X151348562Y-81941630D01*
X151521192Y-82022128D01*
X151627632Y-82019220D01*
X171583292Y-137312809D02*
X172549217Y-137571628D01*
X172647815Y-137203656D01*
X172626468Y-137099338D01*
X172592796Y-137041017D01*
X172513128Y-136970371D01*
X172375139Y-136933397D01*
X172270821Y-136954744D01*
X172212500Y-136988416D01*
X172141854Y-137068084D01*
X172043256Y-137436056D01*
X171879085Y-136208894D02*
X171900432Y-136313211D01*
X171980100Y-136383857D01*
X172808036Y-136605702D01*
X172014657Y-135702932D02*
X172036004Y-135807250D01*
X172069675Y-135865571D01*
X172149344Y-135936217D01*
X172425322Y-136010165D01*
X172529640Y-135988818D01*
X172587961Y-135955147D01*
X172658607Y-135875478D01*
X172695581Y-135737489D01*
X172674234Y-135633171D01*
X172640563Y-135574850D01*
X172560894Y-135504204D01*
X172284916Y-135430256D01*
X172180598Y-135451603D01*
X172122277Y-135485275D01*
X172051631Y-135564943D01*
X172014657Y-135702932D01*
X172855803Y-135139535D02*
X171889877Y-134880716D01*
X172809806Y-135127210D02*
X172880452Y-135047542D01*
X172929751Y-134863556D01*
X172908404Y-134759238D01*
X172874732Y-134700917D01*
X172795064Y-134630271D01*
X172519085Y-134556323D01*
X172414767Y-134577670D01*
X172356446Y-134611342D01*
X172285800Y-134691010D01*
X172236502Y-134874996D01*
X172257849Y-134979314D01*
X152256173Y-86360307D02*
X151437021Y-86933884D01*
X151655527Y-87245942D01*
X151749160Y-87296643D01*
X151815481Y-87308337D01*
X151920808Y-87292718D01*
X152037830Y-87210778D01*
X152088531Y-87117145D01*
X152100225Y-87050824D01*
X152084606Y-86945497D01*
X151866101Y-86633439D01*
X152911689Y-87296481D02*
X152818056Y-87245780D01*
X152712728Y-87261399D01*
X152010598Y-87753036D01*
X153212134Y-87725561D02*
X153118501Y-87674859D01*
X153052180Y-87663165D01*
X152946852Y-87678784D01*
X152712809Y-87842663D01*
X152662108Y-87936297D01*
X152650414Y-88002617D01*
X152666033Y-88107945D01*
X152747972Y-88224967D01*
X152841606Y-88275668D01*
X152907926Y-88287362D01*
X153013254Y-88271743D01*
X153247297Y-88107864D01*
X153297999Y-88014230D01*
X153309693Y-87947910D01*
X153294074Y-87842582D01*
X153212134Y-87725561D01*
X153103043Y-88732061D02*
X153922195Y-88158484D01*
X153142051Y-88704748D02*
X153157670Y-88810075D01*
X153266922Y-88966104D01*
X153360556Y-89016806D01*
X153426876Y-89028500D01*
X153532204Y-89012881D01*
X153766247Y-88849002D01*
X153816949Y-88755368D01*
X153828643Y-88689048D01*
X153813024Y-88583720D01*
X153703771Y-88427691D01*
X153610137Y-88376990D01*
X151691263Y-93973540D02*
X152597571Y-94396159D01*
X152758568Y-94050899D01*
X152755660Y-93944459D01*
X152732627Y-93881177D01*
X152666437Y-93797770D01*
X152536964Y-93737396D01*
X152430524Y-93740304D01*
X152367242Y-93763337D01*
X152283835Y-93829527D01*
X152122838Y-94174787D01*
X152174255Y-92937760D02*
X152177163Y-93044200D01*
X152243354Y-93127607D01*
X153020189Y-93489851D01*
X152395627Y-92463027D02*
X152398535Y-92569467D01*
X152421568Y-92632749D01*
X152487758Y-92716156D01*
X152746703Y-92836904D01*
X152853143Y-92833996D01*
X152916425Y-92810963D01*
X152999832Y-92744773D01*
X153060206Y-92615300D01*
X153057298Y-92508861D01*
X153034265Y-92445579D01*
X152968074Y-92362172D01*
X152709129Y-92241424D01*
X152602690Y-92244332D01*
X152539407Y-92267365D01*
X152456001Y-92333555D01*
X152395627Y-92463027D01*
X153321827Y-92054253D02*
X152415519Y-91631635D01*
X153278669Y-92034128D02*
X153362076Y-91967938D01*
X153442575Y-91795308D01*
X153439666Y-91688868D01*
X153416634Y-91625586D01*
X153350443Y-91542179D01*
X153091498Y-91421431D01*
X152985059Y-91424339D01*
X152921776Y-91447372D01*
X152838369Y-91513562D01*
X152757871Y-91686192D01*
X152760779Y-91792632D01*
X171479257Y-132320036D02*
X170905681Y-133139188D01*
X171217739Y-133357693D01*
X171323066Y-133373312D01*
X171389387Y-133361618D01*
X171483020Y-133310917D01*
X171564960Y-133193895D01*
X171580579Y-133088567D01*
X171568885Y-133022247D01*
X171518184Y-132928614D01*
X171206126Y-132710108D01*
X172415431Y-132975552D02*
X172310103Y-132959933D01*
X172216470Y-133010634D01*
X171724833Y-133712764D01*
X172844511Y-133275997D02*
X172739183Y-133260377D01*
X172672863Y-133272072D01*
X172579229Y-133322773D01*
X172415350Y-133556816D01*
X172399731Y-133662144D01*
X172411425Y-133728464D01*
X172462126Y-133822098D01*
X172579148Y-133904037D01*
X172684476Y-133919656D01*
X172750796Y-133907962D01*
X172844430Y-133857261D01*
X173008309Y-133623218D01*
X173023928Y-133517890D01*
X173012234Y-133451570D01*
X172961532Y-133357936D01*
X172844511Y-133275997D01*
X173086242Y-134259109D02*
X173659819Y-133439956D01*
X173113555Y-134220101D02*
X173164257Y-134313735D01*
X173320286Y-134422987D01*
X173425613Y-134438607D01*
X173491934Y-134426913D01*
X173585567Y-134376211D01*
X173749446Y-134142168D01*
X173765065Y-134036840D01*
X173753371Y-133970520D01*
X173702670Y-133876886D01*
X173546641Y-133767633D01*
X173441313Y-133752014D01*
X173599965Y-135470270D02*
X174307072Y-136177377D01*
X174576446Y-135908003D01*
X174610118Y-135806988D01*
X174610118Y-135739644D01*
X174576446Y-135638629D01*
X174475431Y-135537614D01*
X174374416Y-135503942D01*
X174307072Y-135503942D01*
X174206057Y-135537614D01*
X173936683Y-135806988D01*
X174408087Y-134662148D02*
X174374416Y-134763164D01*
X174408087Y-134864179D01*
X175014179Y-135470270D01*
X174778477Y-134291759D02*
X174744805Y-134392774D01*
X174744805Y-134460118D01*
X174778477Y-134561133D01*
X174980507Y-134763164D01*
X175081522Y-134796835D01*
X175148866Y-134796835D01*
X175249881Y-134763164D01*
X175350896Y-134662148D01*
X175384568Y-134561133D01*
X175384568Y-134493790D01*
X175350896Y-134392774D01*
X175148866Y-134190744D01*
X175047851Y-134157072D01*
X174980507Y-134157072D01*
X174879492Y-134190744D01*
X174778477Y-134291759D01*
X175788629Y-134224416D02*
X175081522Y-133517309D01*
X175754957Y-134190744D02*
X175855973Y-134157072D01*
X175990660Y-134022385D01*
X176024331Y-133921370D01*
X176024331Y-133854026D01*
X175990660Y-133753011D01*
X175788629Y-133550981D01*
X175687614Y-133517309D01*
X175620270Y-133517309D01*
X175519255Y-133550981D01*
X175384568Y-133685668D01*
X175350896Y-133786683D01*
X165824090Y-83538743D02*
X166246708Y-84445051D01*
X166591968Y-84284054D01*
X166658158Y-84200647D01*
X166681191Y-84137365D01*
X166684099Y-84030925D01*
X166623725Y-83901453D01*
X166540318Y-83835262D01*
X166477036Y-83812229D01*
X166370597Y-83809321D01*
X166025336Y-83970319D01*
X166859870Y-83055751D02*
X166793680Y-83139158D01*
X166790771Y-83245598D01*
X167153016Y-84022433D01*
X167334603Y-82834380D02*
X167268412Y-82917787D01*
X167245379Y-82981069D01*
X167242471Y-83087508D01*
X167363219Y-83346454D01*
X167446626Y-83412644D01*
X167509908Y-83435677D01*
X167616348Y-83438585D01*
X167745821Y-83378211D01*
X167812011Y-83294804D01*
X167835044Y-83231522D01*
X167837952Y-83125082D01*
X167717204Y-82866137D01*
X167633797Y-82799947D01*
X167570515Y-82776914D01*
X167464075Y-82774006D01*
X167334603Y-82834380D01*
X168306868Y-83116590D02*
X167884250Y-82210282D01*
X168286744Y-83073433D02*
X168393183Y-83076341D01*
X168565813Y-82995842D01*
X168632004Y-82912435D01*
X168655037Y-82849153D01*
X168657945Y-82742713D01*
X168537197Y-82483768D01*
X168453790Y-82417578D01*
X168390508Y-82394545D01*
X168284068Y-82391637D01*
X168111438Y-82472136D01*
X168045248Y-82555542D01*
X173667190Y-136513292D02*
X173408371Y-137479217D01*
X173776343Y-137577815D01*
X173880661Y-137556468D01*
X173938982Y-137522796D01*
X174009628Y-137443128D01*
X174046602Y-137305139D01*
X174025255Y-137200821D01*
X173991583Y-137142500D01*
X173911915Y-137071854D01*
X173543943Y-136973256D01*
X174771105Y-136809085D02*
X174666788Y-136830432D01*
X174596142Y-136910100D01*
X174374297Y-137738036D01*
X175277067Y-136944657D02*
X175172749Y-136966004D01*
X175114428Y-136999675D01*
X175043782Y-137079344D01*
X174969834Y-137355322D01*
X174991181Y-137459640D01*
X175024852Y-137517961D01*
X175104521Y-137588607D01*
X175242510Y-137625581D01*
X175346828Y-137604234D01*
X175405149Y-137570563D01*
X175475795Y-137490894D01*
X175549743Y-137214916D01*
X175528396Y-137110598D01*
X175494724Y-137052277D01*
X175415056Y-136981631D01*
X175277067Y-136944657D01*
X175840464Y-137785803D02*
X176099283Y-136819877D01*
X175852789Y-137739806D02*
X175932457Y-137810452D01*
X176116443Y-137859751D01*
X176220761Y-137838404D01*
X176279082Y-137804732D01*
X176349728Y-137725064D01*
X176423676Y-137449085D01*
X176402329Y-137344767D01*
X176368657Y-137286446D01*
X176288989Y-137215800D01*
X176105003Y-137166502D01*
X176000685Y-137187849D01*
X172865307Y-132053826D02*
X173438884Y-132872978D01*
X173750942Y-132654472D01*
X173801643Y-132560839D01*
X173813337Y-132494518D01*
X173797718Y-132389191D01*
X173715778Y-132272169D01*
X173622145Y-132221468D01*
X173555824Y-132209774D01*
X173450497Y-132225393D01*
X173138439Y-132443898D01*
X173801481Y-131398310D02*
X173750780Y-131491943D01*
X173766399Y-131597271D01*
X174258036Y-132299401D01*
X174230561Y-131097865D02*
X174179859Y-131191498D01*
X174168165Y-131257819D01*
X174183784Y-131363147D01*
X174347663Y-131597190D01*
X174441297Y-131647891D01*
X174507617Y-131659585D01*
X174612945Y-131643966D01*
X174729967Y-131562027D01*
X174780668Y-131468393D01*
X174792362Y-131402073D01*
X174776743Y-131296745D01*
X174612864Y-131062702D01*
X174519230Y-131012000D01*
X174452910Y-131000306D01*
X174347582Y-131015925D01*
X174230561Y-131097865D01*
X175237061Y-131206956D02*
X174663484Y-130387804D01*
X175209748Y-131167948D02*
X175315075Y-131152329D01*
X175471104Y-131043077D01*
X175521806Y-130949443D01*
X175533500Y-130883123D01*
X175517881Y-130777795D01*
X175354002Y-130543752D01*
X175260368Y-130493050D01*
X175194048Y-130481356D01*
X175088720Y-130496975D01*
X174932691Y-130606228D01*
X174881990Y-130699862D01*
X168353021Y-134712775D02*
X168611840Y-135678700D01*
X168979811Y-135580103D01*
X169059480Y-135509457D01*
X169093151Y-135451136D01*
X169114498Y-135346818D01*
X169077524Y-135208829D01*
X169006878Y-135129160D01*
X168948557Y-135095489D01*
X168844240Y-135074141D01*
X168476268Y-135172739D01*
X169456936Y-134416981D02*
X169377268Y-134487627D01*
X169355921Y-134591945D01*
X169577766Y-135419881D01*
X169962897Y-134281409D02*
X169883229Y-134352055D01*
X169849557Y-134410377D01*
X169828210Y-134514694D01*
X169902158Y-134790673D01*
X169972804Y-134870341D01*
X170031125Y-134904013D01*
X170135443Y-134925360D01*
X170273432Y-134888386D01*
X170353101Y-134817740D01*
X170386772Y-134759419D01*
X170408119Y-134655101D01*
X170334171Y-134379122D01*
X170263525Y-134299454D01*
X170205204Y-134265782D01*
X170100886Y-134244435D01*
X169962897Y-134281409D01*
X170871387Y-134728165D02*
X170612568Y-133762239D01*
X170859062Y-134682168D02*
X170963379Y-134703515D01*
X171147365Y-134654216D01*
X171227034Y-134583570D01*
X171260705Y-134525249D01*
X171282052Y-134420932D01*
X171208104Y-134144953D01*
X171137458Y-134065284D01*
X171079137Y-134031613D01*
X170974819Y-134010266D01*
X170790833Y-134059565D01*
X170711165Y-134130210D01*
X152236459Y-89316263D02*
X151813840Y-90222571D01*
X152159100Y-90383568D01*
X152265540Y-90380660D01*
X152328822Y-90357627D01*
X152412229Y-90291437D01*
X152472603Y-90161964D01*
X152469695Y-90055524D01*
X152446662Y-89992242D01*
X152380472Y-89908835D01*
X152035212Y-89747838D01*
X153272239Y-89799255D02*
X153165799Y-89802163D01*
X153082392Y-89868354D01*
X152720148Y-90645189D01*
X153746972Y-90020627D02*
X153640532Y-90023535D01*
X153577250Y-90046568D01*
X153493843Y-90112758D01*
X153373095Y-90371703D01*
X153376003Y-90478143D01*
X153399036Y-90541425D01*
X153465226Y-90624832D01*
X153594699Y-90685206D01*
X153701138Y-90682298D01*
X153764420Y-90659265D01*
X153847827Y-90593074D01*
X153968575Y-90334129D01*
X153965667Y-90227690D01*
X153942634Y-90164407D01*
X153876444Y-90081001D01*
X153746972Y-90020627D01*
X154155746Y-90946827D02*
X154578364Y-90040519D01*
X154175871Y-90903669D02*
X154242061Y-90987076D01*
X154414691Y-91067575D01*
X154521131Y-91064666D01*
X154584413Y-91041634D01*
X154667820Y-90975443D01*
X154788568Y-90716498D01*
X154785660Y-90610059D01*
X154762627Y-90546776D01*
X154696437Y-90463369D01*
X154523807Y-90382871D01*
X154417367Y-90385779D01*
X162401707Y-125262190D02*
X161435782Y-125003371D01*
X161337184Y-125371343D01*
X161358531Y-125475661D01*
X161392203Y-125533982D01*
X161471871Y-125604628D01*
X161609860Y-125641602D01*
X161714178Y-125620255D01*
X161772499Y-125586583D01*
X161843145Y-125506915D01*
X161941743Y-125138943D01*
X162105914Y-126366105D02*
X162084567Y-126261788D01*
X162004899Y-126191142D01*
X161176963Y-125969297D01*
X161970342Y-126872067D02*
X161948995Y-126767749D01*
X161915324Y-126709428D01*
X161835655Y-126638782D01*
X161559677Y-126564834D01*
X161455359Y-126586181D01*
X161397038Y-126619852D01*
X161326392Y-126699521D01*
X161289418Y-126837510D01*
X161310765Y-126941828D01*
X161344436Y-127000149D01*
X161424105Y-127070795D01*
X161700083Y-127144743D01*
X161804401Y-127123396D01*
X161862722Y-127089724D01*
X161933368Y-127010056D01*
X161970342Y-126872067D01*
X161129196Y-127435464D02*
X162095122Y-127694283D01*
X161175193Y-127447789D02*
X161104547Y-127527457D01*
X161055248Y-127711443D01*
X161076595Y-127815761D01*
X161110267Y-127874082D01*
X161189935Y-127944728D01*
X161465914Y-128018676D01*
X161570232Y-127997329D01*
X161628553Y-127963657D01*
X161699199Y-127883989D01*
X161748497Y-127700003D01*
X161727150Y-127595685D01*
X155058826Y-126684692D02*
X155877978Y-126111115D01*
X155659472Y-125799057D01*
X155565839Y-125748356D01*
X155499518Y-125736662D01*
X155394191Y-125752281D01*
X155277169Y-125834221D01*
X155226468Y-125927854D01*
X155214774Y-125994175D01*
X155230393Y-126099502D01*
X155448898Y-126411560D01*
X154403310Y-125748518D02*
X154496943Y-125799219D01*
X154602271Y-125783600D01*
X155304401Y-125291963D01*
X154102865Y-125319438D02*
X154196498Y-125370140D01*
X154262819Y-125381834D01*
X154368147Y-125366215D01*
X154602190Y-125202336D01*
X154652891Y-125108702D01*
X154664585Y-125042382D01*
X154648966Y-124937054D01*
X154567027Y-124820032D01*
X154473393Y-124769331D01*
X154407073Y-124757637D01*
X154301745Y-124773256D01*
X154067702Y-124937135D01*
X154017000Y-125030769D01*
X154005306Y-125097089D01*
X154020925Y-125202417D01*
X154102865Y-125319438D01*
X154211956Y-124312938D02*
X153392804Y-124886515D01*
X154172948Y-124340251D02*
X154157329Y-124234924D01*
X154048077Y-124078895D01*
X153954443Y-124028193D01*
X153888123Y-124016499D01*
X153782795Y-124032118D01*
X153548752Y-124195997D01*
X153498050Y-124289631D01*
X153486356Y-124355951D01*
X153501975Y-124461279D01*
X153611228Y-124617308D01*
X153704862Y-124668009D01*
X157528736Y-122246459D02*
X156622428Y-121823840D01*
X156461431Y-122169100D01*
X156464339Y-122275540D01*
X156487372Y-122338822D01*
X156553562Y-122422229D01*
X156683035Y-122482603D01*
X156789475Y-122479695D01*
X156852757Y-122456662D01*
X156936164Y-122390472D01*
X157097161Y-122045212D01*
X157045744Y-123282239D02*
X157042836Y-123175799D01*
X156976645Y-123092392D01*
X156199810Y-122730148D01*
X156824372Y-123756972D02*
X156821464Y-123650532D01*
X156798431Y-123587250D01*
X156732241Y-123503843D01*
X156473296Y-123383095D01*
X156366856Y-123386003D01*
X156303574Y-123409036D01*
X156220167Y-123475226D01*
X156159793Y-123604699D01*
X156162701Y-123711138D01*
X156185734Y-123774420D01*
X156251925Y-123857827D01*
X156510870Y-123978575D01*
X156617309Y-123975667D01*
X156680592Y-123952634D01*
X156763998Y-123886444D01*
X156824372Y-123756972D01*
X155898172Y-124165746D02*
X156804480Y-124588364D01*
X155941330Y-124185871D02*
X155857923Y-124252061D01*
X155777424Y-124424691D01*
X155780333Y-124531131D01*
X155803365Y-124594413D01*
X155869556Y-124677820D01*
X156128501Y-124798568D01*
X156234940Y-124795660D01*
X156298223Y-124772627D01*
X156381630Y-124706437D01*
X156462128Y-124533807D01*
X156459220Y-124427367D01*
X162505742Y-130254963D02*
X163079318Y-129435811D01*
X162767260Y-129217306D01*
X162661933Y-129201687D01*
X162595612Y-129213381D01*
X162501979Y-129264082D01*
X162420039Y-129381104D01*
X162404420Y-129486432D01*
X162416114Y-129552752D01*
X162466815Y-129646385D01*
X162778873Y-129864891D01*
X161569568Y-129599447D02*
X161674896Y-129615066D01*
X161768529Y-129564365D01*
X162260166Y-128862235D01*
X161140488Y-129299002D02*
X161245816Y-129314622D01*
X161312136Y-129302927D01*
X161405770Y-129252226D01*
X161569649Y-129018183D01*
X161585268Y-128912855D01*
X161573574Y-128846535D01*
X161522873Y-128752901D01*
X161405851Y-128670962D01*
X161300523Y-128655343D01*
X161234203Y-128667037D01*
X161140569Y-128717738D01*
X160976690Y-128951781D01*
X160961071Y-129057109D01*
X160972765Y-129123429D01*
X161023467Y-129217063D01*
X161140488Y-129299002D01*
X160898757Y-128315890D02*
X160325180Y-129135043D01*
X160871444Y-128354898D02*
X160820742Y-128261264D01*
X160664713Y-128152012D01*
X160559386Y-128136392D01*
X160493065Y-128148086D01*
X160399432Y-128198788D01*
X160235553Y-128432831D01*
X160219934Y-128538159D01*
X160231628Y-128604479D01*
X160282329Y-128698113D01*
X160438358Y-128807366D01*
X160543686Y-128822985D01*
X160385034Y-127104729D02*
X159677927Y-126397622D01*
X159408553Y-126666996D01*
X159374881Y-126768011D01*
X159374881Y-126835355D01*
X159408553Y-126936370D01*
X159509568Y-127037385D01*
X159610583Y-127071057D01*
X159677927Y-127071057D01*
X159778942Y-127037385D01*
X160048316Y-126768011D01*
X159576912Y-127912851D02*
X159610583Y-127811835D01*
X159576912Y-127710820D01*
X158970820Y-127104729D01*
X159206522Y-128283240D02*
X159240194Y-128182225D01*
X159240194Y-128114881D01*
X159206522Y-128013866D01*
X159004492Y-127811835D01*
X158903477Y-127778164D01*
X158836133Y-127778164D01*
X158735118Y-127811835D01*
X158634103Y-127912851D01*
X158600431Y-128013866D01*
X158600431Y-128081209D01*
X158634103Y-128182225D01*
X158836133Y-128384255D01*
X158937148Y-128417927D01*
X159004492Y-128417927D01*
X159105507Y-128384255D01*
X159206522Y-128283240D01*
X158196370Y-128350583D02*
X158903477Y-129057690D01*
X158230042Y-128384255D02*
X158129026Y-128417927D01*
X157994339Y-128552614D01*
X157960668Y-128653629D01*
X157960668Y-128720973D01*
X157994339Y-128821988D01*
X158196370Y-129024018D01*
X158297385Y-129057690D01*
X158364729Y-129057690D01*
X158465744Y-129024018D01*
X158600431Y-128889331D01*
X158634103Y-128788316D01*
X158000909Y-126966256D02*
X157578291Y-126059948D01*
X157233031Y-126220945D01*
X157166841Y-126304352D01*
X157143808Y-126367634D01*
X157140900Y-126474074D01*
X157201274Y-126603546D01*
X157284681Y-126669737D01*
X157347963Y-126692770D01*
X157454402Y-126695678D01*
X157799663Y-126534680D01*
X156965129Y-127449248D02*
X157031319Y-127365841D01*
X157034228Y-127259401D01*
X156671983Y-126482566D01*
X156490396Y-127670619D02*
X156556587Y-127587212D01*
X156579620Y-127523930D01*
X156582528Y-127417491D01*
X156461780Y-127158545D01*
X156378373Y-127092355D01*
X156315091Y-127069322D01*
X156208651Y-127066414D01*
X156079178Y-127126788D01*
X156012988Y-127210195D01*
X155989955Y-127273477D01*
X155987047Y-127379917D01*
X156107795Y-127638862D01*
X156191202Y-127705052D01*
X156254484Y-127728085D01*
X156360924Y-127730993D01*
X156490396Y-127670619D01*
X155518131Y-127388409D02*
X155940749Y-128294717D01*
X155538255Y-127431566D02*
X155431816Y-127428658D01*
X155259186Y-127509157D01*
X155192995Y-127592564D01*
X155169962Y-127655846D01*
X155167054Y-127762286D01*
X155287802Y-128021231D01*
X155371209Y-128087421D01*
X155434491Y-128110454D01*
X155540931Y-128113362D01*
X155713561Y-128032863D01*
X155779751Y-127949457D01*
X160317809Y-126061707D02*
X160576628Y-125095782D01*
X160208656Y-124997184D01*
X160104338Y-125018531D01*
X160046017Y-125052203D01*
X159975371Y-125131871D01*
X159938397Y-125269860D01*
X159959744Y-125374178D01*
X159993416Y-125432499D01*
X160073084Y-125503145D01*
X160441056Y-125601743D01*
X159213894Y-125765914D02*
X159318211Y-125744567D01*
X159388857Y-125664899D01*
X159610702Y-124836963D01*
X158707932Y-125630342D02*
X158812250Y-125608995D01*
X158870571Y-125575324D01*
X158941217Y-125495655D01*
X159015165Y-125219677D01*
X158993818Y-125115359D01*
X158960147Y-125057038D01*
X158880478Y-124986392D01*
X158742489Y-124949418D01*
X158638171Y-124970765D01*
X158579850Y-125004436D01*
X158509204Y-125084105D01*
X158435256Y-125360083D01*
X158456603Y-125464401D01*
X158490275Y-125522722D01*
X158569943Y-125593368D01*
X158707932Y-125630342D01*
X158144535Y-124789196D02*
X157885716Y-125755122D01*
X158132210Y-124835193D02*
X158052542Y-124764547D01*
X157868556Y-124715248D01*
X157764238Y-124736595D01*
X157705917Y-124770267D01*
X157635271Y-124849935D01*
X157561323Y-125125914D01*
X157582670Y-125230232D01*
X157616342Y-125288553D01*
X157696010Y-125359199D01*
X157879996Y-125408497D01*
X157984314Y-125387150D01*
X161119692Y-130521173D02*
X160546115Y-129702021D01*
X160234057Y-129920527D01*
X160183356Y-130014160D01*
X160171662Y-130080481D01*
X160187281Y-130185808D01*
X160269221Y-130302830D01*
X160362854Y-130353531D01*
X160429175Y-130365225D01*
X160534502Y-130349606D01*
X160846560Y-130131101D01*
X160183518Y-131176689D02*
X160234219Y-131083056D01*
X160218600Y-130977728D01*
X159726963Y-130275598D01*
X159754438Y-131477134D02*
X159805140Y-131383501D01*
X159816834Y-131317180D01*
X159801215Y-131211852D01*
X159637336Y-130977809D01*
X159543702Y-130927108D01*
X159477382Y-130915414D01*
X159372054Y-130931033D01*
X159255032Y-131012972D01*
X159204331Y-131106606D01*
X159192637Y-131172926D01*
X159208256Y-131278254D01*
X159372135Y-131512297D01*
X159465769Y-131562999D01*
X159532089Y-131574693D01*
X159637417Y-131559074D01*
X159754438Y-131477134D01*
X158747938Y-131368043D02*
X159321515Y-132187195D01*
X158775251Y-131407051D02*
X158669924Y-131422670D01*
X158513895Y-131531922D01*
X158463193Y-131625556D01*
X158451499Y-131691876D01*
X158467118Y-131797204D01*
X158630997Y-132031247D01*
X158724631Y-132081949D01*
X158790951Y-132093643D01*
X158896279Y-132078024D01*
X159052308Y-131968771D01*
X159103009Y-131875137D01*
X165631978Y-127862224D02*
X165373159Y-126896299D01*
X165005188Y-126994896D01*
X164925519Y-127065542D01*
X164891848Y-127123863D01*
X164870501Y-127228181D01*
X164907475Y-127366170D01*
X164978121Y-127445839D01*
X165036442Y-127479510D01*
X165140759Y-127500858D01*
X165508731Y-127402260D01*
X164528063Y-128158018D02*
X164607731Y-128087372D01*
X164629078Y-127983054D01*
X164407233Y-127155118D01*
X164022102Y-128293590D02*
X164101770Y-128222944D01*
X164135442Y-128164622D01*
X164156789Y-128060305D01*
X164082841Y-127784326D01*
X164012195Y-127704658D01*
X163953874Y-127670986D01*
X163849556Y-127649639D01*
X163711567Y-127686613D01*
X163631898Y-127757259D01*
X163598227Y-127815580D01*
X163576880Y-127919898D01*
X163650828Y-128195877D01*
X163721474Y-128275545D01*
X163779795Y-128309217D01*
X163884113Y-128330564D01*
X164022102Y-128293590D01*
X163113612Y-127846834D02*
X163372431Y-128812760D01*
X163125937Y-127892831D02*
X163021620Y-127871484D01*
X162837634Y-127920783D01*
X162757965Y-127991429D01*
X162724294Y-128049750D01*
X162702947Y-128154067D01*
X162776895Y-128430046D01*
X162847541Y-128509715D01*
X162905862Y-128543386D01*
X163010180Y-128564733D01*
X163194166Y-128515434D01*
X163273834Y-128444789D01*
X158475270Y-131030034D02*
X159182377Y-130322927D01*
X158913003Y-130053553D01*
X158811988Y-130019881D01*
X158744644Y-130019881D01*
X158643629Y-130053553D01*
X158542614Y-130154568D01*
X158508942Y-130255583D01*
X158508942Y-130322927D01*
X158542614Y-130423942D01*
X158811988Y-130693316D01*
X157667148Y-130221912D02*
X157768164Y-130255583D01*
X157869179Y-130221912D01*
X158475270Y-129615820D01*
X157296759Y-129851522D02*
X157397774Y-129885194D01*
X157465118Y-129885194D01*
X157566133Y-129851522D01*
X157768164Y-129649492D01*
X157801835Y-129548477D01*
X157801835Y-129481133D01*
X157768164Y-129380118D01*
X157667148Y-129279103D01*
X157566133Y-129245431D01*
X157498790Y-129245431D01*
X157397774Y-129279103D01*
X157195744Y-129481133D01*
X157162072Y-129582148D01*
X157162072Y-129649492D01*
X157195744Y-129750507D01*
X157296759Y-129851522D01*
X157229416Y-128841370D02*
X156522309Y-129548477D01*
X157195744Y-128875042D02*
X157162072Y-128774026D01*
X157027385Y-128639339D01*
X156926370Y-128605668D01*
X156859026Y-128605668D01*
X156758011Y-128639339D01*
X156555981Y-128841370D01*
X156522309Y-128942385D01*
X156522309Y-129009729D01*
X156555981Y-129110744D01*
X156690668Y-129245431D01*
X156791683Y-129279103D01*
X155078540Y-123728736D02*
X155501159Y-122822428D01*
X155155899Y-122661431D01*
X155049459Y-122664339D01*
X154986177Y-122687372D01*
X154902770Y-122753562D01*
X154842396Y-122883035D01*
X154845304Y-122989475D01*
X154868337Y-123052757D01*
X154934527Y-123136164D01*
X155279787Y-123297161D01*
X154042760Y-123245744D02*
X154149200Y-123242836D01*
X154232607Y-123176645D01*
X154594851Y-122399810D01*
X153568027Y-123024372D02*
X153674467Y-123021464D01*
X153737749Y-122998431D01*
X153821156Y-122932241D01*
X153941904Y-122673296D01*
X153938996Y-122566856D01*
X153915963Y-122503574D01*
X153849773Y-122420167D01*
X153720300Y-122359793D01*
X153613861Y-122362701D01*
X153550579Y-122385734D01*
X153467172Y-122451925D01*
X153346424Y-122710870D01*
X153349332Y-122817309D01*
X153372365Y-122880592D01*
X153438555Y-122963998D01*
X153568027Y-123024372D01*
X153159253Y-122098172D02*
X152736635Y-123004480D01*
X153139128Y-122141330D02*
X153072938Y-122057923D01*
X152900308Y-121977424D01*
X152793868Y-121980333D01*
X152730586Y-122003365D01*
X152647179Y-122069556D01*
X152526431Y-122328501D01*
X152529339Y-122434940D01*
X152552372Y-122498223D01*
X152618562Y-122581630D01*
X152791192Y-122662128D01*
X152897632Y-122659220D01*
X173473826Y-129859692D02*
X174292978Y-129286115D01*
X174074472Y-128974057D01*
X173980839Y-128923356D01*
X173914518Y-128911662D01*
X173809191Y-128927281D01*
X173692169Y-129009221D01*
X173641468Y-129102854D01*
X173629774Y-129169175D01*
X173645393Y-129274502D01*
X173863898Y-129586560D01*
X172818310Y-128923518D02*
X172911943Y-128974219D01*
X173017271Y-128958600D01*
X173719401Y-128466963D01*
X172517865Y-128494438D02*
X172611498Y-128545140D01*
X172677819Y-128556834D01*
X172783147Y-128541215D01*
X173017190Y-128377336D01*
X173067891Y-128283702D01*
X173079585Y-128217382D01*
X173063966Y-128112054D01*
X172982027Y-127995032D01*
X172888393Y-127944331D01*
X172822073Y-127932637D01*
X172716745Y-127948256D01*
X172482702Y-128112135D01*
X172432000Y-128205769D01*
X172420306Y-128272089D01*
X172435925Y-128377417D01*
X172517865Y-128494438D01*
X172626956Y-127487938D02*
X171807804Y-128061515D01*
X172587948Y-127515251D02*
X172572329Y-127409924D01*
X172463077Y-127253895D01*
X172369443Y-127203193D01*
X172303123Y-127191499D01*
X172197795Y-127207118D01*
X171963752Y-127370997D01*
X171913050Y-127464631D01*
X171901356Y-127530951D01*
X171916975Y-127636279D01*
X172026228Y-127792308D01*
X172119862Y-127843009D01*
X155300270Y-121505034D02*
X156007377Y-120797927D01*
X155738003Y-120528553D01*
X155636988Y-120494881D01*
X155569644Y-120494881D01*
X155468629Y-120528553D01*
X155367614Y-120629568D01*
X155333942Y-120730583D01*
X155333942Y-120797927D01*
X155367614Y-120898942D01*
X155636988Y-121168316D01*
X154492148Y-120696912D02*
X154593164Y-120730583D01*
X154694179Y-120696912D01*
X155300270Y-120090820D01*
X154121759Y-120326522D02*
X154222774Y-120360194D01*
X154290118Y-120360194D01*
X154391133Y-120326522D01*
X154593164Y-120124492D01*
X154626835Y-120023477D01*
X154626835Y-119956133D01*
X154593164Y-119855118D01*
X154492148Y-119754103D01*
X154391133Y-119720431D01*
X154323790Y-119720431D01*
X154222774Y-119754103D01*
X154020744Y-119956133D01*
X153987072Y-120057148D01*
X153987072Y-120124492D01*
X154020744Y-120225507D01*
X154121759Y-120326522D01*
X154054416Y-119316370D02*
X153347309Y-120023477D01*
X154020744Y-119350042D02*
X153987072Y-119249026D01*
X153852385Y-119114339D01*
X153751370Y-119080668D01*
X153684026Y-119080668D01*
X153583011Y-119114339D01*
X153380981Y-119316370D01*
X153347309Y-119417385D01*
X153347309Y-119484729D01*
X153380981Y-119585744D01*
X153515668Y-119720431D01*
X153616683Y-119754103D01*
X166508540Y-126903736D02*
X166931159Y-125997428D01*
X166585899Y-125836431D01*
X166479459Y-125839339D01*
X166416177Y-125862372D01*
X166332770Y-125928562D01*
X166272396Y-126058035D01*
X166275304Y-126164475D01*
X166298337Y-126227757D01*
X166364527Y-126311164D01*
X166709787Y-126472161D01*
X165472760Y-126420744D02*
X165579200Y-126417836D01*
X165662607Y-126351645D01*
X166024851Y-125574810D01*
X164998027Y-126199372D02*
X165104467Y-126196464D01*
X165167749Y-126173431D01*
X165251156Y-126107241D01*
X165371904Y-125848296D01*
X165368996Y-125741856D01*
X165345963Y-125678574D01*
X165279773Y-125595167D01*
X165150300Y-125534793D01*
X165043861Y-125537701D01*
X164980579Y-125560734D01*
X164897172Y-125626925D01*
X164776424Y-125885870D01*
X164779332Y-125992309D01*
X164802365Y-126055592D01*
X164868555Y-126138998D01*
X164998027Y-126199372D01*
X164589253Y-125273172D02*
X164166635Y-126179480D01*
X164569128Y-125316330D02*
X164502938Y-125232923D01*
X164330308Y-125152424D01*
X164223868Y-125155333D01*
X164160586Y-125178365D01*
X164077179Y-125244556D01*
X163956431Y-125503501D01*
X163959339Y-125609940D01*
X163982372Y-125673223D01*
X164048562Y-125756630D01*
X164221192Y-125837128D01*
X164327632Y-125834220D01*
X154825909Y-117441256D02*
X154403291Y-116534948D01*
X154058031Y-116695945D01*
X153991841Y-116779352D01*
X153968808Y-116842634D01*
X153965900Y-116949074D01*
X154026274Y-117078546D01*
X154109681Y-117144737D01*
X154172963Y-117167770D01*
X154279402Y-117170678D01*
X154624663Y-117009680D01*
X153790129Y-117924248D02*
X153856319Y-117840841D01*
X153859228Y-117734401D01*
X153496983Y-116957566D01*
X153315396Y-118145619D02*
X153381587Y-118062212D01*
X153404620Y-117998930D01*
X153407528Y-117892491D01*
X153286780Y-117633545D01*
X153203373Y-117567355D01*
X153140091Y-117544322D01*
X153033651Y-117541414D01*
X152904178Y-117601788D01*
X152837988Y-117685195D01*
X152814955Y-117748477D01*
X152812047Y-117854917D01*
X152932795Y-118113862D01*
X153016202Y-118180052D01*
X153079484Y-118203085D01*
X153185924Y-118205993D01*
X153315396Y-118145619D01*
X152343131Y-117863409D02*
X152765749Y-118769717D01*
X152363255Y-117906566D02*
X152256816Y-117903658D01*
X152084186Y-117984157D01*
X152017995Y-118067564D01*
X151994962Y-118130846D01*
X151992054Y-118237286D01*
X152112802Y-118496231D01*
X152196209Y-118562421D01*
X152259491Y-118585454D01*
X152365931Y-118588362D01*
X152538561Y-118507863D01*
X152604751Y-118424457D01*
X157142809Y-116536707D02*
X157401628Y-115570782D01*
X157033656Y-115472184D01*
X156929338Y-115493531D01*
X156871017Y-115527203D01*
X156800371Y-115606871D01*
X156763397Y-115744860D01*
X156784744Y-115849178D01*
X156818416Y-115907499D01*
X156898084Y-115978145D01*
X157266056Y-116076743D01*
X156038894Y-116240914D02*
X156143211Y-116219567D01*
X156213857Y-116139899D01*
X156435702Y-115311963D01*
X155532932Y-116105342D02*
X155637250Y-116083995D01*
X155695571Y-116050324D01*
X155766217Y-115970655D01*
X155840165Y-115694677D01*
X155818818Y-115590359D01*
X155785147Y-115532038D01*
X155705478Y-115461392D01*
X155567489Y-115424418D01*
X155463171Y-115445765D01*
X155404850Y-115479436D01*
X155334204Y-115559105D01*
X155260256Y-115835083D01*
X155281603Y-115939401D01*
X155315275Y-115997722D01*
X155394943Y-116068368D01*
X155532932Y-116105342D01*
X154969535Y-115264196D02*
X154710716Y-116230122D01*
X154957210Y-115310193D02*
X154877542Y-115239547D01*
X154693556Y-115190248D01*
X154589238Y-115211595D01*
X154530917Y-115245267D01*
X154460271Y-115324935D01*
X154386323Y-115600914D01*
X154407670Y-115705232D01*
X154441342Y-115763553D01*
X154521010Y-115834199D01*
X154704996Y-115883497D01*
X154809314Y-115862150D01*
X153718736Y-113991459D02*
X152812428Y-113568840D01*
X152651431Y-113914100D01*
X152654339Y-114020540D01*
X152677372Y-114083822D01*
X152743562Y-114167229D01*
X152873035Y-114227603D01*
X152979475Y-114224695D01*
X153042757Y-114201662D01*
X153126164Y-114135472D01*
X153287161Y-113790212D01*
X153235744Y-115027239D02*
X153232836Y-114920799D01*
X153166645Y-114837392D01*
X152389810Y-114475148D01*
X153014372Y-115501972D02*
X153011464Y-115395532D01*
X152988431Y-115332250D01*
X152922241Y-115248843D01*
X152663296Y-115128095D01*
X152556856Y-115131003D01*
X152493574Y-115154036D01*
X152410167Y-115220226D01*
X152349793Y-115349699D01*
X152352701Y-115456138D01*
X152375734Y-115519420D01*
X152441925Y-115602827D01*
X152700870Y-115723575D01*
X152807309Y-115720667D01*
X152870592Y-115697634D01*
X152953998Y-115631444D01*
X153014372Y-115501972D01*
X152088172Y-115910746D02*
X152994480Y-116333364D01*
X152131330Y-115930871D02*
X152047923Y-115997061D01*
X151967424Y-116169691D01*
X151970333Y-116276131D01*
X151993365Y-116339413D01*
X152059556Y-116422820D01*
X152318501Y-116543568D01*
X152424940Y-116540660D01*
X152488223Y-116517627D01*
X152571630Y-116451437D01*
X152652128Y-116278807D01*
X152649220Y-116172367D01*
X175791978Y-85317224D02*
X175533159Y-84351299D01*
X175165188Y-84449896D01*
X175085519Y-84520542D01*
X175051848Y-84578863D01*
X175030501Y-84683181D01*
X175067475Y-84821170D01*
X175138121Y-84900839D01*
X175196442Y-84934510D01*
X175300759Y-84955858D01*
X175668731Y-84857260D01*
X174688063Y-85613018D02*
X174767731Y-85542372D01*
X174789078Y-85438054D01*
X174567233Y-84610118D01*
X174182102Y-85748590D02*
X174261770Y-85677944D01*
X174295442Y-85619622D01*
X174316789Y-85515305D01*
X174242841Y-85239326D01*
X174172195Y-85159658D01*
X174113874Y-85125986D01*
X174009556Y-85104639D01*
X173871567Y-85141613D01*
X173791898Y-85212259D01*
X173758227Y-85270580D01*
X173736880Y-85374898D01*
X173810828Y-85650877D01*
X173881474Y-85730545D01*
X173939795Y-85764217D01*
X174044113Y-85785564D01*
X174182102Y-85748590D01*
X173273612Y-85301834D02*
X173532431Y-86267760D01*
X173285937Y-85347831D02*
X173181620Y-85326484D01*
X172997634Y-85375783D01*
X172917965Y-85446429D01*
X172884294Y-85504750D01*
X172862947Y-85609067D01*
X172936895Y-85885046D01*
X173007541Y-85964715D01*
X173065862Y-85998386D01*
X173170180Y-86019733D01*
X173354166Y-85970434D01*
X173433834Y-85899789D01*
X162389692Y-131791173D02*
X161816115Y-130972021D01*
X161504057Y-131190527D01*
X161453356Y-131284160D01*
X161441662Y-131350481D01*
X161457281Y-131455808D01*
X161539221Y-131572830D01*
X161632854Y-131623531D01*
X161699175Y-131635225D01*
X161804502Y-131619606D01*
X162116560Y-131401101D01*
X161453518Y-132446689D02*
X161504219Y-132353056D01*
X161488600Y-132247728D01*
X160996963Y-131545598D01*
X161024438Y-132747134D02*
X161075140Y-132653501D01*
X161086834Y-132587180D01*
X161071215Y-132481852D01*
X160907336Y-132247809D01*
X160813702Y-132197108D01*
X160747382Y-132185414D01*
X160642054Y-132201033D01*
X160525032Y-132282972D01*
X160474331Y-132376606D01*
X160462637Y-132442926D01*
X160478256Y-132548254D01*
X160642135Y-132782297D01*
X160735769Y-132832999D01*
X160802089Y-132844693D01*
X160907417Y-132829074D01*
X161024438Y-132747134D01*
X160017938Y-132638043D02*
X160591515Y-133457195D01*
X160045251Y-132677051D02*
X159939924Y-132692670D01*
X159783895Y-132801922D01*
X159733193Y-132895556D01*
X159721499Y-132961876D01*
X159737118Y-133067204D01*
X159900997Y-133301247D01*
X159994631Y-133351949D01*
X160060951Y-133363643D01*
X160166279Y-133348024D01*
X160322308Y-133238771D01*
X160373009Y-133145137D01*
X157210034Y-117579729D02*
X156502927Y-116872622D01*
X156233553Y-117141996D01*
X156199881Y-117243011D01*
X156199881Y-117310355D01*
X156233553Y-117411370D01*
X156334568Y-117512385D01*
X156435583Y-117546057D01*
X156502927Y-117546057D01*
X156603942Y-117512385D01*
X156873316Y-117243011D01*
X156401912Y-118387851D02*
X156435583Y-118286835D01*
X156401912Y-118185820D01*
X155795820Y-117579729D01*
X156031522Y-118758240D02*
X156065194Y-118657225D01*
X156065194Y-118589881D01*
X156031522Y-118488866D01*
X155829492Y-118286835D01*
X155728477Y-118253164D01*
X155661133Y-118253164D01*
X155560118Y-118286835D01*
X155459103Y-118387851D01*
X155425431Y-118488866D01*
X155425431Y-118556209D01*
X155459103Y-118657225D01*
X155661133Y-118859255D01*
X155762148Y-118892927D01*
X155829492Y-118892927D01*
X155930507Y-118859255D01*
X156031522Y-118758240D01*
X155021370Y-118825583D02*
X155728477Y-119532690D01*
X155055042Y-118859255D02*
X154954026Y-118892927D01*
X154819339Y-119027614D01*
X154785668Y-119128629D01*
X154785668Y-119195973D01*
X154819339Y-119296988D01*
X155021370Y-119499018D01*
X155122385Y-119532690D01*
X155189729Y-119532690D01*
X155290744Y-119499018D01*
X155425431Y-119364331D01*
X155459103Y-119263316D01*
M02*
