M48
; DRILL file {KiCad 5.1.5+dfsg1-2build2} date lun. 07 juin 2021 13:36:22
; FORMAT={-:-/ absolute / inch / decimal}
; #@! TF.CreationDate,2021-06-07T13:36:22+02:00
; #@! TF.GenerationSoftware,Kicad,Pcbnew,5.1.5+dfsg1-2build2
; #@! TF.FileFunction,Plated,1,2,PTH
FMAT,2
INCH
T1C0.0157
T2C0.0236
T3C0.0295
T4C0.0315
T5C0.0394
T6C0.0400
T7C0.0591
T8C0.1260
%
G90
G05
T1
X7.182Y-5.0263
X7.377Y-3.1063
X8.177Y-2.5713
X8.537Y-2.2313
X8.612Y-2.2313
X8.682Y-2.2313
X8.952Y-3.6813
X9.357Y-3.9813
T2
X9.587Y-3.4313
X9.6657Y-3.4313
X7.662Y-2.8313
X7.662Y-2.91
X7.507Y-4.7963
X7.507Y-4.875
X7.147Y-4.6763
X7.147Y-4.755
X7.327Y-4.6763
X7.327Y-4.755
X9.337Y-3.5563
X9.4157Y-3.5563
X7.507Y-4.5813
X7.507Y-4.66
X7.862Y-2.8313
X7.862Y-2.91
T3
X9.522Y-3.7213
X9.572Y-3.7213
X9.622Y-3.7213
X7.287Y-5.0013
X7.337Y-5.0013
X7.387Y-5.0013
X7.637Y-2.4963
X7.637Y-2.5463
X7.637Y-2.5963
X7.497Y-4.3413
X7.497Y-4.3913
X7.497Y-4.4413
X8.137Y-2.9763
X8.137Y-3.0263
X8.137Y-3.0763
X8.912Y-5.2063
X8.912Y-5.2563
X8.912Y-5.3063
T4
X9.237Y-4.0563
X9.637Y-4.0563
X7.487Y-2.7063
X7.487Y-3.1063
X7.137Y-4.1363
X7.137Y-4.5363
X8.137Y-3.9063
X8.537Y-3.9063
X8.697Y-4.3613
X9.097Y-4.3613
X7.737Y-3.7063
X7.9339Y-3.7063
X9.137Y-1.7563
X9.137Y-1.8563
X9.137Y-1.9563
X9.137Y-2.0563
X9.137Y-2.1563
X9.137Y-2.2563
X9.137Y-2.3563
X9.437Y-1.7563
X9.437Y-1.8563
X9.437Y-1.9563
X9.437Y-2.0563
X9.437Y-2.1563
X9.437Y-2.2563
X9.437Y-2.3563
X8.4386Y-4.0563
X8.537Y-4.0563
X7.687Y-4.3563
X7.687Y-4.7563
X8.287Y-1.7563
X8.687Y-1.7563
X8.8886Y-1.8563
X8.987Y-1.8563
X7.8402Y-2.4563
X8.037Y-2.4563
X8.187Y-2.0563
X8.187Y-2.4563
X9.237Y-4.3613
X9.637Y-4.3613
X9.1386Y-5.0063
X9.237Y-5.0063
X8.612Y-4.5563
X8.612Y-4.9563
X9.587Y-1.9563
X9.6854Y-1.9563
X9.587Y-2.1563
X9.6854Y-2.1563
X7.337Y-2.2063
X7.337Y-2.3047
X9.237Y-3.7563
X9.3354Y-3.7563
X9.237Y-4.2113
X9.637Y-4.2113
X7.812Y-3.1063
X7.812Y-3.3622
X7.597Y-3.5629
X7.597Y-3.6613
X8.1386Y-3.6063
X8.237Y-3.6063
X9.237Y-3.9063
X9.637Y-3.9063
X7.142Y-4.9063
X7.142Y-5.3063
X8.8886Y-2.2563
X8.987Y-2.2563
X8.8886Y-2.0563
X8.987Y-2.0563
X7.187Y-2.0563
X7.587Y-2.0563
X9.0567Y-4.8063
X9.3126Y-4.8063
X8.437Y-3.4813
X8.837Y-3.4813
X8.137Y-4.3063
X8.537Y-4.3063
X8.912Y-4.5563
X8.912Y-4.9563
X7.687Y-4.9079
X7.687Y-5.0063
X7.587Y-2.2063
X7.587Y-2.3047
X9.587Y-2.3563
X9.6854Y-2.3563
X8.5086Y-5.3063
X8.607Y-5.3063
X8.437Y-3.3563
X8.837Y-3.3563
X7.297Y-4.1563
X7.297Y-4.5563
X8.697Y-4.2113
X9.097Y-4.2113
X7.462Y-2.2063
X7.462Y-2.3047
X8.237Y-5.1313
X8.3354Y-5.1313
X9.037Y-3.5563
X9.1354Y-3.5563
X7.287Y-5.1813
X7.5429Y-5.1813
X7.937Y-4.3329
X7.937Y-4.4313
X8.437Y-3.6063
X8.837Y-3.6063
X7.687Y-5.3063
X8.087Y-5.3063
X9.037Y-3.3563
X9.437Y-3.3563
X8.737Y-3.7563
X8.737Y-3.8563
X8.737Y-3.9563
X8.737Y-4.0563
X9.037Y-3.7563
X9.037Y-3.8563
X9.037Y-3.9563
X9.037Y-4.0563
X8.187Y-1.9063
X8.2854Y-1.9063
X7.187Y-1.7563
X7.587Y-1.7563
X7.187Y-1.9063
X7.587Y-1.9063
X7.597Y-3.8063
X7.597Y-4.2063
X9.137Y-4.6063
X9.2354Y-4.6063
X8.137Y-3.7563
X8.537Y-3.7563
X7.447Y-3.8063
X7.447Y-4.2063
X9.0764Y-5.2063
X9.3323Y-5.2063
X7.2864Y-5.3063
X7.5423Y-5.3063
X8.1386Y-4.4563
X8.237Y-4.4563
X7.737Y-1.7563
X8.137Y-1.7563
X7.737Y-1.9063
X7.737Y-2.0063
X7.737Y-2.1063
X7.737Y-2.2063
X8.037Y-1.9063
X8.037Y-2.0063
X8.037Y-2.1063
X8.037Y-2.2063
X7.662Y-3.1004
X7.662Y-3.3563
X8.762Y-4.5563
X8.762Y-4.9563
X7.337Y-2.5063
X7.4354Y-2.5063
X7.962Y-3.1004
X7.962Y-3.3563
X8.1386Y-3.4563
X8.237Y-3.4563
X8.237Y-5.3063
X8.3354Y-5.3063
X8.4811Y-5.1313
X8.737Y-5.1313
X8.337Y-2.0563
X8.337Y-2.4563
X7.787Y-2.7063
X8.187Y-2.7063
X7.687Y-5.1563
X8.087Y-5.1563
X7.447Y-3.2563
X7.447Y-3.6563
X7.187Y-2.2063
X7.187Y-2.6063
X7.837Y-4.6313
X7.837Y-4.9313
X7.937Y-4.6313
X7.937Y-4.9313
X8.037Y-4.6313
X8.037Y-4.9313
X8.137Y-4.6313
X8.137Y-4.9313
X8.237Y-4.6313
X8.237Y-4.9313
X8.337Y-4.6313
X8.337Y-4.9313
X8.437Y-4.6313
X8.437Y-4.9313
X9.137Y-2.6063
X9.137Y-2.7063
X9.137Y-2.8063
X9.137Y-2.9063
X9.137Y-3.0063
X9.137Y-3.1063
X9.137Y-3.2063
X9.437Y-2.6063
X9.437Y-2.7063
X9.437Y-2.8063
X9.437Y-2.9063
X9.437Y-3.0063
X9.437Y-3.1063
X9.437Y-3.2063
T5
X7.737Y-3.9563
X7.8354Y-4.1531
X7.9339Y-3.9563
X8.737Y-3.0094
X8.737Y-3.2063
X8.9339Y-3.1079
X8.337Y-3.0094
X8.337Y-3.2063
X8.5339Y-3.1079
X8.337Y-2.6094
X8.337Y-2.8063
X8.5339Y-2.7079
X8.737Y-2.6094
X8.737Y-2.8063
X8.9339Y-2.7079
X8.487Y-1.9063
X8.487Y-2.1031
X8.6839Y-2.0047
T6
X9.5409Y-4.8102
X9.5409Y-4.9102
X9.5409Y-5.0102
X9.5409Y-5.1102
X9.5409Y-5.2102
X9.6409Y-4.8102
X9.6409Y-4.9102
X9.6409Y-5.0102
X9.6409Y-5.1102
X9.6409Y-5.2102
T7
X6.787Y-2.5563
X6.687Y-4.7063
X6.937Y-4.4563
X6.437Y-4.4563
X7.237Y-3.3063
X7.237Y-3.5207
X7.237Y-3.735
X6.932Y-4.7113
X6.437Y-4.7063
X6.082Y-4.7102
X6.9226Y-3.9563
X7.137Y-3.9563
X6.082Y-3.9621
X7.0226Y-2.8063
X7.0226Y-3.0228
X7.237Y-2.8063
X7.2392Y-3.0228
X6.937Y-2.3063
X6.082Y-4.3263
X6.437Y-3.0563
X6.6514Y-3.0563
X6.587Y-2.8063
X6.8014Y-2.8063
X6.687Y-4.4563
X6.437Y-4.2063
X6.6514Y-4.2063
X6.8657Y-4.2063
X6.437Y-3.9563
X6.6514Y-3.9563
T8
X6.6929Y-5.1378
X6.6929Y-3.4646
X6.1417Y-5.1378
X6.1417Y-3.4646
T0
M30
