G04 #@! TF.GenerationSoftware,KiCad,Pcbnew,5.1.5+dfsg1-2build2*
G04 #@! TF.CreationDate,2021-02-03T14:21:51+01:00*
G04 #@! TF.ProjectId,Drum-k,4472756d-2d6b-42e6-9b69-6361645f7063,rev?*
G04 #@! TF.SameCoordinates,Original*
G04 #@! TF.FileFunction,Copper,L2,Bot*
G04 #@! TF.FilePolarity,Positive*
%FSLAX46Y46*%
G04 Gerber Fmt 4.6, Leading zero omitted, Abs format (unit mm)*
G04 Created by KiCad (PCBNEW 5.1.5+dfsg1-2build2) date 2021-02-03 14:21:51*
%MOMM*%
%LPD*%
G04 APERTURE LIST*
%ADD10R,4.000000X4.000000*%
%ADD11C,4.000000*%
%ADD12C,2.000000*%
%ADD13R,2.000000X2.000000*%
%ADD14O,1.600000X2.400000*%
%ADD15R,1.600000X2.400000*%
%ADD16C,1.000000*%
%ADD17C,0.500000*%
%ADD18C,0.800000*%
G04 APERTURE END LIST*
D10*
X110000000Y-121000000D03*
D11*
X110000000Y-127080000D03*
D12*
X142560000Y-114940000D03*
X145100000Y-114940000D03*
X142560000Y-117480000D03*
X145100000Y-117480000D03*
X142560000Y-120020000D03*
X145100000Y-120020000D03*
X142560000Y-122560000D03*
X145100000Y-122560000D03*
X142560000Y-125100000D03*
D13*
X145100000Y-125100000D03*
D12*
X137500000Y-70000000D03*
X137500000Y-73300000D03*
X134500000Y-109000000D03*
X132000000Y-109000000D03*
X132000000Y-131000000D03*
X134500000Y-131000000D03*
X106200000Y-70000000D03*
X109500000Y-70000000D03*
X110000000Y-87500000D03*
X106700000Y-87500000D03*
X127500000Y-72500000D03*
X127500000Y-69200000D03*
X100000000Y-46700000D03*
X100000000Y-50000000D03*
X85000000Y-56200000D03*
X85000000Y-59500000D03*
X75000000Y-87600000D03*
X75000000Y-84300000D03*
X80000000Y-59500000D03*
X80000000Y-56200000D03*
X105000000Y-92500000D03*
X105000000Y-95800000D03*
X135120000Y-115000000D03*
D13*
X127500000Y-115000000D03*
D12*
X127380000Y-125000000D03*
D13*
X135000000Y-125000000D03*
X62500000Y-127500000D03*
D12*
X62500000Y-124960000D03*
X127500000Y-47620000D03*
D13*
X127500000Y-40000000D03*
D12*
X137500000Y-57380000D03*
D13*
X137500000Y-65000000D03*
D12*
X90000000Y-56505001D03*
D13*
X90000000Y-64125001D03*
D12*
X80000000Y-72620000D03*
D13*
X80000000Y-65000000D03*
D12*
X85000000Y-64980000D03*
D13*
X85000000Y-72600000D03*
D12*
X95000000Y-94880000D03*
D13*
X95000000Y-102500000D03*
D12*
X90000000Y-102520000D03*
D13*
X90000000Y-94900000D03*
D11*
X75000000Y-121420000D03*
D10*
X75000000Y-127500000D03*
D11*
X92500000Y-121420000D03*
D10*
X92500000Y-127500000D03*
D13*
X100000000Y-55000000D03*
D12*
X100000000Y-60080000D03*
X100000000Y-57540000D03*
D13*
X122500000Y-65000000D03*
D12*
X122500000Y-70080000D03*
X122500000Y-67540000D03*
D13*
X122500000Y-55000000D03*
D12*
X122500000Y-60080000D03*
X122500000Y-57540000D03*
X110000000Y-39840000D03*
X110000000Y-50000000D03*
X105000000Y-39840000D03*
X105000000Y-50000000D03*
X105000000Y-65160000D03*
X105000000Y-55000000D03*
X127500000Y-54840000D03*
X127500000Y-65000000D03*
X132500000Y-39840000D03*
X132500000Y-50000000D03*
X132500000Y-54840000D03*
X132500000Y-65000000D03*
X137500000Y-50160000D03*
X137500000Y-40000000D03*
X127500000Y-87660000D03*
X127500000Y-77500000D03*
X137500000Y-77340000D03*
X137500000Y-87500000D03*
X132500000Y-87660000D03*
X132500000Y-77500000D03*
X95000000Y-54840000D03*
X95000000Y-65000000D03*
X95000000Y-50160000D03*
X95000000Y-40000000D03*
X90000000Y-50160000D03*
X90000000Y-40000000D03*
X85000000Y-50160000D03*
X85000000Y-40000000D03*
X85000000Y-77340000D03*
X85000000Y-87500000D03*
X80000000Y-39840000D03*
X80000000Y-50000000D03*
X75000000Y-64840000D03*
X75000000Y-75000000D03*
X75000000Y-39840000D03*
X75000000Y-50000000D03*
X80000000Y-87660000D03*
X80000000Y-77500000D03*
X80000000Y-102660000D03*
X80000000Y-92500000D03*
X85000000Y-92340000D03*
X85000000Y-102500000D03*
X110160000Y-107500000D03*
X100000000Y-107500000D03*
X100000000Y-102660000D03*
X100000000Y-92500000D03*
X110000000Y-102660000D03*
X110000000Y-92500000D03*
X127500000Y-102660000D03*
X127500000Y-92500000D03*
X137500000Y-102660000D03*
X137500000Y-92500000D03*
X84840000Y-107500000D03*
X95000000Y-107500000D03*
X132500000Y-92340000D03*
X132500000Y-102500000D03*
D11*
X60000000Y-51000000D03*
X60000000Y-46000000D03*
D10*
X60000000Y-41000000D03*
D11*
X60000000Y-70500000D03*
X60000000Y-65500000D03*
D10*
X60000000Y-60500000D03*
D11*
X60000000Y-91000000D03*
X60000000Y-86000000D03*
D10*
X60000000Y-81000000D03*
D11*
X60000000Y-111000000D03*
X60000000Y-106000000D03*
D10*
X60000000Y-101000000D03*
D14*
X115000000Y-82620000D03*
X99760000Y-75000000D03*
X112460000Y-82620000D03*
X102300000Y-75000000D03*
X109920000Y-82620000D03*
X104840000Y-75000000D03*
X107380000Y-82620000D03*
X107380000Y-75000000D03*
X104840000Y-82620000D03*
X109920000Y-75000000D03*
X102300000Y-82620000D03*
X112460000Y-75000000D03*
X99760000Y-82620000D03*
D15*
X115000000Y-75000000D03*
D16*
X132500000Y-46414213D02*
X132500000Y-49500000D01*
X137500000Y-41414213D02*
X132500000Y-46414213D01*
X137500000Y-40000000D02*
X137500000Y-41414213D01*
X127500000Y-47500000D02*
X127500000Y-48500000D01*
X129000000Y-50000000D02*
X132500000Y-50000000D01*
X127500000Y-48500000D02*
X129000000Y-50000000D01*
D17*
X122550001Y-67449999D02*
X122500000Y-67500000D01*
X136085787Y-70000000D02*
X133535786Y-67449999D01*
X133535786Y-67449999D02*
X122550001Y-67449999D01*
X137500000Y-70000000D02*
X136085787Y-70000000D01*
X120000000Y-40000000D02*
X110000000Y-50000000D01*
X127500000Y-40000000D02*
X120000000Y-40000000D01*
X127500000Y-60000000D02*
X132500000Y-55000000D01*
X122500000Y-60000000D02*
X127500000Y-60000000D01*
X137500000Y-50000000D02*
X137500000Y-57000000D01*
X137500000Y-57000000D02*
X136500000Y-57000000D01*
X138949999Y-75050001D02*
X134054231Y-75050001D01*
X140999967Y-73000033D02*
X138949999Y-75050001D01*
X137500000Y-57500000D02*
X140999967Y-60999967D01*
X134054231Y-75050001D02*
X131504230Y-72500000D01*
X131504230Y-72500000D02*
X128914213Y-72500000D01*
X128914213Y-72500000D02*
X127500000Y-72500000D01*
X140999967Y-60999967D02*
X140999967Y-73000033D01*
X95000000Y-50000000D02*
X95000000Y-55000000D01*
X99900000Y-50000000D02*
X94900000Y-50000000D01*
X90000000Y-50000000D02*
X90000000Y-56000000D01*
X90100000Y-50100000D02*
X90100000Y-48400000D01*
X98585787Y-46700000D02*
X100000000Y-46700000D01*
X91800000Y-46700000D02*
X98585787Y-46700000D01*
X90100000Y-48400000D02*
X91800000Y-46700000D01*
X80500000Y-56000000D02*
X80000000Y-56500000D01*
X85000000Y-56000000D02*
X80500000Y-56000000D01*
X80000000Y-56500000D02*
X80000000Y-50000000D01*
X85000000Y-65000000D02*
X85000000Y-64500000D01*
X81750001Y-58250001D02*
X80000000Y-56500000D01*
X81750001Y-61250001D02*
X81750001Y-58250001D01*
X85000000Y-64500000D02*
X81750001Y-61250001D01*
X80000000Y-65000000D02*
X85000000Y-65000000D01*
X100000000Y-77500000D02*
X85000000Y-77500000D01*
X102500000Y-75000000D02*
X100000000Y-77500000D01*
X75000000Y-40000000D02*
X82500000Y-47500000D01*
X82500000Y-47500000D02*
X82500000Y-51000000D01*
X87249988Y-55749988D02*
X87249988Y-57250012D01*
X82500000Y-51000000D02*
X87249988Y-55749988D01*
X87249988Y-57250012D02*
X85000000Y-59500000D01*
X102000000Y-74647955D02*
X102000000Y-75000000D01*
X99352045Y-72000000D02*
X102000000Y-74647955D01*
X94750000Y-72000000D02*
X99352045Y-72000000D01*
X91500000Y-68789998D02*
X91539998Y-68789998D01*
X91539998Y-68789998D02*
X94750000Y-72000000D01*
X85000000Y-62289998D02*
X91500000Y-68789998D01*
X85000000Y-59500000D02*
X85000000Y-62289998D01*
X75000000Y-87500000D02*
X80000000Y-87500000D01*
X75000000Y-87500000D02*
X75000000Y-92500000D01*
X84000001Y-88499999D02*
X85000000Y-87500000D01*
X83249999Y-89250001D02*
X84000001Y-88499999D01*
X83249999Y-91840003D02*
X83249999Y-89250001D01*
X80840001Y-94250001D02*
X83249999Y-91840003D01*
X76750001Y-94250001D02*
X80840001Y-94250001D01*
X75000000Y-92500000D02*
X76750001Y-94250001D01*
X75000000Y-75000000D02*
X75000000Y-84000000D01*
X82500000Y-75000000D02*
X80000000Y-77500000D01*
X100000000Y-75000000D02*
X82500000Y-75000000D01*
X80000000Y-92500000D02*
X81750001Y-90749999D01*
X81750001Y-79250001D02*
X80999999Y-78499999D01*
X81750001Y-90749999D02*
X81750001Y-79250001D01*
X80999999Y-78499999D02*
X80000000Y-77500000D01*
X77000000Y-52000000D02*
X75000000Y-50000000D01*
X80000000Y-59500000D02*
X77250000Y-56750000D01*
X78000000Y-61500000D02*
X80000000Y-59500000D01*
X78000000Y-75500000D02*
X78000000Y-61500000D01*
X80000000Y-77500000D02*
X78000000Y-75500000D01*
X77250000Y-52250000D02*
X77000000Y-52000000D01*
X77250000Y-56750000D02*
X77250000Y-52250000D01*
X110000000Y-82500000D02*
X110000000Y-84000000D01*
X110000000Y-84000000D02*
X112500000Y-86500000D01*
X112500000Y-90000000D02*
X110000000Y-92500000D01*
X112500000Y-86500000D02*
X112500000Y-90000000D01*
X60000000Y-110500000D02*
X60000000Y-106000000D01*
X105000000Y-92500000D02*
X110000000Y-92500000D01*
X110000000Y-92500000D02*
X110000000Y-99500000D01*
X111910001Y-108340001D02*
X110750002Y-109500000D01*
X111910001Y-101410001D02*
X111910001Y-108340001D01*
X110000000Y-99500000D02*
X111910001Y-101410001D01*
X95840001Y-105749999D02*
X91250001Y-105749999D01*
X96750001Y-106659999D02*
X95840001Y-105749999D01*
X96750001Y-107250001D02*
X96750001Y-106659999D01*
X99000000Y-109500000D02*
X96750001Y-107250001D01*
X110750002Y-109500000D02*
X99000000Y-109500000D01*
X86000000Y-111000000D02*
X60000000Y-111000000D01*
X91250001Y-105749999D02*
X86000000Y-111000000D01*
D18*
X107500000Y-82500000D02*
X107500000Y-84000000D01*
X106500000Y-85000000D02*
X106500000Y-87500000D01*
X107500000Y-84000000D02*
X106500000Y-85000000D01*
D17*
X63350002Y-125000000D02*
X62500000Y-125000000D01*
X100000000Y-55000000D02*
X100000000Y-53500000D01*
X100000000Y-53500000D02*
X103249999Y-50250001D01*
X139752115Y-38247884D02*
X143999999Y-42495768D01*
X138754219Y-105410012D02*
X132418442Y-105410012D01*
X116749988Y-131250012D02*
X69600014Y-131250012D01*
X103249999Y-38999999D02*
X105249998Y-37000000D01*
X143999999Y-42495768D02*
X143999999Y-100164232D01*
X122500000Y-115328454D02*
X122500000Y-125500000D01*
X69600014Y-131250012D02*
X63350002Y-125000000D01*
X132418442Y-105410012D02*
X122500000Y-115328454D01*
X143999999Y-100164232D02*
X138754219Y-105410012D01*
X103249999Y-50250001D02*
X103249999Y-38999999D01*
X122500000Y-125500000D02*
X116749988Y-131250012D01*
X139752115Y-38247884D02*
X139747884Y-38247884D01*
X139747884Y-38247884D02*
X138500000Y-37000000D01*
X105249998Y-37000000D02*
X138500000Y-37000000D01*
X110000000Y-75132045D02*
X112867955Y-78000000D01*
X110000000Y-75000000D02*
X110000000Y-75132045D01*
X118000000Y-78000000D02*
X127500000Y-87500000D01*
X112867955Y-78000000D02*
X118000000Y-78000000D01*
X140414218Y-90500011D02*
X134085782Y-90500011D01*
X137500000Y-65000000D02*
X135500000Y-63000000D01*
X134085782Y-90500011D02*
X133085771Y-89500000D01*
X138000000Y-46500000D02*
X141999978Y-46500000D01*
X133085771Y-89500000D02*
X129000000Y-89500000D01*
X129000000Y-89500000D02*
X127500000Y-88000000D01*
X141999978Y-88914251D02*
X140414218Y-90500011D01*
X141999978Y-46500000D02*
X141999978Y-88914251D01*
X135500000Y-63000000D02*
X135500000Y-49000000D01*
X135500000Y-49000000D02*
X138000000Y-46500000D01*
X105000000Y-75000000D02*
X98000000Y-68000000D01*
X93500000Y-68000000D02*
X90000000Y-64500000D01*
X98000000Y-68000000D02*
X93500000Y-68000000D01*
X85000000Y-50000000D02*
X88249999Y-53249999D01*
X88249999Y-53249999D02*
X88249999Y-62249999D01*
X88249999Y-62249999D02*
X90000000Y-64000000D01*
X85000000Y-72500000D02*
X80000000Y-72500000D01*
X96500000Y-102500000D02*
X95000000Y-102500000D01*
X102500000Y-83000000D02*
X102500000Y-96500000D01*
X102500000Y-96500000D02*
X102500000Y-97000000D01*
X110250000Y-106750000D02*
X102500000Y-99000000D01*
X110250000Y-107500000D02*
X110250000Y-106750000D01*
X100500000Y-99000000D02*
X96500000Y-102500000D01*
X56500000Y-92149998D02*
X56500000Y-82000000D01*
X57500000Y-81000000D02*
X60000000Y-81000000D01*
X70350002Y-106000000D02*
X56500000Y-92149998D01*
X82000000Y-106000000D02*
X70350002Y-106000000D01*
X83000000Y-105000000D02*
X82000000Y-106000000D01*
X56500000Y-82000000D02*
X57500000Y-81000000D01*
X86500000Y-105000000D02*
X83000000Y-105000000D01*
X89000000Y-102500000D02*
X86500000Y-105000000D01*
X95000000Y-102500000D02*
X89000000Y-102500000D01*
X101700000Y-99000000D02*
X102500000Y-98200000D01*
X102500000Y-99000000D02*
X102500000Y-98200000D01*
X102500000Y-99000000D02*
X101700000Y-99000000D01*
X102500000Y-98200000D02*
X102500000Y-97000000D01*
X101700000Y-99000000D02*
X100500000Y-99000000D01*
X100000000Y-82500000D02*
X100000000Y-92500000D01*
X97500000Y-95000000D02*
X100000000Y-92500000D01*
X90000000Y-95000000D02*
X97500000Y-95000000D01*
X60000000Y-86000000D02*
X60000000Y-91000000D01*
X90000000Y-95000000D02*
X84500000Y-100500000D01*
X84500000Y-100500000D02*
X84000000Y-100500000D01*
X84000000Y-100500000D02*
X82500000Y-102000000D01*
X82500000Y-102000000D02*
X82500000Y-103500000D01*
X61999999Y-92999999D02*
X60000000Y-91000000D01*
X73410001Y-104410001D02*
X61999999Y-92999999D01*
X81589999Y-104410001D02*
X73410001Y-104410001D01*
X82500000Y-103500000D02*
X81589999Y-104410001D01*
X104000001Y-50999999D02*
X105000000Y-50000000D01*
X103249999Y-51750001D02*
X104000001Y-50999999D01*
X103249999Y-55100003D02*
X103249999Y-51750001D01*
X100850002Y-57500000D02*
X103249999Y-55100003D01*
X100000000Y-57500000D02*
X100850002Y-57500000D01*
X101414213Y-60000000D02*
X100000000Y-60000000D01*
X105000000Y-56414213D02*
X101414213Y-60000000D01*
X105000000Y-55000000D02*
X105000000Y-56414213D01*
X124000000Y-65000000D02*
X122500000Y-65000000D01*
X124930002Y-65000000D02*
X124000000Y-65000000D01*
X134250001Y-55680001D02*
X124930002Y-65000000D01*
X134250001Y-53750001D02*
X134250001Y-55680001D01*
X133000000Y-52500000D02*
X134250001Y-53750001D01*
X126500000Y-52500000D02*
X133000000Y-52500000D01*
X124000000Y-55000000D02*
X126500000Y-52500000D01*
X122500000Y-55000000D02*
X124000000Y-55000000D01*
X122500000Y-49000000D02*
X122500000Y-55000000D01*
X131500000Y-40000000D02*
X122500000Y-49000000D01*
X132500000Y-40000000D02*
X131500000Y-40000000D01*
X125000000Y-57500000D02*
X127500000Y-55000000D01*
X122250000Y-57500000D02*
X125000000Y-57500000D01*
X122500000Y-70000000D02*
X122369998Y-70000000D01*
X120434999Y-68065001D02*
X120434999Y-59565001D01*
X120434999Y-59565001D02*
X120500000Y-59500000D01*
X120500000Y-59500000D02*
X122250000Y-57500000D01*
X122369998Y-70000000D02*
X120434999Y-68065001D01*
X112500000Y-75850002D02*
X112500000Y-75000000D01*
X113649998Y-77000000D02*
X112500000Y-75850002D01*
X119500000Y-77000000D02*
X113649998Y-77000000D01*
X124500000Y-82000000D02*
X119500000Y-77000000D01*
X129500000Y-82000000D02*
X124500000Y-82000000D01*
X135000000Y-87500000D02*
X129500000Y-82000000D01*
X137500000Y-87500000D02*
X135000000Y-87500000D01*
X129500000Y-81914213D02*
X129500000Y-82000000D01*
X132500000Y-78914213D02*
X129500000Y-81914213D01*
X132500000Y-77500000D02*
X132500000Y-78914213D01*
X115000000Y-73300000D02*
X113700000Y-72000000D01*
X115000000Y-75000000D02*
X115000000Y-73300000D01*
X113700000Y-72000000D02*
X104500000Y-72000000D01*
X96414213Y-65000000D02*
X95000000Y-65000000D01*
X97500000Y-65000000D02*
X96414213Y-65000000D01*
X104500000Y-72000000D02*
X97500000Y-65000000D01*
X132590002Y-75000000D02*
X140000000Y-82409998D01*
X115000000Y-75000000D02*
X132590002Y-75000000D01*
X140000000Y-87590002D02*
X138090002Y-89500000D01*
X140000000Y-82409998D02*
X140000000Y-87590002D01*
X134500000Y-89500000D02*
X132500000Y-87500000D01*
X138090002Y-89500000D02*
X134500000Y-89500000D01*
X60000000Y-51000000D02*
X73000000Y-38000000D01*
X78000000Y-38000000D02*
X80000000Y-40000000D01*
X73000000Y-38000000D02*
X78000000Y-38000000D01*
X68328427Y-65000000D02*
X75000000Y-65000000D01*
X62828427Y-70500000D02*
X68328427Y-65000000D01*
X60000000Y-70500000D02*
X62828427Y-70500000D01*
X105000000Y-82500000D02*
X102500000Y-80000000D01*
X97500000Y-80000000D02*
X85000000Y-92500000D01*
X102500000Y-80000000D02*
X97500000Y-80000000D01*
X85000000Y-97500000D02*
X80000000Y-102500000D01*
X85000000Y-92500000D02*
X85000000Y-97500000D01*
X70750001Y-109250001D02*
X62500000Y-101000000D01*
X85680001Y-109250001D02*
X70750001Y-109250001D01*
X90680001Y-104250001D02*
X85680001Y-109250001D01*
X98249999Y-104250001D02*
X90680001Y-104250001D01*
X62500000Y-101000000D02*
X60000000Y-101000000D01*
X100000000Y-102500000D02*
X98249999Y-104250001D01*
X112500000Y-82500000D02*
X112500000Y-84000000D01*
X121000000Y-92500000D02*
X127500000Y-92500000D01*
X112500000Y-84000000D02*
X121000000Y-92500000D01*
X137500000Y-102500000D02*
X127500000Y-92500000D01*
X110000000Y-40000000D02*
X105000000Y-40000000D01*
X111410001Y-38089999D02*
X110000000Y-39500000D01*
X142999988Y-42914216D02*
X138175771Y-38089999D01*
X138340001Y-104410001D02*
X142999988Y-99750014D01*
X142999988Y-99750014D02*
X142999988Y-42914216D01*
X132004224Y-104410001D02*
X138340001Y-104410001D01*
X121499989Y-114914236D02*
X132004224Y-104410001D01*
X138175771Y-38089999D02*
X111410001Y-38089999D01*
X115840001Y-130250001D02*
X121499989Y-124590013D01*
X83750001Y-130250001D02*
X115840001Y-130250001D01*
X74500000Y-121000000D02*
X83750001Y-130250001D01*
X121499989Y-124590013D02*
X121499989Y-114914236D01*
X95000000Y-107500000D02*
X95000000Y-109219998D01*
X97390001Y-116109999D02*
X97250000Y-116250000D01*
X95000000Y-109219998D02*
X97390001Y-111609999D01*
X92500000Y-121000000D02*
X97250000Y-116250000D01*
X132500000Y-102500000D02*
X121140001Y-113859999D01*
X97440001Y-113859999D02*
X97400000Y-113900000D01*
X97400000Y-113900000D02*
X97390001Y-116109999D01*
X121140001Y-113859999D02*
X97440001Y-113859999D01*
X97390001Y-111609999D02*
X97400000Y-113900000D01*
X115000000Y-82500000D02*
X118000000Y-82500000D01*
X131249999Y-90749999D02*
X132500000Y-92000000D01*
X126249999Y-90749999D02*
X131249999Y-90749999D01*
X118000000Y-82500000D02*
X126249999Y-90749999D01*
X132500000Y-92500000D02*
X137500000Y-92500000D01*
M02*
