G04 #@! TF.GenerationSoftware,KiCad,Pcbnew,5.1.5+dfsg1-2build2*
G04 #@! TF.CreationDate,2021-02-03T14:21:51+01:00*
G04 #@! TF.ProjectId,Drum-k,4472756d-2d6b-42e6-9b69-6361645f7063,rev?*
G04 #@! TF.SameCoordinates,Original*
G04 #@! TF.FileFunction,Copper,L1,Top*
G04 #@! TF.FilePolarity,Positive*
%FSLAX46Y46*%
G04 Gerber Fmt 4.6, Leading zero omitted, Abs format (unit mm)*
G04 Created by KiCad (PCBNEW 5.1.5+dfsg1-2build2) date 2021-02-03 14:21:51*
%MOMM*%
%LPD*%
G04 APERTURE LIST*
%ADD10C,1.000000*%
%ADD11R,4.000000X4.000000*%
%ADD12C,4.000000*%
%ADD13C,2.000000*%
%ADD14R,2.000000X2.000000*%
%ADD15R,3.000000X3.000000*%
%ADD16O,1.600000X2.400000*%
%ADD17R,1.600000X2.400000*%
%ADD18C,1.000000*%
%ADD19C,0.500000*%
%ADD20C,0.800000*%
%ADD21C,0.254000*%
G04 APERTURE END LIST*
D10*
X110000000Y-130000000D03*
D11*
X110000000Y-121000000D03*
D12*
X110000000Y-127080000D03*
D13*
X142560000Y-114940000D03*
X145100000Y-114940000D03*
X142560000Y-117480000D03*
X145100000Y-117480000D03*
X142560000Y-120020000D03*
X145100000Y-120020000D03*
X142560000Y-122560000D03*
X145100000Y-122560000D03*
X142560000Y-125100000D03*
D14*
X145100000Y-125100000D03*
D13*
X137500000Y-70000000D03*
X137500000Y-73300000D03*
X134500000Y-109000000D03*
X132000000Y-109000000D03*
X132000000Y-131000000D03*
X134500000Y-131000000D03*
X106200000Y-70000000D03*
X109500000Y-70000000D03*
X110000000Y-87500000D03*
X106700000Y-87500000D03*
X127500000Y-72500000D03*
X127500000Y-69200000D03*
X100000000Y-46700000D03*
X100000000Y-50000000D03*
X85000000Y-56200000D03*
X85000000Y-59500000D03*
X75000000Y-87600000D03*
X75000000Y-84300000D03*
X80000000Y-59500000D03*
X80000000Y-56200000D03*
X105000000Y-92500000D03*
X105000000Y-95800000D03*
X135120000Y-115000000D03*
D14*
X127500000Y-115000000D03*
D13*
X127380000Y-125000000D03*
D14*
X135000000Y-125000000D03*
X62500000Y-127500000D03*
D13*
X62500000Y-124960000D03*
X127500000Y-47620000D03*
D14*
X127500000Y-40000000D03*
D13*
X137500000Y-57380000D03*
D14*
X137500000Y-65000000D03*
D13*
X90000000Y-56505001D03*
D14*
X90000000Y-64125001D03*
D13*
X80000000Y-72620000D03*
D14*
X80000000Y-65000000D03*
D13*
X85000000Y-64980000D03*
D14*
X85000000Y-72600000D03*
D13*
X95000000Y-94880000D03*
D14*
X95000000Y-102500000D03*
D13*
X90000000Y-102520000D03*
D14*
X90000000Y-94900000D03*
D12*
X75000000Y-121420000D03*
D11*
X75000000Y-127500000D03*
D12*
X92500000Y-121420000D03*
D11*
X92500000Y-127500000D03*
D14*
X100000000Y-55000000D03*
D13*
X100000000Y-60080000D03*
X100000000Y-57540000D03*
D14*
X122500000Y-65000000D03*
D13*
X122500000Y-70080000D03*
X122500000Y-67540000D03*
D14*
X122500000Y-55000000D03*
D13*
X122500000Y-60080000D03*
X122500000Y-57540000D03*
X110000000Y-39840000D03*
X110000000Y-50000000D03*
X105000000Y-39840000D03*
X105000000Y-50000000D03*
X105000000Y-65160000D03*
X105000000Y-55000000D03*
X127500000Y-54840000D03*
X127500000Y-65000000D03*
X132500000Y-39840000D03*
X132500000Y-50000000D03*
X132500000Y-54840000D03*
X132500000Y-65000000D03*
X137500000Y-50160000D03*
X137500000Y-40000000D03*
X127500000Y-87660000D03*
X127500000Y-77500000D03*
X137500000Y-77340000D03*
X137500000Y-87500000D03*
X132500000Y-87660000D03*
X132500000Y-77500000D03*
X95000000Y-54840000D03*
X95000000Y-65000000D03*
X95000000Y-50160000D03*
X95000000Y-40000000D03*
X90000000Y-50160000D03*
X90000000Y-40000000D03*
X85000000Y-50160000D03*
X85000000Y-40000000D03*
X85000000Y-77340000D03*
X85000000Y-87500000D03*
X80000000Y-39840000D03*
X80000000Y-50000000D03*
X75000000Y-64840000D03*
X75000000Y-75000000D03*
X75000000Y-39840000D03*
X75000000Y-50000000D03*
X80000000Y-87660000D03*
X80000000Y-77500000D03*
X80000000Y-102660000D03*
X80000000Y-92500000D03*
X85000000Y-92340000D03*
X85000000Y-102500000D03*
X110160000Y-107500000D03*
X100000000Y-107500000D03*
X100000000Y-102660000D03*
X100000000Y-92500000D03*
X110000000Y-102660000D03*
X110000000Y-92500000D03*
X127500000Y-102660000D03*
X127500000Y-92500000D03*
X137500000Y-102660000D03*
X137500000Y-92500000D03*
X84840000Y-107500000D03*
X95000000Y-107500000D03*
X132500000Y-92340000D03*
X132500000Y-102500000D03*
D12*
X60000000Y-51000000D03*
X60000000Y-46000000D03*
D11*
X60000000Y-41000000D03*
D12*
X60000000Y-70500000D03*
X60000000Y-65500000D03*
D11*
X60000000Y-60500000D03*
D12*
X60000000Y-91000000D03*
X60000000Y-86000000D03*
D11*
X60000000Y-81000000D03*
D12*
X60000000Y-111000000D03*
X60000000Y-106000000D03*
D11*
X60000000Y-101000000D03*
D15*
X132500000Y-120000000D03*
D16*
X115000000Y-82620000D03*
X99760000Y-75000000D03*
X112460000Y-82620000D03*
X102300000Y-75000000D03*
X109920000Y-82620000D03*
X104840000Y-75000000D03*
X107380000Y-82620000D03*
X107380000Y-75000000D03*
X104840000Y-82620000D03*
X109920000Y-75000000D03*
X102300000Y-82620000D03*
X112460000Y-75000000D03*
X99760000Y-82620000D03*
D17*
X115000000Y-75000000D03*
D18*
X145000000Y-117500000D02*
X142500000Y-117500000D01*
X145000000Y-122500000D02*
X145000000Y-117500000D01*
X142500000Y-122500000D02*
X145000000Y-122500000D01*
X142500000Y-122500000D02*
X142500000Y-120000000D01*
X142500000Y-120000000D02*
X142500000Y-117500000D01*
X142500000Y-120000000D02*
X145000000Y-120000000D01*
X130000000Y-105000000D02*
X128000000Y-103000000D01*
X92000000Y-127500000D02*
X75000000Y-127500000D01*
X75000000Y-127500000D02*
X62500000Y-127500000D01*
X85000000Y-107500000D02*
X85000000Y-102500000D01*
X85000000Y-107500000D02*
X85000000Y-109500000D01*
X85000000Y-109500000D02*
X87500000Y-112000000D01*
X137500000Y-77500000D02*
X137500000Y-73500000D01*
X128499999Y-76500001D02*
X127500000Y-77500000D01*
X131500000Y-73500000D02*
X128499999Y-76500001D01*
X137500000Y-73500000D02*
X131500000Y-73500000D01*
X137500000Y-73500000D02*
X139500000Y-73500000D01*
X139500000Y-73500000D02*
X141000000Y-72000000D01*
X141000000Y-72000000D02*
X141000000Y-57179998D01*
X95000000Y-40000000D02*
X90000000Y-40000000D01*
X90000000Y-40000000D02*
X85000000Y-40000000D01*
X95000000Y-40000000D02*
X98000000Y-37000000D01*
X134500000Y-37000000D02*
X137500000Y-40000000D01*
X82339999Y-37339999D02*
X85000000Y-40000000D01*
X60660001Y-37339999D02*
X82339999Y-37339999D01*
X60000000Y-38000000D02*
X60660001Y-37339999D01*
X60000000Y-41000000D02*
X60000000Y-38000000D01*
X60000000Y-41500000D02*
X60000000Y-46000000D01*
X134500000Y-110414213D02*
X134500000Y-109000000D01*
X132000000Y-112914213D02*
X134500000Y-110414213D01*
X134500000Y-129585787D02*
X132000000Y-127085787D01*
X134500000Y-131000000D02*
X134500000Y-129585787D01*
X131914213Y-105000000D02*
X130000000Y-105000000D01*
X134500000Y-109000000D02*
X134500000Y-107585787D01*
X105200002Y-96000000D02*
X105000000Y-96000000D01*
X107500001Y-93700001D02*
X105200002Y-96000000D01*
X107500000Y-91414213D02*
X107500001Y-93700001D01*
X110000000Y-87500000D02*
X110000000Y-88914213D01*
X66500000Y-52500000D02*
X60000000Y-46000000D01*
X134500000Y-109000000D02*
X135914213Y-109000000D01*
X141914213Y-103000000D02*
X141914213Y-81914213D01*
X141914213Y-81914213D02*
X137500000Y-77500000D01*
X109300000Y-69900000D02*
X109300000Y-71300000D01*
X127500000Y-77500000D02*
X121920086Y-77500000D01*
X121920086Y-77500000D02*
X114420086Y-70000000D01*
X114420086Y-70000000D02*
X110914213Y-70000000D01*
X110914213Y-70000000D02*
X109500000Y-70000000D01*
X105000000Y-95800000D02*
X104900000Y-95800000D01*
X110000000Y-100800000D02*
X105000000Y-95800000D01*
X110000000Y-102700000D02*
X110000000Y-100800000D01*
X108900000Y-90000000D02*
X107500000Y-91414213D01*
X110000000Y-88914213D02*
X108900000Y-90000000D01*
X60000000Y-60500000D02*
X60000000Y-65500000D01*
X107500000Y-91000000D02*
X106500000Y-90000000D01*
X107500000Y-91414213D02*
X107500000Y-91000000D01*
X106500000Y-90000000D02*
X108900000Y-90000000D01*
X98500000Y-112000000D02*
X100000000Y-110500000D01*
X98000000Y-112000000D02*
X98500000Y-112000000D01*
X100000000Y-107500000D02*
X100000000Y-110500000D01*
X87500000Y-112000000D02*
X98000000Y-112000000D01*
X98000000Y-112000000D02*
X99500000Y-112000000D01*
X100000000Y-113500000D02*
X98500000Y-112000000D01*
X100000000Y-110500000D02*
X100000000Y-113500000D01*
X65000000Y-60500000D02*
X66500000Y-59000000D01*
X66500000Y-59000000D02*
X66500000Y-52500000D01*
X64500000Y-60500000D02*
X65000000Y-60500000D01*
X66500000Y-60500000D02*
X66500000Y-59000000D01*
X60000000Y-60500000D02*
X64500000Y-60500000D01*
X64500000Y-60500000D02*
X66500000Y-60500000D01*
X65000000Y-60500000D02*
X66500000Y-62000000D01*
X66500000Y-62000000D02*
X66500000Y-60500000D01*
X94400000Y-78199998D02*
X85500002Y-69300000D01*
X66500000Y-65500000D02*
X66500000Y-62000000D01*
X70300000Y-69300000D02*
X66500000Y-65500000D01*
X94400000Y-80205598D02*
X94400000Y-78199998D01*
X104194402Y-90000000D02*
X94400000Y-80205598D01*
X85500002Y-69300000D02*
X70300000Y-69300000D01*
X106500000Y-90000000D02*
X104194402Y-90000000D01*
X141000000Y-43500000D02*
X137500000Y-40000000D01*
X141000000Y-57179998D02*
X141000000Y-43500000D01*
X130000000Y-50000000D02*
X120000000Y-40000000D01*
X132500000Y-50000000D02*
X130000000Y-50000000D01*
X122000000Y-37000000D02*
X134500000Y-37000000D01*
X120000000Y-37000000D02*
X122000000Y-37000000D01*
X120000000Y-40000000D02*
X120000000Y-39000000D01*
X120000000Y-39000000D02*
X120000000Y-37000000D01*
X120000000Y-37000000D02*
X121000000Y-38000000D01*
X121000000Y-38000000D02*
X122000000Y-37000000D01*
X120000000Y-39000000D02*
X121000000Y-38000000D01*
X118000000Y-37000000D02*
X120000000Y-37000000D01*
X98000000Y-37000000D02*
X118000000Y-37000000D01*
X119000000Y-38000000D02*
X120000000Y-37000000D01*
X120000000Y-39000000D02*
X119000000Y-38000000D01*
X119000000Y-38000000D02*
X118000000Y-37000000D01*
X134500000Y-110414213D02*
X135914213Y-109000000D01*
X133957107Y-107042894D02*
X135914213Y-109000000D01*
X133957107Y-107042893D02*
X133957107Y-107042894D01*
X134500000Y-107585787D02*
X133957107Y-107042893D01*
X133957107Y-107042893D02*
X131914213Y-105000000D01*
X134871320Y-107957107D02*
X134500000Y-107585787D01*
X136957107Y-107957107D02*
X134871320Y-107957107D01*
X135914213Y-109000000D02*
X136957107Y-107957107D01*
X136957107Y-107957107D02*
X141914213Y-103000000D01*
X134000000Y-120000000D02*
X132500000Y-120000000D01*
X142500000Y-120000000D02*
X134000000Y-120000000D01*
X132000000Y-127085787D02*
X132000000Y-122000000D01*
X134000000Y-120000000D02*
X132000000Y-118000000D01*
X132000000Y-118000000D02*
X132000000Y-112914213D01*
X133000000Y-119000000D02*
X132000000Y-120000000D01*
X132000000Y-120000000D02*
X132000000Y-118000000D01*
X132000000Y-122000000D02*
X132000000Y-120000000D01*
X132000000Y-120000000D02*
X133000000Y-121000000D01*
X133000000Y-121000000D02*
X134000000Y-120000000D01*
X132000000Y-122000000D02*
X133000000Y-121000000D01*
X115000000Y-108000000D02*
X110000000Y-103000000D01*
X115000000Y-125000000D02*
X115000000Y-108000000D01*
X112500000Y-127500000D02*
X115000000Y-125000000D01*
X107500000Y-127500000D02*
X112500000Y-127500000D01*
X100000000Y-126000000D02*
X100000000Y-127500000D01*
X101500000Y-127500000D02*
X100000000Y-126000000D01*
X100000000Y-113500000D02*
X100000000Y-126000000D01*
X107500000Y-127500000D02*
X101500000Y-127500000D01*
X101500000Y-127500000D02*
X100000000Y-127500000D01*
X98500000Y-127500000D02*
X100000000Y-126000000D01*
X100000000Y-127500000D02*
X98500000Y-127500000D01*
X98500000Y-127500000D02*
X92500000Y-127500000D01*
D19*
X109900000Y-55750002D02*
X109900000Y-50000000D01*
X121649998Y-67500000D02*
X109900000Y-55750002D01*
X122500000Y-67500000D02*
X121649998Y-67500000D01*
X125749999Y-63249999D02*
X122500000Y-60000000D01*
X125749999Y-67449999D02*
X125749999Y-63249999D01*
X127500000Y-69200000D02*
X125749999Y-67449999D01*
D20*
X132000000Y-109000000D02*
X129500000Y-109000000D01*
X127500000Y-111000000D02*
X127500000Y-115000000D01*
X129500000Y-109000000D02*
X127500000Y-111000000D01*
X107099999Y-71099999D02*
X107099999Y-74599999D01*
X125700000Y-115000000D02*
X127500000Y-115000000D01*
X121500000Y-110800000D02*
X125700000Y-115000000D01*
X115371198Y-77500000D02*
X121500000Y-83628802D01*
X105000000Y-69000000D02*
X107099999Y-71099999D01*
X107099999Y-74599999D02*
X107500000Y-75000000D01*
X107500000Y-75808441D02*
X109191559Y-77500000D01*
X107500000Y-75000000D02*
X107500000Y-75808441D01*
X109191559Y-77500000D02*
X115371198Y-77500000D01*
X121500000Y-83628802D02*
X121500000Y-110800000D01*
X107100000Y-65100000D02*
X106800000Y-65100000D01*
X105000000Y-66900000D02*
X105000000Y-69000000D01*
X105000000Y-65000000D02*
X105000000Y-66900000D01*
X106800000Y-65100000D02*
X105000000Y-66900000D01*
X107100000Y-65100000D02*
X105000000Y-65100000D01*
X132300000Y-65000000D02*
X132300000Y-70512002D01*
X127100000Y-65100000D02*
X132200000Y-65100000D01*
X132200000Y-65100000D02*
X132300000Y-65000000D01*
X111500000Y-65100000D02*
X107100000Y-65100000D01*
X120800001Y-74400001D02*
X111500000Y-65100000D01*
X128412001Y-74400001D02*
X120800001Y-74400001D01*
X132300000Y-70512002D02*
X128412001Y-74400001D01*
X132000000Y-131000000D02*
X130000000Y-131000000D01*
X127500000Y-128500000D02*
X127500000Y-125000000D01*
X130000000Y-131000000D02*
X127500000Y-128500000D01*
X127500000Y-125000000D02*
X118000000Y-115500000D01*
X118000000Y-82391559D02*
X115108441Y-79500000D01*
X118000000Y-115500000D02*
X118000000Y-82391559D01*
X107500000Y-81811559D02*
X107500000Y-82500000D01*
X109811559Y-79500000D02*
X107500000Y-81811559D01*
X115108441Y-79500000D02*
X109811559Y-79500000D01*
X107250000Y-87000000D02*
X106750000Y-87500000D01*
X107250000Y-82500000D02*
X107250000Y-87000000D01*
D19*
X89400000Y-77100000D02*
X85000000Y-72700000D01*
X89400000Y-84650002D02*
X89400000Y-77100000D01*
X104500000Y-111500000D02*
X104500000Y-100000000D01*
X104500000Y-100000000D02*
X89400000Y-84650002D01*
X110000000Y-117000000D02*
X104500000Y-111500000D01*
X110000000Y-121500000D02*
X110000000Y-117000000D01*
X145000000Y-115000000D02*
X142500000Y-115000000D01*
X142500000Y-115000000D02*
X135000000Y-115000000D01*
X145000000Y-125000000D02*
X142500000Y-125000000D01*
X142500000Y-125000000D02*
X135000000Y-125000000D01*
D21*
G36*
X145293748Y-117465858D02*
G01*
X145279605Y-117480000D01*
X145293748Y-117494143D01*
X145114143Y-117673748D01*
X145100000Y-117659605D01*
X144144192Y-118615413D01*
X144192938Y-118750000D01*
X144144192Y-118884587D01*
X145100000Y-119840395D01*
X145114143Y-119826253D01*
X145293748Y-120005858D01*
X145279605Y-120020000D01*
X145293748Y-120034143D01*
X145114143Y-120213748D01*
X145100000Y-120199605D01*
X144144192Y-121155413D01*
X144192938Y-121290000D01*
X144144192Y-121424587D01*
X145100000Y-122380395D01*
X145114143Y-122366253D01*
X145293748Y-122545858D01*
X145279605Y-122560000D01*
X145293748Y-122574143D01*
X145114143Y-122753748D01*
X145100000Y-122739605D01*
X145085858Y-122753748D01*
X144906253Y-122574143D01*
X144920395Y-122560000D01*
X143964587Y-121604192D01*
X143830000Y-121652938D01*
X143695413Y-121604192D01*
X142739605Y-122560000D01*
X142753748Y-122574143D01*
X142574143Y-122753748D01*
X142560000Y-122739605D01*
X142545858Y-122753748D01*
X142366253Y-122574143D01*
X142380395Y-122560000D01*
X142366253Y-122545858D01*
X142545858Y-122366253D01*
X142560000Y-122380395D01*
X143515808Y-121424587D01*
X143467062Y-121290000D01*
X143515808Y-121155413D01*
X142560000Y-120199605D01*
X142545858Y-120213748D01*
X142366253Y-120034143D01*
X142380395Y-120020000D01*
X142739605Y-120020000D01*
X143695413Y-120975808D01*
X143830000Y-120927062D01*
X143964587Y-120975808D01*
X144920395Y-120020000D01*
X143964587Y-119064192D01*
X143830000Y-119112938D01*
X143695413Y-119064192D01*
X142739605Y-120020000D01*
X142380395Y-120020000D01*
X142366253Y-120005858D01*
X142545858Y-119826253D01*
X142560000Y-119840395D01*
X143515808Y-118884587D01*
X143467062Y-118750000D01*
X143515808Y-118615413D01*
X142560000Y-117659605D01*
X142545858Y-117673748D01*
X142366253Y-117494143D01*
X142380395Y-117480000D01*
X142366253Y-117465858D01*
X142545858Y-117286253D01*
X142560000Y-117300395D01*
X142574143Y-117286253D01*
X142753748Y-117465858D01*
X142739605Y-117480000D01*
X143695413Y-118435808D01*
X143830000Y-118387062D01*
X143964587Y-118435808D01*
X144920395Y-117480000D01*
X144906253Y-117465858D01*
X145085858Y-117286253D01*
X145100000Y-117300395D01*
X145114143Y-117286253D01*
X145293748Y-117465858D01*
G37*
X145293748Y-117465858D02*
X145279605Y-117480000D01*
X145293748Y-117494143D01*
X145114143Y-117673748D01*
X145100000Y-117659605D01*
X144144192Y-118615413D01*
X144192938Y-118750000D01*
X144144192Y-118884587D01*
X145100000Y-119840395D01*
X145114143Y-119826253D01*
X145293748Y-120005858D01*
X145279605Y-120020000D01*
X145293748Y-120034143D01*
X145114143Y-120213748D01*
X145100000Y-120199605D01*
X144144192Y-121155413D01*
X144192938Y-121290000D01*
X144144192Y-121424587D01*
X145100000Y-122380395D01*
X145114143Y-122366253D01*
X145293748Y-122545858D01*
X145279605Y-122560000D01*
X145293748Y-122574143D01*
X145114143Y-122753748D01*
X145100000Y-122739605D01*
X145085858Y-122753748D01*
X144906253Y-122574143D01*
X144920395Y-122560000D01*
X143964587Y-121604192D01*
X143830000Y-121652938D01*
X143695413Y-121604192D01*
X142739605Y-122560000D01*
X142753748Y-122574143D01*
X142574143Y-122753748D01*
X142560000Y-122739605D01*
X142545858Y-122753748D01*
X142366253Y-122574143D01*
X142380395Y-122560000D01*
X142366253Y-122545858D01*
X142545858Y-122366253D01*
X142560000Y-122380395D01*
X143515808Y-121424587D01*
X143467062Y-121290000D01*
X143515808Y-121155413D01*
X142560000Y-120199605D01*
X142545858Y-120213748D01*
X142366253Y-120034143D01*
X142380395Y-120020000D01*
X142739605Y-120020000D01*
X143695413Y-120975808D01*
X143830000Y-120927062D01*
X143964587Y-120975808D01*
X144920395Y-120020000D01*
X143964587Y-119064192D01*
X143830000Y-119112938D01*
X143695413Y-119064192D01*
X142739605Y-120020000D01*
X142380395Y-120020000D01*
X142366253Y-120005858D01*
X142545858Y-119826253D01*
X142560000Y-119840395D01*
X143515808Y-118884587D01*
X143467062Y-118750000D01*
X143515808Y-118615413D01*
X142560000Y-117659605D01*
X142545858Y-117673748D01*
X142366253Y-117494143D01*
X142380395Y-117480000D01*
X142366253Y-117465858D01*
X142545858Y-117286253D01*
X142560000Y-117300395D01*
X142574143Y-117286253D01*
X142753748Y-117465858D01*
X142739605Y-117480000D01*
X143695413Y-118435808D01*
X143830000Y-118387062D01*
X143964587Y-118435808D01*
X144920395Y-117480000D01*
X144906253Y-117465858D01*
X145085858Y-117286253D01*
X145100000Y-117300395D01*
X145114143Y-117286253D01*
X145293748Y-117465858D01*
M02*
