G04 #@! TF.GenerationSoftware,KiCad,Pcbnew,5.1.5+dfsg1-2build2*
G04 #@! TF.CreationDate,2021-02-03T14:21:51+01:00*
G04 #@! TF.ProjectId,Drum-k,4472756d-2d6b-42e6-9b69-6361645f7063,rev?*
G04 #@! TF.SameCoordinates,Original*
G04 #@! TF.FileFunction,Soldermask,Bot*
G04 #@! TF.FilePolarity,Negative*
%FSLAX46Y46*%
G04 Gerber Fmt 4.6, Leading zero omitted, Abs format (unit mm)*
G04 Created by KiCad (PCBNEW 5.1.5+dfsg1-2build2) date 2021-02-03 14:21:51*
%MOMM*%
%LPD*%
G04 APERTURE LIST*
%ADD10C,0.100000*%
G04 APERTURE END LIST*
D10*
G36*
X134806564Y-129989389D02*
G01*
X134997833Y-130068615D01*
X134997835Y-130068616D01*
X135169973Y-130183635D01*
X135316365Y-130330027D01*
X135431385Y-130502167D01*
X135510611Y-130693436D01*
X135551000Y-130896484D01*
X135551000Y-131103516D01*
X135510611Y-131306564D01*
X135431385Y-131497833D01*
X135431384Y-131497835D01*
X135316365Y-131669973D01*
X135169973Y-131816365D01*
X134997835Y-131931384D01*
X134997834Y-131931385D01*
X134997833Y-131931385D01*
X134806564Y-132010611D01*
X134603516Y-132051000D01*
X134396484Y-132051000D01*
X134193436Y-132010611D01*
X134002167Y-131931385D01*
X134002166Y-131931385D01*
X134002165Y-131931384D01*
X133830027Y-131816365D01*
X133683635Y-131669973D01*
X133568616Y-131497835D01*
X133568615Y-131497833D01*
X133489389Y-131306564D01*
X133449000Y-131103516D01*
X133449000Y-130896484D01*
X133489389Y-130693436D01*
X133568615Y-130502167D01*
X133683635Y-130330027D01*
X133830027Y-130183635D01*
X134002165Y-130068616D01*
X134002167Y-130068615D01*
X134193436Y-129989389D01*
X134396484Y-129949000D01*
X134603516Y-129949000D01*
X134806564Y-129989389D01*
G37*
G36*
X132306564Y-129989389D02*
G01*
X132497833Y-130068615D01*
X132497835Y-130068616D01*
X132669973Y-130183635D01*
X132816365Y-130330027D01*
X132931385Y-130502167D01*
X133010611Y-130693436D01*
X133051000Y-130896484D01*
X133051000Y-131103516D01*
X133010611Y-131306564D01*
X132931385Y-131497833D01*
X132931384Y-131497835D01*
X132816365Y-131669973D01*
X132669973Y-131816365D01*
X132497835Y-131931384D01*
X132497834Y-131931385D01*
X132497833Y-131931385D01*
X132306564Y-132010611D01*
X132103516Y-132051000D01*
X131896484Y-132051000D01*
X131693436Y-132010611D01*
X131502167Y-131931385D01*
X131502166Y-131931385D01*
X131502165Y-131931384D01*
X131330027Y-131816365D01*
X131183635Y-131669973D01*
X131068616Y-131497835D01*
X131068615Y-131497833D01*
X130989389Y-131306564D01*
X130949000Y-131103516D01*
X130949000Y-130896484D01*
X130989389Y-130693436D01*
X131068615Y-130502167D01*
X131183635Y-130330027D01*
X131330027Y-130183635D01*
X131502165Y-130068616D01*
X131502167Y-130068615D01*
X131693436Y-129989389D01*
X131896484Y-129949000D01*
X132103516Y-129949000D01*
X132306564Y-129989389D01*
G37*
G36*
X77051000Y-129551000D02*
G01*
X72949000Y-129551000D01*
X72949000Y-125449000D01*
X77051000Y-125449000D01*
X77051000Y-129551000D01*
G37*
G36*
X94551000Y-129551000D02*
G01*
X90449000Y-129551000D01*
X90449000Y-125449000D01*
X94551000Y-125449000D01*
X94551000Y-129551000D01*
G37*
G36*
X110598254Y-125107818D02*
G01*
X110971511Y-125262426D01*
X110971513Y-125262427D01*
X111307436Y-125486884D01*
X111593116Y-125772564D01*
X111752174Y-126010610D01*
X111817574Y-126108489D01*
X111972182Y-126481746D01*
X112051000Y-126877993D01*
X112051000Y-127282007D01*
X111972182Y-127678254D01*
X111817574Y-128051511D01*
X111817573Y-128051513D01*
X111593116Y-128387436D01*
X111307436Y-128673116D01*
X110971513Y-128897573D01*
X110971512Y-128897574D01*
X110971511Y-128897574D01*
X110598254Y-129052182D01*
X110202007Y-129131000D01*
X109797993Y-129131000D01*
X109401746Y-129052182D01*
X109028489Y-128897574D01*
X109028488Y-128897574D01*
X109028487Y-128897573D01*
X108692564Y-128673116D01*
X108406884Y-128387436D01*
X108182427Y-128051513D01*
X108182426Y-128051511D01*
X108027818Y-127678254D01*
X107949000Y-127282007D01*
X107949000Y-126877993D01*
X108027818Y-126481746D01*
X108182426Y-126108489D01*
X108247827Y-126010610D01*
X108406884Y-125772564D01*
X108692564Y-125486884D01*
X109028487Y-125262427D01*
X109028489Y-125262426D01*
X109401746Y-125107818D01*
X109797993Y-125029000D01*
X110202007Y-125029000D01*
X110598254Y-125107818D01*
G37*
G36*
X63551000Y-128551000D02*
G01*
X61449000Y-128551000D01*
X61449000Y-126449000D01*
X63551000Y-126449000D01*
X63551000Y-128551000D01*
G37*
G36*
X146151000Y-126151000D02*
G01*
X144049000Y-126151000D01*
X144049000Y-124049000D01*
X146151000Y-124049000D01*
X146151000Y-126151000D01*
G37*
G36*
X142866564Y-124089389D02*
G01*
X143057833Y-124168615D01*
X143057835Y-124168616D01*
X143229973Y-124283635D01*
X143376365Y-124430027D01*
X143491385Y-124602167D01*
X143570611Y-124793436D01*
X143611000Y-124996484D01*
X143611000Y-125203516D01*
X143570611Y-125406564D01*
X143537341Y-125486884D01*
X143491384Y-125597835D01*
X143376365Y-125769973D01*
X143229973Y-125916365D01*
X143057835Y-126031384D01*
X143057834Y-126031385D01*
X143057833Y-126031385D01*
X142866564Y-126110611D01*
X142663516Y-126151000D01*
X142456484Y-126151000D01*
X142253436Y-126110611D01*
X142062167Y-126031385D01*
X142062166Y-126031385D01*
X142062165Y-126031384D01*
X141890027Y-125916365D01*
X141743635Y-125769973D01*
X141628616Y-125597835D01*
X141582659Y-125486884D01*
X141549389Y-125406564D01*
X141509000Y-125203516D01*
X141509000Y-124996484D01*
X141549389Y-124793436D01*
X141628615Y-124602167D01*
X141743635Y-124430027D01*
X141890027Y-124283635D01*
X142062165Y-124168616D01*
X142062167Y-124168615D01*
X142253436Y-124089389D01*
X142456484Y-124049000D01*
X142663516Y-124049000D01*
X142866564Y-124089389D01*
G37*
G36*
X127686564Y-123989389D02*
G01*
X127877833Y-124068615D01*
X127877835Y-124068616D01*
X127908924Y-124089389D01*
X128049973Y-124183635D01*
X128196365Y-124330027D01*
X128311385Y-124502167D01*
X128390611Y-124693436D01*
X128431000Y-124896484D01*
X128431000Y-125103516D01*
X128390611Y-125306564D01*
X128315920Y-125486884D01*
X128311384Y-125497835D01*
X128196365Y-125669973D01*
X128049973Y-125816365D01*
X127877835Y-125931384D01*
X127877834Y-125931385D01*
X127877833Y-125931385D01*
X127686564Y-126010611D01*
X127483516Y-126051000D01*
X127276484Y-126051000D01*
X127073436Y-126010611D01*
X126882167Y-125931385D01*
X126882166Y-125931385D01*
X126882165Y-125931384D01*
X126710027Y-125816365D01*
X126563635Y-125669973D01*
X126448616Y-125497835D01*
X126444080Y-125486884D01*
X126369389Y-125306564D01*
X126329000Y-125103516D01*
X126329000Y-124896484D01*
X126369389Y-124693436D01*
X126448615Y-124502167D01*
X126563635Y-124330027D01*
X126710027Y-124183635D01*
X126851076Y-124089389D01*
X126882165Y-124068616D01*
X126882167Y-124068615D01*
X127073436Y-123989389D01*
X127276484Y-123949000D01*
X127483516Y-123949000D01*
X127686564Y-123989389D01*
G37*
G36*
X136051000Y-126051000D02*
G01*
X133949000Y-126051000D01*
X133949000Y-123949000D01*
X136051000Y-123949000D01*
X136051000Y-126051000D01*
G37*
G36*
X62806564Y-123949389D02*
G01*
X62997833Y-124028615D01*
X62997835Y-124028616D01*
X63169973Y-124143635D01*
X63316365Y-124290027D01*
X63431385Y-124462167D01*
X63510611Y-124653436D01*
X63551000Y-124856484D01*
X63551000Y-125063516D01*
X63510611Y-125266564D01*
X63494042Y-125306565D01*
X63431384Y-125457835D01*
X63316365Y-125629973D01*
X63169973Y-125776365D01*
X62997835Y-125891384D01*
X62997834Y-125891385D01*
X62997833Y-125891385D01*
X62806564Y-125970611D01*
X62603516Y-126011000D01*
X62396484Y-126011000D01*
X62193436Y-125970611D01*
X62002167Y-125891385D01*
X62002166Y-125891385D01*
X62002165Y-125891384D01*
X61830027Y-125776365D01*
X61683635Y-125629973D01*
X61568616Y-125457835D01*
X61505958Y-125306565D01*
X61489389Y-125266564D01*
X61449000Y-125063516D01*
X61449000Y-124856484D01*
X61489389Y-124653436D01*
X61568615Y-124462167D01*
X61683635Y-124290027D01*
X61830027Y-124143635D01*
X62002165Y-124028616D01*
X62002167Y-124028615D01*
X62193436Y-123949389D01*
X62396484Y-123909000D01*
X62603516Y-123909000D01*
X62806564Y-123949389D01*
G37*
G36*
X142866564Y-121549389D02*
G01*
X143057833Y-121628615D01*
X143057835Y-121628616D01*
X143229973Y-121743635D01*
X143376365Y-121890027D01*
X143462044Y-122018254D01*
X143491385Y-122062167D01*
X143570611Y-122253436D01*
X143611000Y-122456484D01*
X143611000Y-122663516D01*
X143570611Y-122866564D01*
X143509907Y-123013116D01*
X143491384Y-123057835D01*
X143376365Y-123229973D01*
X143229973Y-123376365D01*
X143057835Y-123491384D01*
X143057834Y-123491385D01*
X143057833Y-123491385D01*
X142866564Y-123570611D01*
X142663516Y-123611000D01*
X142456484Y-123611000D01*
X142253436Y-123570611D01*
X142062167Y-123491385D01*
X142062166Y-123491385D01*
X142062165Y-123491384D01*
X141890027Y-123376365D01*
X141743635Y-123229973D01*
X141628616Y-123057835D01*
X141610093Y-123013116D01*
X141549389Y-122866564D01*
X141509000Y-122663516D01*
X141509000Y-122456484D01*
X141549389Y-122253436D01*
X141628615Y-122062167D01*
X141657957Y-122018254D01*
X141743635Y-121890027D01*
X141890027Y-121743635D01*
X142062165Y-121628616D01*
X142062167Y-121628615D01*
X142253436Y-121549389D01*
X142456484Y-121509000D01*
X142663516Y-121509000D01*
X142866564Y-121549389D01*
G37*
G36*
X145406564Y-121549389D02*
G01*
X145597833Y-121628615D01*
X145597835Y-121628616D01*
X145769973Y-121743635D01*
X145916365Y-121890027D01*
X146002044Y-122018254D01*
X146031385Y-122062167D01*
X146110611Y-122253436D01*
X146151000Y-122456484D01*
X146151000Y-122663516D01*
X146110611Y-122866564D01*
X146049907Y-123013116D01*
X146031384Y-123057835D01*
X145916365Y-123229973D01*
X145769973Y-123376365D01*
X145597835Y-123491384D01*
X145597834Y-123491385D01*
X145597833Y-123491385D01*
X145406564Y-123570611D01*
X145203516Y-123611000D01*
X144996484Y-123611000D01*
X144793436Y-123570611D01*
X144602167Y-123491385D01*
X144602166Y-123491385D01*
X144602165Y-123491384D01*
X144430027Y-123376365D01*
X144283635Y-123229973D01*
X144168616Y-123057835D01*
X144150093Y-123013116D01*
X144089389Y-122866564D01*
X144049000Y-122663516D01*
X144049000Y-122456484D01*
X144089389Y-122253436D01*
X144168615Y-122062167D01*
X144197957Y-122018254D01*
X144283635Y-121890027D01*
X144430027Y-121743635D01*
X144602165Y-121628616D01*
X144602167Y-121628615D01*
X144793436Y-121549389D01*
X144996484Y-121509000D01*
X145203516Y-121509000D01*
X145406564Y-121549389D01*
G37*
G36*
X93098254Y-119447818D02*
G01*
X93277748Y-119522167D01*
X93471513Y-119602427D01*
X93807436Y-119826884D01*
X94093116Y-120112564D01*
X94236107Y-120326564D01*
X94317574Y-120448489D01*
X94472182Y-120821746D01*
X94551000Y-121217993D01*
X94551000Y-121622007D01*
X94472182Y-122018254D01*
X94374767Y-122253435D01*
X94317573Y-122391513D01*
X94093116Y-122727436D01*
X93807436Y-123013116D01*
X93471513Y-123237573D01*
X93471512Y-123237574D01*
X93471511Y-123237574D01*
X93098254Y-123392182D01*
X92702007Y-123471000D01*
X92297993Y-123471000D01*
X91901746Y-123392182D01*
X91528489Y-123237574D01*
X91528488Y-123237574D01*
X91528487Y-123237573D01*
X91192564Y-123013116D01*
X90906884Y-122727436D01*
X90682427Y-122391513D01*
X90625233Y-122253435D01*
X90527818Y-122018254D01*
X90449000Y-121622007D01*
X90449000Y-121217993D01*
X90527818Y-120821746D01*
X90682426Y-120448489D01*
X90763894Y-120326564D01*
X90906884Y-120112564D01*
X91192564Y-119826884D01*
X91528487Y-119602427D01*
X91722252Y-119522167D01*
X91901746Y-119447818D01*
X92297993Y-119369000D01*
X92702007Y-119369000D01*
X93098254Y-119447818D01*
G37*
G36*
X75598254Y-119447818D02*
G01*
X75777748Y-119522167D01*
X75971513Y-119602427D01*
X76307436Y-119826884D01*
X76593116Y-120112564D01*
X76736107Y-120326564D01*
X76817574Y-120448489D01*
X76972182Y-120821746D01*
X77051000Y-121217993D01*
X77051000Y-121622007D01*
X76972182Y-122018254D01*
X76874767Y-122253435D01*
X76817573Y-122391513D01*
X76593116Y-122727436D01*
X76307436Y-123013116D01*
X75971513Y-123237573D01*
X75971512Y-123237574D01*
X75971511Y-123237574D01*
X75598254Y-123392182D01*
X75202007Y-123471000D01*
X74797993Y-123471000D01*
X74401746Y-123392182D01*
X74028489Y-123237574D01*
X74028488Y-123237574D01*
X74028487Y-123237573D01*
X73692564Y-123013116D01*
X73406884Y-122727436D01*
X73182427Y-122391513D01*
X73125233Y-122253435D01*
X73027818Y-122018254D01*
X72949000Y-121622007D01*
X72949000Y-121217993D01*
X73027818Y-120821746D01*
X73182426Y-120448489D01*
X73263894Y-120326564D01*
X73406884Y-120112564D01*
X73692564Y-119826884D01*
X74028487Y-119602427D01*
X74222252Y-119522167D01*
X74401746Y-119447818D01*
X74797993Y-119369000D01*
X75202007Y-119369000D01*
X75598254Y-119447818D01*
G37*
G36*
X112051000Y-123051000D02*
G01*
X107949000Y-123051000D01*
X107949000Y-118949000D01*
X112051000Y-118949000D01*
X112051000Y-123051000D01*
G37*
G36*
X142866564Y-119009389D02*
G01*
X143057833Y-119088615D01*
X143057835Y-119088616D01*
X143229973Y-119203635D01*
X143376365Y-119350027D01*
X143441708Y-119447819D01*
X143491385Y-119522167D01*
X143570611Y-119713436D01*
X143611000Y-119916484D01*
X143611000Y-120123516D01*
X143570611Y-120326564D01*
X143520109Y-120448487D01*
X143491384Y-120517835D01*
X143376365Y-120689973D01*
X143229973Y-120836365D01*
X143057835Y-120951384D01*
X143057834Y-120951385D01*
X143057833Y-120951385D01*
X142866564Y-121030611D01*
X142663516Y-121071000D01*
X142456484Y-121071000D01*
X142253436Y-121030611D01*
X142062167Y-120951385D01*
X142062166Y-120951385D01*
X142062165Y-120951384D01*
X141890027Y-120836365D01*
X141743635Y-120689973D01*
X141628616Y-120517835D01*
X141599891Y-120448487D01*
X141549389Y-120326564D01*
X141509000Y-120123516D01*
X141509000Y-119916484D01*
X141549389Y-119713436D01*
X141628615Y-119522167D01*
X141678293Y-119447819D01*
X141743635Y-119350027D01*
X141890027Y-119203635D01*
X142062165Y-119088616D01*
X142062167Y-119088615D01*
X142253436Y-119009389D01*
X142456484Y-118969000D01*
X142663516Y-118969000D01*
X142866564Y-119009389D01*
G37*
G36*
X145406564Y-119009389D02*
G01*
X145597833Y-119088615D01*
X145597835Y-119088616D01*
X145769973Y-119203635D01*
X145916365Y-119350027D01*
X145981708Y-119447819D01*
X146031385Y-119522167D01*
X146110611Y-119713436D01*
X146151000Y-119916484D01*
X146151000Y-120123516D01*
X146110611Y-120326564D01*
X146060109Y-120448487D01*
X146031384Y-120517835D01*
X145916365Y-120689973D01*
X145769973Y-120836365D01*
X145597835Y-120951384D01*
X145597834Y-120951385D01*
X145597833Y-120951385D01*
X145406564Y-121030611D01*
X145203516Y-121071000D01*
X144996484Y-121071000D01*
X144793436Y-121030611D01*
X144602167Y-120951385D01*
X144602166Y-120951385D01*
X144602165Y-120951384D01*
X144430027Y-120836365D01*
X144283635Y-120689973D01*
X144168616Y-120517835D01*
X144139891Y-120448487D01*
X144089389Y-120326564D01*
X144049000Y-120123516D01*
X144049000Y-119916484D01*
X144089389Y-119713436D01*
X144168615Y-119522167D01*
X144218293Y-119447819D01*
X144283635Y-119350027D01*
X144430027Y-119203635D01*
X144602165Y-119088616D01*
X144602167Y-119088615D01*
X144793436Y-119009389D01*
X144996484Y-118969000D01*
X145203516Y-118969000D01*
X145406564Y-119009389D01*
G37*
G36*
X142866564Y-116469389D02*
G01*
X143057833Y-116548615D01*
X143057835Y-116548616D01*
X143229973Y-116663635D01*
X143376365Y-116810027D01*
X143491385Y-116982167D01*
X143570611Y-117173436D01*
X143611000Y-117376484D01*
X143611000Y-117583516D01*
X143570611Y-117786564D01*
X143491385Y-117977833D01*
X143491384Y-117977835D01*
X143376365Y-118149973D01*
X143229973Y-118296365D01*
X143057835Y-118411384D01*
X143057834Y-118411385D01*
X143057833Y-118411385D01*
X142866564Y-118490611D01*
X142663516Y-118531000D01*
X142456484Y-118531000D01*
X142253436Y-118490611D01*
X142062167Y-118411385D01*
X142062166Y-118411385D01*
X142062165Y-118411384D01*
X141890027Y-118296365D01*
X141743635Y-118149973D01*
X141628616Y-117977835D01*
X141628615Y-117977833D01*
X141549389Y-117786564D01*
X141509000Y-117583516D01*
X141509000Y-117376484D01*
X141549389Y-117173436D01*
X141628615Y-116982167D01*
X141743635Y-116810027D01*
X141890027Y-116663635D01*
X142062165Y-116548616D01*
X142062167Y-116548615D01*
X142253436Y-116469389D01*
X142456484Y-116429000D01*
X142663516Y-116429000D01*
X142866564Y-116469389D01*
G37*
G36*
X145406564Y-116469389D02*
G01*
X145597833Y-116548615D01*
X145597835Y-116548616D01*
X145769973Y-116663635D01*
X145916365Y-116810027D01*
X146031385Y-116982167D01*
X146110611Y-117173436D01*
X146151000Y-117376484D01*
X146151000Y-117583516D01*
X146110611Y-117786564D01*
X146031385Y-117977833D01*
X146031384Y-117977835D01*
X145916365Y-118149973D01*
X145769973Y-118296365D01*
X145597835Y-118411384D01*
X145597834Y-118411385D01*
X145597833Y-118411385D01*
X145406564Y-118490611D01*
X145203516Y-118531000D01*
X144996484Y-118531000D01*
X144793436Y-118490611D01*
X144602167Y-118411385D01*
X144602166Y-118411385D01*
X144602165Y-118411384D01*
X144430027Y-118296365D01*
X144283635Y-118149973D01*
X144168616Y-117977835D01*
X144168615Y-117977833D01*
X144089389Y-117786564D01*
X144049000Y-117583516D01*
X144049000Y-117376484D01*
X144089389Y-117173436D01*
X144168615Y-116982167D01*
X144283635Y-116810027D01*
X144430027Y-116663635D01*
X144602165Y-116548616D01*
X144602167Y-116548615D01*
X144793436Y-116469389D01*
X144996484Y-116429000D01*
X145203516Y-116429000D01*
X145406564Y-116469389D01*
G37*
G36*
X135426564Y-113989389D02*
G01*
X135617833Y-114068615D01*
X135617835Y-114068616D01*
X135789973Y-114183635D01*
X135936365Y-114330027D01*
X136011295Y-114442167D01*
X136051385Y-114502167D01*
X136130611Y-114693436D01*
X136171000Y-114896484D01*
X136171000Y-115103516D01*
X136130611Y-115306564D01*
X136076237Y-115437835D01*
X136051384Y-115497835D01*
X135936365Y-115669973D01*
X135789973Y-115816365D01*
X135617835Y-115931384D01*
X135617834Y-115931385D01*
X135617833Y-115931385D01*
X135426564Y-116010611D01*
X135223516Y-116051000D01*
X135016484Y-116051000D01*
X134813436Y-116010611D01*
X134622167Y-115931385D01*
X134622166Y-115931385D01*
X134622165Y-115931384D01*
X134450027Y-115816365D01*
X134303635Y-115669973D01*
X134188616Y-115497835D01*
X134163763Y-115437835D01*
X134109389Y-115306564D01*
X134069000Y-115103516D01*
X134069000Y-114896484D01*
X134109389Y-114693436D01*
X134188615Y-114502167D01*
X134228706Y-114442167D01*
X134303635Y-114330027D01*
X134450027Y-114183635D01*
X134622165Y-114068616D01*
X134622167Y-114068615D01*
X134813436Y-113989389D01*
X135016484Y-113949000D01*
X135223516Y-113949000D01*
X135426564Y-113989389D01*
G37*
G36*
X128551000Y-116051000D02*
G01*
X126449000Y-116051000D01*
X126449000Y-113949000D01*
X128551000Y-113949000D01*
X128551000Y-116051000D01*
G37*
G36*
X142866564Y-113929389D02*
G01*
X143057833Y-114008615D01*
X143057835Y-114008616D01*
X143147630Y-114068615D01*
X143229973Y-114123635D01*
X143376365Y-114270027D01*
X143491385Y-114442167D01*
X143570611Y-114633436D01*
X143611000Y-114836484D01*
X143611000Y-115043516D01*
X143570611Y-115246564D01*
X143491385Y-115437833D01*
X143491384Y-115437835D01*
X143376365Y-115609973D01*
X143229973Y-115756365D01*
X143057835Y-115871384D01*
X143057834Y-115871385D01*
X143057833Y-115871385D01*
X142866564Y-115950611D01*
X142663516Y-115991000D01*
X142456484Y-115991000D01*
X142253436Y-115950611D01*
X142062167Y-115871385D01*
X142062166Y-115871385D01*
X142062165Y-115871384D01*
X141890027Y-115756365D01*
X141743635Y-115609973D01*
X141628616Y-115437835D01*
X141628615Y-115437833D01*
X141549389Y-115246564D01*
X141509000Y-115043516D01*
X141509000Y-114836484D01*
X141549389Y-114633436D01*
X141628615Y-114442167D01*
X141743635Y-114270027D01*
X141890027Y-114123635D01*
X141972370Y-114068615D01*
X142062165Y-114008616D01*
X142062167Y-114008615D01*
X142253436Y-113929389D01*
X142456484Y-113889000D01*
X142663516Y-113889000D01*
X142866564Y-113929389D01*
G37*
G36*
X145406564Y-113929389D02*
G01*
X145597833Y-114008615D01*
X145597835Y-114008616D01*
X145687630Y-114068615D01*
X145769973Y-114123635D01*
X145916365Y-114270027D01*
X146031385Y-114442167D01*
X146110611Y-114633436D01*
X146151000Y-114836484D01*
X146151000Y-115043516D01*
X146110611Y-115246564D01*
X146031385Y-115437833D01*
X146031384Y-115437835D01*
X145916365Y-115609973D01*
X145769973Y-115756365D01*
X145597835Y-115871384D01*
X145597834Y-115871385D01*
X145597833Y-115871385D01*
X145406564Y-115950611D01*
X145203516Y-115991000D01*
X144996484Y-115991000D01*
X144793436Y-115950611D01*
X144602167Y-115871385D01*
X144602166Y-115871385D01*
X144602165Y-115871384D01*
X144430027Y-115756365D01*
X144283635Y-115609973D01*
X144168616Y-115437835D01*
X144168615Y-115437833D01*
X144089389Y-115246564D01*
X144049000Y-115043516D01*
X144049000Y-114836484D01*
X144089389Y-114633436D01*
X144168615Y-114442167D01*
X144283635Y-114270027D01*
X144430027Y-114123635D01*
X144512370Y-114068615D01*
X144602165Y-114008616D01*
X144602167Y-114008615D01*
X144793436Y-113929389D01*
X144996484Y-113889000D01*
X145203516Y-113889000D01*
X145406564Y-113929389D01*
G37*
G36*
X60598254Y-109027818D02*
G01*
X60971511Y-109182426D01*
X60971513Y-109182427D01*
X61307436Y-109406884D01*
X61593116Y-109692564D01*
X61805629Y-110010611D01*
X61817574Y-110028489D01*
X61972182Y-110401746D01*
X62051000Y-110797993D01*
X62051000Y-111202007D01*
X61972182Y-111598254D01*
X61817574Y-111971511D01*
X61817573Y-111971513D01*
X61593116Y-112307436D01*
X61307436Y-112593116D01*
X60971513Y-112817573D01*
X60971512Y-112817574D01*
X60971511Y-112817574D01*
X60598254Y-112972182D01*
X60202007Y-113051000D01*
X59797993Y-113051000D01*
X59401746Y-112972182D01*
X59028489Y-112817574D01*
X59028488Y-112817574D01*
X59028487Y-112817573D01*
X58692564Y-112593116D01*
X58406884Y-112307436D01*
X58182427Y-111971513D01*
X58182426Y-111971511D01*
X58027818Y-111598254D01*
X57949000Y-111202007D01*
X57949000Y-110797993D01*
X58027818Y-110401746D01*
X58182426Y-110028489D01*
X58194372Y-110010611D01*
X58406884Y-109692564D01*
X58692564Y-109406884D01*
X59028487Y-109182427D01*
X59028489Y-109182426D01*
X59401746Y-109027818D01*
X59797993Y-108949000D01*
X60202007Y-108949000D01*
X60598254Y-109027818D01*
G37*
G36*
X134806564Y-107989389D02*
G01*
X134997833Y-108068615D01*
X134997835Y-108068616D01*
X135169973Y-108183635D01*
X135316365Y-108330027D01*
X135384090Y-108431384D01*
X135431385Y-108502167D01*
X135510611Y-108693436D01*
X135551000Y-108896484D01*
X135551000Y-109103516D01*
X135510611Y-109306564D01*
X135469057Y-109406884D01*
X135431384Y-109497835D01*
X135316365Y-109669973D01*
X135169973Y-109816365D01*
X134997835Y-109931384D01*
X134997834Y-109931385D01*
X134997833Y-109931385D01*
X134806564Y-110010611D01*
X134603516Y-110051000D01*
X134396484Y-110051000D01*
X134193436Y-110010611D01*
X134002167Y-109931385D01*
X134002166Y-109931385D01*
X134002165Y-109931384D01*
X133830027Y-109816365D01*
X133683635Y-109669973D01*
X133568616Y-109497835D01*
X133530943Y-109406884D01*
X133489389Y-109306564D01*
X133449000Y-109103516D01*
X133449000Y-108896484D01*
X133489389Y-108693436D01*
X133568615Y-108502167D01*
X133615911Y-108431384D01*
X133683635Y-108330027D01*
X133830027Y-108183635D01*
X134002165Y-108068616D01*
X134002167Y-108068615D01*
X134193436Y-107989389D01*
X134396484Y-107949000D01*
X134603516Y-107949000D01*
X134806564Y-107989389D01*
G37*
G36*
X132306564Y-107989389D02*
G01*
X132497833Y-108068615D01*
X132497835Y-108068616D01*
X132669973Y-108183635D01*
X132816365Y-108330027D01*
X132884090Y-108431384D01*
X132931385Y-108502167D01*
X133010611Y-108693436D01*
X133051000Y-108896484D01*
X133051000Y-109103516D01*
X133010611Y-109306564D01*
X132969057Y-109406884D01*
X132931384Y-109497835D01*
X132816365Y-109669973D01*
X132669973Y-109816365D01*
X132497835Y-109931384D01*
X132497834Y-109931385D01*
X132497833Y-109931385D01*
X132306564Y-110010611D01*
X132103516Y-110051000D01*
X131896484Y-110051000D01*
X131693436Y-110010611D01*
X131502167Y-109931385D01*
X131502166Y-109931385D01*
X131502165Y-109931384D01*
X131330027Y-109816365D01*
X131183635Y-109669973D01*
X131068616Y-109497835D01*
X131030943Y-109406884D01*
X130989389Y-109306564D01*
X130949000Y-109103516D01*
X130949000Y-108896484D01*
X130989389Y-108693436D01*
X131068615Y-108502167D01*
X131115911Y-108431384D01*
X131183635Y-108330027D01*
X131330027Y-108183635D01*
X131502165Y-108068616D01*
X131502167Y-108068615D01*
X131693436Y-107989389D01*
X131896484Y-107949000D01*
X132103516Y-107949000D01*
X132306564Y-107989389D01*
G37*
G36*
X95306564Y-106489389D02*
G01*
X95497833Y-106568615D01*
X95497835Y-106568616D01*
X95669973Y-106683635D01*
X95816365Y-106830027D01*
X95910902Y-106971511D01*
X95931385Y-107002167D01*
X96010611Y-107193436D01*
X96051000Y-107396484D01*
X96051000Y-107603516D01*
X96010611Y-107806564D01*
X95934882Y-107989390D01*
X95931384Y-107997835D01*
X95816365Y-108169973D01*
X95669973Y-108316365D01*
X95497835Y-108431384D01*
X95497834Y-108431385D01*
X95497833Y-108431385D01*
X95306564Y-108510611D01*
X95103516Y-108551000D01*
X94896484Y-108551000D01*
X94693436Y-108510611D01*
X94502167Y-108431385D01*
X94502166Y-108431385D01*
X94502165Y-108431384D01*
X94330027Y-108316365D01*
X94183635Y-108169973D01*
X94068616Y-107997835D01*
X94065118Y-107989390D01*
X93989389Y-107806564D01*
X93949000Y-107603516D01*
X93949000Y-107396484D01*
X93989389Y-107193436D01*
X94068615Y-107002167D01*
X94089099Y-106971511D01*
X94183635Y-106830027D01*
X94330027Y-106683635D01*
X94502165Y-106568616D01*
X94502167Y-106568615D01*
X94693436Y-106489389D01*
X94896484Y-106449000D01*
X95103516Y-106449000D01*
X95306564Y-106489389D01*
G37*
G36*
X85146564Y-106489389D02*
G01*
X85337833Y-106568615D01*
X85337835Y-106568616D01*
X85509973Y-106683635D01*
X85656365Y-106830027D01*
X85750902Y-106971511D01*
X85771385Y-107002167D01*
X85850611Y-107193436D01*
X85891000Y-107396484D01*
X85891000Y-107603516D01*
X85850611Y-107806564D01*
X85774882Y-107989390D01*
X85771384Y-107997835D01*
X85656365Y-108169973D01*
X85509973Y-108316365D01*
X85337835Y-108431384D01*
X85337834Y-108431385D01*
X85337833Y-108431385D01*
X85146564Y-108510611D01*
X84943516Y-108551000D01*
X84736484Y-108551000D01*
X84533436Y-108510611D01*
X84342167Y-108431385D01*
X84342166Y-108431385D01*
X84342165Y-108431384D01*
X84170027Y-108316365D01*
X84023635Y-108169973D01*
X83908616Y-107997835D01*
X83905118Y-107989390D01*
X83829389Y-107806564D01*
X83789000Y-107603516D01*
X83789000Y-107396484D01*
X83829389Y-107193436D01*
X83908615Y-107002167D01*
X83929099Y-106971511D01*
X84023635Y-106830027D01*
X84170027Y-106683635D01*
X84342165Y-106568616D01*
X84342167Y-106568615D01*
X84533436Y-106489389D01*
X84736484Y-106449000D01*
X84943516Y-106449000D01*
X85146564Y-106489389D01*
G37*
G36*
X100306564Y-106489389D02*
G01*
X100497833Y-106568615D01*
X100497835Y-106568616D01*
X100669973Y-106683635D01*
X100816365Y-106830027D01*
X100910902Y-106971511D01*
X100931385Y-107002167D01*
X101010611Y-107193436D01*
X101051000Y-107396484D01*
X101051000Y-107603516D01*
X101010611Y-107806564D01*
X100934882Y-107989390D01*
X100931384Y-107997835D01*
X100816365Y-108169973D01*
X100669973Y-108316365D01*
X100497835Y-108431384D01*
X100497834Y-108431385D01*
X100497833Y-108431385D01*
X100306564Y-108510611D01*
X100103516Y-108551000D01*
X99896484Y-108551000D01*
X99693436Y-108510611D01*
X99502167Y-108431385D01*
X99502166Y-108431385D01*
X99502165Y-108431384D01*
X99330027Y-108316365D01*
X99183635Y-108169973D01*
X99068616Y-107997835D01*
X99065118Y-107989390D01*
X98989389Y-107806564D01*
X98949000Y-107603516D01*
X98949000Y-107396484D01*
X98989389Y-107193436D01*
X99068615Y-107002167D01*
X99089099Y-106971511D01*
X99183635Y-106830027D01*
X99330027Y-106683635D01*
X99502165Y-106568616D01*
X99502167Y-106568615D01*
X99693436Y-106489389D01*
X99896484Y-106449000D01*
X100103516Y-106449000D01*
X100306564Y-106489389D01*
G37*
G36*
X110466564Y-106489389D02*
G01*
X110657833Y-106568615D01*
X110657835Y-106568616D01*
X110829973Y-106683635D01*
X110976365Y-106830027D01*
X111070902Y-106971511D01*
X111091385Y-107002167D01*
X111170611Y-107193436D01*
X111211000Y-107396484D01*
X111211000Y-107603516D01*
X111170611Y-107806564D01*
X111094882Y-107989390D01*
X111091384Y-107997835D01*
X110976365Y-108169973D01*
X110829973Y-108316365D01*
X110657835Y-108431384D01*
X110657834Y-108431385D01*
X110657833Y-108431385D01*
X110466564Y-108510611D01*
X110263516Y-108551000D01*
X110056484Y-108551000D01*
X109853436Y-108510611D01*
X109662167Y-108431385D01*
X109662166Y-108431385D01*
X109662165Y-108431384D01*
X109490027Y-108316365D01*
X109343635Y-108169973D01*
X109228616Y-107997835D01*
X109225118Y-107989390D01*
X109149389Y-107806564D01*
X109109000Y-107603516D01*
X109109000Y-107396484D01*
X109149389Y-107193436D01*
X109228615Y-107002167D01*
X109249099Y-106971511D01*
X109343635Y-106830027D01*
X109490027Y-106683635D01*
X109662165Y-106568616D01*
X109662167Y-106568615D01*
X109853436Y-106489389D01*
X110056484Y-106449000D01*
X110263516Y-106449000D01*
X110466564Y-106489389D01*
G37*
G36*
X60598254Y-104027818D02*
G01*
X60971511Y-104182426D01*
X60971513Y-104182427D01*
X61307436Y-104406884D01*
X61593116Y-104692564D01*
X61817574Y-105028489D01*
X61972182Y-105401746D01*
X62051000Y-105797993D01*
X62051000Y-106202007D01*
X61972182Y-106598254D01*
X61817574Y-106971511D01*
X61817573Y-106971513D01*
X61593116Y-107307436D01*
X61307436Y-107593116D01*
X60971513Y-107817573D01*
X60971512Y-107817574D01*
X60971511Y-107817574D01*
X60598254Y-107972182D01*
X60202007Y-108051000D01*
X59797993Y-108051000D01*
X59401746Y-107972182D01*
X59028489Y-107817574D01*
X59028488Y-107817574D01*
X59028487Y-107817573D01*
X58692564Y-107593116D01*
X58406884Y-107307436D01*
X58182427Y-106971513D01*
X58182426Y-106971511D01*
X58027818Y-106598254D01*
X57949000Y-106202007D01*
X57949000Y-105797993D01*
X58027818Y-105401746D01*
X58182426Y-105028489D01*
X58406884Y-104692564D01*
X58692564Y-104406884D01*
X59028487Y-104182427D01*
X59028489Y-104182426D01*
X59401746Y-104027818D01*
X59797993Y-103949000D01*
X60202007Y-103949000D01*
X60598254Y-104027818D01*
G37*
G36*
X80306564Y-101649389D02*
G01*
X80497833Y-101728615D01*
X80497835Y-101728616D01*
X80649607Y-101830027D01*
X80669973Y-101843635D01*
X80816365Y-101990027D01*
X80931385Y-102162167D01*
X81010611Y-102353436D01*
X81051000Y-102556484D01*
X81051000Y-102763516D01*
X81010611Y-102966564D01*
X80931385Y-103157833D01*
X80931384Y-103157835D01*
X80816365Y-103329973D01*
X80669973Y-103476365D01*
X80497835Y-103591384D01*
X80497834Y-103591385D01*
X80497833Y-103591385D01*
X80306564Y-103670611D01*
X80103516Y-103711000D01*
X79896484Y-103711000D01*
X79693436Y-103670611D01*
X79502167Y-103591385D01*
X79502166Y-103591385D01*
X79502165Y-103591384D01*
X79330027Y-103476365D01*
X79183635Y-103329973D01*
X79068616Y-103157835D01*
X79068615Y-103157833D01*
X78989389Y-102966564D01*
X78949000Y-102763516D01*
X78949000Y-102556484D01*
X78989389Y-102353436D01*
X79068615Y-102162167D01*
X79183635Y-101990027D01*
X79330027Y-101843635D01*
X79350393Y-101830027D01*
X79502165Y-101728616D01*
X79502167Y-101728615D01*
X79693436Y-101649389D01*
X79896484Y-101609000D01*
X80103516Y-101609000D01*
X80306564Y-101649389D01*
G37*
G36*
X100306564Y-101649389D02*
G01*
X100497833Y-101728615D01*
X100497835Y-101728616D01*
X100649607Y-101830027D01*
X100669973Y-101843635D01*
X100816365Y-101990027D01*
X100931385Y-102162167D01*
X101010611Y-102353436D01*
X101051000Y-102556484D01*
X101051000Y-102763516D01*
X101010611Y-102966564D01*
X100931385Y-103157833D01*
X100931384Y-103157835D01*
X100816365Y-103329973D01*
X100669973Y-103476365D01*
X100497835Y-103591384D01*
X100497834Y-103591385D01*
X100497833Y-103591385D01*
X100306564Y-103670611D01*
X100103516Y-103711000D01*
X99896484Y-103711000D01*
X99693436Y-103670611D01*
X99502167Y-103591385D01*
X99502166Y-103591385D01*
X99502165Y-103591384D01*
X99330027Y-103476365D01*
X99183635Y-103329973D01*
X99068616Y-103157835D01*
X99068615Y-103157833D01*
X98989389Y-102966564D01*
X98949000Y-102763516D01*
X98949000Y-102556484D01*
X98989389Y-102353436D01*
X99068615Y-102162167D01*
X99183635Y-101990027D01*
X99330027Y-101843635D01*
X99350393Y-101830027D01*
X99502165Y-101728616D01*
X99502167Y-101728615D01*
X99693436Y-101649389D01*
X99896484Y-101609000D01*
X100103516Y-101609000D01*
X100306564Y-101649389D01*
G37*
G36*
X110306564Y-101649389D02*
G01*
X110497833Y-101728615D01*
X110497835Y-101728616D01*
X110649607Y-101830027D01*
X110669973Y-101843635D01*
X110816365Y-101990027D01*
X110931385Y-102162167D01*
X111010611Y-102353436D01*
X111051000Y-102556484D01*
X111051000Y-102763516D01*
X111010611Y-102966564D01*
X110931385Y-103157833D01*
X110931384Y-103157835D01*
X110816365Y-103329973D01*
X110669973Y-103476365D01*
X110497835Y-103591384D01*
X110497834Y-103591385D01*
X110497833Y-103591385D01*
X110306564Y-103670611D01*
X110103516Y-103711000D01*
X109896484Y-103711000D01*
X109693436Y-103670611D01*
X109502167Y-103591385D01*
X109502166Y-103591385D01*
X109502165Y-103591384D01*
X109330027Y-103476365D01*
X109183635Y-103329973D01*
X109068616Y-103157835D01*
X109068615Y-103157833D01*
X108989389Y-102966564D01*
X108949000Y-102763516D01*
X108949000Y-102556484D01*
X108989389Y-102353436D01*
X109068615Y-102162167D01*
X109183635Y-101990027D01*
X109330027Y-101843635D01*
X109350393Y-101830027D01*
X109502165Y-101728616D01*
X109502167Y-101728615D01*
X109693436Y-101649389D01*
X109896484Y-101609000D01*
X110103516Y-101609000D01*
X110306564Y-101649389D01*
G37*
G36*
X127806564Y-101649389D02*
G01*
X127997833Y-101728615D01*
X127997835Y-101728616D01*
X128149607Y-101830027D01*
X128169973Y-101843635D01*
X128316365Y-101990027D01*
X128431385Y-102162167D01*
X128510611Y-102353436D01*
X128551000Y-102556484D01*
X128551000Y-102763516D01*
X128510611Y-102966564D01*
X128431385Y-103157833D01*
X128431384Y-103157835D01*
X128316365Y-103329973D01*
X128169973Y-103476365D01*
X127997835Y-103591384D01*
X127997834Y-103591385D01*
X127997833Y-103591385D01*
X127806564Y-103670611D01*
X127603516Y-103711000D01*
X127396484Y-103711000D01*
X127193436Y-103670611D01*
X127002167Y-103591385D01*
X127002166Y-103591385D01*
X127002165Y-103591384D01*
X126830027Y-103476365D01*
X126683635Y-103329973D01*
X126568616Y-103157835D01*
X126568615Y-103157833D01*
X126489389Y-102966564D01*
X126449000Y-102763516D01*
X126449000Y-102556484D01*
X126489389Y-102353436D01*
X126568615Y-102162167D01*
X126683635Y-101990027D01*
X126830027Y-101843635D01*
X126850393Y-101830027D01*
X127002165Y-101728616D01*
X127002167Y-101728615D01*
X127193436Y-101649389D01*
X127396484Y-101609000D01*
X127603516Y-101609000D01*
X127806564Y-101649389D01*
G37*
G36*
X137806564Y-101649389D02*
G01*
X137997833Y-101728615D01*
X137997835Y-101728616D01*
X138149607Y-101830027D01*
X138169973Y-101843635D01*
X138316365Y-101990027D01*
X138431385Y-102162167D01*
X138510611Y-102353436D01*
X138551000Y-102556484D01*
X138551000Y-102763516D01*
X138510611Y-102966564D01*
X138431385Y-103157833D01*
X138431384Y-103157835D01*
X138316365Y-103329973D01*
X138169973Y-103476365D01*
X137997835Y-103591384D01*
X137997834Y-103591385D01*
X137997833Y-103591385D01*
X137806564Y-103670611D01*
X137603516Y-103711000D01*
X137396484Y-103711000D01*
X137193436Y-103670611D01*
X137002167Y-103591385D01*
X137002166Y-103591385D01*
X137002165Y-103591384D01*
X136830027Y-103476365D01*
X136683635Y-103329973D01*
X136568616Y-103157835D01*
X136568615Y-103157833D01*
X136489389Y-102966564D01*
X136449000Y-102763516D01*
X136449000Y-102556484D01*
X136489389Y-102353436D01*
X136568615Y-102162167D01*
X136683635Y-101990027D01*
X136830027Y-101843635D01*
X136850393Y-101830027D01*
X137002165Y-101728616D01*
X137002167Y-101728615D01*
X137193436Y-101649389D01*
X137396484Y-101609000D01*
X137603516Y-101609000D01*
X137806564Y-101649389D01*
G37*
G36*
X90306564Y-101509389D02*
G01*
X90497833Y-101588615D01*
X90497835Y-101588616D01*
X90669973Y-101703635D01*
X90816365Y-101850027D01*
X90918022Y-102002167D01*
X90931385Y-102022167D01*
X91010611Y-102213436D01*
X91051000Y-102416484D01*
X91051000Y-102623516D01*
X91010611Y-102826564D01*
X90952621Y-102966564D01*
X90931384Y-103017835D01*
X90816365Y-103189973D01*
X90669973Y-103336365D01*
X90497835Y-103451384D01*
X90497834Y-103451385D01*
X90497833Y-103451385D01*
X90306564Y-103530611D01*
X90103516Y-103571000D01*
X89896484Y-103571000D01*
X89693436Y-103530611D01*
X89502167Y-103451385D01*
X89502166Y-103451385D01*
X89502165Y-103451384D01*
X89330027Y-103336365D01*
X89183635Y-103189973D01*
X89068616Y-103017835D01*
X89047379Y-102966564D01*
X88989389Y-102826564D01*
X88949000Y-102623516D01*
X88949000Y-102416484D01*
X88989389Y-102213436D01*
X89068615Y-102022167D01*
X89081979Y-102002167D01*
X89183635Y-101850027D01*
X89330027Y-101703635D01*
X89502165Y-101588616D01*
X89502167Y-101588615D01*
X89693436Y-101509389D01*
X89896484Y-101469000D01*
X90103516Y-101469000D01*
X90306564Y-101509389D01*
G37*
G36*
X96051000Y-103551000D02*
G01*
X93949000Y-103551000D01*
X93949000Y-101449000D01*
X96051000Y-101449000D01*
X96051000Y-103551000D01*
G37*
G36*
X132806564Y-101489389D02*
G01*
X132997833Y-101568615D01*
X132997835Y-101568616D01*
X133169973Y-101683635D01*
X133316365Y-101830027D01*
X133423274Y-101990027D01*
X133431385Y-102002167D01*
X133510611Y-102193436D01*
X133551000Y-102396484D01*
X133551000Y-102603516D01*
X133510611Y-102806564D01*
X133431385Y-102997833D01*
X133431384Y-102997835D01*
X133316365Y-103169973D01*
X133169973Y-103316365D01*
X132997835Y-103431384D01*
X132997834Y-103431385D01*
X132997833Y-103431385D01*
X132806564Y-103510611D01*
X132603516Y-103551000D01*
X132396484Y-103551000D01*
X132193436Y-103510611D01*
X132002167Y-103431385D01*
X132002166Y-103431385D01*
X132002165Y-103431384D01*
X131830027Y-103316365D01*
X131683635Y-103169973D01*
X131568616Y-102997835D01*
X131568615Y-102997833D01*
X131489389Y-102806564D01*
X131449000Y-102603516D01*
X131449000Y-102396484D01*
X131489389Y-102193436D01*
X131568615Y-102002167D01*
X131576727Y-101990027D01*
X131683635Y-101830027D01*
X131830027Y-101683635D01*
X132002165Y-101568616D01*
X132002167Y-101568615D01*
X132193436Y-101489389D01*
X132396484Y-101449000D01*
X132603516Y-101449000D01*
X132806564Y-101489389D01*
G37*
G36*
X85306564Y-101489389D02*
G01*
X85497833Y-101568615D01*
X85497835Y-101568616D01*
X85669973Y-101683635D01*
X85816365Y-101830027D01*
X85923274Y-101990027D01*
X85931385Y-102002167D01*
X86010611Y-102193436D01*
X86051000Y-102396484D01*
X86051000Y-102603516D01*
X86010611Y-102806564D01*
X85931385Y-102997833D01*
X85931384Y-102997835D01*
X85816365Y-103169973D01*
X85669973Y-103316365D01*
X85497835Y-103431384D01*
X85497834Y-103431385D01*
X85497833Y-103431385D01*
X85306564Y-103510611D01*
X85103516Y-103551000D01*
X84896484Y-103551000D01*
X84693436Y-103510611D01*
X84502167Y-103431385D01*
X84502166Y-103431385D01*
X84502165Y-103431384D01*
X84330027Y-103316365D01*
X84183635Y-103169973D01*
X84068616Y-102997835D01*
X84068615Y-102997833D01*
X83989389Y-102806564D01*
X83949000Y-102603516D01*
X83949000Y-102396484D01*
X83989389Y-102193436D01*
X84068615Y-102002167D01*
X84076727Y-101990027D01*
X84183635Y-101830027D01*
X84330027Y-101683635D01*
X84502165Y-101568616D01*
X84502167Y-101568615D01*
X84693436Y-101489389D01*
X84896484Y-101449000D01*
X85103516Y-101449000D01*
X85306564Y-101489389D01*
G37*
G36*
X62051000Y-103051000D02*
G01*
X57949000Y-103051000D01*
X57949000Y-98949000D01*
X62051000Y-98949000D01*
X62051000Y-103051000D01*
G37*
G36*
X105306564Y-94789389D02*
G01*
X105497833Y-94868615D01*
X105497835Y-94868616D01*
X105669973Y-94983635D01*
X105816365Y-95130027D01*
X105854143Y-95186565D01*
X105931385Y-95302167D01*
X106010611Y-95493436D01*
X106051000Y-95696484D01*
X106051000Y-95903516D01*
X106010611Y-96106564D01*
X105931385Y-96297833D01*
X105931384Y-96297835D01*
X105816365Y-96469973D01*
X105669973Y-96616365D01*
X105497835Y-96731384D01*
X105497834Y-96731385D01*
X105497833Y-96731385D01*
X105306564Y-96810611D01*
X105103516Y-96851000D01*
X104896484Y-96851000D01*
X104693436Y-96810611D01*
X104502167Y-96731385D01*
X104502166Y-96731385D01*
X104502165Y-96731384D01*
X104330027Y-96616365D01*
X104183635Y-96469973D01*
X104068616Y-96297835D01*
X104068615Y-96297833D01*
X103989389Y-96106564D01*
X103949000Y-95903516D01*
X103949000Y-95696484D01*
X103989389Y-95493436D01*
X104068615Y-95302167D01*
X104145858Y-95186565D01*
X104183635Y-95130027D01*
X104330027Y-94983635D01*
X104502165Y-94868616D01*
X104502167Y-94868615D01*
X104693436Y-94789389D01*
X104896484Y-94749000D01*
X105103516Y-94749000D01*
X105306564Y-94789389D01*
G37*
G36*
X91051000Y-95951000D02*
G01*
X88949000Y-95951000D01*
X88949000Y-93849000D01*
X91051000Y-93849000D01*
X91051000Y-95951000D01*
G37*
G36*
X95306564Y-93869389D02*
G01*
X95497833Y-93948615D01*
X95497835Y-93948616D01*
X95669973Y-94063635D01*
X95816365Y-94210027D01*
X95931385Y-94382167D01*
X96010611Y-94573436D01*
X96051000Y-94776484D01*
X96051000Y-94983516D01*
X96010611Y-95186564D01*
X95931385Y-95377833D01*
X95931384Y-95377835D01*
X95816365Y-95549973D01*
X95669973Y-95696365D01*
X95497835Y-95811384D01*
X95497834Y-95811385D01*
X95497833Y-95811385D01*
X95306564Y-95890611D01*
X95103516Y-95931000D01*
X94896484Y-95931000D01*
X94693436Y-95890611D01*
X94502167Y-95811385D01*
X94502166Y-95811385D01*
X94502165Y-95811384D01*
X94330027Y-95696365D01*
X94183635Y-95549973D01*
X94068616Y-95377835D01*
X94068615Y-95377833D01*
X93989389Y-95186564D01*
X93949000Y-94983516D01*
X93949000Y-94776484D01*
X93989389Y-94573436D01*
X94068615Y-94382167D01*
X94183635Y-94210027D01*
X94330027Y-94063635D01*
X94502165Y-93948616D01*
X94502167Y-93948615D01*
X94693436Y-93869389D01*
X94896484Y-93829000D01*
X95103516Y-93829000D01*
X95306564Y-93869389D01*
G37*
G36*
X100306564Y-91489389D02*
G01*
X100497833Y-91568615D01*
X100497835Y-91568616D01*
X100669973Y-91683635D01*
X100816365Y-91830027D01*
X100910902Y-91971511D01*
X100931385Y-92002167D01*
X101010611Y-92193436D01*
X101051000Y-92396484D01*
X101051000Y-92603516D01*
X101010611Y-92806564D01*
X100997658Y-92837835D01*
X100931384Y-92997835D01*
X100816365Y-93169973D01*
X100669973Y-93316365D01*
X100497835Y-93431384D01*
X100497834Y-93431385D01*
X100497833Y-93431385D01*
X100306564Y-93510611D01*
X100103516Y-93551000D01*
X99896484Y-93551000D01*
X99693436Y-93510611D01*
X99502167Y-93431385D01*
X99502166Y-93431385D01*
X99502165Y-93431384D01*
X99330027Y-93316365D01*
X99183635Y-93169973D01*
X99068616Y-92997835D01*
X99002342Y-92837835D01*
X98989389Y-92806564D01*
X98949000Y-92603516D01*
X98949000Y-92396484D01*
X98989389Y-92193436D01*
X99068615Y-92002167D01*
X99089099Y-91971511D01*
X99183635Y-91830027D01*
X99330027Y-91683635D01*
X99502165Y-91568616D01*
X99502167Y-91568615D01*
X99693436Y-91489389D01*
X99896484Y-91449000D01*
X100103516Y-91449000D01*
X100306564Y-91489389D01*
G37*
G36*
X80306564Y-91489389D02*
G01*
X80497833Y-91568615D01*
X80497835Y-91568616D01*
X80669973Y-91683635D01*
X80816365Y-91830027D01*
X80910902Y-91971511D01*
X80931385Y-92002167D01*
X81010611Y-92193436D01*
X81051000Y-92396484D01*
X81051000Y-92603516D01*
X81010611Y-92806564D01*
X80997658Y-92837835D01*
X80931384Y-92997835D01*
X80816365Y-93169973D01*
X80669973Y-93316365D01*
X80497835Y-93431384D01*
X80497834Y-93431385D01*
X80497833Y-93431385D01*
X80306564Y-93510611D01*
X80103516Y-93551000D01*
X79896484Y-93551000D01*
X79693436Y-93510611D01*
X79502167Y-93431385D01*
X79502166Y-93431385D01*
X79502165Y-93431384D01*
X79330027Y-93316365D01*
X79183635Y-93169973D01*
X79068616Y-92997835D01*
X79002342Y-92837835D01*
X78989389Y-92806564D01*
X78949000Y-92603516D01*
X78949000Y-92396484D01*
X78989389Y-92193436D01*
X79068615Y-92002167D01*
X79089099Y-91971511D01*
X79183635Y-91830027D01*
X79330027Y-91683635D01*
X79502165Y-91568616D01*
X79502167Y-91568615D01*
X79693436Y-91489389D01*
X79896484Y-91449000D01*
X80103516Y-91449000D01*
X80306564Y-91489389D01*
G37*
G36*
X110306564Y-91489389D02*
G01*
X110497833Y-91568615D01*
X110497835Y-91568616D01*
X110669973Y-91683635D01*
X110816365Y-91830027D01*
X110910902Y-91971511D01*
X110931385Y-92002167D01*
X111010611Y-92193436D01*
X111051000Y-92396484D01*
X111051000Y-92603516D01*
X111010611Y-92806564D01*
X110997658Y-92837835D01*
X110931384Y-92997835D01*
X110816365Y-93169973D01*
X110669973Y-93316365D01*
X110497835Y-93431384D01*
X110497834Y-93431385D01*
X110497833Y-93431385D01*
X110306564Y-93510611D01*
X110103516Y-93551000D01*
X109896484Y-93551000D01*
X109693436Y-93510611D01*
X109502167Y-93431385D01*
X109502166Y-93431385D01*
X109502165Y-93431384D01*
X109330027Y-93316365D01*
X109183635Y-93169973D01*
X109068616Y-92997835D01*
X109002342Y-92837835D01*
X108989389Y-92806564D01*
X108949000Y-92603516D01*
X108949000Y-92396484D01*
X108989389Y-92193436D01*
X109068615Y-92002167D01*
X109089099Y-91971511D01*
X109183635Y-91830027D01*
X109330027Y-91683635D01*
X109502165Y-91568616D01*
X109502167Y-91568615D01*
X109693436Y-91489389D01*
X109896484Y-91449000D01*
X110103516Y-91449000D01*
X110306564Y-91489389D01*
G37*
G36*
X127806564Y-91489389D02*
G01*
X127997833Y-91568615D01*
X127997835Y-91568616D01*
X128169973Y-91683635D01*
X128316365Y-91830027D01*
X128410902Y-91971511D01*
X128431385Y-92002167D01*
X128510611Y-92193436D01*
X128551000Y-92396484D01*
X128551000Y-92603516D01*
X128510611Y-92806564D01*
X128497658Y-92837835D01*
X128431384Y-92997835D01*
X128316365Y-93169973D01*
X128169973Y-93316365D01*
X127997835Y-93431384D01*
X127997834Y-93431385D01*
X127997833Y-93431385D01*
X127806564Y-93510611D01*
X127603516Y-93551000D01*
X127396484Y-93551000D01*
X127193436Y-93510611D01*
X127002167Y-93431385D01*
X127002166Y-93431385D01*
X127002165Y-93431384D01*
X126830027Y-93316365D01*
X126683635Y-93169973D01*
X126568616Y-92997835D01*
X126502342Y-92837835D01*
X126489389Y-92806564D01*
X126449000Y-92603516D01*
X126449000Y-92396484D01*
X126489389Y-92193436D01*
X126568615Y-92002167D01*
X126589099Y-91971511D01*
X126683635Y-91830027D01*
X126830027Y-91683635D01*
X127002165Y-91568616D01*
X127002167Y-91568615D01*
X127193436Y-91489389D01*
X127396484Y-91449000D01*
X127603516Y-91449000D01*
X127806564Y-91489389D01*
G37*
G36*
X137806564Y-91489389D02*
G01*
X137997833Y-91568615D01*
X137997835Y-91568616D01*
X138169973Y-91683635D01*
X138316365Y-91830027D01*
X138410902Y-91971511D01*
X138431385Y-92002167D01*
X138510611Y-92193436D01*
X138551000Y-92396484D01*
X138551000Y-92603516D01*
X138510611Y-92806564D01*
X138497658Y-92837835D01*
X138431384Y-92997835D01*
X138316365Y-93169973D01*
X138169973Y-93316365D01*
X137997835Y-93431384D01*
X137997834Y-93431385D01*
X137997833Y-93431385D01*
X137806564Y-93510611D01*
X137603516Y-93551000D01*
X137396484Y-93551000D01*
X137193436Y-93510611D01*
X137002167Y-93431385D01*
X137002166Y-93431385D01*
X137002165Y-93431384D01*
X136830027Y-93316365D01*
X136683635Y-93169973D01*
X136568616Y-92997835D01*
X136502342Y-92837835D01*
X136489389Y-92806564D01*
X136449000Y-92603516D01*
X136449000Y-92396484D01*
X136489389Y-92193436D01*
X136568615Y-92002167D01*
X136589099Y-91971511D01*
X136683635Y-91830027D01*
X136830027Y-91683635D01*
X137002165Y-91568616D01*
X137002167Y-91568615D01*
X137193436Y-91489389D01*
X137396484Y-91449000D01*
X137603516Y-91449000D01*
X137806564Y-91489389D01*
G37*
G36*
X105306564Y-91489389D02*
G01*
X105497833Y-91568615D01*
X105497835Y-91568616D01*
X105669973Y-91683635D01*
X105816365Y-91830027D01*
X105910902Y-91971511D01*
X105931385Y-92002167D01*
X106010611Y-92193436D01*
X106051000Y-92396484D01*
X106051000Y-92603516D01*
X106010611Y-92806564D01*
X105997658Y-92837835D01*
X105931384Y-92997835D01*
X105816365Y-93169973D01*
X105669973Y-93316365D01*
X105497835Y-93431384D01*
X105497834Y-93431385D01*
X105497833Y-93431385D01*
X105306564Y-93510611D01*
X105103516Y-93551000D01*
X104896484Y-93551000D01*
X104693436Y-93510611D01*
X104502167Y-93431385D01*
X104502166Y-93431385D01*
X104502165Y-93431384D01*
X104330027Y-93316365D01*
X104183635Y-93169973D01*
X104068616Y-92997835D01*
X104002342Y-92837835D01*
X103989389Y-92806564D01*
X103949000Y-92603516D01*
X103949000Y-92396484D01*
X103989389Y-92193436D01*
X104068615Y-92002167D01*
X104089099Y-91971511D01*
X104183635Y-91830027D01*
X104330027Y-91683635D01*
X104502165Y-91568616D01*
X104502167Y-91568615D01*
X104693436Y-91489389D01*
X104896484Y-91449000D01*
X105103516Y-91449000D01*
X105306564Y-91489389D01*
G37*
G36*
X132806564Y-91329389D02*
G01*
X132997833Y-91408615D01*
X132997835Y-91408616D01*
X133169973Y-91523635D01*
X133316365Y-91670027D01*
X133423274Y-91830027D01*
X133431385Y-91842167D01*
X133510611Y-92033436D01*
X133551000Y-92236484D01*
X133551000Y-92443516D01*
X133510611Y-92646564D01*
X133431385Y-92837833D01*
X133431384Y-92837835D01*
X133316365Y-93009973D01*
X133169973Y-93156365D01*
X132997835Y-93271384D01*
X132997834Y-93271385D01*
X132997833Y-93271385D01*
X132806564Y-93350611D01*
X132603516Y-93391000D01*
X132396484Y-93391000D01*
X132193436Y-93350611D01*
X132002167Y-93271385D01*
X132002166Y-93271385D01*
X132002165Y-93271384D01*
X131830027Y-93156365D01*
X131683635Y-93009973D01*
X131568616Y-92837835D01*
X131568615Y-92837833D01*
X131489389Y-92646564D01*
X131449000Y-92443516D01*
X131449000Y-92236484D01*
X131489389Y-92033436D01*
X131568615Y-91842167D01*
X131576727Y-91830027D01*
X131683635Y-91670027D01*
X131830027Y-91523635D01*
X132002165Y-91408616D01*
X132002167Y-91408615D01*
X132193436Y-91329389D01*
X132396484Y-91289000D01*
X132603516Y-91289000D01*
X132806564Y-91329389D01*
G37*
G36*
X85306564Y-91329389D02*
G01*
X85497833Y-91408615D01*
X85497835Y-91408616D01*
X85669973Y-91523635D01*
X85816365Y-91670027D01*
X85923274Y-91830027D01*
X85931385Y-91842167D01*
X86010611Y-92033436D01*
X86051000Y-92236484D01*
X86051000Y-92443516D01*
X86010611Y-92646564D01*
X85931385Y-92837833D01*
X85931384Y-92837835D01*
X85816365Y-93009973D01*
X85669973Y-93156365D01*
X85497835Y-93271384D01*
X85497834Y-93271385D01*
X85497833Y-93271385D01*
X85306564Y-93350611D01*
X85103516Y-93391000D01*
X84896484Y-93391000D01*
X84693436Y-93350611D01*
X84502167Y-93271385D01*
X84502166Y-93271385D01*
X84502165Y-93271384D01*
X84330027Y-93156365D01*
X84183635Y-93009973D01*
X84068616Y-92837835D01*
X84068615Y-92837833D01*
X83989389Y-92646564D01*
X83949000Y-92443516D01*
X83949000Y-92236484D01*
X83989389Y-92033436D01*
X84068615Y-91842167D01*
X84076727Y-91830027D01*
X84183635Y-91670027D01*
X84330027Y-91523635D01*
X84502165Y-91408616D01*
X84502167Y-91408615D01*
X84693436Y-91329389D01*
X84896484Y-91289000D01*
X85103516Y-91289000D01*
X85306564Y-91329389D01*
G37*
G36*
X60598254Y-89027818D02*
G01*
X60971511Y-89182426D01*
X60971513Y-89182427D01*
X61307436Y-89406884D01*
X61593116Y-89692564D01*
X61817574Y-90028489D01*
X61972182Y-90401746D01*
X62051000Y-90797993D01*
X62051000Y-91202007D01*
X61972182Y-91598254D01*
X61871151Y-91842165D01*
X61817573Y-91971513D01*
X61593116Y-92307436D01*
X61307436Y-92593116D01*
X60971513Y-92817573D01*
X60971512Y-92817574D01*
X60971511Y-92817574D01*
X60598254Y-92972182D01*
X60202007Y-93051000D01*
X59797993Y-93051000D01*
X59401746Y-92972182D01*
X59028489Y-92817574D01*
X59028488Y-92817574D01*
X59028487Y-92817573D01*
X58692564Y-92593116D01*
X58406884Y-92307436D01*
X58182427Y-91971513D01*
X58128849Y-91842165D01*
X58027818Y-91598254D01*
X57949000Y-91202007D01*
X57949000Y-90797993D01*
X58027818Y-90401746D01*
X58182426Y-90028489D01*
X58406884Y-89692564D01*
X58692564Y-89406884D01*
X59028487Y-89182427D01*
X59028489Y-89182426D01*
X59401746Y-89027818D01*
X59797993Y-88949000D01*
X60202007Y-88949000D01*
X60598254Y-89027818D01*
G37*
G36*
X127806564Y-86649389D02*
G01*
X127997833Y-86728615D01*
X127997835Y-86728616D01*
X128169973Y-86843635D01*
X128316365Y-86990027D01*
X128391295Y-87102167D01*
X128431385Y-87162167D01*
X128510611Y-87353436D01*
X128551000Y-87556484D01*
X128551000Y-87763516D01*
X128510611Y-87966564D01*
X128456237Y-88097835D01*
X128431384Y-88157835D01*
X128316365Y-88329973D01*
X128169973Y-88476365D01*
X127997835Y-88591384D01*
X127997834Y-88591385D01*
X127997833Y-88591385D01*
X127806564Y-88670611D01*
X127603516Y-88711000D01*
X127396484Y-88711000D01*
X127193436Y-88670611D01*
X127002167Y-88591385D01*
X127002166Y-88591385D01*
X127002165Y-88591384D01*
X126830027Y-88476365D01*
X126683635Y-88329973D01*
X126568616Y-88157835D01*
X126543763Y-88097835D01*
X126489389Y-87966564D01*
X126449000Y-87763516D01*
X126449000Y-87556484D01*
X126489389Y-87353436D01*
X126568615Y-87162167D01*
X126608706Y-87102167D01*
X126683635Y-86990027D01*
X126830027Y-86843635D01*
X127002165Y-86728616D01*
X127002167Y-86728615D01*
X127193436Y-86649389D01*
X127396484Y-86609000D01*
X127603516Y-86609000D01*
X127806564Y-86649389D01*
G37*
G36*
X80306564Y-86649389D02*
G01*
X80497833Y-86728615D01*
X80497835Y-86728616D01*
X80669973Y-86843635D01*
X80816365Y-86990027D01*
X80891295Y-87102167D01*
X80931385Y-87162167D01*
X81010611Y-87353436D01*
X81051000Y-87556484D01*
X81051000Y-87763516D01*
X81010611Y-87966564D01*
X80956237Y-88097835D01*
X80931384Y-88157835D01*
X80816365Y-88329973D01*
X80669973Y-88476365D01*
X80497835Y-88591384D01*
X80497834Y-88591385D01*
X80497833Y-88591385D01*
X80306564Y-88670611D01*
X80103516Y-88711000D01*
X79896484Y-88711000D01*
X79693436Y-88670611D01*
X79502167Y-88591385D01*
X79502166Y-88591385D01*
X79502165Y-88591384D01*
X79330027Y-88476365D01*
X79183635Y-88329973D01*
X79068616Y-88157835D01*
X79043763Y-88097835D01*
X78989389Y-87966564D01*
X78949000Y-87763516D01*
X78949000Y-87556484D01*
X78989389Y-87353436D01*
X79068615Y-87162167D01*
X79108706Y-87102167D01*
X79183635Y-86990027D01*
X79330027Y-86843635D01*
X79502165Y-86728616D01*
X79502167Y-86728615D01*
X79693436Y-86649389D01*
X79896484Y-86609000D01*
X80103516Y-86609000D01*
X80306564Y-86649389D01*
G37*
G36*
X132806564Y-86649389D02*
G01*
X132997833Y-86728615D01*
X132997835Y-86728616D01*
X133169973Y-86843635D01*
X133316365Y-86990027D01*
X133391295Y-87102167D01*
X133431385Y-87162167D01*
X133510611Y-87353436D01*
X133551000Y-87556484D01*
X133551000Y-87763516D01*
X133510611Y-87966564D01*
X133456237Y-88097835D01*
X133431384Y-88157835D01*
X133316365Y-88329973D01*
X133169973Y-88476365D01*
X132997835Y-88591384D01*
X132997834Y-88591385D01*
X132997833Y-88591385D01*
X132806564Y-88670611D01*
X132603516Y-88711000D01*
X132396484Y-88711000D01*
X132193436Y-88670611D01*
X132002167Y-88591385D01*
X132002166Y-88591385D01*
X132002165Y-88591384D01*
X131830027Y-88476365D01*
X131683635Y-88329973D01*
X131568616Y-88157835D01*
X131543763Y-88097835D01*
X131489389Y-87966564D01*
X131449000Y-87763516D01*
X131449000Y-87556484D01*
X131489389Y-87353436D01*
X131568615Y-87162167D01*
X131608706Y-87102167D01*
X131683635Y-86990027D01*
X131830027Y-86843635D01*
X132002165Y-86728616D01*
X132002167Y-86728615D01*
X132193436Y-86649389D01*
X132396484Y-86609000D01*
X132603516Y-86609000D01*
X132806564Y-86649389D01*
G37*
G36*
X75306564Y-86589389D02*
G01*
X75497833Y-86668615D01*
X75497835Y-86668616D01*
X75587630Y-86728615D01*
X75669973Y-86783635D01*
X75816365Y-86930027D01*
X75931385Y-87102167D01*
X76010611Y-87293436D01*
X76051000Y-87496484D01*
X76051000Y-87703516D01*
X76010611Y-87906564D01*
X75983431Y-87972182D01*
X75931384Y-88097835D01*
X75816365Y-88269973D01*
X75669973Y-88416365D01*
X75497835Y-88531384D01*
X75497834Y-88531385D01*
X75497833Y-88531385D01*
X75306564Y-88610611D01*
X75103516Y-88651000D01*
X74896484Y-88651000D01*
X74693436Y-88610611D01*
X74502167Y-88531385D01*
X74502166Y-88531385D01*
X74502165Y-88531384D01*
X74330027Y-88416365D01*
X74183635Y-88269973D01*
X74068616Y-88097835D01*
X74016569Y-87972182D01*
X73989389Y-87906564D01*
X73949000Y-87703516D01*
X73949000Y-87496484D01*
X73989389Y-87293436D01*
X74068615Y-87102167D01*
X74183635Y-86930027D01*
X74330027Y-86783635D01*
X74412370Y-86728615D01*
X74502165Y-86668616D01*
X74502167Y-86668615D01*
X74693436Y-86589389D01*
X74896484Y-86549000D01*
X75103516Y-86549000D01*
X75306564Y-86589389D01*
G37*
G36*
X107006564Y-86489389D02*
G01*
X107197833Y-86568615D01*
X107197835Y-86568616D01*
X107369973Y-86683635D01*
X107516365Y-86830027D01*
X107623274Y-86990027D01*
X107631385Y-87002167D01*
X107710611Y-87193436D01*
X107751000Y-87396484D01*
X107751000Y-87603516D01*
X107710611Y-87806564D01*
X107642010Y-87972181D01*
X107631384Y-87997835D01*
X107516365Y-88169973D01*
X107369973Y-88316365D01*
X107197835Y-88431384D01*
X107197834Y-88431385D01*
X107197833Y-88431385D01*
X107006564Y-88510611D01*
X106803516Y-88551000D01*
X106596484Y-88551000D01*
X106393436Y-88510611D01*
X106202167Y-88431385D01*
X106202166Y-88431385D01*
X106202165Y-88431384D01*
X106030027Y-88316365D01*
X105883635Y-88169973D01*
X105768616Y-87997835D01*
X105757990Y-87972181D01*
X105689389Y-87806564D01*
X105649000Y-87603516D01*
X105649000Y-87396484D01*
X105689389Y-87193436D01*
X105768615Y-87002167D01*
X105776727Y-86990027D01*
X105883635Y-86830027D01*
X106030027Y-86683635D01*
X106202165Y-86568616D01*
X106202167Y-86568615D01*
X106393436Y-86489389D01*
X106596484Y-86449000D01*
X106803516Y-86449000D01*
X107006564Y-86489389D01*
G37*
G36*
X110306564Y-86489389D02*
G01*
X110497833Y-86568615D01*
X110497835Y-86568616D01*
X110669973Y-86683635D01*
X110816365Y-86830027D01*
X110923274Y-86990027D01*
X110931385Y-87002167D01*
X111010611Y-87193436D01*
X111051000Y-87396484D01*
X111051000Y-87603516D01*
X111010611Y-87806564D01*
X110942010Y-87972181D01*
X110931384Y-87997835D01*
X110816365Y-88169973D01*
X110669973Y-88316365D01*
X110497835Y-88431384D01*
X110497834Y-88431385D01*
X110497833Y-88431385D01*
X110306564Y-88510611D01*
X110103516Y-88551000D01*
X109896484Y-88551000D01*
X109693436Y-88510611D01*
X109502167Y-88431385D01*
X109502166Y-88431385D01*
X109502165Y-88431384D01*
X109330027Y-88316365D01*
X109183635Y-88169973D01*
X109068616Y-87997835D01*
X109057990Y-87972181D01*
X108989389Y-87806564D01*
X108949000Y-87603516D01*
X108949000Y-87396484D01*
X108989389Y-87193436D01*
X109068615Y-87002167D01*
X109076727Y-86990027D01*
X109183635Y-86830027D01*
X109330027Y-86683635D01*
X109502165Y-86568616D01*
X109502167Y-86568615D01*
X109693436Y-86489389D01*
X109896484Y-86449000D01*
X110103516Y-86449000D01*
X110306564Y-86489389D01*
G37*
G36*
X137806564Y-86489389D02*
G01*
X137997833Y-86568615D01*
X137997835Y-86568616D01*
X138169973Y-86683635D01*
X138316365Y-86830027D01*
X138423274Y-86990027D01*
X138431385Y-87002167D01*
X138510611Y-87193436D01*
X138551000Y-87396484D01*
X138551000Y-87603516D01*
X138510611Y-87806564D01*
X138442010Y-87972181D01*
X138431384Y-87997835D01*
X138316365Y-88169973D01*
X138169973Y-88316365D01*
X137997835Y-88431384D01*
X137997834Y-88431385D01*
X137997833Y-88431385D01*
X137806564Y-88510611D01*
X137603516Y-88551000D01*
X137396484Y-88551000D01*
X137193436Y-88510611D01*
X137002167Y-88431385D01*
X137002166Y-88431385D01*
X137002165Y-88431384D01*
X136830027Y-88316365D01*
X136683635Y-88169973D01*
X136568616Y-87997835D01*
X136557990Y-87972181D01*
X136489389Y-87806564D01*
X136449000Y-87603516D01*
X136449000Y-87396484D01*
X136489389Y-87193436D01*
X136568615Y-87002167D01*
X136576727Y-86990027D01*
X136683635Y-86830027D01*
X136830027Y-86683635D01*
X137002165Y-86568616D01*
X137002167Y-86568615D01*
X137193436Y-86489389D01*
X137396484Y-86449000D01*
X137603516Y-86449000D01*
X137806564Y-86489389D01*
G37*
G36*
X85306564Y-86489389D02*
G01*
X85497833Y-86568615D01*
X85497835Y-86568616D01*
X85669973Y-86683635D01*
X85816365Y-86830027D01*
X85923274Y-86990027D01*
X85931385Y-87002167D01*
X86010611Y-87193436D01*
X86051000Y-87396484D01*
X86051000Y-87603516D01*
X86010611Y-87806564D01*
X85942010Y-87972181D01*
X85931384Y-87997835D01*
X85816365Y-88169973D01*
X85669973Y-88316365D01*
X85497835Y-88431384D01*
X85497834Y-88431385D01*
X85497833Y-88431385D01*
X85306564Y-88510611D01*
X85103516Y-88551000D01*
X84896484Y-88551000D01*
X84693436Y-88510611D01*
X84502167Y-88431385D01*
X84502166Y-88431385D01*
X84502165Y-88431384D01*
X84330027Y-88316365D01*
X84183635Y-88169973D01*
X84068616Y-87997835D01*
X84057990Y-87972181D01*
X83989389Y-87806564D01*
X83949000Y-87603516D01*
X83949000Y-87396484D01*
X83989389Y-87193436D01*
X84068615Y-87002167D01*
X84076727Y-86990027D01*
X84183635Y-86830027D01*
X84330027Y-86683635D01*
X84502165Y-86568616D01*
X84502167Y-86568615D01*
X84693436Y-86489389D01*
X84896484Y-86449000D01*
X85103516Y-86449000D01*
X85306564Y-86489389D01*
G37*
G36*
X60598254Y-84027818D02*
G01*
X60971511Y-84182426D01*
X60971513Y-84182427D01*
X61302392Y-84403514D01*
X61307436Y-84406884D01*
X61593116Y-84692564D01*
X61817574Y-85028489D01*
X61972182Y-85401746D01*
X62051000Y-85797993D01*
X62051000Y-86202007D01*
X61972182Y-86598254D01*
X61870542Y-86843635D01*
X61817573Y-86971513D01*
X61593116Y-87307436D01*
X61307436Y-87593116D01*
X60971513Y-87817573D01*
X60971512Y-87817574D01*
X60971511Y-87817574D01*
X60598254Y-87972182D01*
X60202007Y-88051000D01*
X59797993Y-88051000D01*
X59401746Y-87972182D01*
X59028489Y-87817574D01*
X59028488Y-87817574D01*
X59028487Y-87817573D01*
X58692564Y-87593116D01*
X58406884Y-87307436D01*
X58182427Y-86971513D01*
X58129458Y-86843635D01*
X58027818Y-86598254D01*
X57949000Y-86202007D01*
X57949000Y-85797993D01*
X58027818Y-85401746D01*
X58182426Y-85028489D01*
X58406884Y-84692564D01*
X58692564Y-84406884D01*
X58697608Y-84403514D01*
X59028487Y-84182427D01*
X59028489Y-84182426D01*
X59401746Y-84027818D01*
X59797993Y-83949000D01*
X60202007Y-83949000D01*
X60598254Y-84027818D01*
G37*
G36*
X75306564Y-83289389D02*
G01*
X75497833Y-83368615D01*
X75497835Y-83368616D01*
X75669973Y-83483635D01*
X75816365Y-83630027D01*
X75931385Y-83802167D01*
X76010611Y-83993436D01*
X76051000Y-84196484D01*
X76051000Y-84403516D01*
X76010611Y-84606564D01*
X75931385Y-84797833D01*
X75931384Y-84797835D01*
X75816365Y-84969973D01*
X75669973Y-85116365D01*
X75497835Y-85231384D01*
X75497834Y-85231385D01*
X75497833Y-85231385D01*
X75306564Y-85310611D01*
X75103516Y-85351000D01*
X74896484Y-85351000D01*
X74693436Y-85310611D01*
X74502167Y-85231385D01*
X74502166Y-85231385D01*
X74502165Y-85231384D01*
X74330027Y-85116365D01*
X74183635Y-84969973D01*
X74068616Y-84797835D01*
X74068615Y-84797833D01*
X73989389Y-84606564D01*
X73949000Y-84403516D01*
X73949000Y-84196484D01*
X73989389Y-83993436D01*
X74068615Y-83802167D01*
X74183635Y-83630027D01*
X74330027Y-83483635D01*
X74502165Y-83368616D01*
X74502167Y-83368615D01*
X74693436Y-83289389D01*
X74896484Y-83249000D01*
X75103516Y-83249000D01*
X75306564Y-83289389D01*
G37*
G36*
X99926823Y-81381313D02*
G01*
X100087242Y-81429976D01*
X100219906Y-81500886D01*
X100235078Y-81508996D01*
X100364659Y-81615341D01*
X100471004Y-81744922D01*
X100471005Y-81744924D01*
X100550024Y-81892758D01*
X100598687Y-82053178D01*
X100611000Y-82178197D01*
X100611000Y-83061804D01*
X100598687Y-83186823D01*
X100550024Y-83347242D01*
X100538599Y-83368616D01*
X100471004Y-83495078D01*
X100364659Y-83624659D01*
X100235077Y-83731005D01*
X100087241Y-83810024D01*
X99926822Y-83858687D01*
X99760000Y-83875117D01*
X99593177Y-83858687D01*
X99432758Y-83810024D01*
X99284924Y-83731005D01*
X99284922Y-83731004D01*
X99155341Y-83624659D01*
X99048995Y-83495077D01*
X98969976Y-83347241D01*
X98921313Y-83186822D01*
X98909000Y-83061803D01*
X98909000Y-82178197D01*
X98921314Y-82053177D01*
X98969977Y-81892758D01*
X99048996Y-81744924D01*
X99048997Y-81744922D01*
X99155342Y-81615341D01*
X99284923Y-81508996D01*
X99300095Y-81500886D01*
X99432759Y-81429976D01*
X99593178Y-81381313D01*
X99760000Y-81364883D01*
X99926823Y-81381313D01*
G37*
G36*
X115166823Y-81381313D02*
G01*
X115327242Y-81429976D01*
X115459906Y-81500886D01*
X115475078Y-81508996D01*
X115604659Y-81615341D01*
X115711004Y-81744922D01*
X115711005Y-81744924D01*
X115790024Y-81892758D01*
X115838687Y-82053178D01*
X115851000Y-82178197D01*
X115851000Y-83061804D01*
X115838687Y-83186823D01*
X115790024Y-83347242D01*
X115778599Y-83368616D01*
X115711004Y-83495078D01*
X115604659Y-83624659D01*
X115475077Y-83731005D01*
X115327241Y-83810024D01*
X115166822Y-83858687D01*
X115000000Y-83875117D01*
X114833177Y-83858687D01*
X114672758Y-83810024D01*
X114524924Y-83731005D01*
X114524922Y-83731004D01*
X114395341Y-83624659D01*
X114288995Y-83495077D01*
X114209976Y-83347241D01*
X114161313Y-83186822D01*
X114149000Y-83061803D01*
X114149000Y-82178197D01*
X114161314Y-82053177D01*
X114209977Y-81892758D01*
X114288996Y-81744924D01*
X114288997Y-81744922D01*
X114395342Y-81615341D01*
X114524923Y-81508996D01*
X114540095Y-81500886D01*
X114672759Y-81429976D01*
X114833178Y-81381313D01*
X115000000Y-81364883D01*
X115166823Y-81381313D01*
G37*
G36*
X112626823Y-81381313D02*
G01*
X112787242Y-81429976D01*
X112919906Y-81500886D01*
X112935078Y-81508996D01*
X113064659Y-81615341D01*
X113171004Y-81744922D01*
X113171005Y-81744924D01*
X113250024Y-81892758D01*
X113298687Y-82053178D01*
X113311000Y-82178197D01*
X113311000Y-83061804D01*
X113298687Y-83186823D01*
X113250024Y-83347242D01*
X113238599Y-83368616D01*
X113171004Y-83495078D01*
X113064659Y-83624659D01*
X112935077Y-83731005D01*
X112787241Y-83810024D01*
X112626822Y-83858687D01*
X112460000Y-83875117D01*
X112293177Y-83858687D01*
X112132758Y-83810024D01*
X111984924Y-83731005D01*
X111984922Y-83731004D01*
X111855341Y-83624659D01*
X111748995Y-83495077D01*
X111669976Y-83347241D01*
X111621313Y-83186822D01*
X111609000Y-83061803D01*
X111609000Y-82178197D01*
X111621314Y-82053177D01*
X111669977Y-81892758D01*
X111748996Y-81744924D01*
X111748997Y-81744922D01*
X111855342Y-81615341D01*
X111984923Y-81508996D01*
X112000095Y-81500886D01*
X112132759Y-81429976D01*
X112293178Y-81381313D01*
X112460000Y-81364883D01*
X112626823Y-81381313D01*
G37*
G36*
X110086823Y-81381313D02*
G01*
X110247242Y-81429976D01*
X110379906Y-81500886D01*
X110395078Y-81508996D01*
X110524659Y-81615341D01*
X110631004Y-81744922D01*
X110631005Y-81744924D01*
X110710024Y-81892758D01*
X110758687Y-82053178D01*
X110771000Y-82178197D01*
X110771000Y-83061804D01*
X110758687Y-83186823D01*
X110710024Y-83347242D01*
X110698599Y-83368616D01*
X110631004Y-83495078D01*
X110524659Y-83624659D01*
X110395077Y-83731005D01*
X110247241Y-83810024D01*
X110086822Y-83858687D01*
X109920000Y-83875117D01*
X109753177Y-83858687D01*
X109592758Y-83810024D01*
X109444924Y-83731005D01*
X109444922Y-83731004D01*
X109315341Y-83624659D01*
X109208995Y-83495077D01*
X109129976Y-83347241D01*
X109081313Y-83186822D01*
X109069000Y-83061803D01*
X109069000Y-82178197D01*
X109081314Y-82053177D01*
X109129977Y-81892758D01*
X109208996Y-81744924D01*
X109208997Y-81744922D01*
X109315342Y-81615341D01*
X109444923Y-81508996D01*
X109460095Y-81500886D01*
X109592759Y-81429976D01*
X109753178Y-81381313D01*
X109920000Y-81364883D01*
X110086823Y-81381313D01*
G37*
G36*
X107546823Y-81381313D02*
G01*
X107707242Y-81429976D01*
X107839906Y-81500886D01*
X107855078Y-81508996D01*
X107984659Y-81615341D01*
X108091004Y-81744922D01*
X108091005Y-81744924D01*
X108170024Y-81892758D01*
X108218687Y-82053178D01*
X108231000Y-82178197D01*
X108231000Y-83061804D01*
X108218687Y-83186823D01*
X108170024Y-83347242D01*
X108158599Y-83368616D01*
X108091004Y-83495078D01*
X107984659Y-83624659D01*
X107855077Y-83731005D01*
X107707241Y-83810024D01*
X107546822Y-83858687D01*
X107380000Y-83875117D01*
X107213177Y-83858687D01*
X107052758Y-83810024D01*
X106904924Y-83731005D01*
X106904922Y-83731004D01*
X106775341Y-83624659D01*
X106668995Y-83495077D01*
X106589976Y-83347241D01*
X106541313Y-83186822D01*
X106529000Y-83061803D01*
X106529000Y-82178197D01*
X106541314Y-82053177D01*
X106589977Y-81892758D01*
X106668996Y-81744924D01*
X106668997Y-81744922D01*
X106775342Y-81615341D01*
X106904923Y-81508996D01*
X106920095Y-81500886D01*
X107052759Y-81429976D01*
X107213178Y-81381313D01*
X107380000Y-81364883D01*
X107546823Y-81381313D01*
G37*
G36*
X105006823Y-81381313D02*
G01*
X105167242Y-81429976D01*
X105299906Y-81500886D01*
X105315078Y-81508996D01*
X105444659Y-81615341D01*
X105551004Y-81744922D01*
X105551005Y-81744924D01*
X105630024Y-81892758D01*
X105678687Y-82053178D01*
X105691000Y-82178197D01*
X105691000Y-83061804D01*
X105678687Y-83186823D01*
X105630024Y-83347242D01*
X105618599Y-83368616D01*
X105551004Y-83495078D01*
X105444659Y-83624659D01*
X105315077Y-83731005D01*
X105167241Y-83810024D01*
X105006822Y-83858687D01*
X104840000Y-83875117D01*
X104673177Y-83858687D01*
X104512758Y-83810024D01*
X104364924Y-83731005D01*
X104364922Y-83731004D01*
X104235341Y-83624659D01*
X104128995Y-83495077D01*
X104049976Y-83347241D01*
X104001313Y-83186822D01*
X103989000Y-83061803D01*
X103989000Y-82178197D01*
X104001314Y-82053177D01*
X104049977Y-81892758D01*
X104128996Y-81744924D01*
X104128997Y-81744922D01*
X104235342Y-81615341D01*
X104364923Y-81508996D01*
X104380095Y-81500886D01*
X104512759Y-81429976D01*
X104673178Y-81381313D01*
X104840000Y-81364883D01*
X105006823Y-81381313D01*
G37*
G36*
X102466823Y-81381313D02*
G01*
X102627242Y-81429976D01*
X102759906Y-81500886D01*
X102775078Y-81508996D01*
X102904659Y-81615341D01*
X103011004Y-81744922D01*
X103011005Y-81744924D01*
X103090024Y-81892758D01*
X103138687Y-82053178D01*
X103151000Y-82178197D01*
X103151000Y-83061804D01*
X103138687Y-83186823D01*
X103090024Y-83347242D01*
X103078599Y-83368616D01*
X103011004Y-83495078D01*
X102904659Y-83624659D01*
X102775077Y-83731005D01*
X102627241Y-83810024D01*
X102466822Y-83858687D01*
X102300000Y-83875117D01*
X102133177Y-83858687D01*
X101972758Y-83810024D01*
X101824924Y-83731005D01*
X101824922Y-83731004D01*
X101695341Y-83624659D01*
X101588995Y-83495077D01*
X101509976Y-83347241D01*
X101461313Y-83186822D01*
X101449000Y-83061803D01*
X101449000Y-82178197D01*
X101461314Y-82053177D01*
X101509977Y-81892758D01*
X101588996Y-81744924D01*
X101588997Y-81744922D01*
X101695342Y-81615341D01*
X101824923Y-81508996D01*
X101840095Y-81500886D01*
X101972759Y-81429976D01*
X102133178Y-81381313D01*
X102300000Y-81364883D01*
X102466823Y-81381313D01*
G37*
G36*
X62051000Y-83051000D02*
G01*
X57949000Y-83051000D01*
X57949000Y-78949000D01*
X62051000Y-78949000D01*
X62051000Y-83051000D01*
G37*
G36*
X80306564Y-76489389D02*
G01*
X80497833Y-76568615D01*
X80497835Y-76568616D01*
X80649607Y-76670027D01*
X80669973Y-76683635D01*
X80816365Y-76830027D01*
X80931385Y-77002167D01*
X81010611Y-77193436D01*
X81051000Y-77396484D01*
X81051000Y-77603516D01*
X81010611Y-77806564D01*
X80997658Y-77837835D01*
X80931384Y-77997835D01*
X80816365Y-78169973D01*
X80669973Y-78316365D01*
X80497835Y-78431384D01*
X80497834Y-78431385D01*
X80497833Y-78431385D01*
X80306564Y-78510611D01*
X80103516Y-78551000D01*
X79896484Y-78551000D01*
X79693436Y-78510611D01*
X79502167Y-78431385D01*
X79502166Y-78431385D01*
X79502165Y-78431384D01*
X79330027Y-78316365D01*
X79183635Y-78169973D01*
X79068616Y-77997835D01*
X79002342Y-77837835D01*
X78989389Y-77806564D01*
X78949000Y-77603516D01*
X78949000Y-77396484D01*
X78989389Y-77193436D01*
X79068615Y-77002167D01*
X79183635Y-76830027D01*
X79330027Y-76683635D01*
X79350393Y-76670027D01*
X79502165Y-76568616D01*
X79502167Y-76568615D01*
X79693436Y-76489389D01*
X79896484Y-76449000D01*
X80103516Y-76449000D01*
X80306564Y-76489389D01*
G37*
G36*
X127806564Y-76489389D02*
G01*
X127997833Y-76568615D01*
X127997835Y-76568616D01*
X128149607Y-76670027D01*
X128169973Y-76683635D01*
X128316365Y-76830027D01*
X128431385Y-77002167D01*
X128510611Y-77193436D01*
X128551000Y-77396484D01*
X128551000Y-77603516D01*
X128510611Y-77806564D01*
X128497658Y-77837835D01*
X128431384Y-77997835D01*
X128316365Y-78169973D01*
X128169973Y-78316365D01*
X127997835Y-78431384D01*
X127997834Y-78431385D01*
X127997833Y-78431385D01*
X127806564Y-78510611D01*
X127603516Y-78551000D01*
X127396484Y-78551000D01*
X127193436Y-78510611D01*
X127002167Y-78431385D01*
X127002166Y-78431385D01*
X127002165Y-78431384D01*
X126830027Y-78316365D01*
X126683635Y-78169973D01*
X126568616Y-77997835D01*
X126502342Y-77837835D01*
X126489389Y-77806564D01*
X126449000Y-77603516D01*
X126449000Y-77396484D01*
X126489389Y-77193436D01*
X126568615Y-77002167D01*
X126683635Y-76830027D01*
X126830027Y-76683635D01*
X126850393Y-76670027D01*
X127002165Y-76568616D01*
X127002167Y-76568615D01*
X127193436Y-76489389D01*
X127396484Y-76449000D01*
X127603516Y-76449000D01*
X127806564Y-76489389D01*
G37*
G36*
X132806564Y-76489389D02*
G01*
X132997833Y-76568615D01*
X132997835Y-76568616D01*
X133149607Y-76670027D01*
X133169973Y-76683635D01*
X133316365Y-76830027D01*
X133431385Y-77002167D01*
X133510611Y-77193436D01*
X133551000Y-77396484D01*
X133551000Y-77603516D01*
X133510611Y-77806564D01*
X133497658Y-77837835D01*
X133431384Y-77997835D01*
X133316365Y-78169973D01*
X133169973Y-78316365D01*
X132997835Y-78431384D01*
X132997834Y-78431385D01*
X132997833Y-78431385D01*
X132806564Y-78510611D01*
X132603516Y-78551000D01*
X132396484Y-78551000D01*
X132193436Y-78510611D01*
X132002167Y-78431385D01*
X132002166Y-78431385D01*
X132002165Y-78431384D01*
X131830027Y-78316365D01*
X131683635Y-78169973D01*
X131568616Y-77997835D01*
X131502342Y-77837835D01*
X131489389Y-77806564D01*
X131449000Y-77603516D01*
X131449000Y-77396484D01*
X131489389Y-77193436D01*
X131568615Y-77002167D01*
X131683635Y-76830027D01*
X131830027Y-76683635D01*
X131850393Y-76670027D01*
X132002165Y-76568616D01*
X132002167Y-76568615D01*
X132193436Y-76489389D01*
X132396484Y-76449000D01*
X132603516Y-76449000D01*
X132806564Y-76489389D01*
G37*
G36*
X85306564Y-76329389D02*
G01*
X85497833Y-76408615D01*
X85497835Y-76408616D01*
X85669973Y-76523635D01*
X85816365Y-76670027D01*
X85923274Y-76830027D01*
X85931385Y-76842167D01*
X86010611Y-77033436D01*
X86051000Y-77236484D01*
X86051000Y-77443516D01*
X86010611Y-77646564D01*
X85931385Y-77837833D01*
X85931384Y-77837835D01*
X85816365Y-78009973D01*
X85669973Y-78156365D01*
X85497835Y-78271384D01*
X85497834Y-78271385D01*
X85497833Y-78271385D01*
X85306564Y-78350611D01*
X85103516Y-78391000D01*
X84896484Y-78391000D01*
X84693436Y-78350611D01*
X84502167Y-78271385D01*
X84502166Y-78271385D01*
X84502165Y-78271384D01*
X84330027Y-78156365D01*
X84183635Y-78009973D01*
X84068616Y-77837835D01*
X84068615Y-77837833D01*
X83989389Y-77646564D01*
X83949000Y-77443516D01*
X83949000Y-77236484D01*
X83989389Y-77033436D01*
X84068615Y-76842167D01*
X84076727Y-76830027D01*
X84183635Y-76670027D01*
X84330027Y-76523635D01*
X84502165Y-76408616D01*
X84502167Y-76408615D01*
X84693436Y-76329389D01*
X84896484Y-76289000D01*
X85103516Y-76289000D01*
X85306564Y-76329389D01*
G37*
G36*
X137806564Y-76329389D02*
G01*
X137997833Y-76408615D01*
X137997835Y-76408616D01*
X138169973Y-76523635D01*
X138316365Y-76670027D01*
X138423274Y-76830027D01*
X138431385Y-76842167D01*
X138510611Y-77033436D01*
X138551000Y-77236484D01*
X138551000Y-77443516D01*
X138510611Y-77646564D01*
X138431385Y-77837833D01*
X138431384Y-77837835D01*
X138316365Y-78009973D01*
X138169973Y-78156365D01*
X137997835Y-78271384D01*
X137997834Y-78271385D01*
X137997833Y-78271385D01*
X137806564Y-78350611D01*
X137603516Y-78391000D01*
X137396484Y-78391000D01*
X137193436Y-78350611D01*
X137002167Y-78271385D01*
X137002166Y-78271385D01*
X137002165Y-78271384D01*
X136830027Y-78156365D01*
X136683635Y-78009973D01*
X136568616Y-77837835D01*
X136568615Y-77837833D01*
X136489389Y-77646564D01*
X136449000Y-77443516D01*
X136449000Y-77236484D01*
X136489389Y-77033436D01*
X136568615Y-76842167D01*
X136576727Y-76830027D01*
X136683635Y-76670027D01*
X136830027Y-76523635D01*
X137002165Y-76408616D01*
X137002167Y-76408615D01*
X137193436Y-76329389D01*
X137396484Y-76289000D01*
X137603516Y-76289000D01*
X137806564Y-76329389D01*
G37*
G36*
X110086823Y-73761313D02*
G01*
X110247242Y-73809976D01*
X110379906Y-73880886D01*
X110395078Y-73888996D01*
X110524659Y-73995341D01*
X110631004Y-74124922D01*
X110631005Y-74124924D01*
X110710024Y-74272758D01*
X110758687Y-74433178D01*
X110771000Y-74558197D01*
X110771000Y-75441804D01*
X110758687Y-75566823D01*
X110710024Y-75727242D01*
X110662387Y-75816365D01*
X110631004Y-75875078D01*
X110524659Y-76004659D01*
X110395077Y-76111005D01*
X110247241Y-76190024D01*
X110086822Y-76238687D01*
X109920000Y-76255117D01*
X109753177Y-76238687D01*
X109592758Y-76190024D01*
X109444924Y-76111005D01*
X109444922Y-76111004D01*
X109315341Y-76004659D01*
X109208995Y-75875077D01*
X109129976Y-75727241D01*
X109081313Y-75566822D01*
X109069000Y-75441803D01*
X109069000Y-74558197D01*
X109081314Y-74433177D01*
X109129977Y-74272758D01*
X109208996Y-74124924D01*
X109208997Y-74124922D01*
X109315342Y-73995341D01*
X109444923Y-73888996D01*
X109460095Y-73880886D01*
X109592759Y-73809976D01*
X109753178Y-73761313D01*
X109920000Y-73744883D01*
X110086823Y-73761313D01*
G37*
G36*
X112626823Y-73761313D02*
G01*
X112787242Y-73809976D01*
X112919906Y-73880886D01*
X112935078Y-73888996D01*
X113064659Y-73995341D01*
X113171004Y-74124922D01*
X113171005Y-74124924D01*
X113250024Y-74272758D01*
X113298687Y-74433178D01*
X113311000Y-74558197D01*
X113311000Y-75441804D01*
X113298687Y-75566823D01*
X113250024Y-75727242D01*
X113202387Y-75816365D01*
X113171004Y-75875078D01*
X113064659Y-76004659D01*
X112935077Y-76111005D01*
X112787241Y-76190024D01*
X112626822Y-76238687D01*
X112460000Y-76255117D01*
X112293177Y-76238687D01*
X112132758Y-76190024D01*
X111984924Y-76111005D01*
X111984922Y-76111004D01*
X111855341Y-76004659D01*
X111748995Y-75875077D01*
X111669976Y-75727241D01*
X111621313Y-75566822D01*
X111609000Y-75441803D01*
X111609000Y-74558197D01*
X111621314Y-74433177D01*
X111669977Y-74272758D01*
X111748996Y-74124924D01*
X111748997Y-74124922D01*
X111855342Y-73995341D01*
X111984923Y-73888996D01*
X112000095Y-73880886D01*
X112132759Y-73809976D01*
X112293178Y-73761313D01*
X112460000Y-73744883D01*
X112626823Y-73761313D01*
G37*
G36*
X107546823Y-73761313D02*
G01*
X107707242Y-73809976D01*
X107839906Y-73880886D01*
X107855078Y-73888996D01*
X107984659Y-73995341D01*
X108091004Y-74124922D01*
X108091005Y-74124924D01*
X108170024Y-74272758D01*
X108218687Y-74433178D01*
X108231000Y-74558197D01*
X108231000Y-75441804D01*
X108218687Y-75566823D01*
X108170024Y-75727242D01*
X108122387Y-75816365D01*
X108091004Y-75875078D01*
X107984659Y-76004659D01*
X107855077Y-76111005D01*
X107707241Y-76190024D01*
X107546822Y-76238687D01*
X107380000Y-76255117D01*
X107213177Y-76238687D01*
X107052758Y-76190024D01*
X106904924Y-76111005D01*
X106904922Y-76111004D01*
X106775341Y-76004659D01*
X106668995Y-75875077D01*
X106589976Y-75727241D01*
X106541313Y-75566822D01*
X106529000Y-75441803D01*
X106529000Y-74558197D01*
X106541314Y-74433177D01*
X106589977Y-74272758D01*
X106668996Y-74124924D01*
X106668997Y-74124922D01*
X106775342Y-73995341D01*
X106904923Y-73888996D01*
X106920095Y-73880886D01*
X107052759Y-73809976D01*
X107213178Y-73761313D01*
X107380000Y-73744883D01*
X107546823Y-73761313D01*
G37*
G36*
X105006823Y-73761313D02*
G01*
X105167242Y-73809976D01*
X105299906Y-73880886D01*
X105315078Y-73888996D01*
X105444659Y-73995341D01*
X105551004Y-74124922D01*
X105551005Y-74124924D01*
X105630024Y-74272758D01*
X105678687Y-74433178D01*
X105691000Y-74558197D01*
X105691000Y-75441804D01*
X105678687Y-75566823D01*
X105630024Y-75727242D01*
X105582387Y-75816365D01*
X105551004Y-75875078D01*
X105444659Y-76004659D01*
X105315077Y-76111005D01*
X105167241Y-76190024D01*
X105006822Y-76238687D01*
X104840000Y-76255117D01*
X104673177Y-76238687D01*
X104512758Y-76190024D01*
X104364924Y-76111005D01*
X104364922Y-76111004D01*
X104235341Y-76004659D01*
X104128995Y-75875077D01*
X104049976Y-75727241D01*
X104001313Y-75566822D01*
X103989000Y-75441803D01*
X103989000Y-74558197D01*
X104001314Y-74433177D01*
X104049977Y-74272758D01*
X104128996Y-74124924D01*
X104128997Y-74124922D01*
X104235342Y-73995341D01*
X104364923Y-73888996D01*
X104380095Y-73880886D01*
X104512759Y-73809976D01*
X104673178Y-73761313D01*
X104840000Y-73744883D01*
X105006823Y-73761313D01*
G37*
G36*
X102466823Y-73761313D02*
G01*
X102627242Y-73809976D01*
X102759906Y-73880886D01*
X102775078Y-73888996D01*
X102904659Y-73995341D01*
X103011004Y-74124922D01*
X103011005Y-74124924D01*
X103090024Y-74272758D01*
X103138687Y-74433178D01*
X103151000Y-74558197D01*
X103151000Y-75441804D01*
X103138687Y-75566823D01*
X103090024Y-75727242D01*
X103042387Y-75816365D01*
X103011004Y-75875078D01*
X102904659Y-76004659D01*
X102775077Y-76111005D01*
X102627241Y-76190024D01*
X102466822Y-76238687D01*
X102300000Y-76255117D01*
X102133177Y-76238687D01*
X101972758Y-76190024D01*
X101824924Y-76111005D01*
X101824922Y-76111004D01*
X101695341Y-76004659D01*
X101588995Y-75875077D01*
X101509976Y-75727241D01*
X101461313Y-75566822D01*
X101449000Y-75441803D01*
X101449000Y-74558197D01*
X101461314Y-74433177D01*
X101509977Y-74272758D01*
X101588996Y-74124924D01*
X101588997Y-74124922D01*
X101695342Y-73995341D01*
X101824923Y-73888996D01*
X101840095Y-73880886D01*
X101972759Y-73809976D01*
X102133178Y-73761313D01*
X102300000Y-73744883D01*
X102466823Y-73761313D01*
G37*
G36*
X99926823Y-73761313D02*
G01*
X100087242Y-73809976D01*
X100219906Y-73880886D01*
X100235078Y-73888996D01*
X100364659Y-73995341D01*
X100471004Y-74124922D01*
X100471005Y-74124924D01*
X100550024Y-74272758D01*
X100598687Y-74433178D01*
X100611000Y-74558197D01*
X100611000Y-75441804D01*
X100598687Y-75566823D01*
X100550024Y-75727242D01*
X100502387Y-75816365D01*
X100471004Y-75875078D01*
X100364659Y-76004659D01*
X100235077Y-76111005D01*
X100087241Y-76190024D01*
X99926822Y-76238687D01*
X99760000Y-76255117D01*
X99593177Y-76238687D01*
X99432758Y-76190024D01*
X99284924Y-76111005D01*
X99284922Y-76111004D01*
X99155341Y-76004659D01*
X99048995Y-75875077D01*
X98969976Y-75727241D01*
X98921313Y-75566822D01*
X98909000Y-75441803D01*
X98909000Y-74558197D01*
X98921314Y-74433177D01*
X98969977Y-74272758D01*
X99048996Y-74124924D01*
X99048997Y-74124922D01*
X99155342Y-73995341D01*
X99284923Y-73888996D01*
X99300095Y-73880886D01*
X99432759Y-73809976D01*
X99593178Y-73761313D01*
X99760000Y-73744883D01*
X99926823Y-73761313D01*
G37*
G36*
X115851000Y-76251000D02*
G01*
X114149000Y-76251000D01*
X114149000Y-73749000D01*
X115851000Y-73749000D01*
X115851000Y-76251000D01*
G37*
G36*
X75306564Y-73989389D02*
G01*
X75497833Y-74068615D01*
X75497835Y-74068616D01*
X75669973Y-74183635D01*
X75816365Y-74330027D01*
X75885288Y-74433177D01*
X75931385Y-74502167D01*
X76010611Y-74693436D01*
X76051000Y-74896484D01*
X76051000Y-75103516D01*
X76010611Y-75306564D01*
X75954593Y-75441803D01*
X75931384Y-75497835D01*
X75816365Y-75669973D01*
X75669973Y-75816365D01*
X75497835Y-75931384D01*
X75497834Y-75931385D01*
X75497833Y-75931385D01*
X75306564Y-76010611D01*
X75103516Y-76051000D01*
X74896484Y-76051000D01*
X74693436Y-76010611D01*
X74502167Y-75931385D01*
X74502166Y-75931385D01*
X74502165Y-75931384D01*
X74330027Y-75816365D01*
X74183635Y-75669973D01*
X74068616Y-75497835D01*
X74045407Y-75441803D01*
X73989389Y-75306564D01*
X73949000Y-75103516D01*
X73949000Y-74896484D01*
X73989389Y-74693436D01*
X74068615Y-74502167D01*
X74114713Y-74433177D01*
X74183635Y-74330027D01*
X74330027Y-74183635D01*
X74502165Y-74068616D01*
X74502167Y-74068615D01*
X74693436Y-73989389D01*
X74896484Y-73949000D01*
X75103516Y-73949000D01*
X75306564Y-73989389D01*
G37*
G36*
X137806564Y-72289389D02*
G01*
X137997833Y-72368615D01*
X137997835Y-72368616D01*
X138039542Y-72396484D01*
X138169973Y-72483635D01*
X138316365Y-72630027D01*
X138431385Y-72802167D01*
X138510611Y-72993436D01*
X138551000Y-73196484D01*
X138551000Y-73403516D01*
X138510611Y-73606564D01*
X138431385Y-73797833D01*
X138431384Y-73797835D01*
X138316365Y-73969973D01*
X138169973Y-74116365D01*
X137997835Y-74231384D01*
X137997834Y-74231385D01*
X137997833Y-74231385D01*
X137806564Y-74310611D01*
X137603516Y-74351000D01*
X137396484Y-74351000D01*
X137193436Y-74310611D01*
X137002167Y-74231385D01*
X137002166Y-74231385D01*
X137002165Y-74231384D01*
X136830027Y-74116365D01*
X136683635Y-73969973D01*
X136568616Y-73797835D01*
X136568615Y-73797833D01*
X136489389Y-73606564D01*
X136449000Y-73403516D01*
X136449000Y-73196484D01*
X136489389Y-72993436D01*
X136568615Y-72802167D01*
X136683635Y-72630027D01*
X136830027Y-72483635D01*
X136960458Y-72396484D01*
X137002165Y-72368616D01*
X137002167Y-72368615D01*
X137193436Y-72289389D01*
X137396484Y-72249000D01*
X137603516Y-72249000D01*
X137806564Y-72289389D01*
G37*
G36*
X80306564Y-71609389D02*
G01*
X80485810Y-71683635D01*
X80497835Y-71688616D01*
X80669973Y-71803635D01*
X80816365Y-71950027D01*
X80851203Y-72002165D01*
X80931385Y-72122167D01*
X81010611Y-72313436D01*
X81051000Y-72516484D01*
X81051000Y-72723516D01*
X81010611Y-72926564D01*
X80931385Y-73117833D01*
X80931384Y-73117835D01*
X80816365Y-73289973D01*
X80669973Y-73436365D01*
X80497835Y-73551384D01*
X80497834Y-73551385D01*
X80497833Y-73551385D01*
X80306564Y-73630611D01*
X80103516Y-73671000D01*
X79896484Y-73671000D01*
X79693436Y-73630611D01*
X79502167Y-73551385D01*
X79502166Y-73551385D01*
X79502165Y-73551384D01*
X79330027Y-73436365D01*
X79183635Y-73289973D01*
X79068616Y-73117835D01*
X79068615Y-73117833D01*
X78989389Y-72926564D01*
X78949000Y-72723516D01*
X78949000Y-72516484D01*
X78989389Y-72313436D01*
X79068615Y-72122167D01*
X79148798Y-72002165D01*
X79183635Y-71950027D01*
X79330027Y-71803635D01*
X79502165Y-71688616D01*
X79514190Y-71683635D01*
X79693436Y-71609389D01*
X79896484Y-71569000D01*
X80103516Y-71569000D01*
X80306564Y-71609389D01*
G37*
G36*
X86051000Y-73651000D02*
G01*
X83949000Y-73651000D01*
X83949000Y-71549000D01*
X86051000Y-71549000D01*
X86051000Y-73651000D01*
G37*
G36*
X127806564Y-71489389D02*
G01*
X127997833Y-71568615D01*
X127997835Y-71568616D01*
X128169973Y-71683635D01*
X128316365Y-71830027D01*
X128431385Y-72002167D01*
X128510611Y-72193436D01*
X128551000Y-72396484D01*
X128551000Y-72603516D01*
X128510611Y-72806564D01*
X128460905Y-72926565D01*
X128431384Y-72997835D01*
X128316365Y-73169973D01*
X128169973Y-73316365D01*
X127997835Y-73431384D01*
X127997834Y-73431385D01*
X127997833Y-73431385D01*
X127806564Y-73510611D01*
X127603516Y-73551000D01*
X127396484Y-73551000D01*
X127193436Y-73510611D01*
X127002167Y-73431385D01*
X127002166Y-73431385D01*
X127002165Y-73431384D01*
X126830027Y-73316365D01*
X126683635Y-73169973D01*
X126568616Y-72997835D01*
X126539095Y-72926565D01*
X126489389Y-72806564D01*
X126449000Y-72603516D01*
X126449000Y-72396484D01*
X126489389Y-72193436D01*
X126568615Y-72002167D01*
X126683635Y-71830027D01*
X126830027Y-71683635D01*
X127002165Y-71568616D01*
X127002167Y-71568615D01*
X127193436Y-71489389D01*
X127396484Y-71449000D01*
X127603516Y-71449000D01*
X127806564Y-71489389D01*
G37*
G36*
X60598254Y-68527818D02*
G01*
X60971511Y-68682426D01*
X60971513Y-68682427D01*
X61307436Y-68906884D01*
X61593116Y-69192564D01*
X61799987Y-69502167D01*
X61817574Y-69528489D01*
X61972182Y-69901746D01*
X62051000Y-70297993D01*
X62051000Y-70702007D01*
X61972182Y-71098254D01*
X61958618Y-71131000D01*
X61817573Y-71471513D01*
X61593116Y-71807436D01*
X61307436Y-72093116D01*
X60971513Y-72317573D01*
X60971512Y-72317574D01*
X60971511Y-72317574D01*
X60598254Y-72472182D01*
X60202007Y-72551000D01*
X59797993Y-72551000D01*
X59401746Y-72472182D01*
X59028489Y-72317574D01*
X59028488Y-72317574D01*
X59028487Y-72317573D01*
X58692564Y-72093116D01*
X58406884Y-71807436D01*
X58182427Y-71471513D01*
X58041382Y-71131000D01*
X58027818Y-71098254D01*
X57949000Y-70702007D01*
X57949000Y-70297993D01*
X58027818Y-69901746D01*
X58182426Y-69528489D01*
X58200014Y-69502167D01*
X58406884Y-69192564D01*
X58692564Y-68906884D01*
X59028487Y-68682427D01*
X59028489Y-68682426D01*
X59401746Y-68527818D01*
X59797993Y-68449000D01*
X60202007Y-68449000D01*
X60598254Y-68527818D01*
G37*
G36*
X122806564Y-69069389D02*
G01*
X122997833Y-69148615D01*
X122997835Y-69148616D01*
X123169973Y-69263635D01*
X123316365Y-69410027D01*
X123380870Y-69506565D01*
X123431385Y-69582167D01*
X123510611Y-69773436D01*
X123551000Y-69976484D01*
X123551000Y-70183516D01*
X123510611Y-70386564D01*
X123464522Y-70497833D01*
X123431384Y-70577835D01*
X123316365Y-70749973D01*
X123169973Y-70896365D01*
X122997835Y-71011384D01*
X122997834Y-71011385D01*
X122997833Y-71011385D01*
X122806564Y-71090611D01*
X122603516Y-71131000D01*
X122396484Y-71131000D01*
X122193436Y-71090611D01*
X122002167Y-71011385D01*
X122002166Y-71011385D01*
X122002165Y-71011384D01*
X121830027Y-70896365D01*
X121683635Y-70749973D01*
X121568616Y-70577835D01*
X121535478Y-70497833D01*
X121489389Y-70386564D01*
X121449000Y-70183516D01*
X121449000Y-69976484D01*
X121489389Y-69773436D01*
X121568615Y-69582167D01*
X121619131Y-69506565D01*
X121683635Y-69410027D01*
X121830027Y-69263635D01*
X122002165Y-69148616D01*
X122002167Y-69148615D01*
X122193436Y-69069389D01*
X122396484Y-69029000D01*
X122603516Y-69029000D01*
X122806564Y-69069389D01*
G37*
G36*
X137806564Y-68989389D02*
G01*
X137997833Y-69068615D01*
X137997835Y-69068616D01*
X137998993Y-69069390D01*
X138169973Y-69183635D01*
X138316365Y-69330027D01*
X138431385Y-69502167D01*
X138510611Y-69693436D01*
X138551000Y-69896484D01*
X138551000Y-70103516D01*
X138510611Y-70306564D01*
X138431385Y-70497833D01*
X138431384Y-70497835D01*
X138316365Y-70669973D01*
X138169973Y-70816365D01*
X137997835Y-70931384D01*
X137997834Y-70931385D01*
X137997833Y-70931385D01*
X137806564Y-71010611D01*
X137603516Y-71051000D01*
X137396484Y-71051000D01*
X137193436Y-71010611D01*
X137002167Y-70931385D01*
X137002166Y-70931385D01*
X137002165Y-70931384D01*
X136830027Y-70816365D01*
X136683635Y-70669973D01*
X136568616Y-70497835D01*
X136568615Y-70497833D01*
X136489389Y-70306564D01*
X136449000Y-70103516D01*
X136449000Y-69896484D01*
X136489389Y-69693436D01*
X136568615Y-69502167D01*
X136683635Y-69330027D01*
X136830027Y-69183635D01*
X137001007Y-69069390D01*
X137002165Y-69068616D01*
X137002167Y-69068615D01*
X137193436Y-68989389D01*
X137396484Y-68949000D01*
X137603516Y-68949000D01*
X137806564Y-68989389D01*
G37*
G36*
X109806564Y-68989389D02*
G01*
X109997833Y-69068615D01*
X109997835Y-69068616D01*
X109998993Y-69069390D01*
X110169973Y-69183635D01*
X110316365Y-69330027D01*
X110431385Y-69502167D01*
X110510611Y-69693436D01*
X110551000Y-69896484D01*
X110551000Y-70103516D01*
X110510611Y-70306564D01*
X110431385Y-70497833D01*
X110431384Y-70497835D01*
X110316365Y-70669973D01*
X110169973Y-70816365D01*
X109997835Y-70931384D01*
X109997834Y-70931385D01*
X109997833Y-70931385D01*
X109806564Y-71010611D01*
X109603516Y-71051000D01*
X109396484Y-71051000D01*
X109193436Y-71010611D01*
X109002167Y-70931385D01*
X109002166Y-70931385D01*
X109002165Y-70931384D01*
X108830027Y-70816365D01*
X108683635Y-70669973D01*
X108568616Y-70497835D01*
X108568615Y-70497833D01*
X108489389Y-70306564D01*
X108449000Y-70103516D01*
X108449000Y-69896484D01*
X108489389Y-69693436D01*
X108568615Y-69502167D01*
X108683635Y-69330027D01*
X108830027Y-69183635D01*
X109001007Y-69069390D01*
X109002165Y-69068616D01*
X109002167Y-69068615D01*
X109193436Y-68989389D01*
X109396484Y-68949000D01*
X109603516Y-68949000D01*
X109806564Y-68989389D01*
G37*
G36*
X106506564Y-68989389D02*
G01*
X106697833Y-69068615D01*
X106697835Y-69068616D01*
X106698993Y-69069390D01*
X106869973Y-69183635D01*
X107016365Y-69330027D01*
X107131385Y-69502167D01*
X107210611Y-69693436D01*
X107251000Y-69896484D01*
X107251000Y-70103516D01*
X107210611Y-70306564D01*
X107131385Y-70497833D01*
X107131384Y-70497835D01*
X107016365Y-70669973D01*
X106869973Y-70816365D01*
X106697835Y-70931384D01*
X106697834Y-70931385D01*
X106697833Y-70931385D01*
X106506564Y-71010611D01*
X106303516Y-71051000D01*
X106096484Y-71051000D01*
X105893436Y-71010611D01*
X105702167Y-70931385D01*
X105702166Y-70931385D01*
X105702165Y-70931384D01*
X105530027Y-70816365D01*
X105383635Y-70669973D01*
X105268616Y-70497835D01*
X105268615Y-70497833D01*
X105189389Y-70306564D01*
X105149000Y-70103516D01*
X105149000Y-69896484D01*
X105189389Y-69693436D01*
X105268615Y-69502167D01*
X105383635Y-69330027D01*
X105530027Y-69183635D01*
X105701007Y-69069390D01*
X105702165Y-69068616D01*
X105702167Y-69068615D01*
X105893436Y-68989389D01*
X106096484Y-68949000D01*
X106303516Y-68949000D01*
X106506564Y-68989389D01*
G37*
G36*
X127806564Y-68189389D02*
G01*
X127997833Y-68268615D01*
X127997835Y-68268616D01*
X128169973Y-68383635D01*
X128316365Y-68530027D01*
X128431385Y-68702167D01*
X128510611Y-68893436D01*
X128551000Y-69096484D01*
X128551000Y-69303516D01*
X128510611Y-69506564D01*
X128501530Y-69528487D01*
X128431384Y-69697835D01*
X128316365Y-69869973D01*
X128169973Y-70016365D01*
X127997835Y-70131384D01*
X127997834Y-70131385D01*
X127997833Y-70131385D01*
X127806564Y-70210611D01*
X127603516Y-70251000D01*
X127396484Y-70251000D01*
X127193436Y-70210611D01*
X127002167Y-70131385D01*
X127002166Y-70131385D01*
X127002165Y-70131384D01*
X126830027Y-70016365D01*
X126683635Y-69869973D01*
X126568616Y-69697835D01*
X126498470Y-69528487D01*
X126489389Y-69506564D01*
X126449000Y-69303516D01*
X126449000Y-69096484D01*
X126489389Y-68893436D01*
X126568615Y-68702167D01*
X126683635Y-68530027D01*
X126830027Y-68383635D01*
X127002165Y-68268616D01*
X127002167Y-68268615D01*
X127193436Y-68189389D01*
X127396484Y-68149000D01*
X127603516Y-68149000D01*
X127806564Y-68189389D01*
G37*
G36*
X122806564Y-66529389D02*
G01*
X122997833Y-66608615D01*
X122997835Y-66608616D01*
X123169973Y-66723635D01*
X123316365Y-66870027D01*
X123431385Y-67042167D01*
X123510611Y-67233436D01*
X123551000Y-67436484D01*
X123551000Y-67643516D01*
X123510611Y-67846564D01*
X123431385Y-68037833D01*
X123431384Y-68037835D01*
X123316365Y-68209973D01*
X123169973Y-68356365D01*
X122997835Y-68471384D01*
X122997834Y-68471385D01*
X122997833Y-68471385D01*
X122806564Y-68550611D01*
X122603516Y-68591000D01*
X122396484Y-68591000D01*
X122193436Y-68550611D01*
X122002167Y-68471385D01*
X122002166Y-68471385D01*
X122002165Y-68471384D01*
X121830027Y-68356365D01*
X121683635Y-68209973D01*
X121568616Y-68037835D01*
X121568615Y-68037833D01*
X121489389Y-67846564D01*
X121449000Y-67643516D01*
X121449000Y-67436484D01*
X121489389Y-67233436D01*
X121568615Y-67042167D01*
X121683635Y-66870027D01*
X121830027Y-66723635D01*
X122002165Y-66608616D01*
X122002167Y-66608615D01*
X122193436Y-66529389D01*
X122396484Y-66489000D01*
X122603516Y-66489000D01*
X122806564Y-66529389D01*
G37*
G36*
X60598254Y-63527818D02*
G01*
X60971511Y-63682426D01*
X60971513Y-63682427D01*
X61307436Y-63906884D01*
X61593116Y-64192564D01*
X61799987Y-64502167D01*
X61817574Y-64528489D01*
X61972182Y-64901746D01*
X62051000Y-65297993D01*
X62051000Y-65702007D01*
X61972182Y-66098254D01*
X61925481Y-66211000D01*
X61817573Y-66471513D01*
X61593116Y-66807436D01*
X61307436Y-67093116D01*
X60971513Y-67317573D01*
X60971512Y-67317574D01*
X60971511Y-67317574D01*
X60598254Y-67472182D01*
X60202007Y-67551000D01*
X59797993Y-67551000D01*
X59401746Y-67472182D01*
X59028489Y-67317574D01*
X59028488Y-67317574D01*
X59028487Y-67317573D01*
X58692564Y-67093116D01*
X58406884Y-66807436D01*
X58182427Y-66471513D01*
X58074519Y-66211000D01*
X58027818Y-66098254D01*
X57949000Y-65702007D01*
X57949000Y-65297993D01*
X58027818Y-64901746D01*
X58182426Y-64528489D01*
X58200014Y-64502167D01*
X58406884Y-64192564D01*
X58692564Y-63906884D01*
X59028487Y-63682427D01*
X59028489Y-63682426D01*
X59401746Y-63527818D01*
X59797993Y-63449000D01*
X60202007Y-63449000D01*
X60598254Y-63527818D01*
G37*
G36*
X105306564Y-64149389D02*
G01*
X105497833Y-64228615D01*
X105497835Y-64228616D01*
X105669973Y-64343635D01*
X105816365Y-64490027D01*
X105842065Y-64528489D01*
X105931385Y-64662167D01*
X106010611Y-64853436D01*
X106051000Y-65056484D01*
X106051000Y-65263516D01*
X106010611Y-65466564D01*
X105997658Y-65497835D01*
X105931384Y-65657835D01*
X105816365Y-65829973D01*
X105669973Y-65976365D01*
X105497835Y-66091384D01*
X105497834Y-66091385D01*
X105497833Y-66091385D01*
X105306564Y-66170611D01*
X105103516Y-66211000D01*
X104896484Y-66211000D01*
X104693436Y-66170611D01*
X104502167Y-66091385D01*
X104502166Y-66091385D01*
X104502165Y-66091384D01*
X104330027Y-65976365D01*
X104183635Y-65829973D01*
X104068616Y-65657835D01*
X104002342Y-65497835D01*
X103989389Y-65466564D01*
X103949000Y-65263516D01*
X103949000Y-65056484D01*
X103989389Y-64853436D01*
X104068615Y-64662167D01*
X104157936Y-64528489D01*
X104183635Y-64490027D01*
X104330027Y-64343635D01*
X104502165Y-64228616D01*
X104502167Y-64228615D01*
X104693436Y-64149389D01*
X104896484Y-64109000D01*
X105103516Y-64109000D01*
X105306564Y-64149389D01*
G37*
G36*
X127806564Y-63989389D02*
G01*
X127997833Y-64068615D01*
X127997835Y-64068616D01*
X128169973Y-64183635D01*
X128316365Y-64330027D01*
X128423274Y-64490027D01*
X128431385Y-64502167D01*
X128510611Y-64693436D01*
X128551000Y-64896484D01*
X128551000Y-65103516D01*
X128510611Y-65306564D01*
X128439669Y-65477833D01*
X128431384Y-65497835D01*
X128316365Y-65669973D01*
X128169973Y-65816365D01*
X127997835Y-65931384D01*
X127997834Y-65931385D01*
X127997833Y-65931385D01*
X127806564Y-66010611D01*
X127603516Y-66051000D01*
X127396484Y-66051000D01*
X127193436Y-66010611D01*
X127002167Y-65931385D01*
X127002166Y-65931385D01*
X127002165Y-65931384D01*
X126830027Y-65816365D01*
X126683635Y-65669973D01*
X126568616Y-65497835D01*
X126560331Y-65477833D01*
X126489389Y-65306564D01*
X126449000Y-65103516D01*
X126449000Y-64896484D01*
X126489389Y-64693436D01*
X126568615Y-64502167D01*
X126576727Y-64490027D01*
X126683635Y-64330027D01*
X126830027Y-64183635D01*
X127002165Y-64068616D01*
X127002167Y-64068615D01*
X127193436Y-63989389D01*
X127396484Y-63949000D01*
X127603516Y-63949000D01*
X127806564Y-63989389D01*
G37*
G36*
X81051000Y-66051000D02*
G01*
X78949000Y-66051000D01*
X78949000Y-63949000D01*
X81051000Y-63949000D01*
X81051000Y-66051000D01*
G37*
G36*
X123551000Y-66051000D02*
G01*
X121449000Y-66051000D01*
X121449000Y-63949000D01*
X123551000Y-63949000D01*
X123551000Y-66051000D01*
G37*
G36*
X132806564Y-63989389D02*
G01*
X132997833Y-64068615D01*
X132997835Y-64068616D01*
X133169973Y-64183635D01*
X133316365Y-64330027D01*
X133423274Y-64490027D01*
X133431385Y-64502167D01*
X133510611Y-64693436D01*
X133551000Y-64896484D01*
X133551000Y-65103516D01*
X133510611Y-65306564D01*
X133439669Y-65477833D01*
X133431384Y-65497835D01*
X133316365Y-65669973D01*
X133169973Y-65816365D01*
X132997835Y-65931384D01*
X132997834Y-65931385D01*
X132997833Y-65931385D01*
X132806564Y-66010611D01*
X132603516Y-66051000D01*
X132396484Y-66051000D01*
X132193436Y-66010611D01*
X132002167Y-65931385D01*
X132002166Y-65931385D01*
X132002165Y-65931384D01*
X131830027Y-65816365D01*
X131683635Y-65669973D01*
X131568616Y-65497835D01*
X131560331Y-65477833D01*
X131489389Y-65306564D01*
X131449000Y-65103516D01*
X131449000Y-64896484D01*
X131489389Y-64693436D01*
X131568615Y-64502167D01*
X131576727Y-64490027D01*
X131683635Y-64330027D01*
X131830027Y-64183635D01*
X132002165Y-64068616D01*
X132002167Y-64068615D01*
X132193436Y-63989389D01*
X132396484Y-63949000D01*
X132603516Y-63949000D01*
X132806564Y-63989389D01*
G37*
G36*
X138551000Y-66051000D02*
G01*
X136449000Y-66051000D01*
X136449000Y-63949000D01*
X138551000Y-63949000D01*
X138551000Y-66051000D01*
G37*
G36*
X95306564Y-63989389D02*
G01*
X95497833Y-64068615D01*
X95497835Y-64068616D01*
X95669973Y-64183635D01*
X95816365Y-64330027D01*
X95923274Y-64490027D01*
X95931385Y-64502167D01*
X96010611Y-64693436D01*
X96051000Y-64896484D01*
X96051000Y-65103516D01*
X96010611Y-65306564D01*
X95939669Y-65477833D01*
X95931384Y-65497835D01*
X95816365Y-65669973D01*
X95669973Y-65816365D01*
X95497835Y-65931384D01*
X95497834Y-65931385D01*
X95497833Y-65931385D01*
X95306564Y-66010611D01*
X95103516Y-66051000D01*
X94896484Y-66051000D01*
X94693436Y-66010611D01*
X94502167Y-65931385D01*
X94502166Y-65931385D01*
X94502165Y-65931384D01*
X94330027Y-65816365D01*
X94183635Y-65669973D01*
X94068616Y-65497835D01*
X94060331Y-65477833D01*
X93989389Y-65306564D01*
X93949000Y-65103516D01*
X93949000Y-64896484D01*
X93989389Y-64693436D01*
X94068615Y-64502167D01*
X94076727Y-64490027D01*
X94183635Y-64330027D01*
X94330027Y-64183635D01*
X94502165Y-64068616D01*
X94502167Y-64068615D01*
X94693436Y-63989389D01*
X94896484Y-63949000D01*
X95103516Y-63949000D01*
X95306564Y-63989389D01*
G37*
G36*
X85306564Y-63969389D02*
G01*
X85497833Y-64048615D01*
X85497835Y-64048616D01*
X85527767Y-64068616D01*
X85669973Y-64163635D01*
X85816365Y-64310027D01*
X85931385Y-64482167D01*
X86010611Y-64673436D01*
X86051000Y-64876484D01*
X86051000Y-65083516D01*
X86010611Y-65286564D01*
X85936053Y-65466564D01*
X85931384Y-65477835D01*
X85816365Y-65649973D01*
X85669973Y-65796365D01*
X85497835Y-65911384D01*
X85497834Y-65911385D01*
X85497833Y-65911385D01*
X85306564Y-65990611D01*
X85103516Y-66031000D01*
X84896484Y-66031000D01*
X84693436Y-65990611D01*
X84502167Y-65911385D01*
X84502166Y-65911385D01*
X84502165Y-65911384D01*
X84330027Y-65796365D01*
X84183635Y-65649973D01*
X84068616Y-65477835D01*
X84063947Y-65466564D01*
X83989389Y-65286564D01*
X83949000Y-65083516D01*
X83949000Y-64876484D01*
X83989389Y-64673436D01*
X84068615Y-64482167D01*
X84183635Y-64310027D01*
X84330027Y-64163635D01*
X84472233Y-64068616D01*
X84502165Y-64048616D01*
X84502167Y-64048615D01*
X84693436Y-63969389D01*
X84896484Y-63929000D01*
X85103516Y-63929000D01*
X85306564Y-63969389D01*
G37*
G36*
X75306564Y-63829389D02*
G01*
X75493654Y-63906884D01*
X75497835Y-63908616D01*
X75669973Y-64023635D01*
X75816365Y-64170027D01*
X75923274Y-64330027D01*
X75931385Y-64342167D01*
X76010611Y-64533436D01*
X76051000Y-64736484D01*
X76051000Y-64943516D01*
X76010611Y-65146564D01*
X75931385Y-65337833D01*
X75931384Y-65337835D01*
X75816365Y-65509973D01*
X75669973Y-65656365D01*
X75497835Y-65771384D01*
X75497834Y-65771385D01*
X75497833Y-65771385D01*
X75306564Y-65850611D01*
X75103516Y-65891000D01*
X74896484Y-65891000D01*
X74693436Y-65850611D01*
X74502167Y-65771385D01*
X74502166Y-65771385D01*
X74502165Y-65771384D01*
X74330027Y-65656365D01*
X74183635Y-65509973D01*
X74068616Y-65337835D01*
X74068615Y-65337833D01*
X73989389Y-65146564D01*
X73949000Y-64943516D01*
X73949000Y-64736484D01*
X73989389Y-64533436D01*
X74068615Y-64342167D01*
X74076727Y-64330027D01*
X74183635Y-64170027D01*
X74330027Y-64023635D01*
X74502165Y-63908616D01*
X74506346Y-63906884D01*
X74693436Y-63829389D01*
X74896484Y-63789000D01*
X75103516Y-63789000D01*
X75306564Y-63829389D01*
G37*
G36*
X91051000Y-65176001D02*
G01*
X88949000Y-65176001D01*
X88949000Y-63074001D01*
X91051000Y-63074001D01*
X91051000Y-65176001D01*
G37*
G36*
X62051000Y-62551000D02*
G01*
X57949000Y-62551000D01*
X57949000Y-58449000D01*
X62051000Y-58449000D01*
X62051000Y-62551000D01*
G37*
G36*
X122806564Y-59069389D02*
G01*
X122997833Y-59148615D01*
X122997835Y-59148616D01*
X123064911Y-59193435D01*
X123169973Y-59263635D01*
X123316365Y-59410027D01*
X123431385Y-59582167D01*
X123510611Y-59773436D01*
X123551000Y-59976484D01*
X123551000Y-60183516D01*
X123510611Y-60386564D01*
X123431385Y-60577833D01*
X123431384Y-60577835D01*
X123316365Y-60749973D01*
X123169973Y-60896365D01*
X122997835Y-61011384D01*
X122997834Y-61011385D01*
X122997833Y-61011385D01*
X122806564Y-61090611D01*
X122603516Y-61131000D01*
X122396484Y-61131000D01*
X122193436Y-61090611D01*
X122002167Y-61011385D01*
X122002166Y-61011385D01*
X122002165Y-61011384D01*
X121830027Y-60896365D01*
X121683635Y-60749973D01*
X121568616Y-60577835D01*
X121568615Y-60577833D01*
X121489389Y-60386564D01*
X121449000Y-60183516D01*
X121449000Y-59976484D01*
X121489389Y-59773436D01*
X121568615Y-59582167D01*
X121683635Y-59410027D01*
X121830027Y-59263635D01*
X121935089Y-59193435D01*
X122002165Y-59148616D01*
X122002167Y-59148615D01*
X122193436Y-59069389D01*
X122396484Y-59029000D01*
X122603516Y-59029000D01*
X122806564Y-59069389D01*
G37*
G36*
X100306564Y-59069389D02*
G01*
X100497833Y-59148615D01*
X100497835Y-59148616D01*
X100564911Y-59193435D01*
X100669973Y-59263635D01*
X100816365Y-59410027D01*
X100931385Y-59582167D01*
X101010611Y-59773436D01*
X101051000Y-59976484D01*
X101051000Y-60183516D01*
X101010611Y-60386564D01*
X100931385Y-60577833D01*
X100931384Y-60577835D01*
X100816365Y-60749973D01*
X100669973Y-60896365D01*
X100497835Y-61011384D01*
X100497834Y-61011385D01*
X100497833Y-61011385D01*
X100306564Y-61090611D01*
X100103516Y-61131000D01*
X99896484Y-61131000D01*
X99693436Y-61090611D01*
X99502167Y-61011385D01*
X99502166Y-61011385D01*
X99502165Y-61011384D01*
X99330027Y-60896365D01*
X99183635Y-60749973D01*
X99068616Y-60577835D01*
X99068615Y-60577833D01*
X98989389Y-60386564D01*
X98949000Y-60183516D01*
X98949000Y-59976484D01*
X98989389Y-59773436D01*
X99068615Y-59582167D01*
X99183635Y-59410027D01*
X99330027Y-59263635D01*
X99435089Y-59193435D01*
X99502165Y-59148616D01*
X99502167Y-59148615D01*
X99693436Y-59069389D01*
X99896484Y-59029000D01*
X100103516Y-59029000D01*
X100306564Y-59069389D01*
G37*
G36*
X85306564Y-58489389D02*
G01*
X85454367Y-58550611D01*
X85497835Y-58568616D01*
X85531335Y-58591000D01*
X85669973Y-58683635D01*
X85816365Y-58830027D01*
X85931385Y-59002167D01*
X86010611Y-59193436D01*
X86051000Y-59396484D01*
X86051000Y-59603516D01*
X86010611Y-59806564D01*
X85940228Y-59976484D01*
X85931384Y-59997835D01*
X85816365Y-60169973D01*
X85669973Y-60316365D01*
X85497835Y-60431384D01*
X85497834Y-60431385D01*
X85497833Y-60431385D01*
X85306564Y-60510611D01*
X85103516Y-60551000D01*
X84896484Y-60551000D01*
X84693436Y-60510611D01*
X84502167Y-60431385D01*
X84502166Y-60431385D01*
X84502165Y-60431384D01*
X84330027Y-60316365D01*
X84183635Y-60169973D01*
X84068616Y-59997835D01*
X84059772Y-59976484D01*
X83989389Y-59806564D01*
X83949000Y-59603516D01*
X83949000Y-59396484D01*
X83989389Y-59193436D01*
X84068615Y-59002167D01*
X84183635Y-58830027D01*
X84330027Y-58683635D01*
X84468665Y-58591000D01*
X84502165Y-58568616D01*
X84545633Y-58550611D01*
X84693436Y-58489389D01*
X84896484Y-58449000D01*
X85103516Y-58449000D01*
X85306564Y-58489389D01*
G37*
G36*
X80306564Y-58489389D02*
G01*
X80454367Y-58550611D01*
X80497835Y-58568616D01*
X80531335Y-58591000D01*
X80669973Y-58683635D01*
X80816365Y-58830027D01*
X80931385Y-59002167D01*
X81010611Y-59193436D01*
X81051000Y-59396484D01*
X81051000Y-59603516D01*
X81010611Y-59806564D01*
X80940228Y-59976484D01*
X80931384Y-59997835D01*
X80816365Y-60169973D01*
X80669973Y-60316365D01*
X80497835Y-60431384D01*
X80497834Y-60431385D01*
X80497833Y-60431385D01*
X80306564Y-60510611D01*
X80103516Y-60551000D01*
X79896484Y-60551000D01*
X79693436Y-60510611D01*
X79502167Y-60431385D01*
X79502166Y-60431385D01*
X79502165Y-60431384D01*
X79330027Y-60316365D01*
X79183635Y-60169973D01*
X79068616Y-59997835D01*
X79059772Y-59976484D01*
X78989389Y-59806564D01*
X78949000Y-59603516D01*
X78949000Y-59396484D01*
X78989389Y-59193436D01*
X79068615Y-59002167D01*
X79183635Y-58830027D01*
X79330027Y-58683635D01*
X79468665Y-58591000D01*
X79502165Y-58568616D01*
X79545633Y-58550611D01*
X79693436Y-58489389D01*
X79896484Y-58449000D01*
X80103516Y-58449000D01*
X80306564Y-58489389D01*
G37*
G36*
X122806564Y-56529389D02*
G01*
X122997596Y-56608517D01*
X122997835Y-56608616D01*
X123149607Y-56710027D01*
X123169973Y-56723635D01*
X123316365Y-56870027D01*
X123431385Y-57042167D01*
X123510611Y-57233436D01*
X123551000Y-57436484D01*
X123551000Y-57643516D01*
X123510611Y-57846564D01*
X123497658Y-57877835D01*
X123431384Y-58037835D01*
X123316365Y-58209973D01*
X123169973Y-58356365D01*
X122997835Y-58471384D01*
X122997834Y-58471385D01*
X122997833Y-58471385D01*
X122806564Y-58550611D01*
X122603516Y-58591000D01*
X122396484Y-58591000D01*
X122193436Y-58550611D01*
X122002167Y-58471385D01*
X122002166Y-58471385D01*
X122002165Y-58471384D01*
X121830027Y-58356365D01*
X121683635Y-58209973D01*
X121568616Y-58037835D01*
X121502342Y-57877835D01*
X121489389Y-57846564D01*
X121449000Y-57643516D01*
X121449000Y-57436484D01*
X121489389Y-57233436D01*
X121568615Y-57042167D01*
X121683635Y-56870027D01*
X121830027Y-56723635D01*
X121850393Y-56710027D01*
X122002165Y-56608616D01*
X122002404Y-56608517D01*
X122193436Y-56529389D01*
X122396484Y-56489000D01*
X122603516Y-56489000D01*
X122806564Y-56529389D01*
G37*
G36*
X100306564Y-56529389D02*
G01*
X100497596Y-56608517D01*
X100497835Y-56608616D01*
X100649607Y-56710027D01*
X100669973Y-56723635D01*
X100816365Y-56870027D01*
X100931385Y-57042167D01*
X101010611Y-57233436D01*
X101051000Y-57436484D01*
X101051000Y-57643516D01*
X101010611Y-57846564D01*
X100997658Y-57877835D01*
X100931384Y-58037835D01*
X100816365Y-58209973D01*
X100669973Y-58356365D01*
X100497835Y-58471384D01*
X100497834Y-58471385D01*
X100497833Y-58471385D01*
X100306564Y-58550611D01*
X100103516Y-58591000D01*
X99896484Y-58591000D01*
X99693436Y-58550611D01*
X99502167Y-58471385D01*
X99502166Y-58471385D01*
X99502165Y-58471384D01*
X99330027Y-58356365D01*
X99183635Y-58209973D01*
X99068616Y-58037835D01*
X99002342Y-57877835D01*
X98989389Y-57846564D01*
X98949000Y-57643516D01*
X98949000Y-57436484D01*
X98989389Y-57233436D01*
X99068615Y-57042167D01*
X99183635Y-56870027D01*
X99330027Y-56723635D01*
X99350393Y-56710027D01*
X99502165Y-56608616D01*
X99502404Y-56608517D01*
X99693436Y-56529389D01*
X99896484Y-56489000D01*
X100103516Y-56489000D01*
X100306564Y-56529389D01*
G37*
G36*
X137806564Y-56369389D02*
G01*
X137997833Y-56448615D01*
X137997835Y-56448616D01*
X138169973Y-56563635D01*
X138316365Y-56710027D01*
X138423274Y-56870027D01*
X138431385Y-56882167D01*
X138510611Y-57073436D01*
X138551000Y-57276484D01*
X138551000Y-57483516D01*
X138510611Y-57686564D01*
X138431385Y-57877833D01*
X138431384Y-57877835D01*
X138316365Y-58049973D01*
X138169973Y-58196365D01*
X137997835Y-58311384D01*
X137997834Y-58311385D01*
X137997833Y-58311385D01*
X137806564Y-58390611D01*
X137603516Y-58431000D01*
X137396484Y-58431000D01*
X137193436Y-58390611D01*
X137002167Y-58311385D01*
X137002166Y-58311385D01*
X137002165Y-58311384D01*
X136830027Y-58196365D01*
X136683635Y-58049973D01*
X136568616Y-57877835D01*
X136568615Y-57877833D01*
X136489389Y-57686564D01*
X136449000Y-57483516D01*
X136449000Y-57276484D01*
X136489389Y-57073436D01*
X136568615Y-56882167D01*
X136576727Y-56870027D01*
X136683635Y-56710027D01*
X136830027Y-56563635D01*
X137002165Y-56448616D01*
X137002167Y-56448615D01*
X137193436Y-56369389D01*
X137396484Y-56329000D01*
X137603516Y-56329000D01*
X137806564Y-56369389D01*
G37*
G36*
X90306564Y-55494390D02*
G01*
X90497833Y-55573616D01*
X90497835Y-55573617D01*
X90621676Y-55656365D01*
X90669973Y-55688636D01*
X90816365Y-55835028D01*
X90931385Y-56007168D01*
X91010611Y-56198437D01*
X91051000Y-56401485D01*
X91051000Y-56608517D01*
X91010611Y-56811565D01*
X90931385Y-57002834D01*
X90931384Y-57002836D01*
X90816365Y-57174974D01*
X90669973Y-57321366D01*
X90497835Y-57436385D01*
X90497834Y-57436386D01*
X90497833Y-57436386D01*
X90306564Y-57515612D01*
X90103516Y-57556001D01*
X89896484Y-57556001D01*
X89693436Y-57515612D01*
X89502167Y-57436386D01*
X89502166Y-57436386D01*
X89502165Y-57436385D01*
X89330027Y-57321366D01*
X89183635Y-57174974D01*
X89068616Y-57002836D01*
X89068615Y-57002834D01*
X88989389Y-56811565D01*
X88949000Y-56608517D01*
X88949000Y-56401485D01*
X88989389Y-56198437D01*
X89068615Y-56007168D01*
X89183635Y-55835028D01*
X89330027Y-55688636D01*
X89378324Y-55656365D01*
X89502165Y-55573617D01*
X89502167Y-55573616D01*
X89693436Y-55494390D01*
X89896484Y-55454001D01*
X90103516Y-55454001D01*
X90306564Y-55494390D01*
G37*
G36*
X85306564Y-55189389D02*
G01*
X85497833Y-55268615D01*
X85497835Y-55268616D01*
X85601428Y-55337835D01*
X85669973Y-55383635D01*
X85816365Y-55530027D01*
X85931385Y-55702167D01*
X86010611Y-55893436D01*
X86051000Y-56096484D01*
X86051000Y-56303516D01*
X86010611Y-56506564D01*
X85931385Y-56697833D01*
X85931384Y-56697835D01*
X85816365Y-56869973D01*
X85669973Y-57016365D01*
X85497835Y-57131384D01*
X85497834Y-57131385D01*
X85497833Y-57131385D01*
X85306564Y-57210611D01*
X85103516Y-57251000D01*
X84896484Y-57251000D01*
X84693436Y-57210611D01*
X84502167Y-57131385D01*
X84502166Y-57131385D01*
X84502165Y-57131384D01*
X84330027Y-57016365D01*
X84183635Y-56869973D01*
X84068616Y-56697835D01*
X84068615Y-56697833D01*
X83989389Y-56506564D01*
X83949000Y-56303516D01*
X83949000Y-56096484D01*
X83989389Y-55893436D01*
X84068615Y-55702167D01*
X84183635Y-55530027D01*
X84330027Y-55383635D01*
X84398572Y-55337835D01*
X84502165Y-55268616D01*
X84502167Y-55268615D01*
X84693436Y-55189389D01*
X84896484Y-55149000D01*
X85103516Y-55149000D01*
X85306564Y-55189389D01*
G37*
G36*
X80306564Y-55189389D02*
G01*
X80497833Y-55268615D01*
X80497835Y-55268616D01*
X80601428Y-55337835D01*
X80669973Y-55383635D01*
X80816365Y-55530027D01*
X80931385Y-55702167D01*
X81010611Y-55893436D01*
X81051000Y-56096484D01*
X81051000Y-56303516D01*
X81010611Y-56506564D01*
X80931385Y-56697833D01*
X80931384Y-56697835D01*
X80816365Y-56869973D01*
X80669973Y-57016365D01*
X80497835Y-57131384D01*
X80497834Y-57131385D01*
X80497833Y-57131385D01*
X80306564Y-57210611D01*
X80103516Y-57251000D01*
X79896484Y-57251000D01*
X79693436Y-57210611D01*
X79502167Y-57131385D01*
X79502166Y-57131385D01*
X79502165Y-57131384D01*
X79330027Y-57016365D01*
X79183635Y-56869973D01*
X79068616Y-56697835D01*
X79068615Y-56697833D01*
X78989389Y-56506564D01*
X78949000Y-56303516D01*
X78949000Y-56096484D01*
X78989389Y-55893436D01*
X79068615Y-55702167D01*
X79183635Y-55530027D01*
X79330027Y-55383635D01*
X79398572Y-55337835D01*
X79502165Y-55268616D01*
X79502167Y-55268615D01*
X79693436Y-55189389D01*
X79896484Y-55149000D01*
X80103516Y-55149000D01*
X80306564Y-55189389D01*
G37*
G36*
X105306564Y-53989389D02*
G01*
X105497833Y-54068615D01*
X105497835Y-54068616D01*
X105649607Y-54170027D01*
X105669973Y-54183635D01*
X105816365Y-54330027D01*
X105931385Y-54502167D01*
X106010611Y-54693436D01*
X106051000Y-54896484D01*
X106051000Y-55103516D01*
X106010611Y-55306564D01*
X105932811Y-55494390D01*
X105931384Y-55497835D01*
X105816365Y-55669973D01*
X105669973Y-55816365D01*
X105497835Y-55931384D01*
X105497834Y-55931385D01*
X105497833Y-55931385D01*
X105306564Y-56010611D01*
X105103516Y-56051000D01*
X104896484Y-56051000D01*
X104693436Y-56010611D01*
X104502167Y-55931385D01*
X104502166Y-55931385D01*
X104502165Y-55931384D01*
X104330027Y-55816365D01*
X104183635Y-55669973D01*
X104068616Y-55497835D01*
X104067189Y-55494390D01*
X103989389Y-55306564D01*
X103949000Y-55103516D01*
X103949000Y-54896484D01*
X103989389Y-54693436D01*
X104068615Y-54502167D01*
X104183635Y-54330027D01*
X104330027Y-54183635D01*
X104350393Y-54170027D01*
X104502165Y-54068616D01*
X104502167Y-54068615D01*
X104693436Y-53989389D01*
X104896484Y-53949000D01*
X105103516Y-53949000D01*
X105306564Y-53989389D01*
G37*
G36*
X123551000Y-56051000D02*
G01*
X121449000Y-56051000D01*
X121449000Y-53949000D01*
X123551000Y-53949000D01*
X123551000Y-56051000D01*
G37*
G36*
X101051000Y-56051000D02*
G01*
X98949000Y-56051000D01*
X98949000Y-53949000D01*
X101051000Y-53949000D01*
X101051000Y-56051000D01*
G37*
G36*
X127806564Y-53829389D02*
G01*
X127997833Y-53908615D01*
X127997835Y-53908616D01*
X128169973Y-54023635D01*
X128316365Y-54170027D01*
X128423274Y-54330027D01*
X128431385Y-54342167D01*
X128510611Y-54533436D01*
X128551000Y-54736484D01*
X128551000Y-54943516D01*
X128510611Y-55146564D01*
X128431385Y-55337833D01*
X128431384Y-55337835D01*
X128316365Y-55509973D01*
X128169973Y-55656365D01*
X127997835Y-55771384D01*
X127997834Y-55771385D01*
X127997833Y-55771385D01*
X127806564Y-55850611D01*
X127603516Y-55891000D01*
X127396484Y-55891000D01*
X127193436Y-55850611D01*
X127002167Y-55771385D01*
X127002166Y-55771385D01*
X127002165Y-55771384D01*
X126830027Y-55656365D01*
X126683635Y-55509973D01*
X126568616Y-55337835D01*
X126568615Y-55337833D01*
X126489389Y-55146564D01*
X126449000Y-54943516D01*
X126449000Y-54736484D01*
X126489389Y-54533436D01*
X126568615Y-54342167D01*
X126576727Y-54330027D01*
X126683635Y-54170027D01*
X126830027Y-54023635D01*
X127002165Y-53908616D01*
X127002167Y-53908615D01*
X127193436Y-53829389D01*
X127396484Y-53789000D01*
X127603516Y-53789000D01*
X127806564Y-53829389D01*
G37*
G36*
X95306564Y-53829389D02*
G01*
X95497833Y-53908615D01*
X95497835Y-53908616D01*
X95669973Y-54023635D01*
X95816365Y-54170027D01*
X95923274Y-54330027D01*
X95931385Y-54342167D01*
X96010611Y-54533436D01*
X96051000Y-54736484D01*
X96051000Y-54943516D01*
X96010611Y-55146564D01*
X95931385Y-55337833D01*
X95931384Y-55337835D01*
X95816365Y-55509973D01*
X95669973Y-55656365D01*
X95497835Y-55771384D01*
X95497834Y-55771385D01*
X95497833Y-55771385D01*
X95306564Y-55850611D01*
X95103516Y-55891000D01*
X94896484Y-55891000D01*
X94693436Y-55850611D01*
X94502167Y-55771385D01*
X94502166Y-55771385D01*
X94502165Y-55771384D01*
X94330027Y-55656365D01*
X94183635Y-55509973D01*
X94068616Y-55337835D01*
X94068615Y-55337833D01*
X93989389Y-55146564D01*
X93949000Y-54943516D01*
X93949000Y-54736484D01*
X93989389Y-54533436D01*
X94068615Y-54342167D01*
X94076727Y-54330027D01*
X94183635Y-54170027D01*
X94330027Y-54023635D01*
X94502165Y-53908616D01*
X94502167Y-53908615D01*
X94693436Y-53829389D01*
X94896484Y-53789000D01*
X95103516Y-53789000D01*
X95306564Y-53829389D01*
G37*
G36*
X132806564Y-53829389D02*
G01*
X132997833Y-53908615D01*
X132997835Y-53908616D01*
X133169973Y-54023635D01*
X133316365Y-54170027D01*
X133423274Y-54330027D01*
X133431385Y-54342167D01*
X133510611Y-54533436D01*
X133551000Y-54736484D01*
X133551000Y-54943516D01*
X133510611Y-55146564D01*
X133431385Y-55337833D01*
X133431384Y-55337835D01*
X133316365Y-55509973D01*
X133169973Y-55656365D01*
X132997835Y-55771384D01*
X132997834Y-55771385D01*
X132997833Y-55771385D01*
X132806564Y-55850611D01*
X132603516Y-55891000D01*
X132396484Y-55891000D01*
X132193436Y-55850611D01*
X132002167Y-55771385D01*
X132002166Y-55771385D01*
X132002165Y-55771384D01*
X131830027Y-55656365D01*
X131683635Y-55509973D01*
X131568616Y-55337835D01*
X131568615Y-55337833D01*
X131489389Y-55146564D01*
X131449000Y-54943516D01*
X131449000Y-54736484D01*
X131489389Y-54533436D01*
X131568615Y-54342167D01*
X131576727Y-54330027D01*
X131683635Y-54170027D01*
X131830027Y-54023635D01*
X132002165Y-53908616D01*
X132002167Y-53908615D01*
X132193436Y-53829389D01*
X132396484Y-53789000D01*
X132603516Y-53789000D01*
X132806564Y-53829389D01*
G37*
G36*
X60598254Y-49027818D02*
G01*
X60971511Y-49182426D01*
X60971513Y-49182427D01*
X61307436Y-49406884D01*
X61593116Y-49692564D01*
X61729373Y-49896486D01*
X61817574Y-50028489D01*
X61972182Y-50401746D01*
X62051000Y-50797993D01*
X62051000Y-51202007D01*
X61972182Y-51598254D01*
X61817574Y-51971511D01*
X61817573Y-51971513D01*
X61593116Y-52307436D01*
X61307436Y-52593116D01*
X60971513Y-52817573D01*
X60971512Y-52817574D01*
X60971511Y-52817574D01*
X60598254Y-52972182D01*
X60202007Y-53051000D01*
X59797993Y-53051000D01*
X59401746Y-52972182D01*
X59028489Y-52817574D01*
X59028488Y-52817574D01*
X59028487Y-52817573D01*
X58692564Y-52593116D01*
X58406884Y-52307436D01*
X58182427Y-51971513D01*
X58182426Y-51971511D01*
X58027818Y-51598254D01*
X57949000Y-51202007D01*
X57949000Y-50797993D01*
X58027818Y-50401746D01*
X58182426Y-50028489D01*
X58270628Y-49896486D01*
X58406884Y-49692564D01*
X58692564Y-49406884D01*
X59028487Y-49182427D01*
X59028489Y-49182426D01*
X59401746Y-49027818D01*
X59797993Y-48949000D01*
X60202007Y-48949000D01*
X60598254Y-49027818D01*
G37*
G36*
X95306564Y-49149389D02*
G01*
X95497833Y-49228615D01*
X95497835Y-49228616D01*
X95649607Y-49330027D01*
X95669973Y-49343635D01*
X95816365Y-49490027D01*
X95931385Y-49662167D01*
X96010611Y-49853436D01*
X96051000Y-50056484D01*
X96051000Y-50263516D01*
X96010611Y-50466564D01*
X95997658Y-50497835D01*
X95931384Y-50657835D01*
X95816365Y-50829973D01*
X95669973Y-50976365D01*
X95497835Y-51091384D01*
X95497834Y-51091385D01*
X95497833Y-51091385D01*
X95306564Y-51170611D01*
X95103516Y-51211000D01*
X94896484Y-51211000D01*
X94693436Y-51170611D01*
X94502167Y-51091385D01*
X94502166Y-51091385D01*
X94502165Y-51091384D01*
X94330027Y-50976365D01*
X94183635Y-50829973D01*
X94068616Y-50657835D01*
X94002342Y-50497835D01*
X93989389Y-50466564D01*
X93949000Y-50263516D01*
X93949000Y-50056484D01*
X93989389Y-49853436D01*
X94068615Y-49662167D01*
X94183635Y-49490027D01*
X94330027Y-49343635D01*
X94350393Y-49330027D01*
X94502165Y-49228616D01*
X94502167Y-49228615D01*
X94693436Y-49149389D01*
X94896484Y-49109000D01*
X95103516Y-49109000D01*
X95306564Y-49149389D01*
G37*
G36*
X137806564Y-49149389D02*
G01*
X137997833Y-49228615D01*
X137997835Y-49228616D01*
X138149607Y-49330027D01*
X138169973Y-49343635D01*
X138316365Y-49490027D01*
X138431385Y-49662167D01*
X138510611Y-49853436D01*
X138551000Y-50056484D01*
X138551000Y-50263516D01*
X138510611Y-50466564D01*
X138497658Y-50497835D01*
X138431384Y-50657835D01*
X138316365Y-50829973D01*
X138169973Y-50976365D01*
X137997835Y-51091384D01*
X137997834Y-51091385D01*
X137997833Y-51091385D01*
X137806564Y-51170611D01*
X137603516Y-51211000D01*
X137396484Y-51211000D01*
X137193436Y-51170611D01*
X137002167Y-51091385D01*
X137002166Y-51091385D01*
X137002165Y-51091384D01*
X136830027Y-50976365D01*
X136683635Y-50829973D01*
X136568616Y-50657835D01*
X136502342Y-50497835D01*
X136489389Y-50466564D01*
X136449000Y-50263516D01*
X136449000Y-50056484D01*
X136489389Y-49853436D01*
X136568615Y-49662167D01*
X136683635Y-49490027D01*
X136830027Y-49343635D01*
X136850393Y-49330027D01*
X137002165Y-49228616D01*
X137002167Y-49228615D01*
X137193436Y-49149389D01*
X137396484Y-49109000D01*
X137603516Y-49109000D01*
X137806564Y-49149389D01*
G37*
G36*
X90306564Y-49149389D02*
G01*
X90497833Y-49228615D01*
X90497835Y-49228616D01*
X90649607Y-49330027D01*
X90669973Y-49343635D01*
X90816365Y-49490027D01*
X90931385Y-49662167D01*
X91010611Y-49853436D01*
X91051000Y-50056484D01*
X91051000Y-50263516D01*
X91010611Y-50466564D01*
X90997658Y-50497835D01*
X90931384Y-50657835D01*
X90816365Y-50829973D01*
X90669973Y-50976365D01*
X90497835Y-51091384D01*
X90497834Y-51091385D01*
X90497833Y-51091385D01*
X90306564Y-51170611D01*
X90103516Y-51211000D01*
X89896484Y-51211000D01*
X89693436Y-51170611D01*
X89502167Y-51091385D01*
X89502166Y-51091385D01*
X89502165Y-51091384D01*
X89330027Y-50976365D01*
X89183635Y-50829973D01*
X89068616Y-50657835D01*
X89002342Y-50497835D01*
X88989389Y-50466564D01*
X88949000Y-50263516D01*
X88949000Y-50056484D01*
X88989389Y-49853436D01*
X89068615Y-49662167D01*
X89183635Y-49490027D01*
X89330027Y-49343635D01*
X89350393Y-49330027D01*
X89502165Y-49228616D01*
X89502167Y-49228615D01*
X89693436Y-49149389D01*
X89896484Y-49109000D01*
X90103516Y-49109000D01*
X90306564Y-49149389D01*
G37*
G36*
X85306564Y-49149389D02*
G01*
X85497833Y-49228615D01*
X85497835Y-49228616D01*
X85649607Y-49330027D01*
X85669973Y-49343635D01*
X85816365Y-49490027D01*
X85931385Y-49662167D01*
X86010611Y-49853436D01*
X86051000Y-50056484D01*
X86051000Y-50263516D01*
X86010611Y-50466564D01*
X85997658Y-50497835D01*
X85931384Y-50657835D01*
X85816365Y-50829973D01*
X85669973Y-50976365D01*
X85497835Y-51091384D01*
X85497834Y-51091385D01*
X85497833Y-51091385D01*
X85306564Y-51170611D01*
X85103516Y-51211000D01*
X84896484Y-51211000D01*
X84693436Y-51170611D01*
X84502167Y-51091385D01*
X84502166Y-51091385D01*
X84502165Y-51091384D01*
X84330027Y-50976365D01*
X84183635Y-50829973D01*
X84068616Y-50657835D01*
X84002342Y-50497835D01*
X83989389Y-50466564D01*
X83949000Y-50263516D01*
X83949000Y-50056484D01*
X83989389Y-49853436D01*
X84068615Y-49662167D01*
X84183635Y-49490027D01*
X84330027Y-49343635D01*
X84350393Y-49330027D01*
X84502165Y-49228616D01*
X84502167Y-49228615D01*
X84693436Y-49149389D01*
X84896484Y-49109000D01*
X85103516Y-49109000D01*
X85306564Y-49149389D01*
G37*
G36*
X75306564Y-48989389D02*
G01*
X75399342Y-49027819D01*
X75497835Y-49068616D01*
X75669973Y-49183635D01*
X75816365Y-49330027D01*
X75923274Y-49490027D01*
X75931385Y-49502167D01*
X76010611Y-49693436D01*
X76051000Y-49896484D01*
X76051000Y-50103516D01*
X76010611Y-50306564D01*
X75931385Y-50497833D01*
X75931384Y-50497835D01*
X75816365Y-50669973D01*
X75669973Y-50816365D01*
X75497835Y-50931384D01*
X75497834Y-50931385D01*
X75497833Y-50931385D01*
X75306564Y-51010611D01*
X75103516Y-51051000D01*
X74896484Y-51051000D01*
X74693436Y-51010611D01*
X74502167Y-50931385D01*
X74502166Y-50931385D01*
X74502165Y-50931384D01*
X74330027Y-50816365D01*
X74183635Y-50669973D01*
X74068616Y-50497835D01*
X74068615Y-50497833D01*
X73989389Y-50306564D01*
X73949000Y-50103516D01*
X73949000Y-49896484D01*
X73989389Y-49693436D01*
X74068615Y-49502167D01*
X74076727Y-49490027D01*
X74183635Y-49330027D01*
X74330027Y-49183635D01*
X74502165Y-49068616D01*
X74600658Y-49027819D01*
X74693436Y-48989389D01*
X74896484Y-48949000D01*
X75103516Y-48949000D01*
X75306564Y-48989389D01*
G37*
G36*
X132806564Y-48989389D02*
G01*
X132899342Y-49027819D01*
X132997835Y-49068616D01*
X133169973Y-49183635D01*
X133316365Y-49330027D01*
X133423274Y-49490027D01*
X133431385Y-49502167D01*
X133510611Y-49693436D01*
X133551000Y-49896484D01*
X133551000Y-50103516D01*
X133510611Y-50306564D01*
X133431385Y-50497833D01*
X133431384Y-50497835D01*
X133316365Y-50669973D01*
X133169973Y-50816365D01*
X132997835Y-50931384D01*
X132997834Y-50931385D01*
X132997833Y-50931385D01*
X132806564Y-51010611D01*
X132603516Y-51051000D01*
X132396484Y-51051000D01*
X132193436Y-51010611D01*
X132002167Y-50931385D01*
X132002166Y-50931385D01*
X132002165Y-50931384D01*
X131830027Y-50816365D01*
X131683635Y-50669973D01*
X131568616Y-50497835D01*
X131568615Y-50497833D01*
X131489389Y-50306564D01*
X131449000Y-50103516D01*
X131449000Y-49896484D01*
X131489389Y-49693436D01*
X131568615Y-49502167D01*
X131576727Y-49490027D01*
X131683635Y-49330027D01*
X131830027Y-49183635D01*
X132002165Y-49068616D01*
X132100658Y-49027819D01*
X132193436Y-48989389D01*
X132396484Y-48949000D01*
X132603516Y-48949000D01*
X132806564Y-48989389D01*
G37*
G36*
X80306564Y-48989389D02*
G01*
X80399342Y-49027819D01*
X80497835Y-49068616D01*
X80669973Y-49183635D01*
X80816365Y-49330027D01*
X80923274Y-49490027D01*
X80931385Y-49502167D01*
X81010611Y-49693436D01*
X81051000Y-49896484D01*
X81051000Y-50103516D01*
X81010611Y-50306564D01*
X80931385Y-50497833D01*
X80931384Y-50497835D01*
X80816365Y-50669973D01*
X80669973Y-50816365D01*
X80497835Y-50931384D01*
X80497834Y-50931385D01*
X80497833Y-50931385D01*
X80306564Y-51010611D01*
X80103516Y-51051000D01*
X79896484Y-51051000D01*
X79693436Y-51010611D01*
X79502167Y-50931385D01*
X79502166Y-50931385D01*
X79502165Y-50931384D01*
X79330027Y-50816365D01*
X79183635Y-50669973D01*
X79068616Y-50497835D01*
X79068615Y-50497833D01*
X78989389Y-50306564D01*
X78949000Y-50103516D01*
X78949000Y-49896484D01*
X78989389Y-49693436D01*
X79068615Y-49502167D01*
X79076727Y-49490027D01*
X79183635Y-49330027D01*
X79330027Y-49183635D01*
X79502165Y-49068616D01*
X79600658Y-49027819D01*
X79693436Y-48989389D01*
X79896484Y-48949000D01*
X80103516Y-48949000D01*
X80306564Y-48989389D01*
G37*
G36*
X110306564Y-48989389D02*
G01*
X110399342Y-49027819D01*
X110497835Y-49068616D01*
X110669973Y-49183635D01*
X110816365Y-49330027D01*
X110923274Y-49490027D01*
X110931385Y-49502167D01*
X111010611Y-49693436D01*
X111051000Y-49896484D01*
X111051000Y-50103516D01*
X111010611Y-50306564D01*
X110931385Y-50497833D01*
X110931384Y-50497835D01*
X110816365Y-50669973D01*
X110669973Y-50816365D01*
X110497835Y-50931384D01*
X110497834Y-50931385D01*
X110497833Y-50931385D01*
X110306564Y-51010611D01*
X110103516Y-51051000D01*
X109896484Y-51051000D01*
X109693436Y-51010611D01*
X109502167Y-50931385D01*
X109502166Y-50931385D01*
X109502165Y-50931384D01*
X109330027Y-50816365D01*
X109183635Y-50669973D01*
X109068616Y-50497835D01*
X109068615Y-50497833D01*
X108989389Y-50306564D01*
X108949000Y-50103516D01*
X108949000Y-49896484D01*
X108989389Y-49693436D01*
X109068615Y-49502167D01*
X109076727Y-49490027D01*
X109183635Y-49330027D01*
X109330027Y-49183635D01*
X109502165Y-49068616D01*
X109600658Y-49027819D01*
X109693436Y-48989389D01*
X109896484Y-48949000D01*
X110103516Y-48949000D01*
X110306564Y-48989389D01*
G37*
G36*
X100306564Y-48989389D02*
G01*
X100399342Y-49027819D01*
X100497835Y-49068616D01*
X100669973Y-49183635D01*
X100816365Y-49330027D01*
X100923274Y-49490027D01*
X100931385Y-49502167D01*
X101010611Y-49693436D01*
X101051000Y-49896484D01*
X101051000Y-50103516D01*
X101010611Y-50306564D01*
X100931385Y-50497833D01*
X100931384Y-50497835D01*
X100816365Y-50669973D01*
X100669973Y-50816365D01*
X100497835Y-50931384D01*
X100497834Y-50931385D01*
X100497833Y-50931385D01*
X100306564Y-51010611D01*
X100103516Y-51051000D01*
X99896484Y-51051000D01*
X99693436Y-51010611D01*
X99502167Y-50931385D01*
X99502166Y-50931385D01*
X99502165Y-50931384D01*
X99330027Y-50816365D01*
X99183635Y-50669973D01*
X99068616Y-50497835D01*
X99068615Y-50497833D01*
X98989389Y-50306564D01*
X98949000Y-50103516D01*
X98949000Y-49896484D01*
X98989389Y-49693436D01*
X99068615Y-49502167D01*
X99076727Y-49490027D01*
X99183635Y-49330027D01*
X99330027Y-49183635D01*
X99502165Y-49068616D01*
X99600658Y-49027819D01*
X99693436Y-48989389D01*
X99896484Y-48949000D01*
X100103516Y-48949000D01*
X100306564Y-48989389D01*
G37*
G36*
X105306564Y-48989389D02*
G01*
X105399342Y-49027819D01*
X105497835Y-49068616D01*
X105669973Y-49183635D01*
X105816365Y-49330027D01*
X105923274Y-49490027D01*
X105931385Y-49502167D01*
X106010611Y-49693436D01*
X106051000Y-49896484D01*
X106051000Y-50103516D01*
X106010611Y-50306564D01*
X105931385Y-50497833D01*
X105931384Y-50497835D01*
X105816365Y-50669973D01*
X105669973Y-50816365D01*
X105497835Y-50931384D01*
X105497834Y-50931385D01*
X105497833Y-50931385D01*
X105306564Y-51010611D01*
X105103516Y-51051000D01*
X104896484Y-51051000D01*
X104693436Y-51010611D01*
X104502167Y-50931385D01*
X104502166Y-50931385D01*
X104502165Y-50931384D01*
X104330027Y-50816365D01*
X104183635Y-50669973D01*
X104068616Y-50497835D01*
X104068615Y-50497833D01*
X103989389Y-50306564D01*
X103949000Y-50103516D01*
X103949000Y-49896484D01*
X103989389Y-49693436D01*
X104068615Y-49502167D01*
X104076727Y-49490027D01*
X104183635Y-49330027D01*
X104330027Y-49183635D01*
X104502165Y-49068616D01*
X104600658Y-49027819D01*
X104693436Y-48989389D01*
X104896484Y-48949000D01*
X105103516Y-48949000D01*
X105306564Y-48989389D01*
G37*
G36*
X127806564Y-46609389D02*
G01*
X127997833Y-46688615D01*
X127997835Y-46688616D01*
X128169973Y-46803635D01*
X128316365Y-46950027D01*
X128354143Y-47006565D01*
X128431385Y-47122167D01*
X128510611Y-47313436D01*
X128551000Y-47516484D01*
X128551000Y-47723516D01*
X128510611Y-47926564D01*
X128491715Y-47972182D01*
X128431384Y-48117835D01*
X128316365Y-48289973D01*
X128169973Y-48436365D01*
X127997835Y-48551384D01*
X127997834Y-48551385D01*
X127997833Y-48551385D01*
X127806564Y-48630611D01*
X127603516Y-48671000D01*
X127396484Y-48671000D01*
X127193436Y-48630611D01*
X127002167Y-48551385D01*
X127002166Y-48551385D01*
X127002165Y-48551384D01*
X126830027Y-48436365D01*
X126683635Y-48289973D01*
X126568616Y-48117835D01*
X126508285Y-47972182D01*
X126489389Y-47926564D01*
X126449000Y-47723516D01*
X126449000Y-47516484D01*
X126489389Y-47313436D01*
X126568615Y-47122167D01*
X126645858Y-47006565D01*
X126683635Y-46950027D01*
X126830027Y-46803635D01*
X127002165Y-46688616D01*
X127002167Y-46688615D01*
X127193436Y-46609389D01*
X127396484Y-46569000D01*
X127603516Y-46569000D01*
X127806564Y-46609389D01*
G37*
G36*
X60598254Y-44027818D02*
G01*
X60971511Y-44182426D01*
X60971513Y-44182427D01*
X61307436Y-44406884D01*
X61593116Y-44692564D01*
X61817574Y-45028489D01*
X61972182Y-45401746D01*
X62051000Y-45797993D01*
X62051000Y-46202007D01*
X61972182Y-46598254D01*
X61887110Y-46803635D01*
X61817573Y-46971513D01*
X61593116Y-47307436D01*
X61307436Y-47593116D01*
X60971513Y-47817573D01*
X60971512Y-47817574D01*
X60971511Y-47817574D01*
X60598254Y-47972182D01*
X60202007Y-48051000D01*
X59797993Y-48051000D01*
X59401746Y-47972182D01*
X59028489Y-47817574D01*
X59028488Y-47817574D01*
X59028487Y-47817573D01*
X58692564Y-47593116D01*
X58406884Y-47307436D01*
X58182427Y-46971513D01*
X58112890Y-46803635D01*
X58027818Y-46598254D01*
X57949000Y-46202007D01*
X57949000Y-45797993D01*
X58027818Y-45401746D01*
X58182426Y-45028489D01*
X58406884Y-44692564D01*
X58692564Y-44406884D01*
X59028487Y-44182427D01*
X59028489Y-44182426D01*
X59401746Y-44027818D01*
X59797993Y-43949000D01*
X60202007Y-43949000D01*
X60598254Y-44027818D01*
G37*
G36*
X100306564Y-45689389D02*
G01*
X100497833Y-45768615D01*
X100497835Y-45768616D01*
X100669973Y-45883635D01*
X100816365Y-46030027D01*
X100931278Y-46202006D01*
X100931385Y-46202167D01*
X101010611Y-46393436D01*
X101051000Y-46596484D01*
X101051000Y-46803516D01*
X101010611Y-47006564D01*
X100931385Y-47197833D01*
X100931384Y-47197835D01*
X100816365Y-47369973D01*
X100669973Y-47516365D01*
X100497835Y-47631384D01*
X100497834Y-47631385D01*
X100497833Y-47631385D01*
X100306564Y-47710611D01*
X100103516Y-47751000D01*
X99896484Y-47751000D01*
X99693436Y-47710611D01*
X99502167Y-47631385D01*
X99502166Y-47631385D01*
X99502165Y-47631384D01*
X99330027Y-47516365D01*
X99183635Y-47369973D01*
X99068616Y-47197835D01*
X99068615Y-47197833D01*
X98989389Y-47006564D01*
X98949000Y-46803516D01*
X98949000Y-46596484D01*
X98989389Y-46393436D01*
X99068615Y-46202167D01*
X99068723Y-46202006D01*
X99183635Y-46030027D01*
X99330027Y-45883635D01*
X99502165Y-45768616D01*
X99502167Y-45768615D01*
X99693436Y-45689389D01*
X99896484Y-45649000D01*
X100103516Y-45649000D01*
X100306564Y-45689389D01*
G37*
G36*
X62051000Y-43051000D02*
G01*
X57949000Y-43051000D01*
X57949000Y-38949000D01*
X62051000Y-38949000D01*
X62051000Y-43051000D01*
G37*
G36*
X128551000Y-41051000D02*
G01*
X126449000Y-41051000D01*
X126449000Y-38949000D01*
X128551000Y-38949000D01*
X128551000Y-41051000D01*
G37*
G36*
X90306564Y-38989389D02*
G01*
X90497833Y-39068615D01*
X90497835Y-39068616D01*
X90649607Y-39170027D01*
X90669973Y-39183635D01*
X90816365Y-39330027D01*
X90931385Y-39502167D01*
X91010611Y-39693436D01*
X91051000Y-39896484D01*
X91051000Y-40103516D01*
X91010611Y-40306564D01*
X90997658Y-40337835D01*
X90931384Y-40497835D01*
X90816365Y-40669973D01*
X90669973Y-40816365D01*
X90497835Y-40931384D01*
X90497834Y-40931385D01*
X90497833Y-40931385D01*
X90306564Y-41010611D01*
X90103516Y-41051000D01*
X89896484Y-41051000D01*
X89693436Y-41010611D01*
X89502167Y-40931385D01*
X89502166Y-40931385D01*
X89502165Y-40931384D01*
X89330027Y-40816365D01*
X89183635Y-40669973D01*
X89068616Y-40497835D01*
X89002342Y-40337835D01*
X88989389Y-40306564D01*
X88949000Y-40103516D01*
X88949000Y-39896484D01*
X88989389Y-39693436D01*
X89068615Y-39502167D01*
X89183635Y-39330027D01*
X89330027Y-39183635D01*
X89350393Y-39170027D01*
X89502165Y-39068616D01*
X89502167Y-39068615D01*
X89693436Y-38989389D01*
X89896484Y-38949000D01*
X90103516Y-38949000D01*
X90306564Y-38989389D01*
G37*
G36*
X85306564Y-38989389D02*
G01*
X85497833Y-39068615D01*
X85497835Y-39068616D01*
X85649607Y-39170027D01*
X85669973Y-39183635D01*
X85816365Y-39330027D01*
X85931385Y-39502167D01*
X86010611Y-39693436D01*
X86051000Y-39896484D01*
X86051000Y-40103516D01*
X86010611Y-40306564D01*
X85997658Y-40337835D01*
X85931384Y-40497835D01*
X85816365Y-40669973D01*
X85669973Y-40816365D01*
X85497835Y-40931384D01*
X85497834Y-40931385D01*
X85497833Y-40931385D01*
X85306564Y-41010611D01*
X85103516Y-41051000D01*
X84896484Y-41051000D01*
X84693436Y-41010611D01*
X84502167Y-40931385D01*
X84502166Y-40931385D01*
X84502165Y-40931384D01*
X84330027Y-40816365D01*
X84183635Y-40669973D01*
X84068616Y-40497835D01*
X84002342Y-40337835D01*
X83989389Y-40306564D01*
X83949000Y-40103516D01*
X83949000Y-39896484D01*
X83989389Y-39693436D01*
X84068615Y-39502167D01*
X84183635Y-39330027D01*
X84330027Y-39183635D01*
X84350393Y-39170027D01*
X84502165Y-39068616D01*
X84502167Y-39068615D01*
X84693436Y-38989389D01*
X84896484Y-38949000D01*
X85103516Y-38949000D01*
X85306564Y-38989389D01*
G37*
G36*
X137806564Y-38989389D02*
G01*
X137997833Y-39068615D01*
X137997835Y-39068616D01*
X138149607Y-39170027D01*
X138169973Y-39183635D01*
X138316365Y-39330027D01*
X138431385Y-39502167D01*
X138510611Y-39693436D01*
X138551000Y-39896484D01*
X138551000Y-40103516D01*
X138510611Y-40306564D01*
X138497658Y-40337835D01*
X138431384Y-40497835D01*
X138316365Y-40669973D01*
X138169973Y-40816365D01*
X137997835Y-40931384D01*
X137997834Y-40931385D01*
X137997833Y-40931385D01*
X137806564Y-41010611D01*
X137603516Y-41051000D01*
X137396484Y-41051000D01*
X137193436Y-41010611D01*
X137002167Y-40931385D01*
X137002166Y-40931385D01*
X137002165Y-40931384D01*
X136830027Y-40816365D01*
X136683635Y-40669973D01*
X136568616Y-40497835D01*
X136502342Y-40337835D01*
X136489389Y-40306564D01*
X136449000Y-40103516D01*
X136449000Y-39896484D01*
X136489389Y-39693436D01*
X136568615Y-39502167D01*
X136683635Y-39330027D01*
X136830027Y-39183635D01*
X136850393Y-39170027D01*
X137002165Y-39068616D01*
X137002167Y-39068615D01*
X137193436Y-38989389D01*
X137396484Y-38949000D01*
X137603516Y-38949000D01*
X137806564Y-38989389D01*
G37*
G36*
X95306564Y-38989389D02*
G01*
X95497833Y-39068615D01*
X95497835Y-39068616D01*
X95649607Y-39170027D01*
X95669973Y-39183635D01*
X95816365Y-39330027D01*
X95931385Y-39502167D01*
X96010611Y-39693436D01*
X96051000Y-39896484D01*
X96051000Y-40103516D01*
X96010611Y-40306564D01*
X95997658Y-40337835D01*
X95931384Y-40497835D01*
X95816365Y-40669973D01*
X95669973Y-40816365D01*
X95497835Y-40931384D01*
X95497834Y-40931385D01*
X95497833Y-40931385D01*
X95306564Y-41010611D01*
X95103516Y-41051000D01*
X94896484Y-41051000D01*
X94693436Y-41010611D01*
X94502167Y-40931385D01*
X94502166Y-40931385D01*
X94502165Y-40931384D01*
X94330027Y-40816365D01*
X94183635Y-40669973D01*
X94068616Y-40497835D01*
X94002342Y-40337835D01*
X93989389Y-40306564D01*
X93949000Y-40103516D01*
X93949000Y-39896484D01*
X93989389Y-39693436D01*
X94068615Y-39502167D01*
X94183635Y-39330027D01*
X94330027Y-39183635D01*
X94350393Y-39170027D01*
X94502165Y-39068616D01*
X94502167Y-39068615D01*
X94693436Y-38989389D01*
X94896484Y-38949000D01*
X95103516Y-38949000D01*
X95306564Y-38989389D01*
G37*
G36*
X75306564Y-38829389D02*
G01*
X75497833Y-38908615D01*
X75497835Y-38908616D01*
X75669973Y-39023635D01*
X75816365Y-39170027D01*
X75923274Y-39330027D01*
X75931385Y-39342167D01*
X76010611Y-39533436D01*
X76051000Y-39736484D01*
X76051000Y-39943516D01*
X76010611Y-40146564D01*
X75931385Y-40337833D01*
X75931384Y-40337835D01*
X75816365Y-40509973D01*
X75669973Y-40656365D01*
X75497835Y-40771384D01*
X75497834Y-40771385D01*
X75497833Y-40771385D01*
X75306564Y-40850611D01*
X75103516Y-40891000D01*
X74896484Y-40891000D01*
X74693436Y-40850611D01*
X74502167Y-40771385D01*
X74502166Y-40771385D01*
X74502165Y-40771384D01*
X74330027Y-40656365D01*
X74183635Y-40509973D01*
X74068616Y-40337835D01*
X74068615Y-40337833D01*
X73989389Y-40146564D01*
X73949000Y-39943516D01*
X73949000Y-39736484D01*
X73989389Y-39533436D01*
X74068615Y-39342167D01*
X74076727Y-39330027D01*
X74183635Y-39170027D01*
X74330027Y-39023635D01*
X74502165Y-38908616D01*
X74502167Y-38908615D01*
X74693436Y-38829389D01*
X74896484Y-38789000D01*
X75103516Y-38789000D01*
X75306564Y-38829389D01*
G37*
G36*
X80306564Y-38829389D02*
G01*
X80497833Y-38908615D01*
X80497835Y-38908616D01*
X80669973Y-39023635D01*
X80816365Y-39170027D01*
X80923274Y-39330027D01*
X80931385Y-39342167D01*
X81010611Y-39533436D01*
X81051000Y-39736484D01*
X81051000Y-39943516D01*
X81010611Y-40146564D01*
X80931385Y-40337833D01*
X80931384Y-40337835D01*
X80816365Y-40509973D01*
X80669973Y-40656365D01*
X80497835Y-40771384D01*
X80497834Y-40771385D01*
X80497833Y-40771385D01*
X80306564Y-40850611D01*
X80103516Y-40891000D01*
X79896484Y-40891000D01*
X79693436Y-40850611D01*
X79502167Y-40771385D01*
X79502166Y-40771385D01*
X79502165Y-40771384D01*
X79330027Y-40656365D01*
X79183635Y-40509973D01*
X79068616Y-40337835D01*
X79068615Y-40337833D01*
X78989389Y-40146564D01*
X78949000Y-39943516D01*
X78949000Y-39736484D01*
X78989389Y-39533436D01*
X79068615Y-39342167D01*
X79076727Y-39330027D01*
X79183635Y-39170027D01*
X79330027Y-39023635D01*
X79502165Y-38908616D01*
X79502167Y-38908615D01*
X79693436Y-38829389D01*
X79896484Y-38789000D01*
X80103516Y-38789000D01*
X80306564Y-38829389D01*
G37*
G36*
X105306564Y-38829389D02*
G01*
X105497833Y-38908615D01*
X105497835Y-38908616D01*
X105669973Y-39023635D01*
X105816365Y-39170027D01*
X105923274Y-39330027D01*
X105931385Y-39342167D01*
X106010611Y-39533436D01*
X106051000Y-39736484D01*
X106051000Y-39943516D01*
X106010611Y-40146564D01*
X105931385Y-40337833D01*
X105931384Y-40337835D01*
X105816365Y-40509973D01*
X105669973Y-40656365D01*
X105497835Y-40771384D01*
X105497834Y-40771385D01*
X105497833Y-40771385D01*
X105306564Y-40850611D01*
X105103516Y-40891000D01*
X104896484Y-40891000D01*
X104693436Y-40850611D01*
X104502167Y-40771385D01*
X104502166Y-40771385D01*
X104502165Y-40771384D01*
X104330027Y-40656365D01*
X104183635Y-40509973D01*
X104068616Y-40337835D01*
X104068615Y-40337833D01*
X103989389Y-40146564D01*
X103949000Y-39943516D01*
X103949000Y-39736484D01*
X103989389Y-39533436D01*
X104068615Y-39342167D01*
X104076727Y-39330027D01*
X104183635Y-39170027D01*
X104330027Y-39023635D01*
X104502165Y-38908616D01*
X104502167Y-38908615D01*
X104693436Y-38829389D01*
X104896484Y-38789000D01*
X105103516Y-38789000D01*
X105306564Y-38829389D01*
G37*
G36*
X110306564Y-38829389D02*
G01*
X110497833Y-38908615D01*
X110497835Y-38908616D01*
X110669973Y-39023635D01*
X110816365Y-39170027D01*
X110923274Y-39330027D01*
X110931385Y-39342167D01*
X111010611Y-39533436D01*
X111051000Y-39736484D01*
X111051000Y-39943516D01*
X111010611Y-40146564D01*
X110931385Y-40337833D01*
X110931384Y-40337835D01*
X110816365Y-40509973D01*
X110669973Y-40656365D01*
X110497835Y-40771384D01*
X110497834Y-40771385D01*
X110497833Y-40771385D01*
X110306564Y-40850611D01*
X110103516Y-40891000D01*
X109896484Y-40891000D01*
X109693436Y-40850611D01*
X109502167Y-40771385D01*
X109502166Y-40771385D01*
X109502165Y-40771384D01*
X109330027Y-40656365D01*
X109183635Y-40509973D01*
X109068616Y-40337835D01*
X109068615Y-40337833D01*
X108989389Y-40146564D01*
X108949000Y-39943516D01*
X108949000Y-39736484D01*
X108989389Y-39533436D01*
X109068615Y-39342167D01*
X109076727Y-39330027D01*
X109183635Y-39170027D01*
X109330027Y-39023635D01*
X109502165Y-38908616D01*
X109502167Y-38908615D01*
X109693436Y-38829389D01*
X109896484Y-38789000D01*
X110103516Y-38789000D01*
X110306564Y-38829389D01*
G37*
G36*
X132806564Y-38829389D02*
G01*
X132997833Y-38908615D01*
X132997835Y-38908616D01*
X133169973Y-39023635D01*
X133316365Y-39170027D01*
X133423274Y-39330027D01*
X133431385Y-39342167D01*
X133510611Y-39533436D01*
X133551000Y-39736484D01*
X133551000Y-39943516D01*
X133510611Y-40146564D01*
X133431385Y-40337833D01*
X133431384Y-40337835D01*
X133316365Y-40509973D01*
X133169973Y-40656365D01*
X132997835Y-40771384D01*
X132997834Y-40771385D01*
X132997833Y-40771385D01*
X132806564Y-40850611D01*
X132603516Y-40891000D01*
X132396484Y-40891000D01*
X132193436Y-40850611D01*
X132002167Y-40771385D01*
X132002166Y-40771385D01*
X132002165Y-40771384D01*
X131830027Y-40656365D01*
X131683635Y-40509973D01*
X131568616Y-40337835D01*
X131568615Y-40337833D01*
X131489389Y-40146564D01*
X131449000Y-39943516D01*
X131449000Y-39736484D01*
X131489389Y-39533436D01*
X131568615Y-39342167D01*
X131576727Y-39330027D01*
X131683635Y-39170027D01*
X131830027Y-39023635D01*
X132002165Y-38908616D01*
X132002167Y-38908615D01*
X132193436Y-38829389D01*
X132396484Y-38789000D01*
X132603516Y-38789000D01*
X132806564Y-38829389D01*
G37*
M02*
