M48
; DRILL file {KiCad 5.1.5+dfsg1-2build2} date dim. 11 avril 2021 17:35:10
; FORMAT={-:-/ absolute / inch / decimal}
; #@! TF.CreationDate,2021-04-11T17:35:10+02:00
; #@! TF.GenerationSoftware,Kicad,Pcbnew,5.1.5+dfsg1-2build2
; #@! TF.FileFunction,Plated,1,2,PTH
FMAT,2
INCH
T1C0.0157
T2C0.0315
T3C0.0340
T4C0.0394
T5C0.0400
T6C0.0512
T7C0.0591
T8C0.0591
T9C0.0787
T10C0.1260
%
G90
G05
T1
X5.126Y-2.8504
X5.1969Y-2.9016
X5.2362Y-2.9409
T2
X5.689Y-4.9606
X5.689Y-5.3606
X3.937Y-4.9606
X3.937Y-5.3606
X2.9465Y-3.3071
X3.3465Y-3.3071
X3.0906Y-4.3654
X3.0906Y-4.6654
X2.5984Y-3.6614
X2.6984Y-3.6614
X5.1969Y-3.9764
X5.2969Y-3.9764
X8.4055Y-2.7315
X8.4055Y-3.0315
X6.063Y-3.6614
X6.163Y-3.6614
X7.4016Y-4.3654
X7.4016Y-4.6654
X4.3307Y-4.9606
X4.4307Y-4.9606
X2.2244Y-4.9606
X2.2244Y-5.3606
X5.689Y-3.5764
X5.689Y-3.9764
X5.8858Y-4.9543
X5.8858Y-5.3543
X7.7937Y-3.6614
X7.8937Y-3.6614
X3.2677Y-3.5764
X3.2677Y-3.9764
X7.7953Y-3.9764
X7.8953Y-3.9764
X1.374Y-2.6929
X1.374Y-2.7929
X1.374Y-2.8929
X1.374Y-2.9929
X1.374Y-3.0929
X1.374Y-3.1929
X1.374Y-3.2929
X1.374Y-3.3929
X1.674Y-2.6929
X1.674Y-2.7929
X1.674Y-2.8929
X1.674Y-2.9929
X1.674Y-3.0929
X1.674Y-3.1929
X1.674Y-3.2929
X1.674Y-3.3929
X1.3386Y-4.3654
X1.3386Y-4.6654
X6.9291Y-3.9764
X7.0291Y-3.9764
X8.4449Y-4.5228
X8.4449Y-4.8228
X6.063Y-3.9764
X6.163Y-3.9764
X4.1339Y-4.9543
X4.1339Y-5.3543
X6.5551Y-5.6646
X6.5551Y-5.9646
X2.2244Y-5.6646
X2.2244Y-5.9646
X1.7323Y-5.2756
X1.8323Y-5.2756
X1.5551Y-3.6945
X1.5551Y-4.0945
X3.7402Y-2.5984
X3.8402Y-2.5984
X5.1969Y-5.2756
X5.2969Y-5.2756
X6.6535Y-2.8346
X7.0535Y-2.8346
X7.4016Y-3.5764
X7.4016Y-3.9764
X4.3307Y-5.2756
X4.4307Y-5.2756
X1.9244Y-2.0079
X1.9244Y-2.1079
X1.9244Y-2.2079
X1.9244Y-2.3079
X1.9244Y-2.4079
X1.9244Y-2.5079
X1.9244Y-2.6079
X1.9244Y-2.7079
X2.2244Y-2.0079
X2.2244Y-2.1079
X2.2244Y-2.2079
X2.2244Y-2.3079
X2.2244Y-2.4079
X2.2244Y-2.5079
X2.2244Y-2.6079
X2.2244Y-2.7079
X3.9567Y-3.5764
X3.9567Y-3.9764
X3.4646Y-5.2756
X3.5646Y-5.2756
X2.2047Y-3.5764
X2.2047Y-3.9764
X2.4016Y-4.9543
X2.4016Y-5.3543
X1.3732Y-1.8307
X1.3732Y-1.9307
X1.3732Y-2.0307
X1.3732Y-2.1307
X1.3732Y-2.2307
X1.3732Y-2.3307
X1.3732Y-2.4307
X1.3732Y-2.5307
X1.6732Y-1.8307
X1.6732Y-1.9307
X1.6732Y-2.0307
X1.6732Y-2.1307
X1.6732Y-2.2307
X1.6732Y-2.3307
X1.6732Y-2.4307
X1.6732Y-2.5307
X6.9291Y-4.9606
X7.0291Y-4.9606
X2.5984Y-5.2756
X2.6984Y-5.2756
X7.7953Y-5.2953
X7.8953Y-5.2953
X3.7402Y-2.9465
X3.7402Y-3.3465
X6.9291Y-5.2756
X7.0291Y-5.2756
X6.063Y-5.2756
X6.163Y-5.2756
X6.5551Y-4.9606
X6.5551Y-5.3606
X4.8228Y-4.3654
X4.8228Y-4.6654
X7.5984Y-3.5764
X7.5984Y-3.9764
X6.5551Y-4.3654
X6.5551Y-4.6654
X5.8661Y-3.5764
X5.8661Y-3.9764
X2.2244Y-4.3654
X2.2244Y-4.6654
X1.3583Y-5.6646
X1.3583Y-5.9646
X1.3583Y-3.6945
X1.3583Y-4.0945
X6.9291Y-3.6614
X7.0291Y-3.6614
X6.752Y-4.9543
X6.752Y-5.3543
X3.9567Y-5.6646
X3.9567Y-5.9646
X3.4646Y-4.9606
X3.5646Y-4.9606
X2.5984Y-3.9764
X2.6984Y-3.9764
X4.2063Y-3.1102
X4.6063Y-3.1102
X4.1339Y-3.5764
X4.1339Y-3.9764
X5.1969Y-3.6614
X5.2969Y-3.6614
X1.7323Y-3.9764
X1.8323Y-3.9764
X4.8228Y-4.9606
X4.8228Y-5.3606
X5.4661Y-3.1102
X5.8661Y-3.1102
X3.937Y-4.3654
X3.937Y-4.6654
X3.0906Y-4.9606
X3.0906Y-5.3606
X5.689Y-5.6646
X5.689Y-5.9646
X7.7937Y-4.9606
X7.8937Y-4.9606
X1.7323Y-4.9606
X1.8323Y-4.9606
X5.0Y-4.9543
X5.0Y-5.3543
X8.4252Y-5.4283
X8.4252Y-5.7283
X2.4016Y-3.5764
X2.4016Y-3.9764
X6.6535Y-2.6378
X7.0535Y-2.6378
X1.378Y-4.9606
X1.378Y-5.3606
X6.6535Y-3.0315
X7.0535Y-3.0315
X4.8228Y-3.5764
X4.8228Y-3.9764
X6.2992Y-2.5984
X6.3992Y-2.5984
X3.0709Y-3.5764
X3.0709Y-3.9764
X3.2874Y-4.9543
X3.2874Y-5.3543
X7.4016Y-4.9606
X7.4016Y-5.3606
X5.4661Y-3.3071
X5.8661Y-3.3071
X5.689Y-4.3654
X5.689Y-4.6654
X1.7323Y-3.6614
X1.8323Y-3.6614
X6.2598Y-2.9465
X6.2598Y-3.3465
X4.8228Y-5.6646
X4.8228Y-5.9646
X8.4449Y-3.6173
X8.4449Y-3.9173
X2.5984Y-4.9606
X2.6984Y-4.9606
X4.3307Y-3.6614
X4.4307Y-3.6614
X5.0Y-2.9465
X5.0Y-3.3465
X3.4646Y-3.6614
X3.5646Y-3.6614
X5.1969Y-4.9606
X5.2969Y-4.9606
X7.4213Y-5.6646
X7.4213Y-5.9646
X3.0906Y-5.6646
X3.0906Y-5.9646
X6.5551Y-3.5764
X6.5551Y-3.9764
X7.5787Y-4.9543
X7.5787Y-5.3543
X6.063Y-4.9606
X6.163Y-4.9606
X2.4756Y-2.0079
X2.4756Y-2.1079
X2.4756Y-2.2079
X2.4756Y-2.3079
X2.4756Y-2.4079
X2.4756Y-2.5079
X2.4756Y-2.6079
X2.4756Y-2.7079
X2.7756Y-2.0079
X2.7756Y-2.1079
X2.7756Y-2.2079
X2.7756Y-2.3079
X2.7756Y-2.4079
X2.7756Y-2.5079
X2.7756Y-2.6079
X2.7756Y-2.7079
X3.4646Y-3.9764
X3.5646Y-3.9764
X1.5551Y-4.9543
X1.5551Y-5.3543
X2.9465Y-3.1102
X3.3465Y-3.1102
X6.7323Y-3.5764
X6.7323Y-3.9764
X5.0Y-3.5764
X5.0Y-3.9764
X4.2063Y-3.3071
X4.6063Y-3.3071
X4.3307Y-3.9764
X4.4307Y-3.9764
X5.0Y-2.5984
X5.1Y-2.5984
T3
X7.3878Y-2.6453
X7.3878Y-2.9453
X7.4878Y-2.6453
X7.4878Y-2.9453
X7.5878Y-2.6453
X7.5878Y-2.9453
X7.6878Y-2.6453
X7.6878Y-2.9453
X7.7878Y-2.6453
X7.7878Y-2.9453
X7.8878Y-2.6453
T4
X5.4724Y-2.5984
X5.4724Y-2.6969
X5.4724Y-2.7953
X6.0433Y-2.5984
X6.0433Y-2.7953
X4.2126Y-2.5984
X4.2126Y-2.6969
X4.2126Y-2.7953
X4.7835Y-2.5984
X4.7835Y-2.7953
X2.9528Y-2.5984
X2.9528Y-2.6969
X2.9528Y-2.7953
X3.5236Y-2.5984
X3.5236Y-2.7953
T5
X7.2835Y-2.1063
X7.2835Y-2.2063
X7.3835Y-2.1063
X7.3835Y-2.2063
X7.4835Y-2.1063
X7.4835Y-2.2063
X7.5835Y-2.1063
X7.5835Y-2.2063
X7.6835Y-2.1063
X7.6835Y-2.2063
X8.3071Y-2.1047
X8.3071Y-2.2047
X8.4071Y-2.1047
X8.4071Y-2.2047
X8.5071Y-2.1047
X8.5071Y-2.2047
X8.6071Y-2.1047
X8.6071Y-2.2047
X8.7071Y-2.1047
X8.7071Y-2.2047
X8.8071Y-2.1047
X8.8071Y-2.2047
X8.9071Y-2.1047
X8.9071Y-2.2047
X9.0071Y-2.1047
X9.0071Y-2.2047
X5.9354Y-2.1047
X5.9354Y-2.2047
X6.0354Y-2.1047
X6.0354Y-2.2047
X6.1354Y-2.1047
X6.1354Y-2.2047
X6.2354Y-2.1047
X6.2354Y-2.2047
X6.3354Y-2.1047
X6.3354Y-2.2047
X6.4354Y-2.1047
X6.4354Y-2.2047
X6.5354Y-2.1047
X6.5354Y-2.2047
X6.6354Y-2.1047
X6.6354Y-2.2047
T6
X9.1181Y-2.7362
X9.1181Y-2.9331
X7.2283Y-5.6693
X7.2283Y-5.8661
X9.1181Y-3.622
X9.1181Y-3.8189
X2.8976Y-4.3701
X2.8976Y-4.5669
X6.3622Y-5.6693
X6.3622Y-5.8661
X6.3622Y-4.3701
X6.3622Y-4.5669
X3.7638Y-5.6693
X3.7638Y-5.8661
X4.6299Y-4.3701
X4.6299Y-4.5669
X9.1181Y-5.4331
X9.1181Y-5.6299
X8.0945Y-4.3701
X8.0945Y-4.5669
X5.4961Y-5.6693
X5.4961Y-5.8661
X2.8976Y-5.6693
X2.8976Y-5.8661
X5.4961Y-4.3701
X5.4961Y-4.5669
X2.0315Y-4.3701
X2.0315Y-4.5669
X9.1181Y-4.5276
X9.1181Y-4.7244
X3.7638Y-4.3701
X3.7638Y-4.5669
X8.0945Y-5.6693
X8.0945Y-5.8661
X2.0315Y-5.6693
X2.0315Y-5.8661
X7.2283Y-4.3701
X7.2283Y-4.5669
X4.6299Y-5.6693
X4.6299Y-5.8661
T7
X6.7244Y-5.6693
X6.7244Y-5.8661
X8.6142Y-3.622
X8.6142Y-3.8189
X2.3937Y-4.3701
X2.3937Y-4.5669
X5.8583Y-5.6693
X5.8583Y-5.8661
X5.8583Y-4.3701
X5.8583Y-4.5669
X3.2598Y-5.6693
X3.2598Y-5.8661
X4.126Y-4.3701
X4.126Y-4.5669
X8.6142Y-5.4331
X8.6142Y-5.6299
X7.5906Y-4.3701
X7.5906Y-4.5669
X4.9921Y-5.6693
X4.9921Y-5.8661
X2.3937Y-5.6693
X2.3937Y-5.8661
X4.9921Y-4.3701
X4.9921Y-4.5669
X1.5276Y-4.3701
X1.5276Y-4.5669
X8.6142Y-4.5276
X8.6142Y-4.7244
X3.2598Y-4.3701
X3.2598Y-4.5669
X7.5906Y-5.6693
X7.5906Y-5.8661
X1.5276Y-5.6693
X1.5276Y-5.8661
X6.7244Y-4.3701
X6.7244Y-4.5669
X4.126Y-5.6693
X4.126Y-5.8661
X8.6142Y-2.7362
X8.6142Y-2.9331
T8
X4.2913Y-2.126
X4.5057Y-2.126
X4.7201Y-2.126
T10
X6.378Y-4.0945
X3.8583Y-2.2047
X6.8504Y-3.2283
T9
G00X5.7579Y-2.4764
M15
G01X5.7776Y-2.4764
M16
G05
G00X5.7579Y-2.9173
M15
G01X5.7776Y-2.9173
M16
G05
G00X4.498Y-2.4764
M15
G01X4.5177Y-2.4764
M16
G05
G00X4.498Y-2.9173
M15
G01X4.5177Y-2.9173
M16
G05
G00X3.2382Y-2.4764
M15
G01X3.2579Y-2.4764
M16
G05
G00X3.2382Y-2.9173
M15
G01X3.2579Y-2.9173
M16
G05
T0
M30
