G04 #@! TF.GenerationSoftware,KiCad,Pcbnew,5.1.5+dfsg1-2build2*
G04 #@! TF.CreationDate,2021-04-11T17:34:26+02:00*
G04 #@! TF.ProjectId,Main_board,4d61696e-5f62-46f6-9172-642e6b696361,rev?*
G04 #@! TF.SameCoordinates,Original*
G04 #@! TF.FileFunction,Soldermask,Top*
G04 #@! TF.FilePolarity,Negative*
%FSLAX46Y46*%
G04 Gerber Fmt 4.6, Leading zero omitted, Abs format (unit mm)*
G04 Created by KiCad (PCBNEW 5.1.5+dfsg1-2build2) date 2021-04-11 17:34:26*
%MOMM*%
%LPD*%
G04 APERTURE LIST*
%ADD10C,5.600000*%
%ADD11O,2.400000X1.600000*%
%ADD12R,2.400000X1.600000*%
%ADD13R,2.000000X2.000000*%
%ADD14C,2.000000*%
%ADD15C,4.000000*%
%ADD16R,4.000000X4.000000*%
%ADD17C,1.905000*%
%ADD18R,1.905000X1.905000*%
%ADD19R,3.000000X2.500000*%
%ADD20O,1.600000X1.600000*%
%ADD21R,1.600000X1.600000*%
%ADD22O,4.000000X3.000000*%
%ADD23O,3.500000X2.000000*%
G04 APERTURE END LIST*
D10*
X98000000Y-56000000D03*
X162000000Y-104000000D03*
X174000000Y-82000000D03*
D11*
X48880000Y-51000000D03*
X56500000Y-68780000D03*
X48880000Y-53540000D03*
X56500000Y-66240000D03*
X48880000Y-56080000D03*
X56500000Y-63700000D03*
X48880000Y-58620000D03*
X56500000Y-61160000D03*
X48880000Y-61160000D03*
X56500000Y-58620000D03*
X48880000Y-63700000D03*
X56500000Y-56080000D03*
X48880000Y-66240000D03*
X56500000Y-53540000D03*
X48880000Y-68780000D03*
D12*
X56500000Y-51000000D03*
X34900000Y-86180000D03*
D11*
X42520000Y-68400000D03*
X34900000Y-83640000D03*
X42520000Y-70940000D03*
X34900000Y-81100000D03*
X42520000Y-73480000D03*
X34900000Y-78560000D03*
X42520000Y-76020000D03*
X34900000Y-76020000D03*
X42520000Y-78560000D03*
X34900000Y-73480000D03*
X42520000Y-81100000D03*
X34900000Y-70940000D03*
X42520000Y-83640000D03*
X34900000Y-68400000D03*
X42520000Y-86180000D03*
X34880000Y-46500000D03*
X42500000Y-64280000D03*
X34880000Y-49040000D03*
X42500000Y-61740000D03*
X34880000Y-51580000D03*
X42500000Y-59200000D03*
X34880000Y-54120000D03*
X42500000Y-56660000D03*
X34880000Y-56660000D03*
X42500000Y-54120000D03*
X34880000Y-59200000D03*
X42500000Y-51580000D03*
X34880000Y-61740000D03*
X42500000Y-49040000D03*
X34880000Y-64280000D03*
D12*
X42500000Y-46500000D03*
D13*
X185000000Y-56040000D03*
D14*
X185000000Y-53500000D03*
X187540000Y-56040000D03*
X187540000Y-53500000D03*
X190080000Y-56040000D03*
X190080000Y-53500000D03*
X192620000Y-56040000D03*
X192620000Y-53500000D03*
X195160000Y-56040000D03*
X195160000Y-53500000D03*
D15*
X119890000Y-54000000D03*
X114445000Y-54000000D03*
D16*
X109000000Y-54000000D03*
D17*
X187650000Y-67190000D03*
X190190000Y-67190000D03*
X192730000Y-67190000D03*
X195270000Y-67190000D03*
X197810000Y-67190000D03*
X200350000Y-67190000D03*
X197810000Y-74810000D03*
X195270000Y-74810000D03*
X192730000Y-74810000D03*
X190190000Y-74810000D03*
D18*
X187650000Y-74810000D03*
D14*
X121500000Y-71000000D03*
X121500000Y-66000000D03*
D19*
X114500000Y-74100000D03*
X114500000Y-62900000D03*
D14*
X107000000Y-71000000D03*
X107000000Y-68500000D03*
D13*
X107000000Y-66000000D03*
X139000000Y-66000000D03*
D14*
X139000000Y-68500000D03*
X139000000Y-71000000D03*
D19*
X146500000Y-62900000D03*
X146500000Y-74100000D03*
D14*
X153500000Y-66000000D03*
X153500000Y-71000000D03*
X89500000Y-71000000D03*
X89500000Y-66000000D03*
D19*
X82500000Y-74100000D03*
X82500000Y-62900000D03*
D14*
X75000000Y-71000000D03*
X75000000Y-68500000D03*
D13*
X75000000Y-66000000D03*
D14*
X159000000Y-74840000D03*
X159000000Y-85000000D03*
X127000000Y-74840000D03*
X127000000Y-85000000D03*
X95000000Y-74840000D03*
X95000000Y-85000000D03*
X138840000Y-84000000D03*
X149000000Y-84000000D03*
X106840000Y-84000000D03*
X117000000Y-84000000D03*
X74840000Y-84000000D03*
X85000000Y-84000000D03*
X138840000Y-79000000D03*
X149000000Y-79000000D03*
X106840000Y-79000000D03*
X117000000Y-79000000D03*
X74840000Y-79000000D03*
X85000000Y-79000000D03*
X179160000Y-67000000D03*
X169000000Y-67000000D03*
X179160000Y-72000000D03*
X169000000Y-72000000D03*
X179160000Y-77000000D03*
X169000000Y-77000000D03*
X168540000Y-53460000D03*
X168540000Y-56000000D03*
X166000000Y-53460000D03*
X166000000Y-56000000D03*
X163460000Y-53460000D03*
X163460000Y-56000000D03*
X160920000Y-53460000D03*
X160920000Y-56000000D03*
X158380000Y-53460000D03*
X158380000Y-56000000D03*
X155840000Y-53460000D03*
X155840000Y-56000000D03*
X153300000Y-53460000D03*
X153300000Y-56000000D03*
X150760000Y-53460000D03*
D13*
X150760000Y-56000000D03*
X160000000Y-66000000D03*
D14*
X162540000Y-66000000D03*
D13*
X127000000Y-66000000D03*
D14*
X129540000Y-66000000D03*
D13*
X95000000Y-66000000D03*
D14*
X97540000Y-66000000D03*
D13*
X44000000Y-93000000D03*
D14*
X46540000Y-93000000D03*
D13*
X66000000Y-93000000D03*
D14*
X68540000Y-93000000D03*
D13*
X88000000Y-93000000D03*
D14*
X90540000Y-93000000D03*
D13*
X110000000Y-93000000D03*
D14*
X112540000Y-93000000D03*
D13*
X132000000Y-93000000D03*
D14*
X134540000Y-93000000D03*
D13*
X154000000Y-93000000D03*
D14*
X156540000Y-93000000D03*
D13*
X176000000Y-93000000D03*
D14*
X178540000Y-93000000D03*
D13*
X197960000Y-93000000D03*
D14*
X200500000Y-93000000D03*
D13*
X44000000Y-126000000D03*
D14*
X46540000Y-126000000D03*
D13*
X66000000Y-126000000D03*
D14*
X68540000Y-126000000D03*
D13*
X88000000Y-126000000D03*
D14*
X90540000Y-126000000D03*
D13*
X110000000Y-126000000D03*
D14*
X112540000Y-126000000D03*
D13*
X132000000Y-126000000D03*
D14*
X134540000Y-126000000D03*
D13*
X154000000Y-126000000D03*
D14*
X156540000Y-126000000D03*
D13*
X176000000Y-126000000D03*
D14*
X178540000Y-126000000D03*
D13*
X197960000Y-126000000D03*
D14*
X200500000Y-126000000D03*
D13*
X44000000Y-101000000D03*
D14*
X46540000Y-101000000D03*
D13*
X66000000Y-101000000D03*
D14*
X68540000Y-101000000D03*
D13*
X88000000Y-101000000D03*
D14*
X90540000Y-101000000D03*
D13*
X110000000Y-101000000D03*
D14*
X112540000Y-101000000D03*
D13*
X132000000Y-101000000D03*
D14*
X134540000Y-101000000D03*
D13*
X154000000Y-101000000D03*
D14*
X156540000Y-101000000D03*
D13*
X176000000Y-101000000D03*
D14*
X178540000Y-101000000D03*
D13*
X198000000Y-101000000D03*
D14*
X200540000Y-101000000D03*
D13*
X44000000Y-134000000D03*
D14*
X46540000Y-134000000D03*
D13*
X66000000Y-134000000D03*
D14*
X68540000Y-134000000D03*
D13*
X88000000Y-134000000D03*
D14*
X90540000Y-134000000D03*
D13*
X110000000Y-134000000D03*
D14*
X112540000Y-134000000D03*
D13*
X132000000Y-134000000D03*
D14*
X134540000Y-134000000D03*
D13*
X154000000Y-134000000D03*
D14*
X156540000Y-134000000D03*
D13*
X176000000Y-134000000D03*
D14*
X178540000Y-134000000D03*
D13*
X198000000Y-134500000D03*
D14*
X200540000Y-134500000D03*
D20*
X34000000Y-110880000D03*
D21*
X34000000Y-118500000D03*
D20*
X56500000Y-110880000D03*
D21*
X56500000Y-118500000D03*
D20*
X78500000Y-110880000D03*
D21*
X78500000Y-118500000D03*
D20*
X100000000Y-110880000D03*
D21*
X100000000Y-118500000D03*
D20*
X213500000Y-69380000D03*
D21*
X213500000Y-77000000D03*
D20*
X122500000Y-110880000D03*
D21*
X122500000Y-118500000D03*
D20*
X144500000Y-110880000D03*
D21*
X144500000Y-118500000D03*
D20*
X166500000Y-110880000D03*
D21*
X166500000Y-118500000D03*
D20*
X188000000Y-110880000D03*
D21*
X188000000Y-118500000D03*
X214500000Y-99500000D03*
D20*
X214500000Y-91880000D03*
X34500000Y-143880000D03*
D21*
X34500000Y-151500000D03*
D20*
X56500000Y-143880000D03*
D21*
X56500000Y-151500000D03*
D20*
X78500000Y-143880000D03*
D21*
X78500000Y-151500000D03*
D20*
X100500000Y-143880000D03*
D21*
X100500000Y-151500000D03*
D20*
X214500000Y-114880000D03*
D21*
X214500000Y-122500000D03*
D20*
X122500000Y-143880000D03*
D21*
X122500000Y-151500000D03*
D20*
X144500000Y-143880000D03*
D21*
X144500000Y-151500000D03*
D20*
X166500000Y-143880000D03*
D21*
X166500000Y-151500000D03*
D20*
X188500000Y-143880000D03*
D21*
X188500000Y-151500000D03*
D20*
X214000000Y-137880000D03*
D21*
X214000000Y-145500000D03*
D14*
X228780000Y-53460000D03*
X228780000Y-56000000D03*
X226240000Y-53460000D03*
X226240000Y-56000000D03*
X223700000Y-53460000D03*
X223700000Y-56000000D03*
X221160000Y-53460000D03*
X221160000Y-56000000D03*
X218620000Y-53460000D03*
X218620000Y-56000000D03*
X216080000Y-53460000D03*
X216080000Y-56000000D03*
X213540000Y-53460000D03*
X213540000Y-56000000D03*
X211000000Y-53460000D03*
D13*
X211000000Y-56000000D03*
D14*
X34500000Y-93840000D03*
X34500000Y-104000000D03*
X56000000Y-90840000D03*
X56000000Y-101000000D03*
X78000000Y-90840000D03*
X78000000Y-101000000D03*
X100500000Y-90840000D03*
X100500000Y-101000000D03*
X122500000Y-90840000D03*
X122500000Y-101000000D03*
X144500000Y-90840000D03*
X144500000Y-101000000D03*
X166500000Y-90840000D03*
X166500000Y-101000000D03*
X188000000Y-90840000D03*
X188000000Y-101000000D03*
X35000000Y-136160000D03*
X35000000Y-126000000D03*
X56500000Y-136160000D03*
X56500000Y-126000000D03*
X78500000Y-136160000D03*
X78500000Y-126000000D03*
X100000000Y-136160000D03*
X100000000Y-126000000D03*
X122500000Y-136160000D03*
X122500000Y-126000000D03*
X144500000Y-136160000D03*
X144500000Y-126000000D03*
X166500000Y-136160000D03*
X166500000Y-126000000D03*
X188000000Y-136160000D03*
X188000000Y-126000000D03*
X39500000Y-93840000D03*
X39500000Y-104000000D03*
X61000000Y-90840000D03*
X61000000Y-101000000D03*
X83000000Y-90840000D03*
X83000000Y-101000000D03*
X105000000Y-90840000D03*
X105000000Y-101000000D03*
X127000000Y-90840000D03*
X127000000Y-101000000D03*
X149000000Y-90840000D03*
X149000000Y-101000000D03*
X171000000Y-90840000D03*
X171000000Y-101000000D03*
X193000000Y-90840000D03*
X193000000Y-101000000D03*
X39500000Y-125840000D03*
X39500000Y-136000000D03*
X61000000Y-125840000D03*
X61000000Y-136000000D03*
X83500000Y-125840000D03*
X83500000Y-136000000D03*
X105000000Y-125840000D03*
X105000000Y-136000000D03*
X127000000Y-125840000D03*
X127000000Y-136000000D03*
X149500000Y-125840000D03*
X149500000Y-136000000D03*
X171500000Y-125840000D03*
X171500000Y-136000000D03*
X192500000Y-125840000D03*
X192500000Y-136000000D03*
D22*
X38800000Y-116000000D03*
X38800000Y-111000000D03*
D23*
X51600000Y-116000000D03*
X51600000Y-111000000D03*
D22*
X60800000Y-116000000D03*
X60800000Y-111000000D03*
D23*
X73600000Y-116000000D03*
X73600000Y-111000000D03*
D22*
X82800000Y-116000000D03*
X82800000Y-111000000D03*
D23*
X95600000Y-116000000D03*
X95600000Y-111000000D03*
D22*
X104800000Y-116000000D03*
X104800000Y-111000000D03*
D23*
X117600000Y-116000000D03*
X117600000Y-111000000D03*
D22*
X218800000Y-74500000D03*
X218800000Y-69500000D03*
D23*
X231600000Y-74500000D03*
X231600000Y-69500000D03*
D22*
X126800000Y-116000000D03*
X126800000Y-111000000D03*
D23*
X139600000Y-116000000D03*
X139600000Y-111000000D03*
D22*
X148800000Y-116000000D03*
X148800000Y-111000000D03*
D23*
X161600000Y-116000000D03*
X161600000Y-111000000D03*
D22*
X170800000Y-116000000D03*
X170800000Y-111000000D03*
D23*
X183600000Y-116000000D03*
X183600000Y-111000000D03*
D22*
X192800000Y-116000000D03*
X192800000Y-111000000D03*
D23*
X205600000Y-116000000D03*
X205600000Y-111000000D03*
D22*
X218800000Y-97000000D03*
X218800000Y-92000000D03*
D23*
X231600000Y-97000000D03*
X231600000Y-92000000D03*
D22*
X38800000Y-149000000D03*
X38800000Y-144000000D03*
D23*
X51600000Y-149000000D03*
X51600000Y-144000000D03*
D22*
X60800000Y-149000000D03*
X60800000Y-144000000D03*
D23*
X73600000Y-149000000D03*
X73600000Y-144000000D03*
D22*
X82800000Y-149000000D03*
X82800000Y-144000000D03*
D23*
X95600000Y-149000000D03*
X95600000Y-144000000D03*
D22*
X104800000Y-149000000D03*
X104800000Y-144000000D03*
D23*
X117600000Y-149000000D03*
X117600000Y-144000000D03*
D22*
X218800000Y-120000000D03*
X218800000Y-115000000D03*
D23*
X231600000Y-120000000D03*
X231600000Y-115000000D03*
D22*
X126800000Y-149000000D03*
X126800000Y-144000000D03*
D23*
X139600000Y-149000000D03*
X139600000Y-144000000D03*
D22*
X148800000Y-149000000D03*
X148800000Y-144000000D03*
D23*
X161600000Y-149000000D03*
X161600000Y-144000000D03*
D22*
X170800000Y-149000000D03*
X170800000Y-144000000D03*
D23*
X183600000Y-149000000D03*
X183600000Y-144000000D03*
D22*
X192800000Y-149000000D03*
X192800000Y-144000000D03*
D23*
X205600000Y-149000000D03*
X205600000Y-144000000D03*
D22*
X218800000Y-143000000D03*
X218800000Y-138000000D03*
D23*
X231600000Y-143000000D03*
X231600000Y-138000000D03*
D11*
X62880000Y-51000000D03*
X70500000Y-68780000D03*
X62880000Y-53540000D03*
X70500000Y-66240000D03*
X62880000Y-56080000D03*
X70500000Y-63700000D03*
X62880000Y-58620000D03*
X70500000Y-61160000D03*
X62880000Y-61160000D03*
X70500000Y-58620000D03*
X62880000Y-63700000D03*
X70500000Y-56080000D03*
X62880000Y-66240000D03*
X70500000Y-53540000D03*
X62880000Y-68780000D03*
D12*
X70500000Y-51000000D03*
M02*
