G04 #@! TF.GenerationSoftware,KiCad,Pcbnew,5.1.5+dfsg1-2build2*
G04 #@! TF.CreationDate,2021-04-11T17:34:26+02:00*
G04 #@! TF.ProjectId,Main_board,4d61696e-5f62-46f6-9172-642e6b696361,rev?*
G04 #@! TF.SameCoordinates,Original*
G04 #@! TF.FileFunction,Copper,L2,Bot*
G04 #@! TF.FilePolarity,Positive*
%FSLAX46Y46*%
G04 Gerber Fmt 4.6, Leading zero omitted, Abs format (unit mm)*
G04 Created by KiCad (PCBNEW 5.1.5+dfsg1-2build2) date 2021-04-11 17:34:26*
%MOMM*%
%LPD*%
G04 APERTURE LIST*
%ADD10C,5.600000*%
%ADD11O,2.400000X1.600000*%
%ADD12R,2.400000X1.600000*%
%ADD13R,2.000000X2.000000*%
%ADD14C,2.000000*%
%ADD15C,4.000000*%
%ADD16R,4.000000X4.000000*%
%ADD17C,1.905000*%
%ADD18R,1.905000X1.905000*%
%ADD19R,3.000000X2.500000*%
%ADD20O,1.600000X1.600000*%
%ADD21R,1.600000X1.600000*%
%ADD22O,4.000000X3.000000*%
%ADD23O,3.500000X2.000000*%
%ADD24C,0.800000*%
%ADD25C,0.250000*%
G04 APERTURE END LIST*
D10*
X98000000Y-56000000D03*
X162000000Y-104000000D03*
X174000000Y-82000000D03*
D11*
X48880000Y-51000000D03*
X56500000Y-68780000D03*
X48880000Y-53540000D03*
X56500000Y-66240000D03*
X48880000Y-56080000D03*
X56500000Y-63700000D03*
X48880000Y-58620000D03*
X56500000Y-61160000D03*
X48880000Y-61160000D03*
X56500000Y-58620000D03*
X48880000Y-63700000D03*
X56500000Y-56080000D03*
X48880000Y-66240000D03*
X56500000Y-53540000D03*
X48880000Y-68780000D03*
D12*
X56500000Y-51000000D03*
X34900000Y-86180000D03*
D11*
X42520000Y-68400000D03*
X34900000Y-83640000D03*
X42520000Y-70940000D03*
X34900000Y-81100000D03*
X42520000Y-73480000D03*
X34900000Y-78560000D03*
X42520000Y-76020000D03*
X34900000Y-76020000D03*
X42520000Y-78560000D03*
X34900000Y-73480000D03*
X42520000Y-81100000D03*
X34900000Y-70940000D03*
X42520000Y-83640000D03*
X34900000Y-68400000D03*
X42520000Y-86180000D03*
X34880000Y-46500000D03*
X42500000Y-64280000D03*
X34880000Y-49040000D03*
X42500000Y-61740000D03*
X34880000Y-51580000D03*
X42500000Y-59200000D03*
X34880000Y-54120000D03*
X42500000Y-56660000D03*
X34880000Y-56660000D03*
X42500000Y-54120000D03*
X34880000Y-59200000D03*
X42500000Y-51580000D03*
X34880000Y-61740000D03*
X42500000Y-49040000D03*
X34880000Y-64280000D03*
D12*
X42500000Y-46500000D03*
D13*
X185000000Y-56040000D03*
D14*
X185000000Y-53500000D03*
X187540000Y-56040000D03*
X187540000Y-53500000D03*
X190080000Y-56040000D03*
X190080000Y-53500000D03*
X192620000Y-56040000D03*
X192620000Y-53500000D03*
X195160000Y-56040000D03*
X195160000Y-53500000D03*
D15*
X119890000Y-54000000D03*
X114445000Y-54000000D03*
D16*
X109000000Y-54000000D03*
D17*
X187650000Y-67190000D03*
X190190000Y-67190000D03*
X192730000Y-67190000D03*
X195270000Y-67190000D03*
X197810000Y-67190000D03*
X200350000Y-67190000D03*
X197810000Y-74810000D03*
X195270000Y-74810000D03*
X192730000Y-74810000D03*
X190190000Y-74810000D03*
D18*
X187650000Y-74810000D03*
D14*
X121500000Y-71000000D03*
X121500000Y-66000000D03*
D19*
X114500000Y-74100000D03*
X114500000Y-62900000D03*
D14*
X107000000Y-71000000D03*
X107000000Y-68500000D03*
D13*
X107000000Y-66000000D03*
X139000000Y-66000000D03*
D14*
X139000000Y-68500000D03*
X139000000Y-71000000D03*
D19*
X146500000Y-62900000D03*
X146500000Y-74100000D03*
D14*
X153500000Y-66000000D03*
X153500000Y-71000000D03*
X89500000Y-71000000D03*
X89500000Y-66000000D03*
D19*
X82500000Y-74100000D03*
X82500000Y-62900000D03*
D14*
X75000000Y-71000000D03*
X75000000Y-68500000D03*
D13*
X75000000Y-66000000D03*
D14*
X159000000Y-74840000D03*
X159000000Y-85000000D03*
X127000000Y-74840000D03*
X127000000Y-85000000D03*
X95000000Y-74840000D03*
X95000000Y-85000000D03*
X138840000Y-84000000D03*
X149000000Y-84000000D03*
X106840000Y-84000000D03*
X117000000Y-84000000D03*
X74840000Y-84000000D03*
X85000000Y-84000000D03*
X138840000Y-79000000D03*
X149000000Y-79000000D03*
X106840000Y-79000000D03*
X117000000Y-79000000D03*
X74840000Y-79000000D03*
X85000000Y-79000000D03*
X179160000Y-67000000D03*
X169000000Y-67000000D03*
X179160000Y-72000000D03*
X169000000Y-72000000D03*
X179160000Y-77000000D03*
X169000000Y-77000000D03*
X168540000Y-53460000D03*
X168540000Y-56000000D03*
X166000000Y-53460000D03*
X166000000Y-56000000D03*
X163460000Y-53460000D03*
X163460000Y-56000000D03*
X160920000Y-53460000D03*
X160920000Y-56000000D03*
X158380000Y-53460000D03*
X158380000Y-56000000D03*
X155840000Y-53460000D03*
X155840000Y-56000000D03*
X153300000Y-53460000D03*
X153300000Y-56000000D03*
X150760000Y-53460000D03*
D13*
X150760000Y-56000000D03*
X160000000Y-66000000D03*
D14*
X162540000Y-66000000D03*
D13*
X127000000Y-66000000D03*
D14*
X129540000Y-66000000D03*
D13*
X95000000Y-66000000D03*
D14*
X97540000Y-66000000D03*
D13*
X44000000Y-93000000D03*
D14*
X46540000Y-93000000D03*
D13*
X66000000Y-93000000D03*
D14*
X68540000Y-93000000D03*
D13*
X88000000Y-93000000D03*
D14*
X90540000Y-93000000D03*
D13*
X110000000Y-93000000D03*
D14*
X112540000Y-93000000D03*
D13*
X132000000Y-93000000D03*
D14*
X134540000Y-93000000D03*
D13*
X154000000Y-93000000D03*
D14*
X156540000Y-93000000D03*
D13*
X176000000Y-93000000D03*
D14*
X178540000Y-93000000D03*
D13*
X197960000Y-93000000D03*
D14*
X200500000Y-93000000D03*
D13*
X44000000Y-126000000D03*
D14*
X46540000Y-126000000D03*
D13*
X66000000Y-126000000D03*
D14*
X68540000Y-126000000D03*
D13*
X88000000Y-126000000D03*
D14*
X90540000Y-126000000D03*
D13*
X110000000Y-126000000D03*
D14*
X112540000Y-126000000D03*
D13*
X132000000Y-126000000D03*
D14*
X134540000Y-126000000D03*
D13*
X154000000Y-126000000D03*
D14*
X156540000Y-126000000D03*
D13*
X176000000Y-126000000D03*
D14*
X178540000Y-126000000D03*
D13*
X197960000Y-126000000D03*
D14*
X200500000Y-126000000D03*
D13*
X44000000Y-101000000D03*
D14*
X46540000Y-101000000D03*
D13*
X66000000Y-101000000D03*
D14*
X68540000Y-101000000D03*
D13*
X88000000Y-101000000D03*
D14*
X90540000Y-101000000D03*
D13*
X110000000Y-101000000D03*
D14*
X112540000Y-101000000D03*
D13*
X132000000Y-101000000D03*
D14*
X134540000Y-101000000D03*
D13*
X154000000Y-101000000D03*
D14*
X156540000Y-101000000D03*
D13*
X176000000Y-101000000D03*
D14*
X178540000Y-101000000D03*
D13*
X198000000Y-101000000D03*
D14*
X200540000Y-101000000D03*
D13*
X44000000Y-134000000D03*
D14*
X46540000Y-134000000D03*
D13*
X66000000Y-134000000D03*
D14*
X68540000Y-134000000D03*
D13*
X88000000Y-134000000D03*
D14*
X90540000Y-134000000D03*
D13*
X110000000Y-134000000D03*
D14*
X112540000Y-134000000D03*
D13*
X132000000Y-134000000D03*
D14*
X134540000Y-134000000D03*
D13*
X154000000Y-134000000D03*
D14*
X156540000Y-134000000D03*
D13*
X176000000Y-134000000D03*
D14*
X178540000Y-134000000D03*
D13*
X198000000Y-134500000D03*
D14*
X200540000Y-134500000D03*
D20*
X34000000Y-110880000D03*
D21*
X34000000Y-118500000D03*
D20*
X56500000Y-110880000D03*
D21*
X56500000Y-118500000D03*
D20*
X78500000Y-110880000D03*
D21*
X78500000Y-118500000D03*
D20*
X100000000Y-110880000D03*
D21*
X100000000Y-118500000D03*
D20*
X213500000Y-69380000D03*
D21*
X213500000Y-77000000D03*
D20*
X122500000Y-110880000D03*
D21*
X122500000Y-118500000D03*
D20*
X144500000Y-110880000D03*
D21*
X144500000Y-118500000D03*
D20*
X166500000Y-110880000D03*
D21*
X166500000Y-118500000D03*
D20*
X188000000Y-110880000D03*
D21*
X188000000Y-118500000D03*
X214500000Y-99500000D03*
D20*
X214500000Y-91880000D03*
X34500000Y-143880000D03*
D21*
X34500000Y-151500000D03*
D20*
X56500000Y-143880000D03*
D21*
X56500000Y-151500000D03*
D20*
X78500000Y-143880000D03*
D21*
X78500000Y-151500000D03*
D20*
X100500000Y-143880000D03*
D21*
X100500000Y-151500000D03*
D20*
X214500000Y-114880000D03*
D21*
X214500000Y-122500000D03*
D20*
X122500000Y-143880000D03*
D21*
X122500000Y-151500000D03*
D20*
X144500000Y-143880000D03*
D21*
X144500000Y-151500000D03*
D20*
X166500000Y-143880000D03*
D21*
X166500000Y-151500000D03*
D20*
X188500000Y-143880000D03*
D21*
X188500000Y-151500000D03*
D20*
X214000000Y-137880000D03*
D21*
X214000000Y-145500000D03*
D14*
X228780000Y-53460000D03*
X228780000Y-56000000D03*
X226240000Y-53460000D03*
X226240000Y-56000000D03*
X223700000Y-53460000D03*
X223700000Y-56000000D03*
X221160000Y-53460000D03*
X221160000Y-56000000D03*
X218620000Y-53460000D03*
X218620000Y-56000000D03*
X216080000Y-53460000D03*
X216080000Y-56000000D03*
X213540000Y-53460000D03*
X213540000Y-56000000D03*
X211000000Y-53460000D03*
D13*
X211000000Y-56000000D03*
D14*
X34500000Y-93840000D03*
X34500000Y-104000000D03*
X56000000Y-90840000D03*
X56000000Y-101000000D03*
X78000000Y-90840000D03*
X78000000Y-101000000D03*
X100500000Y-90840000D03*
X100500000Y-101000000D03*
X122500000Y-90840000D03*
X122500000Y-101000000D03*
X144500000Y-90840000D03*
X144500000Y-101000000D03*
X166500000Y-90840000D03*
X166500000Y-101000000D03*
X188000000Y-90840000D03*
X188000000Y-101000000D03*
X35000000Y-136160000D03*
X35000000Y-126000000D03*
X56500000Y-136160000D03*
X56500000Y-126000000D03*
X78500000Y-136160000D03*
X78500000Y-126000000D03*
X100000000Y-136160000D03*
X100000000Y-126000000D03*
X122500000Y-136160000D03*
X122500000Y-126000000D03*
X144500000Y-136160000D03*
X144500000Y-126000000D03*
X166500000Y-136160000D03*
X166500000Y-126000000D03*
X188000000Y-136160000D03*
X188000000Y-126000000D03*
X39500000Y-93840000D03*
X39500000Y-104000000D03*
X61000000Y-90840000D03*
X61000000Y-101000000D03*
X83000000Y-90840000D03*
X83000000Y-101000000D03*
X105000000Y-90840000D03*
X105000000Y-101000000D03*
X127000000Y-90840000D03*
X127000000Y-101000000D03*
X149000000Y-90840000D03*
X149000000Y-101000000D03*
X171000000Y-90840000D03*
X171000000Y-101000000D03*
X193000000Y-90840000D03*
X193000000Y-101000000D03*
X39500000Y-125840000D03*
X39500000Y-136000000D03*
X61000000Y-125840000D03*
X61000000Y-136000000D03*
X83500000Y-125840000D03*
X83500000Y-136000000D03*
X105000000Y-125840000D03*
X105000000Y-136000000D03*
X127000000Y-125840000D03*
X127000000Y-136000000D03*
X149500000Y-125840000D03*
X149500000Y-136000000D03*
X171500000Y-125840000D03*
X171500000Y-136000000D03*
X192500000Y-125840000D03*
X192500000Y-136000000D03*
D22*
X38800000Y-116000000D03*
X38800000Y-111000000D03*
D23*
X51600000Y-116000000D03*
X51600000Y-111000000D03*
D22*
X60800000Y-116000000D03*
X60800000Y-111000000D03*
D23*
X73600000Y-116000000D03*
X73600000Y-111000000D03*
D22*
X82800000Y-116000000D03*
X82800000Y-111000000D03*
D23*
X95600000Y-116000000D03*
X95600000Y-111000000D03*
D22*
X104800000Y-116000000D03*
X104800000Y-111000000D03*
D23*
X117600000Y-116000000D03*
X117600000Y-111000000D03*
D22*
X218800000Y-74500000D03*
X218800000Y-69500000D03*
D23*
X231600000Y-74500000D03*
X231600000Y-69500000D03*
D22*
X126800000Y-116000000D03*
X126800000Y-111000000D03*
D23*
X139600000Y-116000000D03*
X139600000Y-111000000D03*
D22*
X148800000Y-116000000D03*
X148800000Y-111000000D03*
D23*
X161600000Y-116000000D03*
X161600000Y-111000000D03*
D22*
X170800000Y-116000000D03*
X170800000Y-111000000D03*
D23*
X183600000Y-116000000D03*
X183600000Y-111000000D03*
D22*
X192800000Y-116000000D03*
X192800000Y-111000000D03*
D23*
X205600000Y-116000000D03*
X205600000Y-111000000D03*
D22*
X218800000Y-97000000D03*
X218800000Y-92000000D03*
D23*
X231600000Y-97000000D03*
X231600000Y-92000000D03*
D22*
X38800000Y-149000000D03*
X38800000Y-144000000D03*
D23*
X51600000Y-149000000D03*
X51600000Y-144000000D03*
D22*
X60800000Y-149000000D03*
X60800000Y-144000000D03*
D23*
X73600000Y-149000000D03*
X73600000Y-144000000D03*
D22*
X82800000Y-149000000D03*
X82800000Y-144000000D03*
D23*
X95600000Y-149000000D03*
X95600000Y-144000000D03*
D22*
X104800000Y-149000000D03*
X104800000Y-144000000D03*
D23*
X117600000Y-149000000D03*
X117600000Y-144000000D03*
D22*
X218800000Y-120000000D03*
X218800000Y-115000000D03*
D23*
X231600000Y-120000000D03*
X231600000Y-115000000D03*
D22*
X126800000Y-149000000D03*
X126800000Y-144000000D03*
D23*
X139600000Y-149000000D03*
X139600000Y-144000000D03*
D22*
X148800000Y-149000000D03*
X148800000Y-144000000D03*
D23*
X161600000Y-149000000D03*
X161600000Y-144000000D03*
D22*
X170800000Y-149000000D03*
X170800000Y-144000000D03*
D23*
X183600000Y-149000000D03*
X183600000Y-144000000D03*
D22*
X192800000Y-149000000D03*
X192800000Y-144000000D03*
D23*
X205600000Y-149000000D03*
X205600000Y-144000000D03*
D22*
X218800000Y-143000000D03*
X218800000Y-138000000D03*
D23*
X231600000Y-143000000D03*
X231600000Y-138000000D03*
D11*
X62880000Y-51000000D03*
X70500000Y-68780000D03*
X62880000Y-53540000D03*
X70500000Y-66240000D03*
X62880000Y-56080000D03*
X70500000Y-63700000D03*
X62880000Y-58620000D03*
X70500000Y-61160000D03*
X62880000Y-61160000D03*
X70500000Y-58620000D03*
X62880000Y-63700000D03*
X70500000Y-56080000D03*
X62880000Y-66240000D03*
X70500000Y-53540000D03*
X62880000Y-68780000D03*
D12*
X70500000Y-51000000D03*
D24*
X133000000Y-74700000D03*
X132000000Y-73700000D03*
X130200000Y-72400000D03*
D25*
X44000000Y-134000000D02*
X44000000Y-126000000D01*
X66000000Y-134000000D02*
X66000000Y-126000000D01*
X88000000Y-132750000D02*
X88000000Y-126000000D01*
X88000000Y-134000000D02*
X88000000Y-132750000D01*
X110000000Y-132750000D02*
X110000000Y-126000000D01*
X110000000Y-134000000D02*
X110000000Y-132750000D01*
X132000000Y-134000000D02*
X132000000Y-126000000D01*
X154000000Y-134000000D02*
X154000000Y-126000000D01*
X176000000Y-134000000D02*
X176000000Y-126000000D01*
X198000000Y-126040000D02*
X197960000Y-126000000D01*
X198000000Y-134500000D02*
X198000000Y-126040000D01*
X198000000Y-93040000D02*
X197960000Y-93000000D01*
X198000000Y-101000000D02*
X198000000Y-93040000D01*
X176000000Y-101000000D02*
X176000000Y-93000000D01*
X154000000Y-101000000D02*
X154000000Y-93000000D01*
X132000000Y-99750000D02*
X132000000Y-93000000D01*
X132000000Y-101000000D02*
X132000000Y-99750000D01*
X110000000Y-101000000D02*
X110000000Y-93000000D01*
X88000000Y-101000000D02*
X88000000Y-93000000D01*
X66000000Y-101000000D02*
X66000000Y-93000000D01*
X176000000Y-101000000D02*
X176000000Y-102250000D01*
X198000000Y-102250000D02*
X198000000Y-101000000D01*
X197250000Y-103000000D02*
X198000000Y-102250000D01*
X176750000Y-103000000D02*
X197250000Y-103000000D01*
X176000000Y-102250000D02*
X176750000Y-103000000D01*
X154000000Y-102250000D02*
X154000000Y-101000000D01*
X132750000Y-103000000D02*
X153250000Y-103000000D01*
X153250000Y-103000000D02*
X154000000Y-102250000D01*
X132000000Y-102250000D02*
X132750000Y-103000000D01*
X132000000Y-102250000D02*
X132000000Y-101000000D01*
X110750000Y-103000000D02*
X131250000Y-103000000D01*
X131250000Y-103000000D02*
X132000000Y-102250000D01*
X110000000Y-102250000D02*
X110750000Y-103000000D01*
X110000000Y-102250000D02*
X110000000Y-101000000D01*
X109250000Y-103000000D02*
X110000000Y-102250000D01*
X88750000Y-103000000D02*
X109250000Y-103000000D01*
X88000000Y-102250000D02*
X88750000Y-103000000D01*
X88000000Y-102250000D02*
X88000000Y-101000000D01*
X87250000Y-103000000D02*
X88000000Y-102250000D01*
X66750000Y-103000000D02*
X87250000Y-103000000D01*
X66000000Y-102250000D02*
X66750000Y-103000000D01*
X66000000Y-102250000D02*
X66000000Y-101000000D01*
X65250000Y-103000000D02*
X66000000Y-102250000D01*
X44750000Y-103000000D02*
X65250000Y-103000000D01*
X44000000Y-102250000D02*
X44750000Y-103000000D01*
X44000000Y-101000000D02*
X44000000Y-102250000D01*
X64500000Y-138500000D02*
X47250000Y-138500000D01*
X47250000Y-138500000D02*
X44000000Y-135250000D01*
X66000000Y-137000000D02*
X64500000Y-138500000D01*
X44000000Y-135250000D02*
X44000000Y-134000000D01*
X66000000Y-134000000D02*
X66000000Y-137000000D01*
X87000000Y-68500000D02*
X75000000Y-68500000D01*
X89500000Y-71000000D02*
X87000000Y-68500000D01*
X94500000Y-66000000D02*
X95000000Y-66000000D01*
X89500000Y-71000000D02*
X94500000Y-66000000D01*
X105585787Y-68500000D02*
X107000000Y-68500000D01*
X96250000Y-68500000D02*
X105585787Y-68500000D01*
X95000000Y-67250000D02*
X96250000Y-68500000D01*
X95000000Y-66000000D02*
X95000000Y-67250000D01*
X119000000Y-68500000D02*
X121500000Y-71000000D01*
X107000000Y-68500000D02*
X119000000Y-68500000D01*
X126500000Y-66000000D02*
X127000000Y-66000000D01*
X121500000Y-71000000D02*
X126500000Y-66000000D01*
X137585787Y-68500000D02*
X139000000Y-68500000D01*
X128250000Y-68500000D02*
X137585787Y-68500000D01*
X127000000Y-67250000D02*
X128250000Y-68500000D01*
X127000000Y-66000000D02*
X127000000Y-67250000D01*
X151000000Y-68500000D02*
X153500000Y-71000000D01*
X139000000Y-68500000D02*
X151000000Y-68500000D01*
X159000000Y-71000000D02*
X154914213Y-71000000D01*
X161500000Y-73500000D02*
X159000000Y-71000000D01*
X154914213Y-71000000D02*
X153500000Y-71000000D01*
X161500000Y-84600000D02*
X161500000Y-73500000D01*
X164000000Y-87100000D02*
X161500000Y-84600000D01*
X197960000Y-91750000D02*
X193310000Y-87100000D01*
X193310000Y-87100000D02*
X164000000Y-87100000D01*
X197960000Y-93000000D02*
X197960000Y-91750000D01*
X48560000Y-58620000D02*
X48880000Y-58620000D01*
X42900000Y-64280000D02*
X48560000Y-58620000D01*
X42500000Y-64280000D02*
X42900000Y-64280000D01*
X59600000Y-61900000D02*
X62880000Y-58620000D01*
X59600000Y-65700000D02*
X59600000Y-61900000D01*
X56520000Y-68780000D02*
X59600000Y-65700000D01*
X56500000Y-68780000D02*
X56520000Y-68780000D01*
X45500000Y-91500000D02*
X44000000Y-93000000D01*
X45500000Y-81600000D02*
X45500000Y-91500000D01*
X42520000Y-78620000D02*
X45500000Y-81600000D01*
X42520000Y-78560000D02*
X42520000Y-78620000D01*
X58080000Y-68780000D02*
X56500000Y-68780000D01*
X59200000Y-89700000D02*
X63100000Y-85800000D01*
X63100000Y-85800000D02*
X63100000Y-73800000D01*
X59200000Y-91800000D02*
X59200000Y-89700000D01*
X63100000Y-73800000D02*
X58080000Y-68780000D01*
X60400000Y-93000000D02*
X59200000Y-91800000D01*
X66000000Y-93000000D02*
X60400000Y-93000000D01*
X42500000Y-64300000D02*
X42500000Y-64280000D01*
X38400000Y-68400000D02*
X42500000Y-64300000D01*
X34900000Y-68400000D02*
X38400000Y-68400000D01*
X154750000Y-103000000D02*
X154000000Y-102250000D01*
X157500000Y-103000000D02*
X154750000Y-103000000D01*
X160000000Y-100500000D02*
X157500000Y-103000000D01*
X163500000Y-100500000D02*
X160000000Y-100500000D01*
X175250000Y-103000000D02*
X166000000Y-103000000D01*
X166000000Y-103000000D02*
X163500000Y-100500000D01*
X176000000Y-102250000D02*
X175250000Y-103000000D01*
X90500000Y-92960000D02*
X90540000Y-93000000D01*
X90500000Y-91500000D02*
X90500000Y-92960000D01*
X90000000Y-91000000D02*
X90500000Y-91500000D01*
X86000000Y-91000000D02*
X90000000Y-91000000D01*
X78000000Y-99000000D02*
X86000000Y-91000000D01*
X78000000Y-101000000D02*
X78000000Y-99000000D01*
X112540000Y-91540000D02*
X112540000Y-93000000D01*
X112000000Y-91000000D02*
X112540000Y-91540000D01*
X109085787Y-91000000D02*
X112000000Y-91000000D01*
X100500000Y-99585787D02*
X109085787Y-91000000D01*
X100500000Y-101000000D02*
X100500000Y-99585787D01*
X134500000Y-91500000D02*
X134500000Y-92960000D01*
X134000000Y-91000000D02*
X134500000Y-91500000D01*
X134500000Y-92960000D02*
X134540000Y-93000000D01*
X131085787Y-91000000D02*
X134000000Y-91000000D01*
X122500000Y-99585787D02*
X131085787Y-91000000D01*
X122500000Y-101000000D02*
X122500000Y-99585787D01*
X156500000Y-92960000D02*
X156540000Y-93000000D01*
X156000000Y-91000000D02*
X156500000Y-91500000D01*
X153085787Y-91000000D02*
X156000000Y-91000000D01*
X156500000Y-91500000D02*
X156500000Y-92960000D01*
X144500000Y-99585787D02*
X153085787Y-91000000D01*
X144500000Y-101000000D02*
X144500000Y-99585787D01*
X178500000Y-92960000D02*
X178540000Y-93000000D01*
X178500000Y-91500000D02*
X178500000Y-92960000D01*
X178000000Y-91000000D02*
X178500000Y-91500000D01*
X175085787Y-91000000D02*
X178000000Y-91000000D01*
X166500000Y-99585787D02*
X175085787Y-91000000D01*
X166500000Y-101000000D02*
X166500000Y-99585787D01*
X56500000Y-124500000D02*
X56500000Y-126000000D01*
X57500000Y-123500000D02*
X56500000Y-124500000D01*
X67500000Y-123500000D02*
X57500000Y-123500000D01*
X68540000Y-124540000D02*
X67500000Y-123500000D01*
X68540000Y-126000000D02*
X68540000Y-124540000D01*
X38680000Y-110880000D02*
X38800000Y-111000000D01*
X34000000Y-110880000D02*
X38680000Y-110880000D01*
X51600000Y-111000000D02*
X38800000Y-111000000D01*
X98950000Y-118500000D02*
X100000000Y-118500000D01*
X90600000Y-118500000D02*
X98950000Y-118500000D01*
X85600000Y-113500000D02*
X90600000Y-118500000D01*
X80400000Y-113500000D02*
X85600000Y-113500000D01*
X78500000Y-115400000D02*
X80400000Y-113500000D01*
X78500000Y-118500000D02*
X78500000Y-115400000D01*
X76600000Y-113500000D02*
X78500000Y-115400000D01*
X58400000Y-113500000D02*
X76600000Y-113500000D01*
X56500000Y-115400000D02*
X58400000Y-113500000D01*
X56500000Y-118500000D02*
X56500000Y-115400000D01*
X55700000Y-114600000D02*
X56500000Y-115400000D01*
X54600000Y-113500000D02*
X55700000Y-114600000D01*
X36000000Y-113500000D02*
X54600000Y-113500000D01*
X34000000Y-115500000D02*
X36000000Y-113500000D01*
X34000000Y-118500000D02*
X34000000Y-115500000D01*
X212400000Y-78100000D02*
X212700000Y-77800000D01*
X212700000Y-77800000D02*
X213500000Y-77000000D01*
X199000000Y-113200000D02*
X212400000Y-99800000D01*
X103000000Y-113200000D02*
X199000000Y-113200000D01*
X100000000Y-116200000D02*
X103000000Y-113200000D01*
X212400000Y-99800000D02*
X212400000Y-78100000D01*
X100000000Y-118500000D02*
X100000000Y-116200000D01*
X60680000Y-110880000D02*
X60800000Y-111000000D01*
X56500000Y-110880000D02*
X60680000Y-110880000D01*
X73600000Y-111000000D02*
X60800000Y-111000000D01*
X82680000Y-110880000D02*
X82800000Y-111000000D01*
X78500000Y-110880000D02*
X82680000Y-110880000D01*
X104680000Y-110880000D02*
X104800000Y-111000000D01*
X100000000Y-110880000D02*
X104680000Y-110880000D01*
X231600000Y-69500000D02*
X218800000Y-69500000D01*
X213620000Y-69500000D02*
X213500000Y-69380000D01*
X218800000Y-69500000D02*
X213620000Y-69500000D01*
X126680000Y-110880000D02*
X126800000Y-111000000D01*
X122500000Y-110880000D02*
X126680000Y-110880000D01*
X190049989Y-113650011D02*
X199299989Y-113650011D01*
X199299989Y-113650011D02*
X213450000Y-99500000D01*
X188000000Y-115700000D02*
X190049989Y-113650011D01*
X188000000Y-118500000D02*
X188000000Y-115700000D01*
X213450000Y-99500000D02*
X214500000Y-99500000D01*
X188000000Y-115800000D02*
X188000000Y-118500000D01*
X185850011Y-113650011D02*
X188000000Y-115800000D01*
X168249989Y-113650011D02*
X185850011Y-113650011D01*
X166500000Y-115400000D02*
X168249989Y-113650011D01*
X166500000Y-118500000D02*
X166500000Y-115400000D01*
X164750011Y-113650011D02*
X166500000Y-115400000D01*
X144500000Y-115500000D02*
X146349989Y-113650011D01*
X146349989Y-113650011D02*
X164750011Y-113650011D01*
X144500000Y-118500000D02*
X144500000Y-115500000D01*
X144500000Y-115600000D02*
X144500000Y-118500000D01*
X142550011Y-113650011D02*
X144500000Y-115600000D01*
X124249989Y-113650011D02*
X142550011Y-113650011D01*
X122500000Y-115400000D02*
X124249989Y-113650011D01*
X122500000Y-118500000D02*
X122500000Y-115400000D01*
X218800000Y-92000000D02*
X231600000Y-92000000D01*
X218680000Y-91880000D02*
X218800000Y-92000000D01*
X214500000Y-91880000D02*
X218680000Y-91880000D01*
X34500000Y-151500000D02*
X56500000Y-151500000D01*
X56500000Y-151500000D02*
X78500000Y-151500000D01*
X79550000Y-151500000D02*
X100500000Y-151500000D01*
X78500000Y-151500000D02*
X79550000Y-151500000D01*
X101625001Y-152625001D02*
X100500000Y-151500000D01*
X209374999Y-152625001D02*
X101625001Y-152625001D01*
X215800000Y-146200000D02*
X209374999Y-152625001D01*
X215800000Y-123800000D02*
X215800000Y-146200000D01*
X214500000Y-122500000D02*
X215800000Y-123800000D01*
X38680000Y-143880000D02*
X38800000Y-144000000D01*
X34500000Y-143880000D02*
X38680000Y-143880000D01*
X60680000Y-143880000D02*
X60800000Y-144000000D01*
X56500000Y-143880000D02*
X60680000Y-143880000D01*
X82680000Y-143880000D02*
X82800000Y-144000000D01*
X78500000Y-143880000D02*
X82680000Y-143880000D01*
X104680000Y-143880000D02*
X104800000Y-144000000D01*
X100500000Y-143880000D02*
X104680000Y-143880000D01*
X218680000Y-114880000D02*
X218800000Y-115000000D01*
X214500000Y-114880000D02*
X218680000Y-114880000D01*
X221050000Y-115000000D02*
X231600000Y-115000000D01*
X218800000Y-115000000D02*
X221050000Y-115000000D01*
X122500000Y-151500000D02*
X144500000Y-151500000D01*
X144500000Y-151500000D02*
X166500000Y-151500000D01*
X167550000Y-151500000D02*
X188500000Y-151500000D01*
X166500000Y-151500000D02*
X167550000Y-151500000D01*
X214000000Y-146550000D02*
X214000000Y-145500000D01*
X209050000Y-151500000D02*
X214000000Y-146550000D01*
X188500000Y-151500000D02*
X209050000Y-151500000D01*
X126680000Y-143880000D02*
X126800000Y-144000000D01*
X122500000Y-143880000D02*
X126680000Y-143880000D01*
X148680000Y-143880000D02*
X148800000Y-144000000D01*
X144500000Y-143880000D02*
X148680000Y-143880000D01*
X170680000Y-143880000D02*
X170800000Y-144000000D01*
X166500000Y-143880000D02*
X170680000Y-143880000D01*
X192680000Y-143880000D02*
X192800000Y-144000000D01*
X188500000Y-143880000D02*
X192680000Y-143880000D01*
X218800000Y-138000000D02*
X231600000Y-138000000D01*
X126825010Y-149000000D02*
X126800000Y-149000000D01*
X129125010Y-146700000D02*
X126825010Y-149000000D01*
X129125010Y-118325010D02*
X129125010Y-146700000D01*
X126800000Y-116000000D02*
X129125010Y-118325010D01*
X51600000Y-116000000D02*
X38800000Y-116000000D01*
X41200000Y-146600000D02*
X38800000Y-149000000D01*
X42000000Y-145800000D02*
X41200000Y-146600000D01*
X42000000Y-119200000D02*
X42000000Y-145800000D01*
X38800000Y-116000000D02*
X42000000Y-119200000D01*
X148825010Y-149000000D02*
X148800000Y-149000000D01*
X151125010Y-146700000D02*
X148825010Y-149000000D01*
X151125010Y-118325010D02*
X151125010Y-146700000D01*
X148800000Y-116000000D02*
X151125010Y-118325010D01*
X69400000Y-116000000D02*
X60800000Y-116000000D01*
X73600000Y-116000000D02*
X69400000Y-116000000D01*
X73600000Y-116600000D02*
X73600000Y-116000000D01*
X71000000Y-145150000D02*
X71000000Y-119200000D01*
X71000000Y-119200000D02*
X73600000Y-116600000D01*
X73600000Y-147750000D02*
X71000000Y-145150000D01*
X73600000Y-149000000D02*
X73600000Y-147750000D01*
X85100000Y-146400000D02*
X85100000Y-146700000D01*
X85125010Y-146374990D02*
X85100000Y-146400000D01*
X85125010Y-118325010D02*
X85125010Y-146374990D01*
X85100000Y-146700000D02*
X82800000Y-149000000D01*
X82800000Y-116000000D02*
X85125010Y-118325010D01*
X173125010Y-146674990D02*
X173100000Y-146700000D01*
X173100000Y-146700000D02*
X170800000Y-149000000D01*
X173125010Y-118325010D02*
X173125010Y-146674990D01*
X170800000Y-116000000D02*
X173125010Y-118325010D01*
X48900000Y-63700000D02*
X48880000Y-63700000D01*
X50700000Y-65500000D02*
X48900000Y-63700000D01*
X50700000Y-71400000D02*
X50700000Y-65500000D01*
X48620000Y-73480000D02*
X50700000Y-71400000D01*
X42520000Y-73480000D02*
X48620000Y-73480000D01*
X51300000Y-63600000D02*
X48880000Y-61180000D01*
X51300000Y-71800000D02*
X51300000Y-63600000D01*
X47080000Y-76020000D02*
X51300000Y-71800000D01*
X48880000Y-61180000D02*
X48880000Y-61160000D01*
X42520000Y-76020000D02*
X47080000Y-76020000D01*
X62915000Y-63700000D02*
X62880000Y-63700000D01*
X65900000Y-60715000D02*
X62915000Y-63700000D01*
X65900000Y-51500000D02*
X65900000Y-60715000D01*
X47100000Y-49200000D02*
X63600000Y-49200000D01*
X43305010Y-52994990D02*
X47100000Y-49200000D01*
X33354990Y-53654006D02*
X34014006Y-52994990D01*
X33354990Y-59124990D02*
X33354990Y-53654006D01*
X34014006Y-52994990D02*
X43305010Y-52994990D01*
X33430000Y-59200000D02*
X33354990Y-59124990D01*
X63600000Y-49200000D02*
X65900000Y-51500000D01*
X34880000Y-59200000D02*
X33430000Y-59200000D01*
X63800000Y-52300000D02*
X65300000Y-53800000D01*
X47300000Y-52300000D02*
X63800000Y-52300000D01*
X44200000Y-55400000D02*
X47300000Y-52300000D01*
X63280000Y-61160000D02*
X62880000Y-61160000D01*
X65300000Y-59140000D02*
X63280000Y-61160000D01*
X65300000Y-53800000D02*
X65300000Y-59140000D01*
X35090000Y-55400000D02*
X44200000Y-55400000D01*
X34880000Y-55610000D02*
X35090000Y-55400000D01*
X34880000Y-56660000D02*
X34880000Y-55610000D01*
X233675010Y-122075010D02*
X231600000Y-120000000D01*
X233675010Y-140924990D02*
X233675010Y-122075010D01*
X231600000Y-143000000D02*
X233675010Y-140924990D01*
X233600000Y-99000000D02*
X231600000Y-97000000D01*
X233675010Y-99075010D02*
X233600000Y-99000000D01*
X233675010Y-117875010D02*
X233675010Y-99075010D01*
X233700000Y-117900000D02*
X233675010Y-117875010D01*
X231600000Y-120000000D02*
X233700000Y-117900000D01*
X233600000Y-76500000D02*
X231600000Y-74500000D01*
X233675010Y-76575010D02*
X233600000Y-76500000D01*
X233675010Y-94924990D02*
X233675010Y-76575010D01*
X231600000Y-97000000D02*
X233675010Y-94924990D01*
X218800000Y-143000000D02*
X231600000Y-143000000D01*
X221050000Y-120000000D02*
X231600000Y-120000000D01*
X218800000Y-120000000D02*
X221050000Y-120000000D01*
X218800000Y-74500000D02*
X231600000Y-74500000D01*
X221050000Y-97000000D02*
X231600000Y-97000000D01*
X218800000Y-97000000D02*
X221050000Y-97000000D01*
X233900000Y-72200000D02*
X231600000Y-74500000D01*
X232800000Y-56000000D02*
X233900000Y-57100000D01*
X233900000Y-57100000D02*
X233900000Y-72200000D01*
X228780000Y-56000000D02*
X232800000Y-56000000D01*
X104825010Y-149000000D02*
X104800000Y-149000000D01*
X107125010Y-146700000D02*
X104825010Y-149000000D01*
X107125010Y-118375010D02*
X107125010Y-146700000D01*
X104800000Y-116050000D02*
X107125010Y-118375010D01*
X104800000Y-116000000D02*
X104800000Y-116050000D01*
X195125010Y-146674990D02*
X192800000Y-149000000D01*
X195125010Y-118325010D02*
X195125010Y-146674990D01*
X192800000Y-116000000D02*
X195125010Y-118325010D01*
X205600000Y-116000000D02*
X205600000Y-139100000D01*
X205600000Y-139100000D02*
X208500000Y-142000000D01*
X207600000Y-149000000D02*
X205600000Y-149000000D01*
X208500000Y-148100000D02*
X207600000Y-149000000D01*
X208500000Y-142000000D02*
X208500000Y-148100000D01*
X48480000Y-66240000D02*
X48880000Y-66240000D01*
X43780000Y-70940000D02*
X48480000Y-66240000D01*
X42520000Y-70940000D02*
X43780000Y-70940000D01*
X61200000Y-70200000D02*
X70000000Y-79000000D01*
X73425787Y-79000000D02*
X74840000Y-79000000D01*
X61200000Y-67800000D02*
X61200000Y-70200000D01*
X70000000Y-79000000D02*
X73425787Y-79000000D01*
X62760000Y-66240000D02*
X61200000Y-67800000D01*
X62880000Y-66240000D02*
X62760000Y-66240000D01*
X62800000Y-51000000D02*
X62880000Y-51000000D01*
X61500000Y-49700000D02*
X62800000Y-51000000D01*
X50200000Y-49700000D02*
X61500000Y-49700000D01*
X48900000Y-51000000D02*
X50200000Y-49700000D01*
X48880000Y-51000000D02*
X48900000Y-51000000D01*
X34880000Y-45450000D02*
X34880000Y-46500000D01*
X35930000Y-44400000D02*
X34880000Y-45450000D01*
X44400000Y-44400000D02*
X35930000Y-44400000D01*
X48000000Y-48000000D02*
X44400000Y-44400000D01*
X64000000Y-48000000D02*
X48000000Y-48000000D01*
X67100000Y-51100000D02*
X64000000Y-48000000D01*
X67100000Y-71260000D02*
X67100000Y-51100000D01*
X74840000Y-79000000D02*
X67100000Y-71260000D01*
X74840000Y-84000000D02*
X77165001Y-86325001D01*
X77165001Y-86325001D02*
X104514999Y-86325001D01*
X104514999Y-86325001D02*
X105840001Y-84999999D01*
X105840001Y-84999999D02*
X106840000Y-84000000D01*
X34500000Y-93840000D02*
X34560000Y-93840000D01*
X48480000Y-53540000D02*
X48880000Y-53540000D01*
X44120000Y-57900000D02*
X48480000Y-53540000D01*
X38600000Y-64400000D02*
X38600000Y-59400000D01*
X34300000Y-66300000D02*
X36700000Y-66300000D01*
X38600000Y-59400000D02*
X40100000Y-57900000D01*
X36700000Y-66300000D02*
X38600000Y-64400000D01*
X32900000Y-92240000D02*
X32900000Y-67700000D01*
X40100000Y-57900000D02*
X44120000Y-57900000D01*
X32900000Y-67700000D02*
X34300000Y-66300000D01*
X34500000Y-93840000D02*
X32900000Y-92240000D01*
X39500000Y-93900000D02*
X39500000Y-93840000D01*
X40400000Y-94800000D02*
X39500000Y-93900000D01*
X47400000Y-94800000D02*
X40400000Y-94800000D01*
X54200000Y-88000000D02*
X47400000Y-94800000D01*
X54200000Y-58400000D02*
X54200000Y-88000000D01*
X55200000Y-57400000D02*
X54200000Y-58400000D01*
X59000000Y-57400000D02*
X55200000Y-57400000D01*
X62860000Y-53540000D02*
X59000000Y-57400000D01*
X62880000Y-53540000D02*
X62860000Y-53540000D01*
X72500000Y-53000000D02*
X70500000Y-51000000D01*
X72500000Y-73700000D02*
X72500000Y-53000000D01*
X76600000Y-77800000D02*
X72500000Y-73700000D01*
X75500000Y-81600000D02*
X76600000Y-80500000D01*
X76600000Y-80500000D02*
X76600000Y-77800000D01*
X70300000Y-81600000D02*
X75500000Y-81600000D01*
X61060000Y-90840000D02*
X70300000Y-81600000D01*
X61000000Y-90840000D02*
X61060000Y-90840000D01*
X32200000Y-51700000D02*
X34860000Y-49040000D01*
X32200000Y-120700000D02*
X32200000Y-51700000D01*
X37340000Y-125840000D02*
X32200000Y-120700000D01*
X34860000Y-49040000D02*
X34880000Y-49040000D01*
X39500000Y-125840000D02*
X37340000Y-125840000D01*
X48820000Y-68780000D02*
X48880000Y-68780000D01*
X45400000Y-72200000D02*
X48820000Y-68780000D01*
X41400000Y-72200000D02*
X45400000Y-72200000D01*
X40400000Y-73200000D02*
X41400000Y-72200000D01*
X40400000Y-79000000D02*
X40400000Y-73200000D01*
X42500000Y-81100000D02*
X40400000Y-79000000D01*
X42520000Y-81100000D02*
X42500000Y-81100000D01*
X63800000Y-48600000D02*
X66500000Y-51300000D01*
X47700000Y-48600000D02*
X63800000Y-48600000D01*
X44100000Y-45000000D02*
X47700000Y-48600000D01*
X39800000Y-45000000D02*
X44100000Y-45000000D01*
X38700000Y-46100000D02*
X39800000Y-45000000D01*
X37620000Y-51580000D02*
X38700000Y-50500000D01*
X62880000Y-68720000D02*
X62880000Y-68780000D01*
X66500000Y-65100000D02*
X62880000Y-68720000D01*
X66500000Y-51300000D02*
X66500000Y-65100000D01*
X38700000Y-50500000D02*
X38700000Y-46100000D01*
X34880000Y-51580000D02*
X37620000Y-51580000D01*
X210950000Y-56000000D02*
X211000000Y-56000000D01*
X208250000Y-58700000D02*
X210950000Y-56000000D01*
X119145000Y-58700000D02*
X208250000Y-58700000D01*
X114445000Y-54000000D02*
X119145000Y-58700000D01*
X132600001Y-75099999D02*
X133000000Y-74700000D01*
X125400000Y-82300000D02*
X132600001Y-75099999D01*
X97700000Y-82300000D02*
X125400000Y-82300000D01*
X95000000Y-85000000D02*
X97700000Y-82300000D01*
X124000000Y-81700000D02*
X131600001Y-74099999D01*
X87300000Y-81700000D02*
X124000000Y-81700000D01*
X85000000Y-84000000D02*
X87300000Y-81700000D01*
X131600001Y-74099999D02*
X132000000Y-73700000D01*
X91600000Y-72400000D02*
X130200000Y-72400000D01*
X85000000Y-79000000D02*
X91600000Y-72400000D01*
M02*
