G04 #@! TF.GenerationSoftware,KiCad,Pcbnew,5.1.5+dfsg1-2build2*
G04 #@! TF.CreationDate,2021-04-11T17:34:26+02:00*
G04 #@! TF.ProjectId,Main_board,4d61696e-5f62-46f6-9172-642e6b696361,rev?*
G04 #@! TF.SameCoordinates,Original*
G04 #@! TF.FileFunction,Legend,Bot*
G04 #@! TF.FilePolarity,Positive*
%FSLAX46Y46*%
G04 Gerber Fmt 4.6, Leading zero omitted, Abs format (unit mm)*
G04 Created by KiCad (PCBNEW 5.1.5+dfsg1-2build2) date 2021-04-11 17:34:26*
%MOMM*%
%LPD*%
G04 APERTURE LIST*
%ADD10C,0.150000*%
%ADD11C,0.120000*%
G04 APERTURE END LIST*
D10*
X87995100Y-57403082D02*
X87129075Y-56903082D01*
X87953861Y-57379273D02*
X88042719Y-57320604D01*
X88137957Y-57155646D01*
X88144337Y-57049358D01*
X88126907Y-56984309D01*
X88068238Y-56895451D01*
X87820802Y-56752594D01*
X87714514Y-56746214D01*
X87649465Y-56763644D01*
X87560607Y-56822313D01*
X87465369Y-56987270D01*
X87458989Y-57093558D01*
X87941559Y-56162484D02*
X87935180Y-56268772D01*
X87993849Y-56357631D01*
X88736156Y-56786202D01*
X88203464Y-55708852D02*
X88197084Y-55815140D01*
X88214514Y-55880189D01*
X88273183Y-55969047D01*
X88520619Y-56111904D01*
X88626907Y-56118284D01*
X88691956Y-56100854D01*
X88780814Y-56042185D01*
X88852243Y-55918467D01*
X88858623Y-55812179D01*
X88841193Y-55747130D01*
X88782524Y-55658272D01*
X88535088Y-55515415D01*
X88428800Y-55509035D01*
X88363751Y-55526465D01*
X88274893Y-55585134D01*
X88203464Y-55708852D01*
X89161767Y-55382356D02*
X88295741Y-54882356D01*
X89120528Y-55358547D02*
X89209386Y-55299878D01*
X89304624Y-55134920D01*
X89311004Y-55028632D01*
X89293574Y-54963583D01*
X89234905Y-54874725D01*
X88987469Y-54731868D01*
X88881181Y-54725488D01*
X88816132Y-54742918D01*
X88727274Y-54801587D01*
X88632036Y-54966544D01*
X88625656Y-55072832D01*
X90514285Y-58880952D02*
X89514285Y-58880952D01*
X90466666Y-58880952D02*
X90514285Y-58785714D01*
X90514285Y-58595238D01*
X90466666Y-58500000D01*
X90419047Y-58452380D01*
X90323809Y-58404761D01*
X90038095Y-58404761D01*
X89942857Y-58452380D01*
X89895238Y-58500000D01*
X89847619Y-58595238D01*
X89847619Y-58785714D01*
X89895238Y-58880952D01*
X89847619Y-57833333D02*
X89895238Y-57928571D01*
X89990476Y-57976190D01*
X90847619Y-57976190D01*
X89847619Y-57309523D02*
X89895238Y-57404761D01*
X89942857Y-57452380D01*
X90038095Y-57500000D01*
X90323809Y-57500000D01*
X90419047Y-57452380D01*
X90466666Y-57404761D01*
X90514285Y-57309523D01*
X90514285Y-57166666D01*
X90466666Y-57071428D01*
X90419047Y-57023809D01*
X90323809Y-56976190D01*
X90038095Y-56976190D01*
X89942857Y-57023809D01*
X89895238Y-57071428D01*
X89847619Y-57166666D01*
X89847619Y-57309523D01*
X90514285Y-56547619D02*
X89514285Y-56547619D01*
X90466666Y-56547619D02*
X90514285Y-56452380D01*
X90514285Y-56261904D01*
X90466666Y-56166666D01*
X90419047Y-56119047D01*
X90323809Y-56071428D01*
X90038095Y-56071428D01*
X89942857Y-56119047D01*
X89895238Y-56166666D01*
X89847619Y-56261904D01*
X89847619Y-56452380D01*
X89895238Y-56547619D01*
X90649169Y-57177237D02*
X91633977Y-57003589D01*
X90696065Y-57168968D02*
X90665707Y-57271028D01*
X90698783Y-57458611D01*
X90762217Y-57544133D01*
X90817381Y-57582760D01*
X90919441Y-57613117D01*
X91200815Y-57563504D01*
X91286337Y-57500070D01*
X91324964Y-57444906D01*
X91355322Y-57342845D01*
X91322246Y-57155263D01*
X91258812Y-57069741D01*
X91487625Y-58093175D02*
X91424192Y-58007653D01*
X91322131Y-57977295D01*
X90478010Y-58126136D01*
X91578584Y-58609027D02*
X91515150Y-58523505D01*
X91459986Y-58484878D01*
X91357925Y-58454520D01*
X91076552Y-58504134D01*
X90991029Y-58567568D01*
X90952403Y-58622732D01*
X90922045Y-58724792D01*
X90946852Y-58865479D01*
X91010286Y-58951001D01*
X91065450Y-58989628D01*
X91167510Y-59019986D01*
X91448884Y-58970372D01*
X91534406Y-58906938D01*
X91573033Y-58851774D01*
X91603390Y-58749714D01*
X91578584Y-58609027D01*
X91054348Y-59475122D02*
X92039156Y-59301474D01*
X91101244Y-59466853D02*
X91070886Y-59568913D01*
X91103962Y-59756496D01*
X91167396Y-59842018D01*
X91222560Y-59880645D01*
X91324621Y-59911002D01*
X91605994Y-59861388D01*
X91691516Y-59797955D01*
X91730143Y-59742790D01*
X91760501Y-59640730D01*
X91727425Y-59453148D01*
X91663991Y-59367625D01*
X87485714Y-56519047D02*
X88485714Y-56519047D01*
X87533333Y-56519047D02*
X87485714Y-56614285D01*
X87485714Y-56804761D01*
X87533333Y-56900000D01*
X87580952Y-56947619D01*
X87676190Y-56995238D01*
X87961904Y-56995238D01*
X88057142Y-56947619D01*
X88104761Y-56900000D01*
X88152380Y-56804761D01*
X88152380Y-56614285D01*
X88104761Y-56519047D01*
X88152380Y-57566666D02*
X88104761Y-57471428D01*
X88009523Y-57423809D01*
X87152380Y-57423809D01*
X88152380Y-58090476D02*
X88104761Y-57995238D01*
X88057142Y-57947619D01*
X87961904Y-57900000D01*
X87676190Y-57900000D01*
X87580952Y-57947619D01*
X87533333Y-57995238D01*
X87485714Y-58090476D01*
X87485714Y-58233333D01*
X87533333Y-58328571D01*
X87580952Y-58376190D01*
X87676190Y-58423809D01*
X87961904Y-58423809D01*
X88057142Y-58376190D01*
X88104761Y-58328571D01*
X88152380Y-58233333D01*
X88152380Y-58090476D01*
X87485714Y-58852380D02*
X88485714Y-58852380D01*
X87533333Y-58852380D02*
X87485714Y-58947619D01*
X87485714Y-59138095D01*
X87533333Y-59233333D01*
X87580952Y-59280952D01*
X87676190Y-59328571D01*
X87961904Y-59328571D01*
X88057142Y-59280952D01*
X88104761Y-59233333D01*
X88152380Y-59138095D01*
X88152380Y-58947619D01*
X88104761Y-58852380D01*
X87350830Y-58222762D02*
X86366022Y-58396410D01*
X87303934Y-58231031D02*
X87334292Y-58128971D01*
X87301216Y-57941388D01*
X87237782Y-57855866D01*
X87182618Y-57817239D01*
X87080558Y-57786882D01*
X86799184Y-57836495D01*
X86713662Y-57899929D01*
X86675035Y-57955093D01*
X86644677Y-58057154D01*
X86677753Y-58244736D01*
X86741187Y-58330258D01*
X86512374Y-57306824D02*
X86575807Y-57392346D01*
X86677868Y-57422704D01*
X87521989Y-57273863D01*
X86421415Y-56790972D02*
X86484849Y-56876494D01*
X86540013Y-56915121D01*
X86642074Y-56945479D01*
X86923447Y-56895865D01*
X87008970Y-56832431D01*
X87047596Y-56777267D01*
X87077954Y-56675207D01*
X87053147Y-56534520D01*
X86989713Y-56448998D01*
X86934549Y-56410371D01*
X86832489Y-56380013D01*
X86551115Y-56429627D01*
X86465593Y-56493061D01*
X86426966Y-56548225D01*
X86396609Y-56650285D01*
X86421415Y-56790972D01*
X86945651Y-55924877D02*
X85960843Y-56098525D01*
X86898755Y-55933146D02*
X86929113Y-55831086D01*
X86896037Y-55643503D01*
X86832603Y-55557981D01*
X86777439Y-55519354D01*
X86675378Y-55488997D01*
X86394005Y-55538611D01*
X86308483Y-55602044D01*
X86269856Y-55657209D01*
X86239498Y-55759269D01*
X86272574Y-55946851D01*
X86336008Y-56032374D01*
X91519047Y-55314285D02*
X91519047Y-54314285D01*
X91519047Y-55266666D02*
X91614285Y-55314285D01*
X91804761Y-55314285D01*
X91900000Y-55266666D01*
X91947619Y-55219047D01*
X91995238Y-55123809D01*
X91995238Y-54838095D01*
X91947619Y-54742857D01*
X91900000Y-54695238D01*
X91804761Y-54647619D01*
X91614285Y-54647619D01*
X91519047Y-54695238D01*
X92566666Y-54647619D02*
X92471428Y-54695238D01*
X92423809Y-54790476D01*
X92423809Y-55647619D01*
X93090476Y-54647619D02*
X92995238Y-54695238D01*
X92947619Y-54742857D01*
X92900000Y-54838095D01*
X92900000Y-55123809D01*
X92947619Y-55219047D01*
X92995238Y-55266666D01*
X93090476Y-55314285D01*
X93233333Y-55314285D01*
X93328571Y-55266666D01*
X93376190Y-55219047D01*
X93423809Y-55123809D01*
X93423809Y-54838095D01*
X93376190Y-54742857D01*
X93328571Y-54695238D01*
X93233333Y-54647619D01*
X93090476Y-54647619D01*
X93852380Y-55314285D02*
X93852380Y-54314285D01*
X93852380Y-55266666D02*
X93947619Y-55314285D01*
X94138095Y-55314285D01*
X94233333Y-55266666D01*
X94280952Y-55219047D01*
X94328571Y-55123809D01*
X94328571Y-54838095D01*
X94280952Y-54742857D01*
X94233333Y-54695238D01*
X94138095Y-54647619D01*
X93947619Y-54647619D01*
X93852380Y-54695238D01*
X90004899Y-57996917D02*
X90870924Y-58496917D01*
X90046138Y-58020726D02*
X89957280Y-58079395D01*
X89862042Y-58244353D01*
X89855662Y-58350641D01*
X89873092Y-58415690D01*
X89931761Y-58504548D01*
X90179197Y-58647405D01*
X90285485Y-58653785D01*
X90350534Y-58636355D01*
X90439392Y-58577686D01*
X90534630Y-58412729D01*
X90541010Y-58306441D01*
X90058440Y-59237515D02*
X90064819Y-59131227D01*
X90006150Y-59042368D01*
X89263843Y-58613797D01*
X89796535Y-59691147D02*
X89802915Y-59584859D01*
X89785485Y-59519810D01*
X89726816Y-59430952D01*
X89479380Y-59288095D01*
X89373092Y-59281715D01*
X89308043Y-59299145D01*
X89219185Y-59357814D01*
X89147756Y-59481532D01*
X89141376Y-59587820D01*
X89158806Y-59652869D01*
X89217475Y-59741727D01*
X89464911Y-59884584D01*
X89571199Y-59890964D01*
X89636248Y-59873534D01*
X89725106Y-59814865D01*
X89796535Y-59691147D01*
X88838232Y-60017643D02*
X89704258Y-60517643D01*
X88879471Y-60041452D02*
X88790613Y-60100121D01*
X88695375Y-60265079D01*
X88688995Y-60371367D01*
X88706425Y-60436416D01*
X88765094Y-60525274D01*
X89012530Y-60668131D01*
X89118818Y-60674511D01*
X89183867Y-60657081D01*
X89272725Y-60598412D01*
X89367963Y-60433455D01*
X89374343Y-60327167D01*
X92324380Y-55626323D02*
X92666400Y-56566016D01*
X92340667Y-55671071D02*
X92234886Y-55658897D01*
X92055897Y-55724043D01*
X91982689Y-55801364D01*
X91954228Y-55862398D01*
X91942054Y-55968179D01*
X92039774Y-56236663D01*
X92117095Y-56309871D01*
X92178129Y-56338331D01*
X92283910Y-56350505D01*
X92462899Y-56285358D01*
X92536107Y-56208038D01*
X91567954Y-56611092D02*
X91641162Y-56533771D01*
X91653336Y-56427990D01*
X91360175Y-55622539D01*
X91075734Y-56790245D02*
X91148942Y-56712925D01*
X91177402Y-56651891D01*
X91189576Y-56546109D01*
X91091856Y-56277626D01*
X91014536Y-56204418D01*
X90953502Y-56175957D01*
X90847720Y-56163783D01*
X90713479Y-56212644D01*
X90640271Y-56289964D01*
X90611810Y-56350998D01*
X90599636Y-56456779D01*
X90697356Y-56725263D01*
X90774677Y-56798471D01*
X90835711Y-56826931D01*
X90941492Y-56839105D01*
X91075734Y-56790245D01*
X90131764Y-56424370D02*
X90473784Y-57364063D01*
X90148051Y-56469118D02*
X90042270Y-56456944D01*
X89863281Y-56522090D01*
X89790073Y-56599411D01*
X89761612Y-56660445D01*
X89749438Y-56766226D01*
X89847158Y-57034710D01*
X89924479Y-57107918D01*
X89985513Y-57136378D01*
X90091294Y-57148552D01*
X90270283Y-57083405D01*
X90343491Y-57006085D01*
X95222762Y-53849169D02*
X95396410Y-54833977D01*
X95231031Y-53896065D02*
X95128971Y-53865707D01*
X94941388Y-53898783D01*
X94855866Y-53962217D01*
X94817239Y-54017381D01*
X94786882Y-54119441D01*
X94836495Y-54400815D01*
X94899929Y-54486337D01*
X94955093Y-54524964D01*
X95057154Y-54555322D01*
X95244736Y-54522246D01*
X95330258Y-54458812D01*
X94306824Y-54687625D02*
X94392346Y-54624192D01*
X94422704Y-54522131D01*
X94273863Y-53678010D01*
X93790972Y-54778584D02*
X93876494Y-54715150D01*
X93915121Y-54659986D01*
X93945479Y-54557925D01*
X93895865Y-54276552D01*
X93832431Y-54191029D01*
X93777267Y-54152403D01*
X93675207Y-54122045D01*
X93534520Y-54146852D01*
X93448998Y-54210286D01*
X93410371Y-54265450D01*
X93380013Y-54367510D01*
X93429627Y-54648884D01*
X93493061Y-54734406D01*
X93548225Y-54773033D01*
X93650285Y-54803390D01*
X93790972Y-54778584D01*
X92924877Y-54254348D02*
X93098525Y-55239156D01*
X92933146Y-54301244D02*
X92831086Y-54270886D01*
X92643503Y-54303962D01*
X92557981Y-54367396D01*
X92519354Y-54422560D01*
X92488997Y-54524621D01*
X92538611Y-54805994D01*
X92602044Y-54891516D01*
X92657209Y-54930143D01*
X92759269Y-54960501D01*
X92946851Y-54927425D01*
X93032374Y-54863991D01*
X92373676Y-55524380D02*
X91433983Y-55866400D01*
X92328928Y-55540667D02*
X92341102Y-55434886D01*
X92275956Y-55255897D01*
X92198635Y-55182689D01*
X92137601Y-55154228D01*
X92031820Y-55142054D01*
X91763336Y-55239774D01*
X91690128Y-55317095D01*
X91661668Y-55378129D01*
X91649494Y-55483910D01*
X91714641Y-55662899D01*
X91791961Y-55736107D01*
X91388907Y-54767954D02*
X91466228Y-54841162D01*
X91572009Y-54853336D01*
X92377460Y-54560175D01*
X91209754Y-54275734D02*
X91287074Y-54348942D01*
X91348108Y-54377402D01*
X91453890Y-54389576D01*
X91722373Y-54291856D01*
X91795581Y-54214536D01*
X91824042Y-54153502D01*
X91836216Y-54047720D01*
X91787355Y-53913479D01*
X91710035Y-53840271D01*
X91649001Y-53811810D01*
X91543220Y-53799636D01*
X91274736Y-53897356D01*
X91201528Y-53974677D01*
X91173068Y-54035711D01*
X91160894Y-54141492D01*
X91209754Y-54275734D01*
X91575629Y-53331764D02*
X90635936Y-53673784D01*
X91530881Y-53348051D02*
X91543055Y-53242270D01*
X91477909Y-53063281D01*
X91400588Y-52990073D01*
X91339554Y-52961612D01*
X91233773Y-52949438D01*
X90965289Y-53047158D01*
X90892081Y-53124479D01*
X90863621Y-53185513D01*
X90851447Y-53291294D01*
X90916594Y-53470283D01*
X90993914Y-53543491D01*
D11*
X47440000Y-49610000D02*
X57940000Y-49610000D01*
X47440000Y-70170000D02*
X47440000Y-49610000D01*
X57940000Y-70170000D02*
X47440000Y-70170000D01*
X57940000Y-49610000D02*
X57940000Y-70170000D01*
X50440000Y-49670000D02*
X51690000Y-49670000D01*
X50440000Y-70110000D02*
X50440000Y-49670000D01*
X54940000Y-70110000D02*
X50440000Y-70110000D01*
X54940000Y-49670000D02*
X54940000Y-70110000D01*
X53690000Y-49670000D02*
X54940000Y-49670000D01*
X51690000Y-49670000D02*
G75*
G03X53690000Y-49670000I1000000J0D01*
G01*
X39710000Y-87510000D02*
G75*
G03X37710000Y-87510000I-1000000J0D01*
G01*
X37710000Y-87510000D02*
X36460000Y-87510000D01*
X36460000Y-87510000D02*
X36460000Y-67070000D01*
X36460000Y-67070000D02*
X40960000Y-67070000D01*
X40960000Y-67070000D02*
X40960000Y-87510000D01*
X40960000Y-87510000D02*
X39710000Y-87510000D01*
X33460000Y-87570000D02*
X33460000Y-67010000D01*
X33460000Y-67010000D02*
X43960000Y-67010000D01*
X43960000Y-67010000D02*
X43960000Y-87570000D01*
X43960000Y-87570000D02*
X33460000Y-87570000D01*
X33440000Y-45110000D02*
X43940000Y-45110000D01*
X33440000Y-65670000D02*
X33440000Y-45110000D01*
X43940000Y-65670000D02*
X33440000Y-65670000D01*
X43940000Y-45110000D02*
X43940000Y-65670000D01*
X36440000Y-45170000D02*
X37690000Y-45170000D01*
X36440000Y-65610000D02*
X36440000Y-45170000D01*
X40940000Y-65610000D02*
X36440000Y-65610000D01*
X40940000Y-45170000D02*
X40940000Y-65610000D01*
X39690000Y-45170000D02*
X40940000Y-45170000D01*
X37690000Y-45170000D02*
G75*
G03X39690000Y-45170000I1000000J0D01*
G01*
X61440000Y-49610000D02*
X71940000Y-49610000D01*
X61440000Y-70170000D02*
X61440000Y-49610000D01*
X71940000Y-70170000D02*
X61440000Y-70170000D01*
X71940000Y-49610000D02*
X71940000Y-70170000D01*
X64440000Y-49670000D02*
X65690000Y-49670000D01*
X64440000Y-70110000D02*
X64440000Y-49670000D01*
X68940000Y-70110000D02*
X64440000Y-70110000D01*
X68940000Y-49670000D02*
X68940000Y-70110000D01*
X67690000Y-49670000D02*
X68940000Y-49670000D01*
X65690000Y-49670000D02*
G75*
G03X67690000Y-49670000I1000000J0D01*
G01*
D10*
X48452380Y-70738095D02*
X49261904Y-70738095D01*
X49357142Y-70785714D01*
X49404761Y-70833333D01*
X49452380Y-70928571D01*
X49452380Y-71119047D01*
X49404761Y-71214285D01*
X49357142Y-71261904D01*
X49261904Y-71309523D01*
X48452380Y-71309523D01*
X49452380Y-72309523D02*
X49452380Y-71738095D01*
X49452380Y-72023809D02*
X48452380Y-72023809D01*
X48595238Y-71928571D01*
X48690476Y-71833333D01*
X48738095Y-71738095D01*
X41852380Y-64918095D02*
X42661904Y-64918095D01*
X42757142Y-64965714D01*
X42804761Y-65013333D01*
X42852380Y-65108571D01*
X42852380Y-65299047D01*
X42804761Y-65394285D01*
X42757142Y-65441904D01*
X42661904Y-65489523D01*
X41852380Y-65489523D01*
X41947619Y-65918095D02*
X41900000Y-65965714D01*
X41852380Y-66060952D01*
X41852380Y-66299047D01*
X41900000Y-66394285D01*
X41947619Y-66441904D01*
X42042857Y-66489523D01*
X42138095Y-66489523D01*
X42280952Y-66441904D01*
X42852380Y-65870476D01*
X42852380Y-66489523D01*
X34452380Y-66238095D02*
X35261904Y-66238095D01*
X35357142Y-66285714D01*
X35404761Y-66333333D01*
X35452380Y-66428571D01*
X35452380Y-66619047D01*
X35404761Y-66714285D01*
X35357142Y-66761904D01*
X35261904Y-66809523D01*
X34452380Y-66809523D01*
X34785714Y-67714285D02*
X35452380Y-67714285D01*
X34404761Y-67476190D02*
X35119047Y-67238095D01*
X35119047Y-67857142D01*
X74261904Y-67952380D02*
X74261904Y-68761904D01*
X74214285Y-68857142D01*
X74166666Y-68904761D01*
X74071428Y-68952380D01*
X73880952Y-68952380D01*
X73785714Y-68904761D01*
X73738095Y-68857142D01*
X73690476Y-68761904D01*
X73690476Y-67952380D01*
X73309523Y-67952380D02*
X72690476Y-67952380D01*
X73023809Y-68333333D01*
X72880952Y-68333333D01*
X72785714Y-68380952D01*
X72738095Y-68428571D01*
X72690476Y-68523809D01*
X72690476Y-68761904D01*
X72738095Y-68857142D01*
X72785714Y-68904761D01*
X72880952Y-68952380D01*
X73166666Y-68952380D01*
X73261904Y-68904761D01*
X73309523Y-68857142D01*
M02*
