G04 #@! TF.GenerationSoftware,KiCad,Pcbnew,5.1.5+dfsg1-2build2*
G04 #@! TF.CreationDate,2021-04-11T17:34:26+02:00*
G04 #@! TF.ProjectId,Main_board,4d61696e-5f62-46f6-9172-642e6b696361,rev?*
G04 #@! TF.SameCoordinates,Original*
G04 #@! TF.FileFunction,Copper,L1,Top*
G04 #@! TF.FilePolarity,Positive*
%FSLAX46Y46*%
G04 Gerber Fmt 4.6, Leading zero omitted, Abs format (unit mm)*
G04 Created by KiCad (PCBNEW 5.1.5+dfsg1-2build2) date 2021-04-11 17:34:26*
%MOMM*%
%LPD*%
G04 APERTURE LIST*
%ADD10C,5.600000*%
%ADD11O,2.400000X1.600000*%
%ADD12R,2.400000X1.600000*%
%ADD13R,2.000000X2.000000*%
%ADD14C,2.000000*%
%ADD15C,4.000000*%
%ADD16R,4.000000X4.000000*%
%ADD17C,1.905000*%
%ADD18R,1.905000X1.905000*%
%ADD19R,3.000000X2.500000*%
%ADD20O,1.600000X1.600000*%
%ADD21R,1.600000X1.600000*%
%ADD22O,4.000000X3.000000*%
%ADD23O,3.500000X2.000000*%
%ADD24C,0.800000*%
%ADD25C,0.250000*%
G04 APERTURE END LIST*
D10*
X98000000Y-56000000D03*
X162000000Y-104000000D03*
X174000000Y-82000000D03*
D11*
X48880000Y-51000000D03*
X56500000Y-68780000D03*
X48880000Y-53540000D03*
X56500000Y-66240000D03*
X48880000Y-56080000D03*
X56500000Y-63700000D03*
X48880000Y-58620000D03*
X56500000Y-61160000D03*
X48880000Y-61160000D03*
X56500000Y-58620000D03*
X48880000Y-63700000D03*
X56500000Y-56080000D03*
X48880000Y-66240000D03*
X56500000Y-53540000D03*
X48880000Y-68780000D03*
D12*
X56500000Y-51000000D03*
X34900000Y-86180000D03*
D11*
X42520000Y-68400000D03*
X34900000Y-83640000D03*
X42520000Y-70940000D03*
X34900000Y-81100000D03*
X42520000Y-73480000D03*
X34900000Y-78560000D03*
X42520000Y-76020000D03*
X34900000Y-76020000D03*
X42520000Y-78560000D03*
X34900000Y-73480000D03*
X42520000Y-81100000D03*
X34900000Y-70940000D03*
X42520000Y-83640000D03*
X34900000Y-68400000D03*
X42520000Y-86180000D03*
X34880000Y-46500000D03*
X42500000Y-64280000D03*
X34880000Y-49040000D03*
X42500000Y-61740000D03*
X34880000Y-51580000D03*
X42500000Y-59200000D03*
X34880000Y-54120000D03*
X42500000Y-56660000D03*
X34880000Y-56660000D03*
X42500000Y-54120000D03*
X34880000Y-59200000D03*
X42500000Y-51580000D03*
X34880000Y-61740000D03*
X42500000Y-49040000D03*
X34880000Y-64280000D03*
D12*
X42500000Y-46500000D03*
D13*
X185000000Y-56040000D03*
D14*
X185000000Y-53500000D03*
X187540000Y-56040000D03*
X187540000Y-53500000D03*
X190080000Y-56040000D03*
X190080000Y-53500000D03*
X192620000Y-56040000D03*
X192620000Y-53500000D03*
X195160000Y-56040000D03*
X195160000Y-53500000D03*
D15*
X119890000Y-54000000D03*
X114445000Y-54000000D03*
D16*
X109000000Y-54000000D03*
D17*
X187650000Y-67190000D03*
X190190000Y-67190000D03*
X192730000Y-67190000D03*
X195270000Y-67190000D03*
X197810000Y-67190000D03*
X200350000Y-67190000D03*
X197810000Y-74810000D03*
X195270000Y-74810000D03*
X192730000Y-74810000D03*
X190190000Y-74810000D03*
D18*
X187650000Y-74810000D03*
D14*
X121500000Y-71000000D03*
X121500000Y-66000000D03*
D19*
X114500000Y-74100000D03*
X114500000Y-62900000D03*
D14*
X107000000Y-71000000D03*
X107000000Y-68500000D03*
D13*
X107000000Y-66000000D03*
X139000000Y-66000000D03*
D14*
X139000000Y-68500000D03*
X139000000Y-71000000D03*
D19*
X146500000Y-62900000D03*
X146500000Y-74100000D03*
D14*
X153500000Y-66000000D03*
X153500000Y-71000000D03*
X89500000Y-71000000D03*
X89500000Y-66000000D03*
D19*
X82500000Y-74100000D03*
X82500000Y-62900000D03*
D14*
X75000000Y-71000000D03*
X75000000Y-68500000D03*
D13*
X75000000Y-66000000D03*
D14*
X159000000Y-74840000D03*
X159000000Y-85000000D03*
X127000000Y-74840000D03*
X127000000Y-85000000D03*
X95000000Y-74840000D03*
X95000000Y-85000000D03*
X138840000Y-84000000D03*
X149000000Y-84000000D03*
X106840000Y-84000000D03*
X117000000Y-84000000D03*
X74840000Y-84000000D03*
X85000000Y-84000000D03*
X138840000Y-79000000D03*
X149000000Y-79000000D03*
X106840000Y-79000000D03*
X117000000Y-79000000D03*
X74840000Y-79000000D03*
X85000000Y-79000000D03*
X179160000Y-67000000D03*
X169000000Y-67000000D03*
X179160000Y-72000000D03*
X169000000Y-72000000D03*
X179160000Y-77000000D03*
X169000000Y-77000000D03*
X168540000Y-53460000D03*
X168540000Y-56000000D03*
X166000000Y-53460000D03*
X166000000Y-56000000D03*
X163460000Y-53460000D03*
X163460000Y-56000000D03*
X160920000Y-53460000D03*
X160920000Y-56000000D03*
X158380000Y-53460000D03*
X158380000Y-56000000D03*
X155840000Y-53460000D03*
X155840000Y-56000000D03*
X153300000Y-53460000D03*
X153300000Y-56000000D03*
X150760000Y-53460000D03*
D13*
X150760000Y-56000000D03*
X160000000Y-66000000D03*
D14*
X162540000Y-66000000D03*
D13*
X127000000Y-66000000D03*
D14*
X129540000Y-66000000D03*
D13*
X95000000Y-66000000D03*
D14*
X97540000Y-66000000D03*
D13*
X44000000Y-93000000D03*
D14*
X46540000Y-93000000D03*
D13*
X66000000Y-93000000D03*
D14*
X68540000Y-93000000D03*
D13*
X88000000Y-93000000D03*
D14*
X90540000Y-93000000D03*
D13*
X110000000Y-93000000D03*
D14*
X112540000Y-93000000D03*
D13*
X132000000Y-93000000D03*
D14*
X134540000Y-93000000D03*
D13*
X154000000Y-93000000D03*
D14*
X156540000Y-93000000D03*
D13*
X176000000Y-93000000D03*
D14*
X178540000Y-93000000D03*
D13*
X197960000Y-93000000D03*
D14*
X200500000Y-93000000D03*
D13*
X44000000Y-126000000D03*
D14*
X46540000Y-126000000D03*
D13*
X66000000Y-126000000D03*
D14*
X68540000Y-126000000D03*
D13*
X88000000Y-126000000D03*
D14*
X90540000Y-126000000D03*
D13*
X110000000Y-126000000D03*
D14*
X112540000Y-126000000D03*
D13*
X132000000Y-126000000D03*
D14*
X134540000Y-126000000D03*
D13*
X154000000Y-126000000D03*
D14*
X156540000Y-126000000D03*
D13*
X176000000Y-126000000D03*
D14*
X178540000Y-126000000D03*
D13*
X197960000Y-126000000D03*
D14*
X200500000Y-126000000D03*
D13*
X44000000Y-101000000D03*
D14*
X46540000Y-101000000D03*
D13*
X66000000Y-101000000D03*
D14*
X68540000Y-101000000D03*
D13*
X88000000Y-101000000D03*
D14*
X90540000Y-101000000D03*
D13*
X110000000Y-101000000D03*
D14*
X112540000Y-101000000D03*
D13*
X132000000Y-101000000D03*
D14*
X134540000Y-101000000D03*
D13*
X154000000Y-101000000D03*
D14*
X156540000Y-101000000D03*
D13*
X176000000Y-101000000D03*
D14*
X178540000Y-101000000D03*
D13*
X198000000Y-101000000D03*
D14*
X200540000Y-101000000D03*
D13*
X44000000Y-134000000D03*
D14*
X46540000Y-134000000D03*
D13*
X66000000Y-134000000D03*
D14*
X68540000Y-134000000D03*
D13*
X88000000Y-134000000D03*
D14*
X90540000Y-134000000D03*
D13*
X110000000Y-134000000D03*
D14*
X112540000Y-134000000D03*
D13*
X132000000Y-134000000D03*
D14*
X134540000Y-134000000D03*
D13*
X154000000Y-134000000D03*
D14*
X156540000Y-134000000D03*
D13*
X176000000Y-134000000D03*
D14*
X178540000Y-134000000D03*
D13*
X198000000Y-134500000D03*
D14*
X200540000Y-134500000D03*
D20*
X34000000Y-110880000D03*
D21*
X34000000Y-118500000D03*
D20*
X56500000Y-110880000D03*
D21*
X56500000Y-118500000D03*
D20*
X78500000Y-110880000D03*
D21*
X78500000Y-118500000D03*
D20*
X100000000Y-110880000D03*
D21*
X100000000Y-118500000D03*
D20*
X213500000Y-69380000D03*
D21*
X213500000Y-77000000D03*
D20*
X122500000Y-110880000D03*
D21*
X122500000Y-118500000D03*
D20*
X144500000Y-110880000D03*
D21*
X144500000Y-118500000D03*
D20*
X166500000Y-110880000D03*
D21*
X166500000Y-118500000D03*
D20*
X188000000Y-110880000D03*
D21*
X188000000Y-118500000D03*
X214500000Y-99500000D03*
D20*
X214500000Y-91880000D03*
X34500000Y-143880000D03*
D21*
X34500000Y-151500000D03*
D20*
X56500000Y-143880000D03*
D21*
X56500000Y-151500000D03*
D20*
X78500000Y-143880000D03*
D21*
X78500000Y-151500000D03*
D20*
X100500000Y-143880000D03*
D21*
X100500000Y-151500000D03*
D20*
X214500000Y-114880000D03*
D21*
X214500000Y-122500000D03*
D20*
X122500000Y-143880000D03*
D21*
X122500000Y-151500000D03*
D20*
X144500000Y-143880000D03*
D21*
X144500000Y-151500000D03*
D20*
X166500000Y-143880000D03*
D21*
X166500000Y-151500000D03*
D20*
X188500000Y-143880000D03*
D21*
X188500000Y-151500000D03*
D20*
X214000000Y-137880000D03*
D21*
X214000000Y-145500000D03*
D14*
X228780000Y-53460000D03*
X228780000Y-56000000D03*
X226240000Y-53460000D03*
X226240000Y-56000000D03*
X223700000Y-53460000D03*
X223700000Y-56000000D03*
X221160000Y-53460000D03*
X221160000Y-56000000D03*
X218620000Y-53460000D03*
X218620000Y-56000000D03*
X216080000Y-53460000D03*
X216080000Y-56000000D03*
X213540000Y-53460000D03*
X213540000Y-56000000D03*
X211000000Y-53460000D03*
D13*
X211000000Y-56000000D03*
D14*
X34500000Y-93840000D03*
X34500000Y-104000000D03*
X56000000Y-90840000D03*
X56000000Y-101000000D03*
X78000000Y-90840000D03*
X78000000Y-101000000D03*
X100500000Y-90840000D03*
X100500000Y-101000000D03*
X122500000Y-90840000D03*
X122500000Y-101000000D03*
X144500000Y-90840000D03*
X144500000Y-101000000D03*
X166500000Y-90840000D03*
X166500000Y-101000000D03*
X188000000Y-90840000D03*
X188000000Y-101000000D03*
X35000000Y-136160000D03*
X35000000Y-126000000D03*
X56500000Y-136160000D03*
X56500000Y-126000000D03*
X78500000Y-136160000D03*
X78500000Y-126000000D03*
X100000000Y-136160000D03*
X100000000Y-126000000D03*
X122500000Y-136160000D03*
X122500000Y-126000000D03*
X144500000Y-136160000D03*
X144500000Y-126000000D03*
X166500000Y-136160000D03*
X166500000Y-126000000D03*
X188000000Y-136160000D03*
X188000000Y-126000000D03*
X39500000Y-93840000D03*
X39500000Y-104000000D03*
X61000000Y-90840000D03*
X61000000Y-101000000D03*
X83000000Y-90840000D03*
X83000000Y-101000000D03*
X105000000Y-90840000D03*
X105000000Y-101000000D03*
X127000000Y-90840000D03*
X127000000Y-101000000D03*
X149000000Y-90840000D03*
X149000000Y-101000000D03*
X171000000Y-90840000D03*
X171000000Y-101000000D03*
X193000000Y-90840000D03*
X193000000Y-101000000D03*
X39500000Y-125840000D03*
X39500000Y-136000000D03*
X61000000Y-125840000D03*
X61000000Y-136000000D03*
X83500000Y-125840000D03*
X83500000Y-136000000D03*
X105000000Y-125840000D03*
X105000000Y-136000000D03*
X127000000Y-125840000D03*
X127000000Y-136000000D03*
X149500000Y-125840000D03*
X149500000Y-136000000D03*
X171500000Y-125840000D03*
X171500000Y-136000000D03*
X192500000Y-125840000D03*
X192500000Y-136000000D03*
D22*
X38800000Y-116000000D03*
X38800000Y-111000000D03*
D23*
X51600000Y-116000000D03*
X51600000Y-111000000D03*
D22*
X60800000Y-116000000D03*
X60800000Y-111000000D03*
D23*
X73600000Y-116000000D03*
X73600000Y-111000000D03*
D22*
X82800000Y-116000000D03*
X82800000Y-111000000D03*
D23*
X95600000Y-116000000D03*
X95600000Y-111000000D03*
D22*
X104800000Y-116000000D03*
X104800000Y-111000000D03*
D23*
X117600000Y-116000000D03*
X117600000Y-111000000D03*
D22*
X218800000Y-74500000D03*
X218800000Y-69500000D03*
D23*
X231600000Y-74500000D03*
X231600000Y-69500000D03*
D22*
X126800000Y-116000000D03*
X126800000Y-111000000D03*
D23*
X139600000Y-116000000D03*
X139600000Y-111000000D03*
D22*
X148800000Y-116000000D03*
X148800000Y-111000000D03*
D23*
X161600000Y-116000000D03*
X161600000Y-111000000D03*
D22*
X170800000Y-116000000D03*
X170800000Y-111000000D03*
D23*
X183600000Y-116000000D03*
X183600000Y-111000000D03*
D22*
X192800000Y-116000000D03*
X192800000Y-111000000D03*
D23*
X205600000Y-116000000D03*
X205600000Y-111000000D03*
D22*
X218800000Y-97000000D03*
X218800000Y-92000000D03*
D23*
X231600000Y-97000000D03*
X231600000Y-92000000D03*
D22*
X38800000Y-149000000D03*
X38800000Y-144000000D03*
D23*
X51600000Y-149000000D03*
X51600000Y-144000000D03*
D22*
X60800000Y-149000000D03*
X60800000Y-144000000D03*
D23*
X73600000Y-149000000D03*
X73600000Y-144000000D03*
D22*
X82800000Y-149000000D03*
X82800000Y-144000000D03*
D23*
X95600000Y-149000000D03*
X95600000Y-144000000D03*
D22*
X104800000Y-149000000D03*
X104800000Y-144000000D03*
D23*
X117600000Y-149000000D03*
X117600000Y-144000000D03*
D22*
X218800000Y-120000000D03*
X218800000Y-115000000D03*
D23*
X231600000Y-120000000D03*
X231600000Y-115000000D03*
D22*
X126800000Y-149000000D03*
X126800000Y-144000000D03*
D23*
X139600000Y-149000000D03*
X139600000Y-144000000D03*
D22*
X148800000Y-149000000D03*
X148800000Y-144000000D03*
D23*
X161600000Y-149000000D03*
X161600000Y-144000000D03*
D22*
X170800000Y-149000000D03*
X170800000Y-144000000D03*
D23*
X183600000Y-149000000D03*
X183600000Y-144000000D03*
D22*
X192800000Y-149000000D03*
X192800000Y-144000000D03*
D23*
X205600000Y-149000000D03*
X205600000Y-144000000D03*
D22*
X218800000Y-143000000D03*
X218800000Y-138000000D03*
D23*
X231600000Y-143000000D03*
X231600000Y-138000000D03*
D11*
X62880000Y-51000000D03*
X70500000Y-68780000D03*
X62880000Y-53540000D03*
X70500000Y-66240000D03*
X62880000Y-56080000D03*
X70500000Y-63700000D03*
X62880000Y-58620000D03*
X70500000Y-61160000D03*
X62880000Y-61160000D03*
X70500000Y-58620000D03*
X62880000Y-63700000D03*
X70500000Y-56080000D03*
X62880000Y-66240000D03*
X70500000Y-53540000D03*
X62880000Y-68780000D03*
D12*
X70500000Y-51000000D03*
D24*
X133000000Y-74700000D03*
X132000000Y-73700000D03*
X130200000Y-72400000D03*
D25*
X109250000Y-124000000D02*
X110000000Y-124750000D01*
X88750000Y-124000000D02*
X109250000Y-124000000D01*
X88000000Y-124750000D02*
X88750000Y-124000000D01*
X110000000Y-124750000D02*
X110000000Y-126000000D01*
X88000000Y-124750000D02*
X88000000Y-126000000D01*
X87250000Y-124000000D02*
X88000000Y-124750000D01*
X66750000Y-124000000D02*
X87250000Y-124000000D01*
X66000000Y-124750000D02*
X66750000Y-124000000D01*
X110000000Y-124750000D02*
X110750000Y-124000000D01*
X131250000Y-124000000D02*
X132000000Y-124750000D01*
X110750000Y-124000000D02*
X131250000Y-124000000D01*
X132000000Y-126000000D02*
X132000000Y-124750000D01*
X153250000Y-124000000D02*
X154000000Y-124750000D01*
X132750000Y-124000000D02*
X153250000Y-124000000D01*
X132000000Y-124750000D02*
X132750000Y-124000000D01*
X176000000Y-124750000D02*
X176000000Y-126000000D01*
X154000000Y-126000000D02*
X154000000Y-124750000D01*
X66000000Y-124750000D02*
X66000000Y-101000000D01*
X66000000Y-126000000D02*
X66000000Y-124750000D01*
X158500000Y-66000000D02*
X160000000Y-66000000D01*
X153500000Y-71000000D02*
X158500000Y-66000000D01*
X44000000Y-101000000D02*
X44000000Y-93000000D01*
X187540000Y-56040000D02*
X185000000Y-56040000D01*
X174850000Y-123600000D02*
X176000000Y-124750000D01*
X155150000Y-123600000D02*
X174850000Y-123600000D01*
X154000000Y-124750000D02*
X155150000Y-123600000D01*
X196810000Y-123600000D02*
X197960000Y-124750000D01*
X177150000Y-123600000D02*
X196810000Y-123600000D01*
X197960000Y-124750000D02*
X197960000Y-126000000D01*
X176000000Y-124750000D02*
X177150000Y-123600000D01*
X122718427Y-54000000D02*
X119890000Y-54000000D01*
X177144933Y-49434933D02*
X127283494Y-49434933D01*
X185000000Y-56040000D02*
X183750000Y-56040000D01*
X183750000Y-56040000D02*
X177144933Y-49434933D01*
X127283494Y-49434933D02*
X122718427Y-54000000D01*
X36330000Y-54120000D02*
X34880000Y-54120000D01*
X38500000Y-56290000D02*
X36330000Y-54120000D01*
X38500000Y-61730000D02*
X38500000Y-56290000D01*
X41050000Y-64280000D02*
X38500000Y-61730000D01*
X42500000Y-64280000D02*
X41050000Y-64280000D01*
X70780000Y-68500000D02*
X70500000Y-68780000D01*
X75000000Y-68500000D02*
X70780000Y-68500000D01*
X42460000Y-78560000D02*
X42520000Y-78560000D01*
X40400000Y-76500000D02*
X42460000Y-78560000D01*
X40400000Y-72450000D02*
X40400000Y-76500000D01*
X36350000Y-68400000D02*
X40400000Y-72450000D01*
X34900000Y-68400000D02*
X36350000Y-68400000D01*
X119890000Y-69390000D02*
X119890000Y-54000000D01*
X121500000Y-71000000D02*
X119890000Y-69390000D01*
X36000000Y-105500000D02*
X34500000Y-104000000D01*
X44400000Y-105500000D02*
X36000000Y-105500000D01*
X48000000Y-94460000D02*
X48000000Y-101900000D01*
X48000000Y-101900000D02*
X44400000Y-105500000D01*
X46540000Y-93000000D02*
X48000000Y-94460000D01*
X68540000Y-98260000D02*
X68540000Y-93000000D01*
X67700000Y-99100000D02*
X68540000Y-98260000D01*
X57900000Y-99100000D02*
X67700000Y-99100000D01*
X56000000Y-101000000D02*
X57900000Y-99100000D01*
X200500000Y-97300000D02*
X200500000Y-93000000D01*
X198900000Y-98900000D02*
X200500000Y-97300000D01*
X190100000Y-98900000D02*
X198900000Y-98900000D01*
X188000000Y-101000000D02*
X190100000Y-98900000D01*
X45540001Y-126999999D02*
X46540000Y-126000000D01*
X45214999Y-127325001D02*
X45540001Y-126999999D01*
X36325001Y-127325001D02*
X45214999Y-127325001D01*
X35000000Y-126000000D02*
X36325001Y-127325001D01*
X79499999Y-125000001D02*
X78500000Y-126000000D01*
X84714999Y-124514999D02*
X79985001Y-124514999D01*
X79985001Y-124514999D02*
X79499999Y-125000001D01*
X85400000Y-125200000D02*
X84714999Y-124514999D01*
X85400000Y-126700000D02*
X85400000Y-125200000D01*
X86025001Y-127325001D02*
X85400000Y-126700000D01*
X89214999Y-127325001D02*
X86025001Y-127325001D01*
X90540000Y-126000000D02*
X89214999Y-127325001D01*
X100999999Y-125000001D02*
X100000000Y-126000000D01*
X101485001Y-124514999D02*
X100999999Y-125000001D01*
X108446003Y-127325001D02*
X105636001Y-124514999D01*
X105636001Y-124514999D02*
X101485001Y-124514999D01*
X111214999Y-127325001D02*
X108446003Y-127325001D01*
X112540000Y-126000000D02*
X111214999Y-127325001D01*
X133214999Y-127325001D02*
X130825001Y-127325001D01*
X134540000Y-126000000D02*
X133214999Y-127325001D01*
X123985001Y-124514999D02*
X123499999Y-125000001D01*
X123499999Y-125000001D02*
X122500000Y-126000000D01*
X128014999Y-124514999D02*
X123985001Y-124514999D01*
X130825001Y-127325001D02*
X128014999Y-124514999D01*
X145499999Y-125000001D02*
X144500000Y-126000000D01*
X145985001Y-124514999D02*
X145499999Y-125000001D01*
X150136001Y-124514999D02*
X145985001Y-124514999D01*
X151600000Y-125978998D02*
X150136001Y-124514999D01*
X151600000Y-126600000D02*
X151600000Y-125978998D01*
X152325001Y-127325001D02*
X151600000Y-126600000D01*
X155214999Y-127325001D02*
X152325001Y-127325001D01*
X156540000Y-126000000D02*
X155214999Y-127325001D01*
X178500000Y-127400000D02*
X178500000Y-126040000D01*
X178000000Y-127900000D02*
X178500000Y-127400000D01*
X174200000Y-127900000D02*
X178000000Y-127900000D01*
X178500000Y-126040000D02*
X178540000Y-126000000D01*
X173800000Y-125200000D02*
X173800000Y-127500000D01*
X172800000Y-124200000D02*
X173800000Y-125200000D01*
X173800000Y-127500000D02*
X174200000Y-127900000D01*
X168300000Y-124200000D02*
X172800000Y-124200000D01*
X166500000Y-126000000D02*
X168300000Y-124200000D01*
X199500001Y-126999999D02*
X200500000Y-126000000D01*
X199174999Y-127325001D02*
X199500001Y-126999999D01*
X196699999Y-127325001D02*
X199174999Y-127325001D01*
X193889997Y-124514999D02*
X196699999Y-127325001D01*
X189485001Y-124514999D02*
X193889997Y-124514999D01*
X188000000Y-126000000D02*
X189485001Y-124514999D01*
X46540000Y-102360000D02*
X46540000Y-101000000D01*
X44900000Y-104000000D02*
X46540000Y-102360000D01*
X39500000Y-104000000D02*
X44900000Y-104000000D01*
X67540001Y-100000001D02*
X68540000Y-101000000D01*
X62325001Y-99674999D02*
X67214999Y-99674999D01*
X67214999Y-99674999D02*
X67540001Y-100000001D01*
X61000000Y-101000000D02*
X62325001Y-99674999D01*
X89540001Y-100000001D02*
X90540000Y-101000000D01*
X89214999Y-99674999D02*
X89540001Y-100000001D01*
X84325001Y-99674999D02*
X89214999Y-99674999D01*
X83000000Y-101000000D02*
X84325001Y-99674999D01*
X111540001Y-100000001D02*
X112540000Y-101000000D01*
X111214999Y-99674999D02*
X111540001Y-100000001D01*
X106325001Y-99674999D02*
X111214999Y-99674999D01*
X105000000Y-101000000D02*
X106325001Y-99674999D01*
X133540001Y-100000001D02*
X134540000Y-101000000D01*
X133214999Y-99674999D02*
X133540001Y-100000001D01*
X128325001Y-99674999D02*
X133214999Y-99674999D01*
X127000000Y-101000000D02*
X128325001Y-99674999D01*
X155540001Y-100000001D02*
X156540000Y-101000000D01*
X155214999Y-99674999D02*
X155540001Y-100000001D01*
X150325001Y-99674999D02*
X155214999Y-99674999D01*
X149000000Y-101000000D02*
X150325001Y-99674999D01*
X177140000Y-99600000D02*
X178540000Y-101000000D01*
X172400000Y-99600000D02*
X177140000Y-99600000D01*
X171000000Y-101000000D02*
X172400000Y-99600000D01*
X194600000Y-99400000D02*
X193000000Y-101000000D01*
X199100000Y-99400000D02*
X194600000Y-99400000D01*
X200540000Y-100840000D02*
X199100000Y-99400000D01*
X200540000Y-101000000D02*
X200540000Y-100840000D01*
X44540000Y-136000000D02*
X46540000Y-134000000D01*
X39500000Y-136000000D02*
X44540000Y-136000000D01*
X68540000Y-134000000D02*
X66540000Y-136000000D01*
X66540000Y-136000000D02*
X61000000Y-136000000D01*
X88540000Y-136000000D02*
X90540000Y-134000000D01*
X83500000Y-136000000D02*
X88540000Y-136000000D01*
X110540000Y-136000000D02*
X112540000Y-134000000D01*
X105000000Y-136000000D02*
X110540000Y-136000000D01*
X132540000Y-136000000D02*
X134540000Y-134000000D01*
X127000000Y-136000000D02*
X132540000Y-136000000D01*
X154540000Y-136000000D02*
X156540000Y-134000000D01*
X149500000Y-136000000D02*
X154540000Y-136000000D01*
X176540000Y-136000000D02*
X178540000Y-134000000D01*
X171500000Y-136000000D02*
X176540000Y-136000000D01*
X199040000Y-136000000D02*
X200540000Y-134500000D01*
X192500000Y-136000000D02*
X199040000Y-136000000D01*
X215500000Y-66740000D02*
X226240000Y-56000000D01*
X215500000Y-73100000D02*
X215500000Y-66740000D01*
X213500000Y-75100000D02*
X215500000Y-73100000D01*
X213500000Y-77000000D02*
X213500000Y-75100000D01*
X82800000Y-111000000D02*
X95600000Y-111000000D01*
X104800000Y-111000000D02*
X117600000Y-111000000D01*
X126800000Y-111000000D02*
X139600000Y-111000000D01*
X231200000Y-48600000D02*
X218400000Y-48600000D01*
X234000000Y-63600000D02*
X234000000Y-51400000D01*
X226300000Y-76000000D02*
X226300000Y-71300000D01*
X212000000Y-90300000D02*
X226300000Y-76000000D01*
X226300000Y-71300000D02*
X234000000Y-63600000D01*
X212000000Y-98050000D02*
X212000000Y-90300000D01*
X218400000Y-48600000D02*
X213540000Y-53460000D01*
X213450000Y-99500000D02*
X212000000Y-98050000D01*
X234000000Y-51400000D02*
X231200000Y-48600000D01*
X214500000Y-99500000D02*
X213450000Y-99500000D01*
X148800000Y-111000000D02*
X161600000Y-111000000D01*
X144620000Y-111000000D02*
X144500000Y-110880000D01*
X148800000Y-111000000D02*
X144620000Y-111000000D01*
X173050000Y-111000000D02*
X183600000Y-111000000D01*
X170800000Y-111000000D02*
X173050000Y-111000000D01*
X170680000Y-110880000D02*
X170800000Y-111000000D01*
X166500000Y-110880000D02*
X170680000Y-110880000D01*
X192800000Y-111000000D02*
X205600000Y-111000000D01*
X188120000Y-111000000D02*
X188000000Y-110880000D01*
X192800000Y-111000000D02*
X188120000Y-111000000D01*
X231000000Y-49200000D02*
X220340000Y-49200000D01*
X233400000Y-51600000D02*
X231000000Y-49200000D01*
X233400000Y-63400000D02*
X233400000Y-51600000D01*
X225700000Y-71100000D02*
X233400000Y-63400000D01*
X225700000Y-75700000D02*
X225700000Y-71100000D01*
X220340000Y-49200000D02*
X216080000Y-53460000D01*
X211400000Y-90000000D02*
X225700000Y-75700000D01*
X211400000Y-120450000D02*
X211400000Y-90000000D01*
X213450000Y-122500000D02*
X211400000Y-120450000D01*
X214500000Y-122500000D02*
X213450000Y-122500000D01*
X51600000Y-144000000D02*
X38800000Y-144000000D01*
X73600000Y-144000000D02*
X60800000Y-144000000D01*
X95600000Y-144000000D02*
X82800000Y-144000000D01*
X117600000Y-144000000D02*
X104800000Y-144000000D01*
X232800000Y-51800000D02*
X230800000Y-49800000D01*
X232800000Y-63200000D02*
X232800000Y-51800000D01*
X225100000Y-70900000D02*
X232800000Y-63200000D01*
X225100000Y-75500000D02*
X225100000Y-70900000D01*
X230800000Y-49800000D02*
X222280000Y-49800000D01*
X210800000Y-89800000D02*
X225100000Y-75500000D01*
X210800000Y-143350000D02*
X210800000Y-89800000D01*
X212950000Y-145500000D02*
X210800000Y-143350000D01*
X222280000Y-49800000D02*
X218620000Y-53460000D01*
X214000000Y-145500000D02*
X212950000Y-145500000D01*
X126800000Y-144000000D02*
X139600000Y-144000000D01*
X161600000Y-144000000D02*
X148800000Y-144000000D01*
X183600000Y-144000000D02*
X170800000Y-144000000D01*
X205600000Y-144000000D02*
X192800000Y-144000000D01*
X218680000Y-137880000D02*
X218800000Y-138000000D01*
X214000000Y-137880000D02*
X218680000Y-137880000D01*
X38800000Y-149000000D02*
X51600000Y-149000000D01*
X129050000Y-149000000D02*
X139600000Y-149000000D01*
X126800000Y-149000000D02*
X129050000Y-149000000D01*
X126800000Y-147250000D02*
X126800000Y-149000000D01*
X125550000Y-146000000D02*
X126800000Y-147250000D01*
X53350000Y-146000000D02*
X125550000Y-146000000D01*
X51600000Y-147750000D02*
X53350000Y-146000000D01*
X51600000Y-149000000D02*
X51600000Y-147750000D01*
X139600000Y-116000000D02*
X126800000Y-116000000D01*
X231600000Y-62800000D02*
X231600000Y-52200000D01*
X230400000Y-51000000D02*
X226160000Y-51000000D01*
X223900000Y-70500000D02*
X231600000Y-62800000D01*
X231600000Y-52200000D02*
X230400000Y-51000000D01*
X223900000Y-75100000D02*
X223900000Y-70500000D01*
X209600000Y-89400000D02*
X223900000Y-75100000D01*
X226160000Y-51000000D02*
X223700000Y-53460000D01*
X207999996Y-123000004D02*
X209600000Y-121400000D01*
X145350004Y-123000004D02*
X207999996Y-123000004D01*
X139600000Y-117250000D02*
X145350004Y-123000004D01*
X209600000Y-121400000D02*
X209600000Y-89400000D01*
X139600000Y-116000000D02*
X139600000Y-117250000D01*
X60800000Y-149000000D02*
X73600000Y-149000000D01*
X148800000Y-149000000D02*
X161600000Y-149000000D01*
X161600000Y-116000000D02*
X148800000Y-116000000D01*
X228100000Y-51600000D02*
X226240000Y-53460000D01*
X231000000Y-52400000D02*
X230200000Y-51600000D01*
X231000000Y-62550000D02*
X231000000Y-52400000D01*
X223300000Y-70250000D02*
X231000000Y-62550000D01*
X209000000Y-89200000D02*
X223300000Y-74900000D01*
X209000000Y-121200000D02*
X209000000Y-89200000D01*
X223300000Y-74900000D02*
X223300000Y-70250000D01*
X207700000Y-122500000D02*
X209000000Y-121200000D01*
X166850000Y-122500000D02*
X207700000Y-122500000D01*
X230200000Y-51600000D02*
X228100000Y-51600000D01*
X161600000Y-117250000D02*
X166850000Y-122500000D01*
X161600000Y-116000000D02*
X161600000Y-117250000D01*
X73600000Y-149000000D02*
X73600000Y-147750000D01*
X73600000Y-147750000D02*
X74850000Y-146500000D01*
X74850000Y-146500000D02*
X120800000Y-146500000D01*
X126400000Y-152100000D02*
X141714998Y-152100000D01*
X120800000Y-146500000D02*
X126400000Y-152100000D01*
X141714998Y-152100000D02*
X144814998Y-149000000D01*
X144814998Y-149000000D02*
X146550000Y-149000000D01*
X146550000Y-149000000D02*
X148800000Y-149000000D01*
X82800000Y-149000000D02*
X95600000Y-149000000D01*
X173050000Y-149000000D02*
X183600000Y-149000000D01*
X170800000Y-149000000D02*
X173050000Y-149000000D01*
X166814998Y-149000000D02*
X168550000Y-149000000D01*
X126225001Y-152625001D02*
X163189997Y-152625001D01*
X163189997Y-152625001D02*
X166814998Y-149000000D01*
X120600000Y-147000000D02*
X126225001Y-152625001D01*
X97600000Y-147000000D02*
X120600000Y-147000000D01*
X168550000Y-149000000D02*
X170800000Y-149000000D01*
X95600000Y-149000000D02*
X97600000Y-147000000D01*
X183600000Y-116000000D02*
X170800000Y-116000000D01*
X93600000Y-116000000D02*
X82800000Y-116000000D01*
X95600000Y-116000000D02*
X93600000Y-116000000D01*
X230400000Y-55080000D02*
X228780000Y-53460000D01*
X230400000Y-62250000D02*
X230400000Y-55080000D01*
X222700000Y-74700000D02*
X222700000Y-69950000D01*
X208400000Y-89000000D02*
X222700000Y-74700000D01*
X208400000Y-121000000D02*
X208400000Y-89000000D01*
X222700000Y-69950000D02*
X230400000Y-62250000D01*
X207400000Y-122000000D02*
X208400000Y-121000000D01*
X188350000Y-122000000D02*
X207400000Y-122000000D01*
X183600000Y-117250000D02*
X188350000Y-122000000D01*
X183600000Y-116000000D02*
X183600000Y-117250000D01*
X210960000Y-53500000D02*
X211000000Y-53460000D01*
X205200000Y-53500000D02*
X210960000Y-53500000D01*
X197700000Y-46000000D02*
X205200000Y-53500000D01*
X55100000Y-46000000D02*
X197700000Y-46000000D01*
X52300000Y-48800000D02*
X55100000Y-46000000D01*
X52300000Y-54110000D02*
X52300000Y-48800000D01*
X50330000Y-56080000D02*
X52300000Y-54110000D01*
X48880000Y-56080000D02*
X50330000Y-56080000D01*
X215080001Y-56999999D02*
X216080000Y-56000000D01*
X214180000Y-57900000D02*
X215080001Y-56999999D01*
X208200000Y-57900000D02*
X214180000Y-57900000D01*
X197300000Y-47000000D02*
X208200000Y-57900000D01*
X53300000Y-49400000D02*
X55700000Y-47000000D01*
X55700000Y-47000000D02*
X197300000Y-47000000D01*
X53300000Y-60730000D02*
X53300000Y-49400000D01*
X50330000Y-63700000D02*
X53300000Y-60730000D01*
X48880000Y-63700000D02*
X50330000Y-63700000D01*
X208400000Y-57400000D02*
X212140000Y-57400000D01*
X197500000Y-46500000D02*
X208400000Y-57400000D01*
X212140000Y-57400000D02*
X212540001Y-56999999D01*
X55400000Y-46500000D02*
X197500000Y-46500000D01*
X212540001Y-56999999D02*
X213540000Y-56000000D01*
X52800000Y-49100000D02*
X55400000Y-46500000D01*
X52800000Y-58690000D02*
X52800000Y-49100000D01*
X50330000Y-61160000D02*
X52800000Y-58690000D01*
X48880000Y-61160000D02*
X50330000Y-61160000D01*
X216220000Y-58400000D02*
X218620000Y-56000000D01*
X208000000Y-58400000D02*
X216220000Y-58400000D01*
X197100000Y-47500000D02*
X208000000Y-58400000D01*
X67400000Y-47500000D02*
X197100000Y-47500000D01*
X66100000Y-48800000D02*
X67400000Y-47500000D01*
X66100000Y-52900000D02*
X66100000Y-48800000D01*
X62920000Y-56080000D02*
X66100000Y-52900000D01*
X62880000Y-56080000D02*
X62920000Y-56080000D01*
X220299978Y-59400022D02*
X223700000Y-56000000D01*
X196700000Y-48500000D02*
X207600022Y-59400022D01*
X207600022Y-59400022D02*
X220299978Y-59400022D01*
X67800000Y-48500000D02*
X196700000Y-48500000D01*
X67100000Y-49200000D02*
X67800000Y-48500000D01*
X67100000Y-53300000D02*
X67100000Y-49200000D01*
X65300000Y-55100000D02*
X67100000Y-53300000D01*
X65300000Y-61315000D02*
X65300000Y-55100000D01*
X62915000Y-63700000D02*
X65300000Y-61315000D01*
X62880000Y-63700000D02*
X62915000Y-63700000D01*
X196900000Y-48000000D02*
X207800000Y-58900000D01*
X67600000Y-48000000D02*
X196900000Y-48000000D01*
X207800000Y-58900000D02*
X218260000Y-58900000D01*
X66600000Y-53100000D02*
X66600000Y-49000000D01*
X64800000Y-54900000D02*
X66600000Y-53100000D01*
X64800000Y-59200000D02*
X64800000Y-54900000D01*
X218260000Y-58900000D02*
X221160000Y-56000000D01*
X62880000Y-61120000D02*
X64800000Y-59200000D01*
X66600000Y-49000000D02*
X67600000Y-48000000D01*
X62880000Y-61160000D02*
X62880000Y-61120000D01*
X107050000Y-149000000D02*
X117600000Y-149000000D01*
X104800000Y-149000000D02*
X107050000Y-149000000D01*
X117600000Y-150250000D02*
X120550000Y-153200000D01*
X117600000Y-149000000D02*
X117600000Y-150250000D01*
X190550000Y-149000000D02*
X192800000Y-149000000D01*
X188814998Y-149000000D02*
X190550000Y-149000000D01*
X184614998Y-153200000D02*
X188814998Y-149000000D01*
X120550000Y-153200000D02*
X184614998Y-153200000D01*
X192800000Y-149000000D02*
X205600000Y-149000000D01*
X205600000Y-116000000D02*
X192800000Y-116000000D01*
X117600000Y-116000000D02*
X104800000Y-116000000D01*
X120000000Y-113600000D02*
X117600000Y-116000000D01*
X189900000Y-113600000D02*
X120000000Y-113600000D01*
X192300000Y-116000000D02*
X189900000Y-113600000D01*
X192800000Y-116000000D02*
X192300000Y-116000000D01*
X224220000Y-50400000D02*
X221160000Y-53460000D01*
X230600000Y-50400000D02*
X224220000Y-50400000D01*
X232200000Y-52000000D02*
X230600000Y-50400000D01*
X224500000Y-70700000D02*
X232200000Y-63000000D01*
X232200000Y-63000000D02*
X232200000Y-52000000D01*
X210200000Y-89600000D02*
X224500000Y-75300000D01*
X210200000Y-146800000D02*
X210200000Y-89600000D01*
X224500000Y-75300000D02*
X224500000Y-70700000D01*
X208000000Y-149000000D02*
X210200000Y-146800000D01*
X205600000Y-149000000D02*
X208000000Y-149000000D01*
X74840000Y-79000000D02*
X74840000Y-84000000D01*
X138840000Y-79000000D02*
X138840000Y-84000000D01*
X106840000Y-82585787D02*
X106840000Y-79000000D01*
X106840000Y-84000000D02*
X106840000Y-82585787D01*
X106840000Y-79000000D02*
X103800000Y-75960000D01*
X106750000Y-54000000D02*
X109000000Y-54000000D01*
X103800000Y-56950000D02*
X106750000Y-54000000D01*
X103800000Y-75960000D02*
X103800000Y-56950000D01*
X137840001Y-84999999D02*
X138840000Y-84000000D01*
X136240000Y-86600000D02*
X137840001Y-84999999D01*
X109400000Y-86600000D02*
X136240000Y-86600000D01*
X106840000Y-84040000D02*
X109400000Y-86600000D01*
X106840000Y-84000000D02*
X106840000Y-84040000D01*
X44500000Y-72900000D02*
X42540000Y-70940000D01*
X42540000Y-70940000D02*
X42520000Y-70940000D01*
X44500000Y-84200000D02*
X44500000Y-72900000D01*
X42520000Y-86180000D02*
X44500000Y-84200000D01*
X185000000Y-53500000D02*
X180484922Y-48984922D01*
X109000000Y-51750000D02*
X109000000Y-54000000D01*
X111765078Y-48984922D02*
X109000000Y-51750000D01*
X180484922Y-48984922D02*
X111765078Y-48984922D01*
X36330000Y-61740000D02*
X34880000Y-61740000D01*
X38500000Y-63910000D02*
X36330000Y-61740000D01*
X38500000Y-68370000D02*
X38500000Y-63910000D01*
X41070000Y-70940000D02*
X38500000Y-68370000D01*
X42520000Y-70940000D02*
X41070000Y-70940000D01*
X34800000Y-46500000D02*
X34880000Y-46500000D01*
X33000000Y-48300000D02*
X34800000Y-46500000D01*
X33000000Y-59900000D02*
X33000000Y-48300000D01*
X34840000Y-61740000D02*
X33000000Y-59900000D01*
X34880000Y-61740000D02*
X34840000Y-61740000D01*
X48880000Y-49950000D02*
X48880000Y-51000000D01*
X43930000Y-45000000D02*
X48880000Y-49950000D01*
X36400000Y-45000000D02*
X43930000Y-45000000D01*
X34900000Y-46500000D02*
X36400000Y-45000000D01*
X34880000Y-46500000D02*
X34900000Y-46500000D01*
X54700000Y-52800000D02*
X56500000Y-51000000D01*
X54700000Y-70000000D02*
X54700000Y-52800000D01*
X56000000Y-71300000D02*
X54700000Y-70000000D01*
X56000000Y-90840000D02*
X56000000Y-71300000D01*
X60275065Y-57375065D02*
X56500000Y-53600000D01*
X60275065Y-75975065D02*
X60275065Y-57375065D01*
X56500000Y-53600000D02*
X56500000Y-53540000D01*
X75140000Y-90840000D02*
X60275065Y-75975065D01*
X78000000Y-90840000D02*
X75140000Y-90840000D01*
X59825054Y-76225054D02*
X59825054Y-59425054D01*
X59825054Y-59425054D02*
X56500000Y-56100000D01*
X79500000Y-95900000D02*
X59825054Y-76225054D01*
X95440000Y-95900000D02*
X79500000Y-95900000D01*
X56500000Y-56100000D02*
X56500000Y-56080000D01*
X100500000Y-90840000D02*
X95440000Y-95900000D01*
X56520000Y-58620000D02*
X56500000Y-58620000D01*
X59375041Y-61475041D02*
X56520000Y-58620000D01*
X59375041Y-76475041D02*
X59375041Y-61475041D01*
X79300000Y-96400000D02*
X59375041Y-76475041D01*
X116940000Y-96400000D02*
X79300000Y-96400000D01*
X122500000Y-90840000D02*
X116940000Y-96400000D01*
X56500000Y-61200000D02*
X56500000Y-61160000D01*
X58925030Y-63625030D02*
X56500000Y-61200000D01*
X58925030Y-76725030D02*
X58925030Y-63625030D01*
X79100000Y-96900000D02*
X58925030Y-76725030D01*
X138440000Y-96900000D02*
X79100000Y-96900000D01*
X144500000Y-90840000D02*
X138440000Y-96900000D01*
X56525000Y-63700000D02*
X56500000Y-63700000D01*
X58475021Y-65650021D02*
X56525000Y-63700000D01*
X58475021Y-76975021D02*
X58475021Y-65650021D01*
X78900000Y-97400000D02*
X58475021Y-76975021D01*
X159940000Y-97400000D02*
X78900000Y-97400000D01*
X166500000Y-90840000D02*
X159940000Y-97400000D01*
X56540000Y-66240000D02*
X56500000Y-66240000D01*
X58025010Y-67725010D02*
X56540000Y-66240000D01*
X58025010Y-77225010D02*
X58025010Y-67725010D01*
X78700000Y-97900000D02*
X58025010Y-77225010D01*
X180940000Y-97900000D02*
X78700000Y-97900000D01*
X188000000Y-90840000D02*
X180940000Y-97900000D01*
X39800000Y-73500000D02*
X39800000Y-82370000D01*
X33700000Y-69700000D02*
X36000000Y-69700000D01*
X32900000Y-70500000D02*
X33700000Y-69700000D01*
X32900000Y-82470000D02*
X32900000Y-70500000D01*
X41070000Y-83640000D02*
X42520000Y-83640000D01*
X39800000Y-82370000D02*
X41070000Y-83640000D01*
X32800000Y-82570000D02*
X32900000Y-82470000D01*
X32800000Y-133960000D02*
X32800000Y-82570000D01*
X36000000Y-69700000D02*
X39800000Y-73500000D01*
X35000000Y-136160000D02*
X32800000Y-133960000D01*
X48500000Y-102800000D02*
X48500000Y-92591025D01*
X42499890Y-108800110D02*
X48500000Y-102800000D01*
X42499890Y-118599890D02*
X42499890Y-108800110D01*
X48500000Y-92591025D02*
X47108975Y-91200000D01*
X48100000Y-124200000D02*
X42499890Y-118599890D01*
X34900000Y-88200000D02*
X34900000Y-86180000D01*
X37900000Y-91200000D02*
X34900000Y-88200000D01*
X48100000Y-128100000D02*
X48100000Y-124200000D01*
X47108975Y-91200000D02*
X37900000Y-91200000D01*
X56160000Y-136160000D02*
X48100000Y-128100000D01*
X56500000Y-136160000D02*
X56160000Y-136160000D01*
X78500000Y-136160000D02*
X74840000Y-132500000D01*
X74840000Y-132500000D02*
X53300000Y-132500000D01*
X53300000Y-132500000D02*
X48600000Y-127800000D01*
X48600000Y-127800000D02*
X48600000Y-124000000D01*
X48600000Y-124000000D02*
X42949901Y-118349901D01*
X42949901Y-109050099D02*
X48950011Y-103049989D01*
X47263590Y-90700000D02*
X38200000Y-90700000D01*
X42949901Y-118349901D02*
X42949901Y-109050099D01*
X38200000Y-90700000D02*
X36600000Y-89100000D01*
X48950011Y-103049989D02*
X48950011Y-92386421D01*
X48950011Y-92386421D02*
X47263590Y-90700000D01*
X34900000Y-83594998D02*
X34900000Y-83640000D01*
X36600000Y-85294998D02*
X34900000Y-83594998D01*
X36600000Y-89100000D02*
X36600000Y-85294998D01*
X49400022Y-103299978D02*
X49400022Y-92200021D01*
X43399912Y-109300088D02*
X49400022Y-103299978D01*
X38500000Y-90200000D02*
X37100000Y-88800000D01*
X49400022Y-92200021D02*
X47400000Y-90200000D01*
X43399912Y-118099912D02*
X43399912Y-109300088D01*
X49100000Y-123800000D02*
X43399912Y-118099912D01*
X49100000Y-127600000D02*
X49100000Y-123800000D01*
X37100000Y-83300000D02*
X34900000Y-81100000D01*
X37100000Y-88800000D02*
X37100000Y-83300000D01*
X53500110Y-132000110D02*
X49100000Y-127600000D01*
X95840110Y-132000110D02*
X53500110Y-132000110D01*
X47400000Y-90200000D02*
X38500000Y-90200000D01*
X100000000Y-136160000D02*
X95840110Y-132000110D01*
X34900000Y-78600000D02*
X34900000Y-78560000D01*
X122500000Y-136160000D02*
X117890099Y-131550099D01*
X37600000Y-81300000D02*
X34900000Y-78600000D01*
X53750099Y-131550099D02*
X49600000Y-127400000D01*
X47590768Y-89700000D02*
X38800000Y-89700000D01*
X49600000Y-127400000D02*
X49600000Y-123600000D01*
X38800000Y-89700000D02*
X37600000Y-88500000D01*
X49600000Y-123600000D02*
X43849923Y-117849923D01*
X117890099Y-131550099D02*
X53750099Y-131550099D01*
X37600000Y-88500000D02*
X37600000Y-81300000D01*
X49850033Y-91959265D02*
X47590768Y-89700000D01*
X43849923Y-117849923D02*
X43849923Y-109550077D01*
X43849923Y-109550077D02*
X49850033Y-103549967D01*
X49850033Y-103549967D02*
X49850033Y-91959265D01*
X34920000Y-76020000D02*
X34900000Y-76020000D01*
X144500000Y-136160000D02*
X139440088Y-131100088D01*
X139440088Y-131100088D02*
X54000088Y-131100088D01*
X54000088Y-131100088D02*
X50100000Y-127200000D01*
X50100000Y-127200000D02*
X50100000Y-123400000D01*
X38100000Y-88200000D02*
X38100000Y-79200000D01*
X50100000Y-123400000D02*
X44299934Y-117599934D01*
X44299934Y-109800066D02*
X50300044Y-103799956D01*
X50300044Y-103799956D02*
X50300044Y-91772865D01*
X44299934Y-117599934D02*
X44299934Y-109800066D01*
X47727179Y-89200000D02*
X39100000Y-89200000D01*
X50300044Y-91772865D02*
X47727179Y-89200000D01*
X39100000Y-89200000D02*
X38100000Y-88200000D01*
X38100000Y-79200000D02*
X34920000Y-76020000D01*
X34900000Y-73500000D02*
X34900000Y-73480000D01*
X166500000Y-136160000D02*
X160990077Y-130650077D01*
X160990077Y-130650077D02*
X54250077Y-130650077D01*
X54250077Y-130650077D02*
X50600000Y-127000000D01*
X50600000Y-127000000D02*
X50600000Y-123200000D01*
X50600000Y-123200000D02*
X44749945Y-117349945D01*
X38600000Y-77200000D02*
X34900000Y-73500000D01*
X44749945Y-117349945D02*
X44749945Y-110050055D01*
X50750055Y-104049945D02*
X50750055Y-91586465D01*
X44749945Y-110050055D02*
X50750055Y-104049945D01*
X50750055Y-91586465D02*
X47863590Y-88700000D01*
X47863590Y-88700000D02*
X39400000Y-88700000D01*
X39400000Y-88700000D02*
X38600000Y-87900000D01*
X38600000Y-87900000D02*
X38600000Y-77200000D01*
X34940000Y-70940000D02*
X34900000Y-70940000D01*
X54500066Y-130200066D02*
X51099934Y-126799934D01*
X39100000Y-87700000D02*
X39100000Y-75100000D01*
X51099934Y-126799934D02*
X51099934Y-122999934D01*
X51099934Y-122999934D02*
X45199956Y-117099956D01*
X51200066Y-91400065D02*
X48000000Y-88200000D01*
X45199956Y-117099956D02*
X45199956Y-110300044D01*
X182040066Y-130200066D02*
X54500066Y-130200066D01*
X39600000Y-88200000D02*
X39100000Y-87700000D01*
X188000000Y-136160000D02*
X182040066Y-130200066D01*
X45199956Y-110300044D02*
X51200066Y-104299934D01*
X51200066Y-104299934D02*
X51200066Y-91400065D01*
X48000000Y-88200000D02*
X39600000Y-88200000D01*
X39100000Y-75100000D02*
X34940000Y-70940000D01*
X69960000Y-53540000D02*
X70000000Y-53540000D01*
X65800000Y-57700000D02*
X69960000Y-53540000D01*
X65800000Y-80600000D02*
X65800000Y-57700000D01*
X79500000Y-89100000D02*
X74300000Y-89100000D01*
X81240000Y-90840000D02*
X79500000Y-89100000D01*
X74300000Y-89100000D02*
X65800000Y-80600000D01*
X83000000Y-90840000D02*
X81240000Y-90840000D01*
X66300000Y-59700000D02*
X69920000Y-56080000D01*
X66300000Y-80400000D02*
X66300000Y-59700000D01*
X74500000Y-88600000D02*
X66300000Y-80400000D01*
X102600000Y-88600000D02*
X74500000Y-88600000D01*
X104840000Y-90840000D02*
X102600000Y-88600000D01*
X69920000Y-56080000D02*
X70000000Y-56080000D01*
X105000000Y-90840000D02*
X104840000Y-90840000D01*
X127000000Y-90840000D02*
X125260000Y-89100000D01*
X125260000Y-89100000D02*
X103800000Y-89100000D01*
X74700000Y-88100000D02*
X66800000Y-80200000D01*
X103800000Y-89100000D02*
X102800000Y-88100000D01*
X102800000Y-88100000D02*
X74700000Y-88100000D01*
X66800000Y-80200000D02*
X66800000Y-61800000D01*
X66800000Y-61800000D02*
X69980000Y-58620000D01*
X69980000Y-58620000D02*
X70000000Y-58620000D01*
X149000000Y-90840000D02*
X146760000Y-88600000D01*
X146760000Y-88600000D02*
X104000000Y-88600000D01*
X104000000Y-88600000D02*
X103000000Y-87600000D01*
X67300000Y-63800000D02*
X69940000Y-61160000D01*
X103000000Y-87600000D02*
X74900000Y-87600000D01*
X74900000Y-87600000D02*
X67300000Y-80000000D01*
X67300000Y-80000000D02*
X67300000Y-63800000D01*
X69940000Y-61160000D02*
X70000000Y-61160000D01*
X171000000Y-90840000D02*
X168260000Y-88100000D01*
X168260000Y-88100000D02*
X104200000Y-88100000D01*
X75100000Y-87100000D02*
X67800000Y-79800000D01*
X104200000Y-88100000D02*
X103200000Y-87100000D01*
X67800000Y-65800000D02*
X69900000Y-63700000D01*
X103200000Y-87100000D02*
X75100000Y-87100000D01*
X67800000Y-79800000D02*
X67800000Y-65800000D01*
X69900000Y-63700000D02*
X70000000Y-63700000D01*
X193000000Y-90840000D02*
X189760000Y-87600000D01*
X189760000Y-87600000D02*
X104400000Y-87600000D01*
X104400000Y-87600000D02*
X103400000Y-86600000D01*
X68300000Y-67900000D02*
X69960000Y-66240000D01*
X103400000Y-86600000D02*
X75300000Y-86600000D01*
X75300000Y-86600000D02*
X68300000Y-79600000D01*
X68300000Y-79600000D02*
X68300000Y-67900000D01*
X69960000Y-66240000D02*
X70000000Y-66240000D01*
X47200000Y-51200000D02*
X42500000Y-46500000D01*
X47200000Y-70700000D02*
X47200000Y-51200000D01*
X54500000Y-119340000D02*
X54500000Y-78000000D01*
X54500000Y-78000000D02*
X47200000Y-70700000D01*
X61000000Y-125840000D02*
X54500000Y-119340000D01*
X46700000Y-53200000D02*
X42540000Y-49040000D01*
X46700000Y-71000000D02*
X46700000Y-53200000D01*
X54000000Y-78300000D02*
X46700000Y-71000000D01*
X54000000Y-105700000D02*
X54000000Y-78300000D01*
X47900022Y-111799978D02*
X54000000Y-105700000D01*
X47900022Y-115700022D02*
X47900022Y-111799978D01*
X53900000Y-125400000D02*
X53900000Y-121700000D01*
X56000000Y-127500000D02*
X53900000Y-125400000D01*
X81840000Y-127500000D02*
X56000000Y-127500000D01*
X42540000Y-49040000D02*
X42500000Y-49040000D01*
X53900000Y-121700000D02*
X47900022Y-115700022D01*
X83500000Y-125840000D02*
X81840000Y-127500000D01*
X46200000Y-71300000D02*
X46200000Y-55300000D01*
X53500000Y-78600000D02*
X46200000Y-71300000D01*
X47450011Y-111549989D02*
X53500000Y-105500000D01*
X53400000Y-121836411D02*
X47450011Y-115886422D01*
X42500000Y-51600000D02*
X42500000Y-51580000D01*
X46200000Y-55300000D02*
X42500000Y-51600000D01*
X47450011Y-115886422D02*
X47450011Y-111549989D01*
X53400000Y-125600000D02*
X53400000Y-121836411D01*
X102889989Y-127950011D02*
X55750011Y-127950011D01*
X53500000Y-105500000D02*
X53500000Y-78600000D01*
X55750011Y-127950011D02*
X53400000Y-125600000D01*
X105000000Y-125840000D02*
X102889989Y-127950011D01*
X42520000Y-54120000D02*
X42500000Y-54120000D01*
X45700000Y-57300000D02*
X42520000Y-54120000D01*
X45700000Y-71554356D02*
X45700000Y-57300000D01*
X53000110Y-78854466D02*
X45700000Y-71554356D01*
X53000110Y-105299890D02*
X53000110Y-78854466D01*
X47000000Y-111300000D02*
X53000110Y-105299890D01*
X47000000Y-116100000D02*
X47000000Y-111300000D01*
X52899978Y-121999978D02*
X47000000Y-116100000D01*
X52899978Y-125799978D02*
X52899978Y-121999978D01*
X55500022Y-128400022D02*
X52899978Y-125799978D01*
X124439978Y-128400022D02*
X55500022Y-128400022D01*
X127000000Y-125840000D02*
X124439978Y-128400022D01*
X45200000Y-71690768D02*
X45200000Y-59300000D01*
X45200000Y-59300000D02*
X42560000Y-56660000D01*
X52550099Y-79040867D02*
X45200000Y-71690768D01*
X46549989Y-111050011D02*
X52550099Y-105049901D01*
X52449967Y-122249967D02*
X46549989Y-116349989D01*
X42560000Y-56660000D02*
X42500000Y-56660000D01*
X52550099Y-105049901D02*
X52550099Y-79040867D01*
X55250033Y-128850033D02*
X52449967Y-126049967D01*
X146489967Y-128850033D02*
X55250033Y-128850033D01*
X46549989Y-116349989D02*
X46549989Y-111050011D01*
X52449967Y-126049967D02*
X52449967Y-122249967D01*
X149500000Y-125840000D02*
X146489967Y-128850033D01*
X44700000Y-61400000D02*
X42500000Y-59200000D01*
X52100088Y-79227266D02*
X44700000Y-71827178D01*
X44700000Y-71827178D02*
X44700000Y-61400000D01*
X52100088Y-104799912D02*
X52100088Y-79227266D01*
X46099978Y-110800022D02*
X52100088Y-104799912D01*
X46099978Y-116599978D02*
X46099978Y-110800022D01*
X51999956Y-122499956D02*
X46099978Y-116599978D01*
X51999956Y-126299956D02*
X51999956Y-122499956D01*
X55000044Y-129300044D02*
X51999956Y-126299956D01*
X168039956Y-129300044D02*
X55000044Y-129300044D01*
X171500000Y-125840000D02*
X168039956Y-129300044D01*
X42540000Y-61740000D02*
X42500000Y-61740000D01*
X44200000Y-71963590D02*
X44200000Y-63400000D01*
X51650077Y-79413667D02*
X44200000Y-71963590D01*
X45649967Y-116849967D02*
X45649967Y-110550033D01*
X51549945Y-122749945D02*
X45649967Y-116849967D01*
X51549945Y-126549945D02*
X51549945Y-122749945D01*
X54750055Y-129750055D02*
X51549945Y-126549945D01*
X51650077Y-104549923D02*
X51650077Y-79413667D01*
X45649967Y-110550033D02*
X51650077Y-104549923D01*
X188589945Y-129750055D02*
X54750055Y-129750055D01*
X44200000Y-63400000D02*
X42540000Y-61740000D01*
X192500000Y-125840000D02*
X188589945Y-129750055D01*
X95000000Y-68540000D02*
X97540000Y-66000000D01*
X95000000Y-74840000D02*
X95000000Y-68540000D01*
X127000000Y-68540000D02*
X129540000Y-66000000D01*
X127000000Y-74840000D02*
X127000000Y-68540000D01*
X159000000Y-69540000D02*
X162540000Y-66000000D01*
X159000000Y-74840000D02*
X159000000Y-69540000D01*
X149000000Y-77585787D02*
X149000000Y-79000000D01*
X149000000Y-73264998D02*
X149000000Y-77585787D01*
X141735002Y-66000000D02*
X149000000Y-73264998D01*
X139000000Y-66000000D02*
X141735002Y-66000000D01*
X167674999Y-68126003D02*
X167674999Y-61125001D01*
X166999999Y-52460001D02*
X166000000Y-53460000D01*
X167325001Y-52134999D02*
X166999999Y-52460001D01*
X169634999Y-52134999D02*
X167325001Y-52134999D01*
X170700000Y-58100000D02*
X170700000Y-53200000D01*
X170700000Y-53200000D02*
X169634999Y-52134999D01*
X156801002Y-79000000D02*
X167674999Y-68126003D01*
X167674999Y-61125001D02*
X170700000Y-58100000D01*
X149000000Y-79000000D02*
X156801002Y-79000000D01*
X170200000Y-55120000D02*
X169539999Y-54459999D01*
X169539999Y-54459999D02*
X168540000Y-53460000D01*
X170200000Y-57900000D02*
X170200000Y-55120000D01*
X166800000Y-61300000D02*
X170200000Y-57900000D01*
X158200000Y-61300000D02*
X166800000Y-61300000D01*
X153500000Y-66000000D02*
X158200000Y-61300000D01*
X139000000Y-74000000D02*
X149000000Y-84000000D01*
X139000000Y-71000000D02*
X139000000Y-74000000D01*
X168500000Y-56000000D02*
X168540000Y-56000000D01*
X164100000Y-60400000D02*
X168500000Y-56000000D01*
X140800000Y-60400000D02*
X164100000Y-60400000D01*
X137300000Y-63900000D02*
X140800000Y-60400000D01*
X137300000Y-69300000D02*
X137300000Y-63900000D01*
X139000000Y-71000000D02*
X137300000Y-69300000D01*
X172700000Y-52500000D02*
X170534955Y-50334955D01*
X170534955Y-50334955D02*
X158965045Y-50334955D01*
X158965045Y-50334955D02*
X156839999Y-52460001D01*
X172700000Y-75261002D02*
X172700000Y-52500000D01*
X162961002Y-85000000D02*
X172700000Y-75261002D01*
X159000000Y-85000000D02*
X162961002Y-85000000D01*
X156839999Y-52460001D02*
X155840000Y-53460000D01*
X160100000Y-59400000D02*
X163460000Y-56040000D01*
X140400000Y-59400000D02*
X160100000Y-59400000D01*
X163460000Y-56040000D02*
X163500000Y-56040000D01*
X136300000Y-63500000D02*
X140400000Y-59400000D01*
X127000000Y-84800000D02*
X136300000Y-75500000D01*
X163500000Y-56040000D02*
X163460000Y-56000000D01*
X136300000Y-75500000D02*
X136300000Y-63500000D01*
X127000000Y-85000000D02*
X127000000Y-84800000D01*
X107000000Y-74000000D02*
X117000000Y-84000000D01*
X107000000Y-71000000D02*
X107000000Y-74000000D01*
X158000000Y-58900000D02*
X160900000Y-56000000D01*
X160900000Y-56000000D02*
X160920000Y-56000000D01*
X140236410Y-58900000D02*
X158000000Y-58900000D01*
X135800000Y-63336410D02*
X140236410Y-58900000D01*
X135800000Y-73900000D02*
X135800000Y-63336410D01*
X125700000Y-84000000D02*
X135800000Y-73900000D01*
X117000000Y-84000000D02*
X125700000Y-84000000D01*
X133200000Y-62500000D02*
X125000000Y-62500000D01*
X125000000Y-62500000D02*
X121500000Y-66000000D01*
X142240000Y-53460000D02*
X133200000Y-62500000D01*
X150760000Y-53460000D02*
X142240000Y-53460000D01*
X117000000Y-77585787D02*
X117000000Y-79000000D01*
X117000000Y-73264998D02*
X117000000Y-77585787D01*
X109735002Y-66000000D02*
X117000000Y-73264998D01*
X107000000Y-66000000D02*
X109735002Y-66000000D01*
X153300000Y-56500000D02*
X153300000Y-56000000D01*
X152400000Y-57400000D02*
X153300000Y-56500000D01*
X139700000Y-57400000D02*
X152400000Y-57400000D01*
X134300000Y-62800000D02*
X139700000Y-57400000D01*
X134300000Y-70100000D02*
X134300000Y-62800000D01*
X125400000Y-79000000D02*
X134300000Y-70100000D01*
X117000000Y-79000000D02*
X125400000Y-79000000D01*
X133399999Y-74300001D02*
X133000000Y-74700000D01*
X135300000Y-72400000D02*
X133399999Y-74300001D01*
X140100000Y-58400000D02*
X135300000Y-63200000D01*
X155980000Y-58400000D02*
X140100000Y-58400000D01*
X158380000Y-56000000D02*
X155980000Y-58400000D01*
X135300000Y-63200000D02*
X135300000Y-72400000D01*
X75000000Y-74000000D02*
X85000000Y-84000000D01*
X75000000Y-71000000D02*
X75000000Y-74000000D01*
X153900000Y-57900000D02*
X155800000Y-56000000D01*
X155800000Y-56000000D02*
X155840000Y-56000000D01*
X139900000Y-57900000D02*
X153900000Y-57900000D01*
X134800000Y-63000000D02*
X139900000Y-57900000D01*
X134800000Y-70900000D02*
X134800000Y-63000000D01*
X132000000Y-73700000D02*
X134800000Y-70900000D01*
X140600000Y-59900000D02*
X162100000Y-59900000D01*
X136800000Y-63700000D02*
X140600000Y-59900000D01*
X136800000Y-73100000D02*
X136800000Y-63700000D01*
X162100000Y-59900000D02*
X166000000Y-56000000D01*
X140900000Y-77200000D02*
X136800000Y-73100000D01*
X140900000Y-85000000D02*
X140900000Y-77200000D01*
X138800000Y-87100000D02*
X140900000Y-85000000D01*
X104600000Y-87100000D02*
X138800000Y-87100000D01*
X91900000Y-74400000D02*
X104600000Y-87100000D01*
X91900000Y-68400000D02*
X91900000Y-74400000D01*
X89500000Y-66000000D02*
X91900000Y-68400000D01*
X83600000Y-79000000D02*
X85000000Y-79000000D01*
X77100000Y-72500000D02*
X83600000Y-79000000D01*
X77100000Y-68400000D02*
X77100000Y-72500000D01*
X75000000Y-66300000D02*
X77100000Y-68400000D01*
X75000000Y-66000000D02*
X75000000Y-66300000D01*
X130599999Y-72000001D02*
X130200000Y-72400000D01*
X133800000Y-68800000D02*
X130599999Y-72000001D01*
X133800000Y-62600000D02*
X133800000Y-68800000D01*
X150760000Y-56000000D02*
X140400000Y-56000000D01*
X140400000Y-56000000D02*
X133800000Y-62600000D01*
X200300000Y-67240000D02*
X200350000Y-67190000D01*
X200300000Y-69400000D02*
X200300000Y-67240000D01*
X198200000Y-71500000D02*
X200300000Y-69400000D01*
X184660000Y-71500000D02*
X198200000Y-71500000D01*
X179160000Y-77000000D02*
X184660000Y-71500000D01*
X159379999Y-52460001D02*
X158380000Y-53460000D01*
X169000000Y-77000000D02*
X172200000Y-73800000D01*
X161055034Y-50784966D02*
X159379999Y-52460001D01*
X170284966Y-50784966D02*
X161055034Y-50784966D01*
X172200000Y-73800000D02*
X172200000Y-52700000D01*
X172200000Y-52700000D02*
X170284966Y-50784966D01*
X189920000Y-70000000D02*
X192730000Y-67190000D01*
X181160000Y-70000000D02*
X189920000Y-70000000D01*
X179160000Y-72000000D02*
X181160000Y-70000000D01*
X163145023Y-51234977D02*
X161919999Y-52460001D01*
X161919999Y-52460001D02*
X160920000Y-53460000D01*
X170034977Y-51234977D02*
X163145023Y-51234977D01*
X171700000Y-69300000D02*
X171700000Y-52900000D01*
X171700000Y-52900000D02*
X170034977Y-51234977D01*
X169000000Y-72000000D02*
X171700000Y-69300000D01*
X189237501Y-68142499D02*
X190190000Y-67190000D01*
X188380000Y-69000000D02*
X189237501Y-68142499D01*
X181160000Y-69000000D02*
X188380000Y-69000000D01*
X179160000Y-67000000D02*
X181160000Y-69000000D01*
X171200000Y-64800000D02*
X171200000Y-53063589D01*
X169821399Y-51684988D02*
X165235012Y-51684988D01*
X171200000Y-53063589D02*
X169821399Y-51684988D01*
X169000000Y-67000000D02*
X171200000Y-64800000D01*
X164459999Y-52460001D02*
X163460000Y-53460000D01*
X165235012Y-51684988D02*
X164459999Y-52460001D01*
X190000000Y-56120000D02*
X190080000Y-56040000D01*
X190000000Y-64840000D02*
X190000000Y-56120000D01*
X187650000Y-67190000D02*
X190000000Y-64840000D01*
X195300000Y-67160000D02*
X195270000Y-67190000D01*
X195300000Y-59100000D02*
X195300000Y-67160000D01*
X192600000Y-56400000D02*
X195300000Y-59100000D01*
X192600000Y-56060000D02*
X192600000Y-56400000D01*
X192620000Y-56040000D02*
X192600000Y-56060000D01*
X195160000Y-56060000D02*
X195160000Y-56040000D01*
X197800000Y-58700000D02*
X195160000Y-56060000D01*
X197800000Y-67180000D02*
X197800000Y-58700000D01*
X197810000Y-67190000D02*
X197800000Y-67180000D01*
X188539999Y-52500001D02*
X187540000Y-53500000D01*
X190240000Y-50800000D02*
X188539999Y-52500001D01*
X196300000Y-50800000D02*
X190240000Y-50800000D01*
X203800000Y-58300000D02*
X196300000Y-50800000D01*
X203800000Y-68820000D02*
X203800000Y-58300000D01*
X197810000Y-74810000D02*
X203800000Y-68820000D01*
X191079999Y-52500001D02*
X190080000Y-53500000D01*
X192272000Y-51308000D02*
X191079999Y-52500001D01*
X196108000Y-51308000D02*
X192272000Y-51308000D01*
X203300000Y-58500000D02*
X196108000Y-51308000D01*
X203300000Y-68600000D02*
X203300000Y-58500000D01*
X198900000Y-73000000D02*
X203300000Y-68600000D01*
X197080000Y-73000000D02*
X198900000Y-73000000D01*
X195270000Y-74810000D02*
X197080000Y-73000000D01*
X154299999Y-52460001D02*
X153300000Y-53460000D01*
X173200000Y-52300000D02*
X170784944Y-49884944D01*
X156875056Y-49884944D02*
X154299999Y-52460001D01*
X173200000Y-73001002D02*
X173200000Y-52300000D01*
X170784944Y-49884944D02*
X156875056Y-49884944D01*
X178698998Y-78500000D02*
X173200000Y-73001002D01*
X189040000Y-78500000D02*
X178698998Y-78500000D01*
X192730000Y-74810000D02*
X189040000Y-78500000D01*
X193619999Y-52500001D02*
X192620000Y-53500000D01*
X195916000Y-51816000D02*
X194304000Y-51816000D01*
X202800000Y-68400000D02*
X202800000Y-58700000D01*
X198700000Y-72500000D02*
X202800000Y-68400000D01*
X192500000Y-72500000D02*
X198700000Y-72500000D01*
X194304000Y-51816000D02*
X193619999Y-52500001D01*
X202800000Y-58700000D02*
X195916000Y-51816000D01*
X190190000Y-74810000D02*
X192500000Y-72500000D01*
X187650000Y-73607500D02*
X187650000Y-74810000D01*
X198500000Y-72000000D02*
X189257500Y-72000000D01*
X189257500Y-72000000D02*
X187650000Y-73607500D01*
X202300000Y-60640000D02*
X202300000Y-68200000D01*
X202300000Y-68200000D02*
X198500000Y-72000000D01*
X195160000Y-53500000D02*
X202300000Y-60640000D01*
M02*
